<svg width="315" height="787" viewBox="0 0 315 787" fill="none" xmlns="http://www.w3.org/2000/svg">
<path d="M312.332 170.54C315.428 161.998 315.428 152.657 312.332 144.053L269.85 26.0575C264.214 10.4477 249.29 0.000244141 232.507 0.000244141L82.1472 0.000244141C65.4267 0.000244141 50.4402 10.4477 44.8048 26.119L2.32253 144.114C-0.773851 152.657 -0.773851 161.998 2.32253 170.602L44.8048 288.597C50.4402 304.207 65.3648 314.654 82.1472 314.654L232.507 314.654C249.228 314.654 264.214 304.207 269.85 288.536L312.332 170.54ZM274.99 157.327L236.595 264.076L198.199 157.327L236.595 50.5784L274.99 157.327ZM46.7246 137.661L82.0853 39.332H198.509L163.148 137.661L46.7246 137.661Z" fill="white"/>
<path d="M312.332 328.232C315.428 319.69 315.428 310.349 312.332 301.745L269.85 183.749C264.214 168.14 249.29 157.692 232.507 157.692L82.1472 157.692C65.4267 157.692 50.4402 168.14 44.8048 183.811L2.32253 301.806C-0.773851 310.349 -0.773851 319.69 2.32253 328.294L44.8048 446.289C50.4402 461.899 65.3648 472.346 82.1472 472.346L232.507 472.346C249.228 472.346 264.214 461.899 269.85 446.227L312.332 328.232ZM274.99 315.019L236.595 421.768L198.199 315.019L236.595 208.27L274.99 315.019ZM46.7246 295.353L82.0853 197.024H198.509L163.148 295.353L46.7246 295.353Z" fill="white" fill-opacity="0.75"/>
<path d="M312.332 485.924C315.428 477.382 315.428 468.04 312.332 459.437L269.85 341.441C264.214 325.832 249.29 315.384 232.507 315.384L82.1472 315.384C65.4267 315.384 50.4402 325.832 44.8048 341.503L2.32253 459.498C-0.773851 468.04 -0.773851 477.382 2.32253 485.986L44.8048 603.981C50.4402 619.591 65.3648 630.038 82.1472 630.038L232.507 630.038C249.228 630.038 264.214 619.591 269.85 603.919L312.332 485.924ZM274.99 472.711L236.595 579.46L198.199 472.711L236.595 365.962L274.99 472.711ZM46.7246 453.045L82.0853 354.716H198.509L163.148 453.045L46.7246 453.045Z" fill="white" fill-opacity="0.5"/>
<path d="M312.332 642.886C315.428 634.344 315.428 625.003 312.332 616.399L269.85 498.404C264.214 482.794 249.29 472.346 232.507 472.346L82.1472 472.346C65.4267 472.346 50.4402 482.794 44.8048 498.465L2.32253 616.46C-0.773851 625.003 -0.773851 634.344 2.32253 642.948L44.8048 760.943C50.4402 776.553 65.3648 787 82.1472 787L232.507 787C249.228 787 264.214 776.553 269.85 760.882L312.332 642.886ZM274.99 629.673L236.595 736.422L198.199 629.673L236.595 522.925L274.99 629.673ZM46.7246 610.008L82.0853 511.678H198.509L163.148 610.008L46.7246 610.008Z" fill="white" fill-opacity="0.25"/>
</svg>
