<svg width="123" height="108" viewBox="0 0 123 108" fill="none" xmlns="http://www.w3.org/2000/svg">
<path d="M37.0083 94.5605L36.2552 94.2872L35.6093 94.7611C32.8362 96.7957 28.2721 99.6078 22.8534 101.972C17.1822 104.438 10.4558 106.5 3.85065 106.5C2.90324 106.5 2.05181 105.932 1.68073 105.038C1.31637 104.161 1.5138 103.16 2.18104 102.471C2.18277 102.469 2.1845 102.468 2.18624 102.466L2.24677 102.405C2.32762 102.324 2.44895 102.202 2.6202 102.003C2.89883 101.697 3.32109 101.222 3.83854 100.58C4.8633 99.3252 6.22431 97.4859 7.60746 95.2056L7.611 95.1997C10.0874 91.0743 12.4811 85.5929 12.9612 79.3799L13.0099 78.749L12.5921 78.2738C5.5961 70.3169 1.50712 60.6074 1.50712 50.1429C1.50712 23.5439 28.0641 1.5 61.5036 1.5C94.9431 1.5 121.5 23.5439 121.5 50.1429C121.5 76.7418 94.9431 98.7857 61.5036 98.7857C52.7643 98.7857 44.4818 97.2728 37.0083 94.5605Z" stroke="black" stroke-width="3"/>
</svg>
