<svg width="135" height="90" viewBox="0 0 135 90" fill="none" xmlns="http://www.w3.org/2000/svg">
<path d="M30 76.5H31.5V75C31.5 65.8981 24.1019 58.5 15 58.5H13.5V60V75V76.5H15H30ZM13.5 30V31.5H15C24.1019 31.5 31.5 24.1019 31.5 15V13.5H30H15H13.5V15V30ZM103.5 75V76.5H105H120H121.5V75V60V58.5H120C110.898 58.5 103.5 65.8981 103.5 75ZM120 31.5H121.5V30V15V13.5H120H105H103.5V15C103.5 24.1019 110.898 31.5 120 31.5ZM1.5 15C1.5 7.55499 7.55499 1.5 15 1.5H120C127.445 1.5 133.5 7.55499 133.5 15V75C133.5 82.445 127.445 88.5 120 88.5H15C7.55499 88.5 1.5 82.445 1.5 75V15ZM84.4706 28.0294C79.9697 23.5286 73.8652 21 67.5 21C61.1348 21 55.0303 23.5286 50.5294 28.0294C46.0286 32.5303 43.5 38.6348 43.5 45C43.5 51.3652 46.0286 57.4697 50.5294 61.9706C55.0303 66.4714 61.1348 69 67.5 69C73.8652 69 79.9697 66.4714 84.4706 61.9706C88.9714 57.4697 91.5 51.3652 91.5 45C91.5 38.6348 88.9714 32.5303 84.4706 28.0294Z" stroke="white" stroke-width="3"/>
</svg>
