<svg width="148" height="115" viewBox="0 0 148 115" fill="none" xmlns="http://www.w3.org/2000/svg">
<path d="M25.5195 21.6446L25.521 21.6432C37.4333 10.655 53.7098 1.5 73.9872 1.5C94.2645 1.5 110.541 10.655 122.453 21.6432L122.455 21.6446C134.302 32.5423 142.227 45.6088 145.982 54.5327L145.982 54.5331C146.673 56.1741 146.673 57.997 145.982 59.638L145.982 59.6384C142.227 68.5613 134.303 81.6032 122.454 92.5277L122.453 92.528C110.541 103.516 94.2645 112.671 73.9872 112.671C53.7098 112.671 37.4333 103.516 25.521 92.528L25.5195 92.5266C13.672 81.6286 5.74833 68.5628 2.01988 59.6418L2.0183 59.638C1.32723 57.997 1.32723 56.1741 2.01831 54.5331L2.01987 54.5294C5.74833 45.6084 13.672 32.5426 25.5195 21.6446ZM51.593 63.0151L51.5931 63.0151L51.5901 63.0045C51.1359 61.3682 50.8946 59.7262 50.8216 58.0739C50.8191 57.9726 50.8531 57.863 51.0405 57.7521C51.2556 57.6247 51.5734 57.5765 51.8655 57.6713C53.6478 58.2513 55.551 58.5856 57.5441 58.5856C67.4304 58.5856 75.4872 50.6114 75.4872 40.7754C75.4872 38.7958 75.1499 36.9058 74.5652 35.1364C74.4688 34.8354 74.5215 34.5311 74.6412 34.3332C74.7442 34.1629 74.8552 34.1161 74.9845 34.1193C84.834 34.5289 93.681 41.2117 96.3556 51.1304L96.3556 51.1306C99.6568 63.3682 92.3339 75.9795 79.974 79.26C67.6072 82.5424 54.8948 75.255 51.593 63.0151ZM46.7701 30.0713C39.5493 37.2339 35.4904 46.9509 35.4904 57.0856C35.4904 67.2202 39.5493 76.9373 46.7701 84.0999C53.9906 91.262 63.7811 95.2835 73.9872 95.2835C84.1932 95.2835 93.9837 91.262 101.204 84.0999C108.425 76.9373 112.484 67.2202 112.484 57.0856C112.484 46.9509 108.425 37.2339 101.204 30.0713C93.9837 22.9092 84.1932 18.8877 73.9872 18.8877C63.7811 18.8877 53.9906 22.9092 46.7701 30.0713Z" stroke="white" stroke-width="3"/>
</svg>
