<svg width="168" height="58" viewBox="0 0 168 58" fill="none" xmlns="http://www.w3.org/2000/svg">
<mask id="path-1-outside-1_239_245" maskUnits="userSpaceOnUse" x="-1" y="6" width="143" height="18" fill="black">
<rect fill="white" x="-1" y="6" width="143" height="18"/>
<path d="M11.84 7.96L11.36 10.66H5.64L5.12 13.68H9.4L8.92 16.28H4.64L3.64 22H0.22L2.7 7.96H11.84ZM24.1375 10.84L22.1775 22H18.7575L19.0175 20.48C18.5775 20.9733 18.0375 21.3733 17.3975 21.68C16.7708 21.9733 16.0975 22.12 15.3775 22.12C14.2575 22.12 13.3775 21.8067 12.7375 21.18C12.0975 20.54 11.7775 19.6533 11.7775 18.52C11.7775 18.0933 11.8108 17.7067 11.8775 17.36L13.0375 10.84H16.4375L15.3775 16.9C15.3375 17.1133 15.3175 17.32 15.3175 17.52C15.3175 18.08 15.4708 18.5133 15.7775 18.82C16.0975 19.1133 16.5375 19.26 17.0975 19.26C17.7375 19.26 18.2775 19.0733 18.7175 18.7C19.1708 18.3133 19.4708 17.7667 19.6175 17.06L20.7175 10.84H24.1375ZM33.4141 10.72C34.5341 10.72 35.4141 11.0333 36.0541 11.66C36.6941 12.2867 37.0141 13.16 37.0141 14.28C37.0141 14.6533 36.9741 15.0533 36.8941 15.48L35.7341 22H32.3341L33.4141 15.94C33.4541 15.7133 33.4741 15.5133 33.4741 15.34C33.4741 14.78 33.3141 14.3467 32.9941 14.04C32.6874 13.7333 32.2541 13.58 31.6941 13.58C31.0274 13.58 30.4674 13.7867 30.0141 14.2C29.5607 14.6133 29.2674 15.1933 29.1341 15.94V15.84L28.0541 22H24.6341L26.5941 10.84H30.0141L29.7541 12.34C30.1941 11.8467 30.7274 11.4533 31.3541 11.16C31.9941 10.8667 32.6807 10.72 33.4141 10.72ZM38.4306 16.4C38.6306 15.2533 39.024 14.2467 39.6106 13.38C40.1973 12.5133 40.904 11.8467 41.7306 11.38C42.5573 10.9133 43.4306 10.68 44.3506 10.68C45.084 10.68 45.724 10.8333 46.2706 11.14C46.8306 11.4467 47.2373 11.86 47.4906 12.38L48.4106 7.2H51.8306L49.2106 22H45.7906L46.0706 20.4C45.644 20.9333 45.1106 21.36 44.4706 21.68C43.8306 22 43.1173 22.16 42.3306 22.16C41.544 22.16 40.844 21.98 40.2306 21.62C39.6306 21.26 39.1573 20.7467 38.8106 20.08C38.4773 19.4133 38.3106 18.6333 38.3106 17.74C38.3106 17.3267 38.3506 16.88 38.4306 16.4ZM46.7906 16.42C46.8306 16.18 46.8506 15.96 46.8506 15.76C46.8506 15.1067 46.6573 14.5933 46.2706 14.22C45.8973 13.8467 45.4173 13.66 44.8306 13.66C44.1506 13.66 43.5306 13.9067 42.9706 14.4C42.4106 14.88 42.0573 15.5467 41.9106 16.4C41.8706 16.64 41.8506 16.86 41.8506 17.06C41.8506 17.7133 42.0373 18.2333 42.4106 18.62C42.7973 18.9933 43.2773 19.18 43.8506 19.18C44.5306 19.18 45.1506 18.9333 45.7106 18.44C46.2706 17.9467 46.6306 17.2733 46.7906 16.42ZM52.0048 16.4C52.2048 15.2533 52.5982 14.2467 53.1848 13.38C53.7715 12.5133 54.4782 11.8467 55.3048 11.38C56.1315 10.9133 57.0048 10.68 57.9248 10.68C58.7115 10.68 59.3715 10.84 59.9048 11.16C60.4382 11.48 60.8248 11.9 61.0648 12.42L61.3448 10.84H64.7648L62.7848 22H59.3648L59.6648 20.42C59.2382 20.94 58.6982 21.36 58.0448 21.68C57.3915 22 56.6715 22.16 55.8848 22.16C55.0982 22.16 54.3982 21.98 53.7848 21.62C53.1848 21.26 52.7182 20.7533 52.3848 20.1C52.0515 19.4333 51.8848 18.6533 51.8848 17.76C51.8848 17.3333 51.9248 16.88 52.0048 16.4ZM60.3648 16.42C60.4048 16.18 60.4248 15.96 60.4248 15.76C60.4248 15.1067 60.2315 14.5933 59.8448 14.22C59.4715 13.8467 58.9915 13.66 58.4048 13.66C57.7248 13.66 57.1048 13.9067 56.5448 14.4C55.9848 14.88 55.6315 15.5467 55.4848 16.4C55.4448 16.64 55.4248 16.86 55.4248 17.06C55.4248 17.7133 55.6115 18.2333 55.9848 18.62C56.3715 18.9933 56.8515 19.18 57.4248 19.18C58.1048 19.18 58.7248 18.9333 59.2848 18.44C59.8448 17.9467 60.2048 17.2733 60.3648 16.42ZM81.4991 10.72C82.6991 10.72 83.6324 11.04 84.2991 11.68C84.9791 12.3067 85.3191 13.1867 85.3191 14.32C85.3191 14.6667 85.2791 15.0533 85.1991 15.48L84.0391 22H80.6391L81.7191 15.94C81.7457 15.8067 81.7591 15.6267 81.7591 15.4C81.7591 14.84 81.5991 14.4133 81.2791 14.12C80.9724 13.8267 80.5391 13.68 79.9791 13.68C79.3124 13.68 78.7524 13.88 78.2991 14.28C77.8457 14.6667 77.5591 15.22 77.4391 15.94L76.3591 22H72.9591L74.0391 15.94C74.0657 15.8067 74.0791 15.6267 74.0791 15.4C74.0791 14.84 73.9191 14.4133 73.5991 14.12C73.2924 13.8267 72.8591 13.68 72.2991 13.68C71.6324 13.68 71.0724 13.88 70.6191 14.28C70.1657 14.6667 69.8791 15.22 69.7591 15.94V15.84L68.6791 22H65.2591L67.2191 10.84H70.6391L70.3991 12.26C70.8257 11.78 71.3391 11.4067 71.9391 11.14C72.5524 10.86 73.2124 10.72 73.9191 10.72C74.7724 10.72 75.4924 10.9 76.0791 11.26C76.6791 11.62 77.1057 12.14 77.3591 12.82C77.8524 12.1933 78.4657 11.6867 79.1991 11.3C79.9324 10.9133 80.6991 10.72 81.4991 10.72ZM93.3909 10.68C94.8309 10.68 95.9709 11.0733 96.8109 11.86C97.6643 12.6333 98.0909 13.6933 98.0909 15.04C98.0909 15.48 98.0576 15.8733 97.9909 16.22C97.9376 16.5267 97.8576 16.8533 97.7509 17.2H90.0109C89.9976 17.28 89.9909 17.4067 89.9909 17.58C89.9909 18.1667 90.1509 18.6133 90.4709 18.92C90.7909 19.2267 91.2176 19.38 91.7509 19.38C92.6043 19.38 93.2576 19.02 93.7109 18.3H97.3509C96.8709 19.4333 96.0909 20.36 95.0109 21.08C93.9309 21.8 92.7176 22.16 91.3709 22.16C89.9309 22.16 88.7776 21.76 87.9109 20.96C87.0576 20.16 86.6309 19.0733 86.6309 17.7C86.6309 17.2867 86.6709 16.86 86.7509 16.42C86.9509 15.26 87.3643 14.2467 87.9909 13.38C88.6176 12.5133 89.3976 11.8467 90.3309 11.38C91.2643 10.9133 92.2843 10.68 93.3909 10.68ZM94.6309 15.46C94.6576 15.2733 94.6709 15.1467 94.6709 15.08C94.6709 14.5467 94.5043 14.14 94.1709 13.86C93.8376 13.5667 93.3976 13.42 92.8509 13.42C92.2643 13.42 91.7443 13.6 91.2909 13.96C90.8509 14.3067 90.5309 14.8067 90.3309 15.46H94.6309ZM107.535 10.72C108.655 10.72 109.535 11.0333 110.175 11.66C110.815 12.2867 111.135 13.16 111.135 14.28C111.135 14.6533 111.095 15.0533 111.015 15.48L109.855 22H106.455L107.535 15.94C107.575 15.7133 107.595 15.5133 107.595 15.34C107.595 14.78 107.435 14.3467 107.115 14.04C106.808 13.7333 106.375 13.58 105.815 13.58C105.148 13.58 104.588 13.7867 104.135 14.2C103.682 14.6133 103.388 15.1933 103.255 15.94V15.84L102.175 22H98.7552L100.715 10.84H104.135L103.875 12.34C104.315 11.8467 104.848 11.4533 105.475 11.16C106.115 10.8667 106.802 10.72 107.535 10.72ZM116.872 18.16C116.858 18.2267 116.852 18.3133 116.852 18.42C116.852 18.66 116.918 18.8333 117.052 18.94C117.198 19.0467 117.432 19.1 117.752 19.1H118.972L118.452 22H116.712C114.472 22 113.352 21.06 113.352 19.18C113.352 18.9 113.385 18.5467 113.452 18.12L114.252 13.68H112.892L113.392 10.84H114.752L115.232 8.12H118.652L118.172 10.84H120.412L119.912 13.68H117.672L116.872 18.16ZM120.677 16.4C120.877 15.2533 121.27 14.2467 121.857 13.38C122.443 12.5133 123.15 11.8467 123.977 11.38C124.803 10.9133 125.677 10.68 126.597 10.68C127.383 10.68 128.043 10.84 128.577 11.16C129.11 11.48 129.497 11.9 129.737 12.42L130.017 10.84H133.437L131.457 22H128.037L128.337 20.42C127.91 20.94 127.37 21.36 126.717 21.68C126.063 22 125.343 22.16 124.557 22.16C123.77 22.16 123.07 21.98 122.457 21.62C121.857 21.26 121.39 20.7533 121.057 20.1C120.723 19.4333 120.557 18.6533 120.557 17.76C120.557 17.3333 120.597 16.88 120.677 16.4ZM129.037 16.42C129.077 16.18 129.097 15.96 129.097 15.76C129.097 15.1067 128.903 14.5933 128.517 14.22C128.143 13.8467 127.663 13.66 127.077 13.66C126.397 13.66 125.777 13.9067 125.217 14.4C124.657 14.88 124.303 15.5467 124.157 16.4C124.117 16.64 124.097 16.86 124.097 17.06C124.097 17.7133 124.283 18.2333 124.657 18.62C125.043 18.9933 125.523 19.18 126.097 19.18C126.777 19.18 127.397 18.9333 127.957 18.44C128.517 17.9467 128.877 17.2733 129.037 16.42ZM139.971 7.2L137.351 22H133.931L136.551 7.2H139.971Z"/>
</mask>
<path d="M11.84 7.96L12.8246 8.13503L13.0335 6.96H11.84V7.96ZM11.36 10.66V11.66H12.1979L12.3446 10.835L11.36 10.66ZM5.64 10.66V9.66H4.79747L4.6545 10.4903L5.64 10.66ZM5.12 13.68L4.1345 13.5103L3.9331 14.68H5.12V13.68ZM9.4 13.68L10.3834 13.8615L10.6015 12.68H9.4V13.68ZM8.92 16.28V17.28H9.75228L9.90338 16.4615L8.92 16.28ZM4.64 16.28V15.28H3.79966L3.65494 16.1078L4.64 16.28ZM3.64 22V23H4.48034L4.62506 22.1722L3.64 22ZM0.22 22L-0.764755 21.8261L-0.972119 23H0.22V22ZM2.7 7.96V6.96H1.86116L1.71524 7.78605L2.7 7.96ZM10.8554 7.78497L10.3754 10.485L12.3446 10.835L12.8246 8.13503L10.8554 7.78497ZM11.36 9.66H5.64V11.66H11.36V9.66ZM4.6545 10.4903L4.1345 13.5103L6.1055 13.8497L6.6255 10.8297L4.6545 10.4903ZM5.12 14.68H9.4V12.68H5.12V14.68ZM8.41662 13.4985L7.93662 16.0985L9.90338 16.4615L10.3834 13.8615L8.41662 13.4985ZM8.92 15.28H4.64V17.28H8.92V15.28ZM3.65494 16.1078L2.65494 21.8278L4.62506 22.1722L5.62506 16.4522L3.65494 16.1078ZM3.64 21H0.22V23H3.64V21ZM1.20476 22.1739L3.68476 8.13394L1.71524 7.78605L-0.764755 21.8261L1.20476 22.1739ZM2.7 8.96H11.84V6.96H2.7V8.96ZM24.1375 10.84L25.1224 11.013L25.3284 9.84H24.1375V10.84ZM22.1775 22V23H23.0172L23.1624 22.173L22.1775 22ZM18.7575 22L17.7718 21.8314L17.5719 23H18.7575V22ZM19.0175 20.48L20.0032 20.6486L20.5907 17.2137L18.2712 19.8144L19.0175 20.48ZM17.3975 21.68L17.8215 22.5857L17.8296 22.5818L17.3975 21.68ZM12.7375 21.18L12.0304 21.8871L12.0379 21.8945L12.7375 21.18ZM11.8775 17.36L12.8596 17.5489L12.862 17.5352L11.8775 17.36ZM13.0375 10.84V9.84H12.1997L12.053 10.6648L13.0375 10.84ZM16.4375 10.84L17.4225 11.0123L17.6276 9.84H16.4375V10.84ZM15.3775 16.9L16.3604 17.0843L16.3625 17.0723L15.3775 16.9ZM15.7775 18.82L15.0704 19.5271L15.0858 19.5425L15.1018 19.5572L15.7775 18.82ZM18.7175 18.7L19.3645 19.4625L19.3664 19.4608L18.7175 18.7ZM19.6175 17.06L20.5966 17.2632L20.5996 17.2487L20.6022 17.2341L19.6175 17.06ZM20.7175 10.84V9.84H19.8788L19.7328 10.6659L20.7175 10.84ZM23.1526 10.667L21.1926 21.827L23.1624 22.173L25.1224 11.013L23.1526 10.667ZM22.1775 21H18.7575V23H22.1775V21ZM19.7432 22.1686L20.0032 20.6486L18.0318 20.3114L17.7718 21.8314L19.7432 22.1686ZM18.2712 19.8144C17.9256 20.2019 17.4949 20.5244 16.9654 20.7782L17.8296 22.5818C18.5801 22.2222 19.2294 21.7448 19.7638 21.1456L18.2712 19.8144ZM16.9736 20.7743C16.485 21.003 15.9571 21.12 15.3775 21.12V23.12C16.2379 23.12 17.0567 22.9437 17.8214 22.5857L16.9736 20.7743ZM15.3775 21.12C14.4501 21.12 13.8462 20.866 13.4371 20.4655L12.0379 21.8945C12.9088 22.7473 14.0649 23.12 15.3775 23.12V21.12ZM13.4446 20.4729C13.0368 20.0651 12.7775 19.4587 12.7775 18.52H10.7775C10.7775 19.8479 11.1582 21.0149 12.0304 21.8871L13.4446 20.4729ZM12.7775 18.52C12.7775 18.1441 12.807 17.822 12.8595 17.5488L10.8955 17.1712C10.8147 17.5913 10.7775 18.0426 10.7775 18.52H12.7775ZM12.862 17.5352L14.022 11.0152L12.053 10.6648L10.893 17.1848L12.862 17.5352ZM13.0375 11.84H16.4375V9.84H13.0375V11.84ZM15.4525 10.6677L14.3925 16.7277L16.3625 17.0723L17.4225 11.0123L15.4525 10.6677ZM14.3946 16.7157C14.3442 16.9847 14.3175 17.2532 14.3175 17.52H16.3175C16.3175 17.3868 16.3308 17.242 16.3604 17.0843L14.3946 16.7157ZM14.3175 17.52C14.3175 18.2645 14.5259 18.9827 15.0704 19.5271L16.4846 18.1129C16.4157 18.044 16.3175 17.8955 16.3175 17.52H14.3175ZM15.1018 19.5572C15.6548 20.0641 16.3622 20.26 17.0975 20.26V18.26C16.7128 18.26 16.5402 18.1626 16.4532 18.0828L15.1018 19.5572ZM17.0975 20.26C17.9468 20.26 18.7237 20.0062 19.3645 19.4625L18.0705 17.9375C17.8313 18.1405 17.5282 18.26 17.0975 18.26V20.26ZM19.3664 19.4608C20.0221 18.9016 20.4147 18.14 20.5966 17.2632L18.6384 16.8568C18.527 17.3934 18.3196 17.7251 18.0686 17.9392L19.3664 19.4608ZM20.6022 17.2341L21.7022 11.0141L19.7328 10.6659L18.6328 16.8859L20.6022 17.2341ZM20.7175 11.84H24.1375V9.84H20.7175V11.84ZM36.0541 11.66L35.3544 12.3745L35.3544 12.3745L36.0541 11.66ZM36.8941 15.48L35.9111 15.2957L35.9095 15.3048L36.8941 15.48ZM35.7341 22V23H36.5719L36.7186 22.1752L35.7341 22ZM32.3341 22L31.3496 21.8245L31.1401 23H32.3341V22ZM33.4141 15.94L34.3986 16.1155L34.3988 16.1138L33.4141 15.94ZM32.9941 14.04L32.287 14.7471L32.2945 14.7546L32.3022 14.762L32.9941 14.04ZM30.0141 14.2L30.6878 14.939L30.6878 14.939L30.0141 14.2ZM29.1341 15.94H28.1341L30.1185 16.1158L29.1341 15.94ZM29.1341 15.84H30.1341L28.1491 15.6673L29.1341 15.84ZM28.0541 22V23H28.894L29.039 22.1727L28.0541 22ZM24.6341 22L23.6491 21.827L23.4431 23H24.6341V22ZM26.5941 10.84V9.84H25.7544L25.6091 10.667L26.5941 10.84ZM30.0141 10.84L30.9994 11.0108L31.2023 9.84H30.0141V10.84ZM29.7541 12.34L28.7688 12.1692L28.1711 15.6172L30.5004 13.0056L29.7541 12.34ZM31.3541 11.16L30.9374 10.2509L30.9301 10.2543L31.3541 11.16ZM33.4141 11.72C34.3414 11.72 34.9454 11.974 35.3544 12.3745L36.7537 10.9455C35.8827 10.0927 34.7267 9.72 33.4141 9.72V11.72ZM35.3544 12.3745C35.7567 12.7684 36.0141 13.3575 36.0141 14.28H38.0141C38.0141 12.9625 37.6314 11.8049 36.7537 10.9455L35.3544 12.3745ZM36.0141 14.28C36.0141 14.5825 35.9816 14.9203 35.9112 15.2957L37.8769 15.6643C37.9665 15.1864 38.0141 14.7242 38.0141 14.28H36.0141ZM35.9095 15.3048L34.7495 21.8248L36.7186 22.1752L37.8786 15.6552L35.9095 15.3048ZM35.7341 21H32.3341V23H35.7341V21ZM33.3186 22.1755L34.3986 16.1155L32.4296 15.7645L31.3496 21.8245L33.3186 22.1755ZM34.3988 16.1138C34.4459 15.8471 34.4741 15.5869 34.4741 15.34H32.4741C32.4741 15.4397 32.4622 15.5795 32.4293 15.7662L34.3988 16.1138ZM34.4741 15.34C34.4741 14.5835 34.2517 13.8602 33.686 13.318L32.3022 14.762C32.3764 14.8332 32.4741 14.9765 32.4741 15.34H34.4741ZM33.7012 13.3329C33.1567 12.7884 32.4386 12.58 31.6941 12.58V14.58C32.0695 14.58 32.2181 14.6782 32.287 14.7471L33.7012 13.3329ZM31.6941 12.58C30.8016 12.58 29.9945 12.8646 29.3403 13.461L30.6878 14.939C30.9403 14.7088 31.2532 14.58 31.6941 14.58V12.58ZM29.3403 13.461C28.6889 14.055 28.3123 14.8531 28.1496 15.7642L30.1185 16.1158C30.2225 15.5336 30.4326 15.1717 30.6878 14.939L29.3403 13.461ZM30.1341 15.94V15.84H28.1341V15.94H30.1341ZM28.1491 15.6673L27.0691 21.8273L29.039 22.1727L30.119 16.0127L28.1491 15.6673ZM28.0541 21H24.6341V23H28.0541V21ZM25.619 22.173L27.579 11.013L25.6091 10.667L23.6491 21.827L25.619 22.173ZM26.5941 11.84H30.0141V9.84H26.5941V11.84ZM29.0288 10.6692L28.7688 12.1692L30.7394 12.5108L30.9994 11.0108L29.0288 10.6692ZM30.5004 13.0056C30.8461 12.618 31.2681 12.3044 31.778 12.0657L30.9301 10.2543C30.1867 10.6023 29.5421 11.0753 29.0078 11.6744L30.5004 13.0056ZM31.7707 12.0691C32.2745 11.8382 32.8184 11.72 33.4141 11.72V9.72C32.5431 9.72 31.7136 9.89518 30.9374 10.2509L31.7707 12.0691ZM38.4306 16.4L37.4455 16.2282L37.4442 16.2356L38.4306 16.4ZM39.6106 13.38L38.7825 12.8194L38.7825 12.8194L39.6106 13.38ZM41.7306 11.38L42.2222 12.2508L42.2222 12.2508L41.7306 11.38ZM46.2706 11.14L45.7813 12.0122L45.7903 12.0171L46.2706 11.14ZM47.4906 12.38L46.5916 12.818L47.9377 15.581L48.4752 12.5549L47.4906 12.38ZM48.4106 7.2V6.2H47.5726L47.426 7.02513L48.4106 7.2ZM51.8306 7.2L52.8153 7.37432L53.0232 6.2H51.8306V7.2ZM49.2106 22V23H50.0491L50.1953 22.1743L49.2106 22ZM45.7906 22L44.8056 21.8276L44.6004 23H45.7906V22ZM46.0706 20.4L47.0557 20.5724L45.2898 19.7753L46.0706 20.4ZM44.4706 21.68L44.9178 22.5744L44.9178 22.5744L44.4706 21.68ZM40.2306 21.62L39.7161 22.4775L39.7244 22.4824L40.2306 21.62ZM38.8106 20.08L37.9162 20.5272L37.9197 20.5343L37.9234 20.5414L38.8106 20.08ZM46.7906 16.42L47.7735 16.6043L47.7754 16.5944L47.777 16.5844L46.7906 16.42ZM46.2706 14.22L45.5635 14.9271L45.5697 14.9333L45.576 14.9394L46.2706 14.22ZM42.9706 14.4L43.6215 15.1593L43.6317 15.1504L42.9706 14.4ZM41.9106 16.4L40.9251 16.2306L40.9242 16.2356L41.9106 16.4ZM42.4106 18.62L41.6912 19.3146L41.7034 19.3272L41.716 19.3394L42.4106 18.62ZM45.7106 18.44L46.3717 19.1904L46.3717 19.1904L45.7106 18.44ZM39.4158 16.5718C39.5942 15.5487 39.9398 14.6777 40.4387 13.9406L38.7825 12.8194C38.1082 13.8156 37.667 14.958 37.4455 16.2282L39.4158 16.5718ZM40.4387 13.9406C40.9477 13.1886 41.5435 12.634 42.2222 12.2508L41.239 10.5092C40.2644 11.0594 39.4468 11.838 38.7825 12.8194L40.4387 13.9406ZM42.2222 12.2508C42.9039 11.866 43.6085 11.68 44.3506 11.68V9.68C43.2527 9.68 42.2107 9.96064 41.239 10.5092L42.2222 12.2508ZM44.3506 11.68C44.9419 11.68 45.4078 11.8026 45.7814 12.0121L46.7599 10.2679C46.0401 9.8641 45.226 9.68 44.3506 9.68V11.68ZM45.7903 12.0171C46.1884 12.2351 46.4384 12.5034 46.5916 12.818L48.3896 11.942C48.0362 11.2166 47.4729 10.6582 46.7509 10.2629L45.7903 12.0171ZM48.4752 12.5549L49.3952 7.37487L47.426 7.02513L46.506 12.2051L48.4752 12.5549ZM48.4106 8.2H51.8306V6.2H48.4106V8.2ZM50.8459 7.02568L48.2259 21.8257L50.1953 22.1743L52.8153 7.37432L50.8459 7.02568ZM49.2106 21H45.7906V23H49.2106V21ZM46.7757 22.1724L47.0557 20.5724L45.0856 20.2276L44.8056 21.8276L46.7757 22.1724ZM45.2898 19.7753C44.9578 20.1903 44.5403 20.5271 44.0234 20.7856L44.9178 22.5744C45.681 22.1929 46.3301 21.6764 46.8515 21.0247L45.2898 19.7753ZM44.0234 20.7856C43.5356 21.0295 42.9777 21.16 42.3306 21.16V23.16C43.2569 23.16 44.1256 22.9705 44.9178 22.5744L44.0234 20.7856ZM42.3306 21.16C41.7025 21.16 41.1808 21.0182 40.7368 20.7576L39.7244 22.4824C40.5072 22.9418 41.3854 23.16 42.3306 23.16V21.16ZM40.7451 20.7625C40.3153 20.5046 39.9658 20.134 39.6978 19.6186L37.9234 20.5414C38.3488 21.3594 38.9459 22.0154 39.7161 22.4775L40.7451 20.7625ZM39.7051 19.6328C39.4536 19.1299 39.3106 18.5086 39.3106 17.74H37.3106C37.3106 18.7581 37.501 19.6968 37.9162 20.5272L39.7051 19.6328ZM39.3106 17.74C39.3106 17.3904 39.3445 16.9993 39.417 16.5644L37.4442 16.2356C37.3567 16.7607 37.3106 17.2629 37.3106 17.74H39.3106ZM47.777 16.5844C47.8242 16.3013 47.8506 16.0254 47.8506 15.76H45.8506C45.8506 15.8946 45.837 16.0587 45.8042 16.2556L47.777 16.5844ZM47.8506 15.76C47.8506 14.898 47.588 14.1019 46.9652 13.5006L45.576 14.9394C45.7266 15.0848 45.8506 15.3153 45.8506 15.76H47.8506ZM46.9777 13.5129C46.3952 12.9304 45.6502 12.66 44.8306 12.66V14.66C45.1844 14.66 45.3994 14.763 45.5635 14.9271L46.9777 13.5129ZM44.8306 12.66C43.8828 12.66 43.033 13.0123 42.3096 13.6496L43.6317 15.1504C44.0282 14.801 44.4184 14.66 44.8306 14.66V12.66ZM42.3198 13.6407C41.5532 14.2979 41.104 15.1895 40.9251 16.2306L42.8962 16.5694C43.0106 15.9038 43.2681 15.4621 43.6214 15.1593L42.3198 13.6407ZM40.9242 16.2356C40.877 16.5187 40.8506 16.7946 40.8506 17.06H42.8506C42.8506 16.9254 42.8642 16.7613 42.897 16.5644L40.9242 16.2356ZM40.8506 17.06C40.8506 17.9133 41.1006 18.7028 41.6912 19.3146L43.13 17.9254C42.974 17.7638 42.8506 17.5134 42.8506 17.06H40.8506ZM41.716 19.3394C42.3024 19.9055 43.0372 20.18 43.8506 20.18V18.18C43.5174 18.18 43.2922 18.0811 43.1052 17.9006L41.716 19.3394ZM43.8506 20.18C44.7984 20.18 45.6482 19.8277 46.3717 19.1904L45.0496 17.6896C44.653 18.039 44.2628 18.18 43.8506 18.18V20.18ZM46.3717 19.1904C47.1255 18.5262 47.5794 17.6396 47.7735 16.6043L45.8078 16.2357C45.6819 16.9071 45.4157 17.3671 45.0496 17.6896L46.3717 19.1904ZM52.0048 16.4L51.0197 16.2282L51.0184 16.2356L52.0048 16.4ZM53.1848 13.38L52.3567 12.8194L52.3567 12.8194L53.1848 13.38ZM55.3048 11.38L55.7964 12.2508L55.7964 12.2508L55.3048 11.38ZM59.9048 11.16L60.4193 10.3025L60.4193 10.3025L59.9048 11.16ZM61.0648 12.42L60.1569 12.8391L61.4931 15.7342L62.0495 12.5945L61.0648 12.42ZM61.3448 10.84V9.84H60.5065L60.3602 10.6655L61.3448 10.84ZM64.7648 10.84L65.7495 11.0147L65.9579 9.84H64.7648V10.84ZM62.7848 22V23H63.623L63.7695 22.1747L62.7848 22ZM59.3648 22L58.3824 21.8135L58.1571 23H59.3648V22ZM59.6648 20.42L60.6473 20.6065L58.8918 19.7857L59.6648 20.42ZM58.0448 21.68L58.4847 22.5781L58.4847 22.5781L58.0448 21.68ZM53.7848 21.62L53.2703 22.4775L53.2786 22.4824L53.7848 21.62ZM52.3848 20.1L51.4904 20.5472L51.4941 20.5545L52.3848 20.1ZM60.3648 16.42L61.3477 16.6043L61.3496 16.5944L61.3512 16.5844L60.3648 16.42ZM59.8448 14.22L59.1377 14.9271L59.1439 14.9333L59.1502 14.9394L59.8448 14.22ZM56.5448 14.4L57.1957 15.1593L57.2059 15.1504L56.5448 14.4ZM55.4848 16.4L54.4993 16.2306L54.4984 16.2356L55.4848 16.4ZM55.9848 18.62L55.2654 19.3146L55.2776 19.3272L55.2902 19.3394L55.9848 18.62ZM59.2848 18.44L59.9459 19.1904L59.9459 19.1904L59.2848 18.44ZM52.99 16.5718C53.1684 15.5487 53.514 14.6777 54.013 13.9406L52.3567 12.8194C51.6824 13.8156 51.2413 14.958 51.0197 16.2282L52.99 16.5718ZM54.013 13.9406C54.522 13.1886 55.1178 12.634 55.7964 12.2508L54.8132 10.5092C53.8386 11.0594 53.0211 11.838 52.3567 12.8194L54.013 13.9406ZM55.7964 12.2508C56.4781 11.866 57.1827 11.68 57.9248 11.68V9.68C56.827 9.68 55.7849 9.96064 54.8132 10.5092L55.7964 12.2508ZM57.9248 11.68C58.5777 11.68 59.0486 11.8124 59.3903 12.0175L60.4193 10.3025C59.6944 9.86756 58.8454 9.68 57.9248 9.68V11.68ZM59.3903 12.0175C59.767 12.2435 60.0083 12.5172 60.1569 12.8391L61.9728 12.0009C61.6414 11.2828 61.1094 10.7165 60.4193 10.3025L59.3903 12.0175ZM62.0495 12.5945L62.3295 11.0145L60.3602 10.6655L60.0802 12.2455L62.0495 12.5945ZM61.3448 11.84H64.7648V9.84H61.3448V11.84ZM63.7802 10.6653L61.8002 21.8253L63.7695 22.1747L65.7495 11.0147L63.7802 10.6653ZM62.7848 21H59.3648V23H62.7848V21ZM60.3473 22.1865L60.6473 20.6065L58.6824 20.2335L58.3824 21.8135L60.3473 22.1865ZM58.8918 19.7857C58.5632 20.1861 58.1403 20.5198 57.605 20.7819L58.4847 22.5781C59.2561 22.2002 59.9131 21.6939 60.4379 21.0543L58.8918 19.7857ZM57.605 20.7819C57.0995 21.0295 56.5317 21.16 55.8848 21.16V23.16C56.8113 23.16 57.6835 22.9705 58.4847 22.5781L57.605 20.7819ZM55.8848 21.16C55.2567 21.16 54.735 21.0182 54.291 20.7576L53.2786 22.4824C54.0614 22.9418 54.9396 23.16 55.8848 23.16V21.16ZM54.2993 20.7625C53.868 20.5037 53.5281 20.1404 53.2756 19.6455L51.4941 20.5545C51.9083 21.3663 52.5017 22.0163 53.2703 22.4775L54.2993 20.7625ZM53.2793 19.6528C53.0278 19.1499 52.8848 18.5286 52.8848 17.76H50.8848C50.8848 18.7781 51.0752 19.7168 51.4904 20.5472L53.2793 19.6528ZM52.8848 17.76C52.8848 17.3954 52.9191 16.9975 52.9912 16.5644L51.0184 16.2356C50.9306 16.7625 50.8848 17.2712 50.8848 17.76H52.8848ZM61.3512 16.5844C61.3984 16.3013 61.4248 16.0254 61.4248 15.76H59.4248C59.4248 15.8946 59.4113 16.0587 59.3785 16.2556L61.3512 16.5844ZM61.4248 15.76C61.4248 14.898 61.1622 14.1019 60.5394 13.5006L59.1502 14.9394C59.3008 15.0848 59.4248 15.3153 59.4248 15.76H61.4248ZM60.552 13.5129C59.9694 12.9304 59.2244 12.66 58.4048 12.66V14.66C58.7586 14.66 58.9736 14.763 59.1377 14.9271L60.552 13.5129ZM58.4048 12.66C57.457 12.66 56.6072 13.0123 55.8838 13.6496L57.2059 15.1504C57.6025 14.801 57.9927 14.66 58.4048 14.66V12.66ZM55.8941 13.6407C55.1274 14.2979 54.6782 15.1895 54.4993 16.2306L56.4704 16.5694C56.5848 15.9038 56.8423 15.4621 57.1956 15.1593L55.8941 13.6407ZM54.4984 16.2356C54.4513 16.5187 54.4248 16.7946 54.4248 17.06H56.4248C56.4248 16.9254 56.4384 16.7613 56.4712 16.5644L54.4984 16.2356ZM54.4248 17.06C54.4248 17.9133 54.6748 18.7028 55.2654 19.3146L56.7042 17.9254C56.5482 17.7638 56.4248 17.5134 56.4248 17.06H54.4248ZM55.2902 19.3394C55.8766 19.9055 56.6114 20.18 57.4248 20.18V18.18C57.0916 18.18 56.8664 18.0811 56.6794 17.9006L55.2902 19.3394ZM57.4248 20.18C58.3727 20.18 59.2225 19.8277 59.9459 19.1904L58.6238 17.6896C58.2272 18.039 57.837 18.18 57.4248 18.18V20.18ZM59.9459 19.1904C60.6998 18.5262 61.1536 17.6396 61.3477 16.6043L59.382 16.2357C59.2561 16.9071 58.9899 17.3671 58.6238 17.6896L59.9459 19.1904ZM84.2991 11.68L83.6065 12.4014L83.6139 12.4084L83.6214 12.4154L84.2991 11.68ZM85.1991 15.48L84.2161 15.2957L84.2145 15.3048L85.1991 15.48ZM84.0391 22V23H84.8769L85.0236 22.1752L84.0391 22ZM80.6391 22L79.6546 21.8245L79.4451 23H80.6391V22ZM81.7191 15.94L80.7385 15.7439L80.7364 15.7542L80.7346 15.7645L81.7191 15.94ZM81.2791 14.12L80.5878 14.8426L80.5955 14.85L80.6033 14.8572L81.2791 14.12ZM78.2991 14.28L78.948 15.0408L78.9544 15.0354L78.9607 15.0298L78.2991 14.28ZM77.4391 15.94L78.4236 16.1155L78.4255 16.1044L77.4391 15.94ZM76.3591 22V23H77.1966L77.3436 22.1755L76.3591 22ZM72.9591 22L71.9746 21.8245L71.7651 23H72.9591V22ZM74.0391 15.94L73.0585 15.7439L73.0564 15.7542L73.0546 15.7645L74.0391 15.94ZM73.5991 14.12L72.9078 14.8426L72.9155 14.85L72.9233 14.8572L73.5991 14.12ZM70.6191 14.28L71.268 15.0408L71.2744 15.0354L71.2807 15.0298L70.6191 14.28ZM69.7591 15.94H68.7591L70.7455 16.1044L69.7591 15.94ZM69.7591 15.84H70.7591L68.7741 15.6673L69.7591 15.84ZM68.6791 22V23H69.519L69.664 22.1727L68.6791 22ZM65.2591 22L64.2741 21.827L64.0681 23H65.2591V22ZM67.2191 10.84V9.84H66.3794L66.2341 10.667L67.2191 10.84ZM70.6391 10.84L71.6251 11.0066L71.8223 9.84H70.6391V10.84ZM70.3991 12.26L69.413 12.0933L68.8326 15.5274L71.1465 12.9244L70.3991 12.26ZM71.9391 11.14L72.3452 12.0539L72.3544 12.0497L71.9391 11.14ZM76.0791 11.26L75.556 12.1124L75.5646 12.1175L76.0791 11.26ZM77.3591 12.82L76.422 13.1691L77.0435 14.8375L78.1448 13.4386L77.3591 12.82ZM79.1991 11.3L78.7327 10.4154L78.7327 10.4154L79.1991 11.3ZM81.4991 11.72C82.5208 11.72 83.1767 11.9887 83.6065 12.4014L84.9916 10.9586C84.0881 10.0913 82.8774 9.72 81.4991 9.72V11.72ZM83.6214 12.4154C84.0508 12.8111 84.3191 13.3982 84.3191 14.32H86.3191C86.3191 12.9752 85.9073 11.8022 84.9767 10.9446L83.6214 12.4154ZM84.3191 14.32C84.3191 14.5917 84.2875 14.9153 84.2162 15.2957L86.1819 15.6643C86.2706 15.1913 86.3191 14.7417 86.3191 14.32H84.3191ZM84.2145 15.3048L83.0545 21.8248L85.0236 22.1752L86.1836 15.6552L84.2145 15.3048ZM84.0391 21H80.6391V23H84.0391V21ZM81.6236 22.1755L82.7036 16.1155L80.7346 15.7645L79.6546 21.8245L81.6236 22.1755ZM82.6996 16.1361C82.7449 15.9097 82.7591 15.6552 82.7591 15.4H80.7591C80.7591 15.5981 80.7465 15.7036 80.7385 15.7439L82.6996 16.1361ZM82.7591 15.4C82.7591 14.6458 82.5374 13.9169 81.9548 13.3828L80.6033 14.8572C80.6608 14.9098 80.7591 15.0342 80.7591 15.4H82.7591ZM81.9703 13.3974C81.4242 12.875 80.7118 12.68 79.9791 12.68V14.68C80.3663 14.68 80.5206 14.7784 80.5878 14.8426L81.9703 13.3974ZM79.9791 12.68C79.0957 12.68 78.2927 12.952 77.6374 13.5302L78.9607 15.0298C79.2121 14.808 79.5291 14.68 79.9791 14.68V12.68ZM77.6501 13.5192C76.9798 14.0909 76.6024 14.8775 76.4527 15.7756L78.4255 16.1044C78.5158 15.5625 78.7117 15.2424 78.948 15.0408L77.6501 13.5192ZM76.4546 15.7645L75.3746 21.8245L77.3436 22.1755L78.4236 16.1155L76.4546 15.7645ZM76.3591 21H72.9591V23H76.3591V21ZM73.9436 22.1755L75.0236 16.1155L73.0546 15.7645L71.9746 21.8245L73.9436 22.1755ZM75.0196 16.1361C75.0649 15.9098 75.0791 15.6552 75.0791 15.4H73.0791C73.0791 15.5981 73.0665 15.7036 73.0585 15.7439L75.0196 16.1361ZM75.0791 15.4C75.0791 14.6458 74.8574 13.9169 74.2748 13.3828L72.9233 14.8572C72.9808 14.9098 73.0791 15.0342 73.0791 15.4H75.0791ZM74.2903 13.3974C73.7442 12.875 73.0318 12.68 72.2991 12.68V14.68C72.6863 14.68 72.8406 14.7784 72.9078 14.8426L74.2903 13.3974ZM72.2991 12.68C71.4157 12.68 70.6127 12.952 69.9574 13.5302L71.2807 15.0298C71.5321 14.808 71.8491 14.68 72.2991 14.68V12.68ZM69.9701 13.5192C69.2998 14.0909 68.9224 14.8775 68.7727 15.7756L70.7455 16.1044C70.8358 15.5625 71.0317 15.2424 71.268 15.0408L69.9701 13.5192ZM70.7591 15.94V15.84H68.7591V15.94H70.7591ZM68.7741 15.6673L67.6941 21.8273L69.664 22.1727L70.744 16.0127L68.7741 15.6673ZM68.6791 21H65.2591V23H68.6791V21ZM66.244 22.173L68.204 11.013L66.2341 10.667L64.2741 21.827L66.244 22.173ZM67.2191 11.84H70.6391V9.84H67.2191V11.84ZM69.653 10.6733L69.413 12.0933L71.3851 12.4267L71.6251 11.0066L69.653 10.6733ZM71.1465 12.9244C71.4763 12.5533 71.8724 12.2639 72.3452 12.0538L71.5329 10.2262C70.8057 10.5494 70.1752 11.0067 69.6517 11.5956L71.1465 12.9244ZM72.3544 12.0497C72.8311 11.8321 73.3486 11.72 73.9191 11.72V9.72C73.0761 9.72 72.2737 9.88794 71.5238 10.2303L72.3544 12.0497ZM73.9191 11.72C74.6319 11.72 75.1605 11.8696 75.556 12.1123L76.6021 10.4077C75.8243 9.93039 74.9129 9.72 73.9191 9.72V11.72ZM75.5646 12.1175C75.9625 12.3562 76.2446 12.6931 76.422 13.1691L78.2961 12.4709C77.9668 11.5869 77.3956 10.8838 76.5936 10.4025L75.5646 12.1175ZM78.1448 13.4386C78.5481 12.9263 79.051 12.5085 79.6655 12.1846L78.7327 10.4154C77.8804 10.8648 77.1567 11.4604 76.5733 12.2014L78.1448 13.4386ZM79.6655 12.1846C80.2604 11.8709 80.8676 11.72 81.4991 11.72V9.72C80.5305 9.72 79.6044 9.9558 78.7327 10.4154L79.6655 12.1846ZM96.8109 11.86L96.1274 12.5899L96.1334 12.5955L96.1394 12.601L96.8109 11.86ZM97.9909 16.22L97.0089 16.0312L97.0073 16.0399L97.0057 16.0487L97.9909 16.22ZM97.7509 17.2V18.2H98.4895L98.7067 17.4941L97.7509 17.2ZM90.0109 17.2V16.2H89.1638L89.0245 17.0356L90.0109 17.2ZM90.4709 18.92L91.1628 18.198L91.1628 18.198L90.4709 18.92ZM93.7109 18.3V17.3H93.1589L92.8647 17.7672L93.7109 18.3ZM97.3509 18.3L98.2718 18.69L98.8605 17.3H97.3509V18.3ZM95.0109 21.08L94.4562 20.2479L94.4562 20.2479L95.0109 21.08ZM87.9109 20.96L87.227 21.6896L87.2327 21.6948L87.9109 20.96ZM86.7509 16.42L87.7348 16.5989L87.7364 16.5899L86.7509 16.42ZM87.9909 13.38L87.1806 12.7941L87.1806 12.7941L87.9909 13.38ZM90.3309 11.38L90.7782 12.2744L90.7782 12.2744L90.3309 11.38ZM94.6309 15.46V16.46H95.4982L95.6209 15.6014L94.6309 15.46ZM94.1709 13.86L93.5103 14.6107L93.5189 14.6183L93.5277 14.6257L94.1709 13.86ZM91.2909 13.96L91.9098 14.7455L91.9128 14.7431L91.2909 13.96ZM90.3309 15.46L89.3747 15.1673L88.979 16.46H90.3309V15.46ZM93.3909 11.68C94.6437 11.68 95.5162 12.0175 96.1274 12.5899L97.4945 11.1301C96.4257 10.1291 95.0181 9.68 93.3909 9.68V11.68ZM96.1394 12.601C96.7477 13.1522 97.0909 13.9232 97.0909 15.04H99.0909C99.0909 13.4635 98.5809 12.1145 97.4825 11.119L96.1394 12.601ZM97.0909 15.04C97.0909 15.4314 97.0611 15.7597 97.0089 16.0312L98.9729 16.4088C99.0541 15.987 99.0909 15.5286 99.0909 15.04H97.0909ZM97.0057 16.0487C96.9607 16.3077 96.8914 16.5931 96.7952 16.9059L98.7067 17.4941C98.8238 17.1136 98.9145 16.7456 98.9762 16.3913L97.0057 16.0487ZM97.7509 16.2H90.0109V18.2H97.7509V16.2ZM89.0245 17.0356C88.9968 17.2023 88.9909 17.399 88.9909 17.58H90.9909C90.9909 17.505 90.9924 17.4484 90.9946 17.4076C90.9969 17.3634 90.9993 17.3528 90.9973 17.3644L89.0245 17.0356ZM88.9909 17.58C88.9909 18.3473 89.2044 19.0913 89.779 19.642L91.1628 18.198C91.0974 18.1353 90.9909 17.9861 90.9909 17.58H88.9909ZM89.779 19.642C90.3219 20.1622 91.0154 20.38 91.7509 20.38V18.38C91.4198 18.38 91.26 18.2911 91.1628 18.198L89.779 19.642ZM91.7509 20.38C92.9466 20.38 93.9201 19.8446 94.5572 18.8328L92.8647 17.7672C92.5951 18.1954 92.2619 18.38 91.7509 18.38V20.38ZM93.7109 19.3H97.3509V17.3H93.7109V19.3ZM96.4301 17.91C96.0306 18.8533 95.383 19.6301 94.4562 20.2479L95.5656 21.9121C96.7989 21.0899 97.7113 20.0134 98.2718 18.69L96.4301 17.91ZM94.4562 20.2479C93.5469 20.8542 92.528 21.16 91.3709 21.16V23.16C92.9072 23.16 94.315 22.7458 95.5656 21.9121L94.4562 20.2479ZM91.3709 21.16C90.1239 21.16 89.2323 20.8188 88.5892 20.2252L87.2327 21.6948C88.3229 22.7012 89.7379 23.16 91.3709 23.16V21.16ZM88.5949 20.2305C87.9785 19.6526 87.6309 18.8493 87.6309 17.7H85.6309C85.6309 19.2973 86.1367 20.6674 87.227 21.6895L88.5949 20.2305ZM87.6309 17.7C87.6309 17.3513 87.6647 16.9846 87.7348 16.5989L85.7671 16.2411C85.6772 16.7354 85.6309 17.222 85.6309 17.7H87.6309ZM87.7364 16.5899C87.9131 15.5648 88.2726 14.6971 88.8013 13.9659L87.1806 12.7941C86.4559 13.7963 85.9887 14.9552 85.7655 16.2501L87.7364 16.5899ZM88.8013 13.9659C89.336 13.2265 89.9926 12.6672 90.7782 12.2744L89.8837 10.4856C88.8026 11.0261 87.8992 11.8002 87.1806 12.7941L88.8013 13.9659ZM90.7782 12.2744C91.5643 11.8814 92.4299 11.68 93.3909 11.68V9.68C92.1387 9.68 90.9643 9.94529 89.8837 10.4856L90.7782 12.2744ZM95.6209 15.6014C95.6463 15.4235 95.6709 15.2285 95.6709 15.08H93.6709C93.6709 15.066 93.6715 15.0619 93.6708 15.0724C93.6702 15.0816 93.6689 15.0971 93.6664 15.1203C93.6615 15.1671 93.6533 15.2323 93.641 15.3186L95.6209 15.6014ZM95.6709 15.08C95.6709 14.324 95.424 13.6066 94.8141 13.0943L93.5277 14.6257C93.5845 14.6734 93.6709 14.7693 93.6709 15.08H95.6709ZM94.8316 13.1093C94.276 12.6204 93.5822 12.42 92.8509 12.42V14.42C93.213 14.42 93.3992 14.5129 93.5103 14.6107L94.8316 13.1093ZM92.8509 12.42C92.0417 12.42 91.3018 12.6744 90.6691 13.1769L91.9128 14.7431C92.1867 14.5256 92.4868 14.42 92.8509 14.42V12.42ZM90.6721 13.1745C90.0398 13.6727 89.6211 14.3626 89.3747 15.1673L91.2871 15.7527C91.4408 15.2508 91.6621 14.9406 91.9098 14.7455L90.6721 13.1745ZM90.3309 16.46H94.6309V14.46H90.3309V16.46ZM110.175 11.66L109.476 12.3745L109.476 12.3745L110.175 11.66ZM111.015 15.48L110.032 15.2957L110.031 15.3048L111.015 15.48ZM109.855 22V23H110.693L110.84 22.1752L109.855 22ZM106.455 22L105.471 21.8245L105.261 23H106.455V22ZM107.535 15.94L108.52 16.1155L108.52 16.1138L107.535 15.94ZM107.115 14.04L106.408 14.7471L106.416 14.7546L106.423 14.762L107.115 14.04ZM104.135 14.2L104.809 14.939L104.809 14.939L104.135 14.2ZM103.255 15.94H102.255L104.24 16.1158L103.255 15.94ZM103.255 15.84H104.255L102.27 15.6673L103.255 15.84ZM102.175 22V23H103.015L103.16 22.1727L102.175 22ZM98.7552 22L97.7702 21.827L97.5642 23H98.7552V22ZM100.715 10.84V9.84H99.8755L99.7302 10.667L100.715 10.84ZM104.135 10.84L105.12 11.0108L105.323 9.84H104.135V10.84ZM103.875 12.34L102.89 12.1692L102.292 15.6172L104.621 13.0056L103.875 12.34ZM105.475 11.16L105.058 10.2509L105.051 10.2543L105.475 11.16ZM107.535 11.72C108.463 11.72 109.067 11.974 109.476 12.3745L110.875 10.9455C110.004 10.0927 108.848 9.72 107.535 9.72V11.72ZM109.476 12.3745C109.878 12.7684 110.135 13.3575 110.135 14.28H112.135C112.135 12.9625 111.752 11.8049 110.875 10.9455L109.476 12.3745ZM110.135 14.28C110.135 14.5825 110.103 14.9203 110.032 15.2957L111.998 15.6643C112.088 15.1864 112.135 14.7242 112.135 14.28H110.135ZM110.031 15.3048L108.871 21.8248L110.84 22.1752L112 15.6552L110.031 15.3048ZM109.855 21H106.455V23H109.855V21ZM107.44 22.1755L108.52 16.1155L106.551 15.7645L105.471 21.8245L107.44 22.1755ZM108.52 16.1138C108.567 15.8471 108.595 15.5869 108.595 15.34H106.595C106.595 15.4397 106.583 15.5795 106.55 15.7662L108.52 16.1138ZM108.595 15.34C108.595 14.5835 108.373 13.8602 107.807 13.318L106.423 14.762C106.498 14.8332 106.595 14.9765 106.595 15.34H108.595ZM107.822 13.3329C107.278 12.7884 106.56 12.58 105.815 12.58V14.58C106.191 14.58 106.339 14.6782 106.408 14.7471L107.822 13.3329ZM105.815 12.58C104.923 12.58 104.116 12.8646 103.461 13.461L104.809 14.939C105.061 14.7088 105.374 14.58 105.815 14.58V12.58ZM103.461 13.461C102.81 14.055 102.433 14.8531 102.271 15.7642L104.24 16.1158C104.344 15.5336 104.554 15.1717 104.809 14.939L103.461 13.461ZM104.255 15.94V15.84H102.255V15.94H104.255ZM102.27 15.6673L101.19 21.8273L103.16 22.1727L104.24 16.0127L102.27 15.6673ZM102.175 21H98.7552V23H102.175V21ZM99.7401 22.173L101.7 11.013L99.7302 10.667L97.7702 21.827L99.7401 22.173ZM100.715 11.84H104.135V9.84H100.715V11.84ZM103.15 10.6692L102.89 12.1692L104.86 12.5108L105.12 11.0108L103.15 10.6692ZM104.621 13.0056C104.967 12.618 105.389 12.3044 105.899 12.0657L105.051 10.2543C104.308 10.6023 103.663 11.0753 103.129 11.6744L104.621 13.0056ZM105.892 12.0691C106.396 11.8382 106.939 11.72 107.535 11.72V9.72C106.664 9.72 105.835 9.89518 105.059 10.2509L105.892 12.0691ZM116.872 18.16L117.852 18.3561L117.854 18.346L117.856 18.3358L116.872 18.16ZM117.052 18.94L116.427 19.7209L116.445 19.7352L116.464 19.7487L117.052 18.94ZM118.972 19.1L119.956 19.2765L120.167 18.1H118.972V19.1ZM118.452 22V23H119.288L119.436 22.1765L118.452 22ZM113.452 18.12L112.468 17.9427L112.466 17.9541L112.464 17.9656L113.452 18.12ZM114.252 13.68L115.236 13.8573L115.448 12.68H114.252V13.68ZM112.892 13.68L111.907 13.5066L111.7 14.68H112.892V13.68ZM113.392 10.84V9.84H112.552L112.407 10.6666L113.392 10.84ZM114.752 10.84V11.84H115.591L115.737 11.0138L114.752 10.84ZM115.232 8.12V7.12H114.393L114.247 7.94621L115.232 8.12ZM118.652 8.12L119.637 8.29379L119.844 7.12H118.652V8.12ZM118.172 10.84L117.187 10.6662L116.98 11.84H118.172V10.84ZM120.412 10.84L121.397 11.0134L121.603 9.84H120.412V10.84ZM119.912 13.68V14.68H120.751L120.897 13.8534L119.912 13.68ZM117.672 13.68V12.68H116.834L116.687 13.5042L117.672 13.68ZM115.891 17.9639C115.86 18.1207 115.852 18.2801 115.852 18.42H117.852C117.852 18.3868 117.853 18.3646 117.854 18.3517C117.855 18.338 117.855 18.3409 117.852 18.3561L115.891 17.9639ZM115.852 18.42C115.852 18.8342 115.971 19.3561 116.427 19.7209L117.676 18.1591C117.76 18.2262 117.81 18.3071 117.835 18.371C117.857 18.427 117.852 18.4514 117.852 18.42H115.852ZM116.464 19.7487C116.869 20.0434 117.363 20.1 117.752 20.1V18.1C117.643 18.1 117.583 18.0906 117.56 18.0851C117.535 18.0794 117.575 18.0841 117.64 18.1313L116.464 19.7487ZM117.752 20.1H118.972V18.1H117.752V20.1ZM117.987 18.9235L117.467 21.8235L119.436 22.1765L119.956 19.2765L117.987 18.9235ZM118.452 21H116.712V23H118.452V21ZM116.712 21C115.707 21 115.14 20.7856 114.835 20.529C114.562 20.3006 114.352 19.9154 114.352 19.18H112.352C112.352 20.3246 112.701 21.3494 113.549 22.061C114.363 22.7444 115.476 23 116.712 23V21ZM114.352 19.18C114.352 18.9715 114.377 18.6742 114.44 18.2744L112.464 17.9656C112.393 18.4191 112.352 18.8285 112.352 19.18H114.352ZM114.436 18.2973L115.236 13.8573L113.268 13.5027L112.468 17.9427L114.436 18.2973ZM114.252 12.68H112.892V14.68H114.252V12.68ZM113.877 13.8534L114.377 11.0134L112.407 10.6666L111.907 13.5066L113.877 13.8534ZM113.392 11.84H114.752V9.84H113.392V11.84ZM115.737 11.0138L116.217 8.29379L114.247 7.94621L113.767 10.6662L115.737 11.0138ZM115.232 9.12H118.652V7.12H115.232V9.12ZM117.667 7.94621L117.187 10.6662L119.157 11.0138L119.637 8.29379L117.667 7.94621ZM118.172 11.84H120.412V9.84H118.172V11.84ZM119.427 10.6666L118.927 13.5066L120.897 13.8534L121.397 11.0134L119.427 10.6666ZM119.912 12.68H117.672V14.68H119.912V12.68ZM116.687 13.5042L115.887 17.9842L117.856 18.3358L118.656 13.8558L116.687 13.5042ZM120.677 16.4L119.692 16.2282L119.69 16.2356L120.677 16.4ZM121.857 13.38L121.029 12.8194L121.029 12.8194L121.857 13.38ZM123.977 11.38L124.468 12.2508L124.468 12.2508L123.977 11.38ZM128.577 11.16L129.091 10.3025L129.091 10.3025L128.577 11.16ZM129.737 12.42L128.829 12.8391L130.165 15.7342L130.721 12.5945L129.737 12.42ZM130.017 10.84V9.84H129.178L129.032 10.6655L130.017 10.84ZM133.437 10.84L134.421 11.0147L134.63 9.84H133.437V10.84ZM131.457 22V23H132.295L132.441 22.1747L131.457 22ZM128.037 22L127.054 21.8135L126.829 23H128.037V22ZM128.337 20.42L129.319 20.6065L127.564 19.7857L128.337 20.42ZM126.717 21.68L127.157 22.5781L127.157 22.5781L126.717 21.68ZM122.457 21.62L121.942 22.4775L121.951 22.4824L122.457 21.62ZM121.057 20.1L120.162 20.5472L120.166 20.5545L121.057 20.1ZM129.037 16.42L130.02 16.6043L130.021 16.5944L130.023 16.5844L129.037 16.42ZM128.517 14.22L127.81 14.9271L127.816 14.9333L127.822 14.9394L128.517 14.22ZM125.217 14.4L125.868 15.1593L125.878 15.1504L125.217 14.4ZM124.157 16.4L123.171 16.2306L123.17 16.2356L124.157 16.4ZM124.657 18.62L123.937 19.3146L123.95 19.3272L123.962 19.3394L124.657 18.62ZM127.957 18.44L128.618 19.1904L128.618 19.1904L127.957 18.44ZM121.662 16.5718C121.84 15.5487 122.186 14.6777 122.685 13.9406L121.029 12.8194C120.354 13.8156 119.913 14.958 119.692 16.2282L121.662 16.5718ZM122.685 13.9406C123.194 13.1886 123.79 12.634 124.468 12.2508L123.485 10.5092C122.51 11.0594 121.693 11.838 121.029 12.8194L122.685 13.9406ZM124.468 12.2508C125.15 11.866 125.855 11.68 126.597 11.68V9.68C125.499 9.68 124.457 9.96064 123.485 10.5092L124.468 12.2508ZM126.597 11.68C127.25 11.68 127.72 11.8124 128.062 12.0175L129.091 10.3025C128.366 9.86756 127.517 9.68 126.597 9.68V11.68ZM128.062 12.0175C128.439 12.2435 128.68 12.5172 128.829 12.8391L130.645 12.0009C130.313 11.2828 129.781 10.7165 129.091 10.3025L128.062 12.0175ZM130.721 12.5945L131.001 11.0145L129.032 10.6655L128.752 12.2455L130.721 12.5945ZM130.017 11.84H133.437V9.84H130.017V11.84ZM132.452 10.6653L130.472 21.8253L132.441 22.1747L134.421 11.0147L132.452 10.6653ZM131.457 21H128.037V23H131.457V21ZM129.019 22.1865L129.319 20.6065L127.354 20.2335L127.054 21.8135L129.019 22.1865ZM127.564 19.7857C127.235 20.1861 126.812 20.5198 126.277 20.7819L127.157 22.5781C127.928 22.2002 128.585 21.6939 129.11 21.0543L127.564 19.7857ZM126.277 20.7819C125.771 21.0295 125.204 21.16 124.557 21.16V23.16C125.483 23.16 126.355 22.9705 127.157 22.5781L126.277 20.7819ZM124.557 21.16C123.929 21.16 123.407 21.0182 122.963 20.7576L121.951 22.4824C122.733 22.9418 123.611 23.16 124.557 23.16V21.16ZM122.971 20.7625C122.54 20.5037 122.2 20.1404 121.947 19.6455L120.166 20.5545C120.58 21.3663 121.174 22.0163 121.942 22.4775L122.971 20.7625ZM121.951 19.6528C121.7 19.1499 121.557 18.5286 121.557 17.76H119.557C119.557 18.7781 119.747 19.7168 120.162 20.5472L121.951 19.6528ZM121.557 17.76C121.557 17.3954 121.591 16.9975 121.663 16.5644L119.69 16.2356C119.603 16.7625 119.557 17.2712 119.557 17.76H121.557ZM130.023 16.5844C130.07 16.3013 130.097 16.0254 130.097 15.76H128.097C128.097 15.8946 128.083 16.0587 128.05 16.2556L130.023 16.5844ZM130.097 15.76C130.097 14.898 129.834 14.1019 129.211 13.5006L127.822 14.9394C127.973 15.0848 128.097 15.3153 128.097 15.76H130.097ZM129.224 13.5129C128.641 12.9304 127.896 12.66 127.077 12.66V14.66C127.43 14.66 127.645 14.763 127.81 14.9271L129.224 13.5129ZM127.077 12.66C126.129 12.66 125.279 13.0123 124.556 13.6496L125.878 15.1504C126.274 14.801 126.665 14.66 127.077 14.66V12.66ZM124.566 13.6407C123.799 14.2979 123.35 15.1895 123.171 16.2306L125.142 16.5694C125.257 15.9038 125.514 15.4621 125.868 15.1593L124.566 13.6407ZM123.17 16.2356C123.123 16.5187 123.097 16.7946 123.097 17.06H125.097C125.097 16.9254 125.11 16.7613 125.143 16.5644L123.17 16.2356ZM123.097 17.06C123.097 17.9133 123.347 18.7028 123.937 19.3146L125.376 17.9254C125.22 17.7638 125.097 17.5134 125.097 17.06H123.097ZM123.962 19.3394C124.548 19.9055 125.283 20.18 126.097 20.18V18.18C125.763 18.18 125.538 18.0811 125.351 17.9006L123.962 19.3394ZM126.097 20.18C127.045 20.18 127.894 19.8277 128.618 19.1904L127.296 17.6896C126.899 18.039 126.509 18.18 126.097 18.18V20.18ZM128.618 19.1904C129.372 18.5262 129.825 17.6396 130.02 16.6043L128.054 16.2357C127.928 16.9071 127.662 17.3671 127.296 17.6896L128.618 19.1904ZM139.971 7.2L140.956 7.37432L141.164 6.2H139.971V7.2ZM137.351 22V23H138.189L138.336 22.1743L137.351 22ZM133.931 22L132.946 21.8257L132.738 23H133.931V22ZM136.551 7.2V6.2H135.712L135.566 7.02568L136.551 7.2ZM138.986 7.02568L136.366 21.8257L138.336 22.1743L140.956 7.37432L138.986 7.02568ZM137.351 21H133.931V23H137.351V21ZM134.916 22.1743L137.536 7.37432L135.566 7.02568L132.946 21.8257L134.916 22.1743ZM136.551 8.2H139.971V6.2H136.551V8.2Z" fill="white" mask="url(#path-1-outside-1_239_245)"/>
<mask id="path-3-outside-2_239_245" maskUnits="userSpaceOnUse" x="0" y="33" width="123" height="25" fill="black">
<rect fill="white" y="33" width="123" height="25"/>
<path d="M22.02 36.96L15.88 51H11.74L11.12 41.78L7.18 51H3.04L1.96 36.96H5.62L5.84 47.18L10.14 36.96H13.92L14.52 47.12L18.34 36.96H22.02ZM28.2152 39.68C29.6552 39.68 30.7952 40.0733 31.6352 40.86C32.4885 41.6333 32.9152 42.6933 32.9152 44.04C32.9152 44.48 32.8818 44.8733 32.8152 45.22C32.7618 45.5267 32.6818 45.8533 32.5752 46.2H24.8352C24.8218 46.28 24.8152 46.4067 24.8152 46.58C24.8152 47.1667 24.9752 47.6133 25.2952 47.92C25.6152 48.2267 26.0418 48.38 26.5752 48.38C27.4285 48.38 28.0818 48.02 28.5352 47.3H32.1752C31.6952 48.4333 30.9152 49.36 29.8352 50.08C28.7552 50.8 27.5418 51.16 26.1952 51.16C24.7552 51.16 23.6018 50.76 22.7352 49.96C21.8818 49.16 21.4552 48.0733 21.4552 46.7C21.4552 46.2867 21.4952 45.86 21.5752 45.42C21.7752 44.26 22.1885 43.2467 22.8152 42.38C23.4418 41.5133 24.2218 40.8467 25.1552 40.38C26.0885 39.9133 27.1085 39.68 28.2152 39.68ZM29.4552 44.46C29.4818 44.2733 29.4952 44.1467 29.4952 44.08C29.4952 43.5467 29.3285 43.14 28.9952 42.86C28.6618 42.5667 28.2218 42.42 27.6752 42.42C27.0885 42.42 26.5685 42.6 26.1152 42.96C25.6752 43.3067 25.3552 43.8067 25.1552 44.46H29.4552ZM38.6794 41.42C39.106 40.9 39.646 40.48 40.2994 40.16C40.9527 39.84 41.666 39.68 42.4394 39.68C43.6394 39.68 44.606 40.0733 45.3394 40.86C46.086 41.6333 46.4594 42.6933 46.4594 44.04C46.4594 44.4667 46.4194 44.92 46.3394 45.4C46.1394 46.5467 45.746 47.56 45.1594 48.44C44.5727 49.3067 43.866 49.98 43.0394 50.46C42.2127 50.9267 41.3394 51.16 40.4194 51.16C39.6327 51.16 38.9727 51.0067 38.4394 50.7C37.906 50.38 37.5194 49.96 37.2794 49.44L36.9994 51H33.5794L36.1994 36.2H39.6194L38.6794 41.42ZM42.8794 45.4C42.9194 45.1733 42.9394 44.9667 42.9394 44.78C42.9394 44.1133 42.746 43.5933 42.3594 43.22C41.986 42.8467 41.506 42.66 40.9194 42.66C40.2394 42.66 39.6194 42.9067 39.0594 43.4C38.4994 43.8933 38.1394 44.5667 37.9794 45.42C37.9394 45.66 37.9194 45.88 37.9194 46.08C37.9194 46.7333 38.106 47.2467 38.4794 47.62C38.8527 47.9933 39.3327 48.18 39.9194 48.18C40.5994 48.18 41.2194 47.9333 41.7794 47.44C42.3527 46.9333 42.7194 46.2533 42.8794 45.4ZM59.5225 36.96C60.8158 36.96 61.9292 37.1933 62.8625 37.66C63.8092 38.1133 64.5292 38.76 65.0225 39.6C65.5292 40.4267 65.7825 41.4 65.7825 42.52C65.7825 42.9067 65.7358 43.3933 65.6425 43.98C65.4025 45.3533 64.8825 46.5733 64.0825 47.64C63.2958 48.7067 62.2892 49.5333 61.0625 50.12C59.8492 50.7067 58.5092 51 57.0425 51H51.7825L54.2625 36.96H59.5225ZM57.3425 48.08C58.6358 48.08 59.7092 47.72 60.5625 47C61.4158 46.28 61.9492 45.2733 62.1625 43.98C62.2292 43.58 62.2625 43.2467 62.2625 42.98C62.2625 41.9933 61.9625 41.2333 61.3625 40.7C60.7625 40.1533 59.9092 39.88 58.8025 39.88H57.1625L55.7225 48.08H57.3425ZM73.2738 39.68C74.7138 39.68 75.8538 40.0733 76.6938 40.86C77.5471 41.6333 77.9738 42.6933 77.9738 44.04C77.9738 44.48 77.9404 44.8733 77.8738 45.22C77.8204 45.5267 77.7404 45.8533 77.6338 46.2H69.8938C69.8804 46.28 69.8738 46.4067 69.8738 46.58C69.8738 47.1667 70.0338 47.6133 70.3538 47.92C70.6738 48.2267 71.1004 48.38 71.6338 48.38C72.4871 48.38 73.1404 48.02 73.5938 47.3H77.2338C76.7538 48.4333 75.9738 49.36 74.8938 50.08C73.8138 50.8 72.6004 51.16 71.2538 51.16C69.8138 51.16 68.6604 50.76 67.7938 49.96C66.9404 49.16 66.5138 48.0733 66.5138 46.7C66.5138 46.2867 66.5538 45.86 66.6338 45.42C66.8338 44.26 67.2471 43.2467 67.8738 42.38C68.5004 41.5133 69.2804 40.8467 70.2138 40.38C71.1471 39.9133 72.1671 39.68 73.2738 39.68ZM74.5138 44.46C74.5404 44.2733 74.5538 44.1467 74.5538 44.08C74.5538 43.5467 74.3871 43.14 74.0538 42.86C73.7204 42.5667 73.2804 42.42 72.7338 42.42C72.1471 42.42 71.6271 42.6 71.1738 42.96C70.7338 43.3067 70.4138 43.8067 70.2138 44.46H74.5138ZM83.278 51.16C82.398 51.16 81.6046 51.02 80.898 50.74C80.2046 50.46 79.658 50.0733 79.258 49.58C78.858 49.0733 78.658 48.4933 78.658 47.84C78.658 47.7467 78.6713 47.58 78.698 47.34H81.998C81.9713 47.7533 82.0913 48.0867 82.358 48.34C82.638 48.58 83.0313 48.7 83.538 48.7C83.9646 48.7 84.318 48.62 84.598 48.46C84.878 48.3 85.018 48.0733 85.018 47.78C85.018 47.5 84.8646 47.28 84.558 47.12C84.2646 46.9467 83.7713 46.74 83.078 46.5C82.358 46.26 81.7513 46.0267 81.258 45.8C80.778 45.56 80.3646 45.22 80.018 44.78C79.6713 44.34 79.498 43.7867 79.498 43.12C79.498 42.4667 79.6913 41.88 80.078 41.36C80.4646 40.8267 81.0046 40.4133 81.698 40.12C82.4046 39.8267 83.218 39.68 84.138 39.68C85.058 39.68 85.858 39.8333 86.538 40.14C87.218 40.4333 87.7446 40.8467 88.118 41.38C88.4913 41.9133 88.678 42.5133 88.678 43.18L88.658 43.48H85.558C85.5846 43.08 85.4646 42.76 85.198 42.52C84.9313 42.28 84.5513 42.16 84.058 42.16C83.6713 42.16 83.3513 42.24 83.098 42.4C82.858 42.56 82.738 42.78 82.738 43.06C82.738 43.3533 82.898 43.6 83.218 43.8C83.5513 43.9867 84.0646 44.2 84.758 44.44C85.478 44.68 86.0713 44.92 86.538 45.16C87.018 45.3867 87.4246 45.7133 87.758 46.14C88.1046 46.5533 88.278 47.0733 88.278 47.7C88.278 48.42 88.058 49.04 87.618 49.56C87.1913 50.08 86.598 50.48 85.838 50.76C85.0913 51.0267 84.238 51.16 83.278 51.16ZM93.6903 38.68C93.157 38.68 92.7303 38.54 92.4103 38.26C92.1036 37.9667 91.9503 37.6 91.9503 37.16C91.9503 36.56 92.1836 36.0467 92.6503 35.62C93.117 35.1933 93.6836 34.98 94.3503 34.98C94.8836 34.98 95.3036 35.1267 95.6103 35.42C95.917 35.7 96.0703 36.0667 96.0703 36.52C96.0703 37.1067 95.837 37.6133 95.3703 38.04C94.9036 38.4667 94.3436 38.68 93.6903 38.68ZM95.1703 39.84L93.2103 51H89.7903L91.7503 39.84H95.1703ZM101.929 39.68C102.715 39.68 103.382 39.84 103.929 40.16C104.475 40.48 104.855 40.9 105.069 41.42L105.349 39.84H108.769L106.809 50.98C106.622 52.0067 106.249 52.9333 105.689 53.76C105.142 54.6 104.402 55.2667 103.469 55.76C102.549 56.2533 101.475 56.5 100.249 56.5C98.5954 56.5 97.3221 56.1067 96.4288 55.32C95.5354 54.5467 95.1354 53.4933 95.2287 52.16H98.6088C98.6488 52.5867 98.8421 52.92 99.1888 53.16C99.5488 53.4133 100.022 53.54 100.609 53.54C101.315 53.54 101.915 53.3333 102.409 52.92C102.902 52.52 103.229 51.8733 103.389 50.98L103.669 49.4C103.242 49.92 102.702 50.3467 102.049 50.68C101.409 51 100.695 51.16 99.9088 51.16C99.1221 51.16 98.4221 50.98 97.8088 50.62C97.2088 50.26 96.7354 49.7467 96.3888 49.08C96.0554 48.4133 95.8888 47.6333 95.8888 46.74C95.8888 46.3267 95.9288 45.88 96.0088 45.4C96.2088 44.2533 96.6021 43.2467 97.1888 42.38C97.7754 41.5133 98.4821 40.8467 99.3088 40.38C100.135 39.9133 101.009 39.68 101.929 39.68ZM104.369 45.42C104.409 45.18 104.429 44.96 104.429 44.76C104.429 44.1067 104.235 43.5933 103.849 43.22C103.475 42.8467 102.995 42.66 102.409 42.66C101.729 42.66 101.109 42.9067 100.549 43.4C99.9888 43.88 99.6354 44.5467 99.4888 45.4C99.4488 45.64 99.4288 45.86 99.4288 46.06C99.4288 46.7133 99.6154 47.2333 99.9888 47.62C100.375 47.9933 100.855 48.18 101.429 48.18C102.109 48.18 102.729 47.9333 103.289 47.44C103.849 46.9467 104.209 46.2733 104.369 45.42ZM118.043 39.72C119.163 39.72 120.043 40.0333 120.683 40.66C121.323 41.2867 121.643 42.16 121.643 43.28C121.643 43.6533 121.603 44.0533 121.523 44.48L120.363 51H116.963L118.043 44.94C118.083 44.7133 118.103 44.5133 118.103 44.34C118.103 43.78 117.943 43.3467 117.623 43.04C117.316 42.7333 116.883 42.58 116.323 42.58C115.656 42.58 115.096 42.7867 114.643 43.2C114.19 43.6133 113.896 44.1933 113.763 44.94V44.84L112.683 51H109.263L111.223 39.84H114.643L114.383 41.34C114.823 40.8467 115.356 40.4533 115.983 40.16C116.623 39.8667 117.31 39.72 118.043 39.72Z"/>
</mask>
<path d="M22.02 36.96L22.9362 37.3607L23.5488 35.96H22.02V36.96ZM15.88 51V52H16.5341L16.7962 51.4007L15.88 51ZM11.74 51L10.7423 51.0671L10.805 52H11.74V51ZM11.12 41.78L12.1177 41.7129L10.2004 41.387L11.12 41.78ZM7.18 51V52H7.84015L8.09956 51.393L7.18 51ZM3.04 51L2.04295 51.0767L2.11397 52H3.04V51ZM1.96 36.96V35.96H0.880123L0.962946 37.0367L1.96 36.96ZM5.62 36.96L6.61977 36.9385L6.59871 35.96H5.62V36.96ZM5.84 47.18L4.84023 47.2015L6.76174 47.5678L5.84 47.18ZM10.14 36.96V35.96H9.47584L9.21826 36.5722L10.14 36.96ZM13.92 36.96L14.9183 36.901L14.8627 35.96H13.92V36.96ZM14.52 47.12L13.5217 47.179L15.456 47.4719L14.52 47.12ZM18.34 36.96V35.96H17.6476L17.404 36.6081L18.34 36.96ZM21.1038 36.5593L14.9638 50.5993L16.7962 51.4007L22.9362 37.3607L21.1038 36.5593ZM15.88 50H11.74V52H15.88V50ZM12.7377 50.9329L12.1177 41.7129L10.1223 41.8471L10.7423 51.0671L12.7377 50.9329ZM10.2004 41.387L6.26044 50.607L8.09956 51.393L12.0396 42.173L10.2004 41.387ZM7.18 50H3.04V52H7.18V50ZM4.03705 50.9233L2.95705 36.8833L0.962946 37.0367L2.04295 51.0767L4.03705 50.9233ZM1.96 37.96H5.62V35.96H1.96V37.96ZM4.62023 36.9815L4.84023 47.2015L6.83977 47.1585L6.61977 36.9385L4.62023 36.9815ZM6.76174 47.5678L11.0617 37.3478L9.21826 36.5722L4.91826 46.7922L6.76174 47.5678ZM10.14 37.96H13.92V35.96H10.14V37.96ZM12.9217 37.019L13.5217 47.179L15.5183 47.061L14.9183 36.901L12.9217 37.019ZM15.456 47.4719L19.276 37.3119L17.404 36.6081L13.584 46.7681L15.456 47.4719ZM18.34 37.96H22.02V35.96H18.34V37.96ZM31.6352 40.86L30.9516 41.5899L30.9576 41.5955L30.9636 41.601L31.6352 40.86ZM32.8152 45.22L31.8332 45.0312L31.8315 45.0399L31.8299 45.0487L32.8152 45.22ZM32.5752 46.2V47.2H33.3137L33.5309 46.4941L32.5752 46.2ZM24.8352 46.2V45.2H23.988L23.8488 46.0356L24.8352 46.2ZM25.2952 47.92L25.9871 47.198L25.9871 47.198L25.2952 47.92ZM28.5352 47.3V46.3H27.9831L27.6889 46.7672L28.5352 47.3ZM32.1752 47.3L33.096 47.69L33.6847 46.3H32.1752V47.3ZM29.8352 50.08L29.2805 49.2479L29.2805 49.2479L29.8352 50.08ZM22.7352 49.96L22.0512 50.6896L22.0569 50.6948L22.7352 49.96ZM21.5752 45.42L22.5591 45.5989L22.5606 45.5899L21.5752 45.42ZM22.8152 42.38L22.0048 41.7941L22.0048 41.7941L22.8152 42.38ZM25.1552 40.38L25.6024 41.2744L25.6024 41.2744L25.1552 40.38ZM29.4552 44.46V45.46H30.3225L30.4451 44.6014L29.4552 44.46ZM28.9952 42.86L28.3345 43.6107L28.3432 43.6183L28.352 43.6257L28.9952 42.86ZM26.1152 42.96L26.734 43.7455L26.737 43.7431L26.1152 42.96ZM25.1552 44.46L24.199 44.1673L23.8032 45.46H25.1552V44.46ZM28.2152 40.68C29.468 40.68 30.3404 41.0175 30.9516 41.5899L32.3187 40.1301C31.2499 39.1291 29.8423 38.68 28.2152 38.68V40.68ZM30.9636 41.601C31.5719 42.1522 31.9152 42.9232 31.9152 44.04H33.9152C33.9152 42.4635 33.4051 41.1145 32.3067 40.119L30.9636 41.601ZM31.9152 44.04C31.9152 44.4314 31.8854 44.7597 31.8332 45.0312L33.7972 45.4088C33.8783 44.987 33.9152 44.5286 33.9152 44.04H31.9152ZM31.8299 45.0487C31.7849 45.3077 31.7156 45.5931 31.6194 45.9059L33.5309 46.4941C33.648 46.1136 33.7388 45.7456 33.8004 45.3913L31.8299 45.0487ZM32.5752 45.2H24.8352V47.2H32.5752V45.2ZM23.8488 46.0356C23.821 46.2023 23.8152 46.399 23.8152 46.58H25.8152C25.8152 46.505 25.8166 46.4484 25.8188 46.4076C25.8211 46.3634 25.8235 46.3528 25.8216 46.3644L23.8488 46.0356ZM23.8152 46.58C23.8152 47.3473 24.0287 48.0913 24.6033 48.642L25.9871 47.198C25.9217 47.1353 25.8152 46.9861 25.8152 46.58H23.8152ZM24.6033 48.642C25.1461 49.1622 25.8397 49.38 26.5752 49.38V47.38C26.244 47.38 26.0842 47.2911 25.9871 47.198L24.6033 48.642ZM26.5752 49.38C27.7709 49.38 28.7443 48.8446 29.3814 47.8328L27.6889 46.7672C27.4193 47.1954 27.0861 47.38 26.5752 47.38V49.38ZM28.5352 48.3H32.1752V46.3H28.5352V48.3ZM31.2543 46.91C30.8548 47.8533 30.2072 48.6301 29.2805 49.2479L30.3899 50.9121C31.6231 50.0899 32.5355 49.0134 33.096 47.69L31.2543 46.91ZM29.2805 49.2479C28.3711 49.8542 27.3522 50.16 26.1952 50.16V52.16C27.7314 52.16 29.1392 51.7458 30.3899 50.9121L29.2805 49.2479ZM26.1952 50.16C24.9481 50.16 24.0565 49.8188 23.4134 49.2252L22.0569 50.6948C23.1471 51.7012 24.5622 52.16 26.1952 52.16V50.16ZM23.4191 49.2305C22.8027 48.6526 22.4552 47.8493 22.4552 46.7H20.4552C20.4552 48.2973 20.9609 49.6674 22.0512 50.6895L23.4191 49.2305ZM22.4552 46.7C22.4552 46.3513 22.4889 45.9846 22.559 45.5989L20.5913 45.2411C20.5014 45.7354 20.4552 46.222 20.4552 46.7H22.4552ZM22.5606 45.5899C22.7374 44.5648 23.0968 43.6971 23.6255 42.9659L22.0048 41.7941C21.2801 42.7963 20.813 43.9552 20.5897 45.2501L22.5606 45.5899ZM23.6255 42.9659C24.1602 42.2265 24.8169 41.6672 25.6024 41.2744L24.7079 39.4856C23.6268 40.0261 22.7235 40.8002 22.0048 41.7941L23.6255 42.9659ZM25.6024 41.2744C26.3885 40.8814 27.2541 40.68 28.2152 40.68V38.68C26.9629 38.68 25.7885 38.9453 24.7079 39.4856L25.6024 41.2744ZM30.4451 44.6014C30.4705 44.4235 30.4952 44.2285 30.4952 44.08H28.4952C28.4952 44.066 28.4958 44.0619 28.495 44.0724C28.4944 44.0816 28.4931 44.0971 28.4907 44.1203C28.4857 44.1671 28.4775 44.2323 28.4652 44.3186L30.4451 44.6014ZM30.4952 44.08C30.4952 43.324 30.2482 42.6066 29.6383 42.0943L28.352 43.6257C28.4087 43.6734 28.4952 43.7693 28.4952 44.08H30.4952ZM29.6558 42.1093C29.1002 41.6204 28.4065 41.42 27.6752 41.42V43.42C28.0372 43.42 28.2234 43.5129 28.3345 43.6107L29.6558 42.1093ZM27.6752 41.42C26.8659 41.42 26.126 41.6744 25.4933 42.1769L26.737 43.7431C27.011 43.5256 27.311 43.42 27.6752 43.42V41.42ZM25.4963 42.1745C24.864 42.6727 24.4453 43.3626 24.199 44.1673L26.1114 44.7527C26.265 44.2508 26.4863 43.9406 26.734 43.7455L25.4963 42.1745ZM25.1552 45.46H29.4552V43.46H25.1552V45.46ZM38.6794 41.42L37.6952 41.2428L37.0139 45.0263L39.4524 42.0543L38.6794 41.42ZM40.2994 40.16L39.8595 39.2619L39.8595 39.2619L40.2994 40.16ZM45.3394 40.86L44.6079 41.5419L44.6139 41.5483L44.62 41.5546L45.3394 40.86ZM46.3394 45.4L47.3245 45.5718L47.3258 45.5644L46.3394 45.4ZM45.1594 48.44L45.9875 49.0006L45.9914 48.9947L45.1594 48.44ZM43.0394 50.46L43.531 51.3309L43.5415 51.3248L43.0394 50.46ZM38.4394 50.7L37.9249 51.5575L37.9328 51.5623L37.9409 51.5669L38.4394 50.7ZM37.2794 49.44L38.1873 49.0209L36.8563 46.1369L36.2951 49.2633L37.2794 49.44ZM36.9994 51V52H37.8359L37.9836 51.1767L36.9994 51ZM33.5794 51L32.5947 50.8257L32.3868 52H33.5794V51ZM36.1994 36.2V35.2H35.3609L35.2147 36.0257L36.1994 36.2ZM39.6194 36.2L40.6035 36.3772L40.8155 35.2H39.6194V36.2ZM42.8794 45.4L43.8623 45.5843L43.8642 45.5738L42.8794 45.4ZM42.3594 43.22L41.6523 43.9271L41.6585 43.9333L41.6648 43.9394L42.3594 43.22ZM39.0594 43.4L39.7204 44.1504L39.7204 44.1504L39.0594 43.4ZM37.9794 45.42L36.9965 45.2357L36.9946 45.2456L36.993 45.2556L37.9794 45.42ZM38.4794 47.62L39.1865 46.9129L39.1865 46.9129L38.4794 47.62ZM41.7794 47.44L42.4404 48.1904L42.4416 48.1893L41.7794 47.44ZM39.4524 42.0543C39.781 41.6539 40.2039 41.3202 40.7392 41.0581L39.8595 39.2619C39.0881 39.6398 38.4311 40.1461 37.9063 40.7857L39.4524 42.0543ZM40.7392 41.0581C41.2471 40.8093 41.8087 40.68 42.4394 40.68V38.68C41.5234 38.68 40.6583 38.8707 39.8595 39.2619L40.7392 41.0581ZM42.4394 40.68C43.3975 40.68 44.0867 40.9827 44.6079 41.5419L46.0708 40.1781C45.1254 39.1639 43.8812 38.68 42.4394 38.68V40.68ZM44.62 41.5546C45.144 42.0973 45.4594 42.8837 45.4594 44.04H47.4594C47.4594 42.503 47.0281 41.1694 46.0588 40.1654L44.62 41.5546ZM45.4594 44.04C45.4594 44.4046 45.4252 44.8025 45.353 45.2356L47.3258 45.5644C47.4136 45.0375 47.4594 44.5288 47.4594 44.04H45.4594ZM45.3542 45.2282C45.1757 46.2518 44.8295 47.1321 44.3273 47.8853L45.9914 48.9947C46.6626 47.9879 47.103 46.8415 47.3245 45.5718L45.3542 45.2282ZM44.3313 47.8794C43.8209 48.6334 43.2218 49.1977 42.5372 49.5952L43.5415 51.3248C44.5103 50.7623 45.3246 49.9799 45.9875 49.0006L44.3313 47.8794ZM42.5478 49.5892C41.8661 49.974 41.1615 50.16 40.4194 50.16V52.16C41.5173 52.16 42.5593 51.8794 43.531 51.3308L42.5478 49.5892ZM40.4194 50.16C39.7599 50.16 39.2829 50.0315 38.9378 49.8331L37.9409 51.5669C38.6626 51.9819 39.5056 52.16 40.4194 52.16V50.16ZM38.9539 49.8425C38.5772 49.6165 38.3359 49.3428 38.1873 49.0209L36.3714 49.8591C36.7028 50.5772 37.2349 51.1435 37.9249 51.5575L38.9539 49.8425ZM36.2951 49.2633L36.0151 50.8233L37.9836 51.1767L38.2636 49.6167L36.2951 49.2633ZM36.9994 50H33.5794V52H36.9994V50ZM34.5641 51.1743L37.1841 36.3743L35.2147 36.0257L32.5947 50.8257L34.5641 51.1743ZM36.1994 37.2H39.6194V35.2H36.1994V37.2ZM38.6352 36.0228L37.6952 41.2428L39.6635 41.5972L40.6035 36.3772L38.6352 36.0228ZM43.8642 45.5738C43.912 45.3024 43.9394 45.0365 43.9394 44.78H41.9394C41.9394 44.8968 41.9267 45.0442 41.8946 45.2262L43.8642 45.5738ZM43.9394 44.78C43.9394 43.9115 43.6807 43.1057 43.054 42.5006L41.6648 43.9394C41.8114 44.081 41.9394 44.3152 41.9394 44.78H43.9394ZM43.0665 42.5129C42.4839 41.9304 41.739 41.66 40.9194 41.66V43.66C41.2731 43.66 41.4881 43.763 41.6523 43.9271L43.0665 42.5129ZM40.9194 41.66C39.9716 41.66 39.1218 42.0123 38.3983 42.6496L39.7204 44.1504C40.117 43.801 40.5072 43.66 40.9194 43.66V41.66ZM38.3983 42.6496C37.6445 43.3138 37.1906 44.2004 36.9965 45.2357L38.9622 45.6043C39.0881 44.9329 39.3543 44.4729 39.7204 44.1504L38.3983 42.6496ZM36.993 45.2556C36.9458 45.5387 36.9194 45.8146 36.9194 46.08H38.9194C38.9194 45.9454 38.933 45.7813 38.9658 45.5844L36.993 45.2556ZM36.9194 46.08C36.9194 46.9318 37.169 47.7238 37.7723 48.3271L39.1865 46.9129C39.0431 46.7695 38.9194 46.5349 38.9194 46.08H36.9194ZM37.7723 48.3271C38.3548 48.9096 39.0998 49.18 39.9194 49.18V47.18C39.5656 47.18 39.3506 47.077 39.1865 46.9129L37.7723 48.3271ZM39.9194 49.18C40.8672 49.18 41.717 48.8277 42.4404 48.1904L41.1183 46.6896C40.7218 47.039 40.3316 47.18 39.9194 47.18V49.18ZM42.4416 48.1893C43.2039 47.5157 43.667 46.6254 43.8622 45.5843L41.8965 45.2157C41.7717 45.8812 41.5015 46.351 41.1172 46.6907L42.4416 48.1893ZM62.8625 37.66L62.4153 38.5544L62.4229 38.5582L62.4306 38.5619L62.8625 37.66ZM65.0225 39.6L64.1602 40.1064L64.165 40.1145L64.1699 40.1226L65.0225 39.6ZM65.6425 43.98L66.6276 44.1521L66.6289 44.1446L66.6301 44.1371L65.6425 43.98ZM64.0825 47.64L63.2825 47.04L63.2777 47.0465L64.0825 47.64ZM61.0625 50.12L60.631 49.2179L60.6272 49.2197L61.0625 50.12ZM51.7825 51L50.7977 50.8261L50.5904 52H51.7825V51ZM54.2625 36.96V35.96H53.4237L53.2777 36.7861L54.2625 36.96ZM60.5625 47L61.2074 47.7643L61.2074 47.7643L60.5625 47ZM62.1625 43.98L61.1761 43.8156L61.1758 43.8173L62.1625 43.98ZM61.3625 40.7L60.689 41.4393L60.6981 41.4474L61.3625 40.7ZM57.1625 39.88V38.88H56.3228L56.1776 39.707L57.1625 39.88ZM55.7225 48.08L54.7376 47.907L54.5316 49.08H55.7225V48.08ZM59.5225 37.96C60.697 37.96 61.6501 38.1718 62.4153 38.5544L63.3097 36.7656C62.2083 36.2148 60.9347 35.96 59.5225 35.96V37.96ZM62.4306 38.5619C63.2122 38.9362 63.7756 39.4516 64.1602 40.1064L65.8848 39.0936C65.2827 38.0684 64.4061 37.2905 63.2944 36.7581L62.4306 38.5619ZM64.1699 40.1226C64.566 40.7689 64.7825 41.5553 64.7825 42.52H66.7825C66.7825 41.2447 66.4923 40.0845 65.8751 39.0774L64.1699 40.1226ZM64.7825 42.52C64.7825 42.8341 64.7439 43.2638 64.6549 43.8229L66.6301 44.1371C66.7278 43.5229 66.7825 42.9793 66.7825 42.52H64.7825ZM64.6574 43.8079C64.4433 45.0333 63.9836 46.1052 63.2825 47.04L64.8825 48.24C65.7814 47.0415 66.3617 45.6734 66.6276 44.1521L64.6574 43.8079ZM63.2777 47.0465C62.5909 47.9777 61.7138 48.7 60.631 49.2179L61.494 51.0221C62.8645 50.3667 64.0008 49.4356 64.8873 48.2335L63.2777 47.0465ZM60.6272 49.2197C59.5613 49.7351 58.3719 50 57.0425 50V52C58.6464 52 60.1371 51.6782 61.4978 51.0203L60.6272 49.2197ZM57.0425 50H51.7825V52H57.0425V50ZM52.7673 51.1739L55.2473 37.1339L53.2777 36.7861L50.7977 50.8261L52.7673 51.1739ZM54.2625 37.96H59.5225V35.96H54.2625V37.96ZM57.3425 49.08C58.8324 49.08 60.1456 48.6602 61.2074 47.7643L59.9176 46.2357C59.2727 46.7798 58.4393 47.08 57.3425 47.08V49.08ZM61.2074 47.7643C62.2733 46.8649 62.9042 45.6279 63.1492 44.1427L61.1758 43.8173C60.9941 44.9188 60.5583 45.6951 59.9176 46.2357L61.2074 47.7643ZM63.1489 44.1444C63.2205 43.715 63.2625 43.3223 63.2625 42.98H61.2625C61.2625 43.1711 61.2379 43.445 61.1761 43.8156L63.1489 44.1444ZM63.2625 42.98C63.2625 41.7785 62.8881 40.7182 62.0269 39.9526L60.6981 41.4474C61.0369 41.7485 61.2625 42.2081 61.2625 42.98H63.2625ZM62.036 39.9608C61.1938 39.1935 60.0668 38.88 58.8025 38.88V40.88C59.7515 40.88 60.3312 41.1132 60.689 41.4392L62.036 39.9608ZM58.8025 38.88H57.1625V40.88H58.8025V38.88ZM56.1776 39.707L54.7376 47.907L56.7074 48.253L58.1474 40.053L56.1776 39.707ZM55.7225 49.08H57.3425V47.08H55.7225V49.08ZM76.6938 40.86L76.0102 41.5899L76.0162 41.5955L76.0222 41.601L76.6938 40.86ZM77.8738 45.22L76.8917 45.0312L76.8901 45.0399L76.8885 45.0487L77.8738 45.22ZM77.6338 46.2V47.2H78.3723L78.5895 46.4941L77.6338 46.2ZM69.8938 46.2V45.2H69.0466L68.9074 46.0356L69.8938 46.2ZM70.3538 47.92L71.0457 47.198L71.0457 47.198L70.3538 47.92ZM73.5938 47.3V46.3H73.0417L72.7475 46.7672L73.5938 47.3ZM77.2338 47.3L78.1546 47.69L78.7433 46.3H77.2338V47.3ZM74.8938 50.08L74.3391 49.2479L74.3391 49.2479L74.8938 50.08ZM67.7938 49.96L67.1098 50.6896L67.1155 50.6948L67.7938 49.96ZM66.6338 45.42L67.6177 45.5989L67.6192 45.5899L66.6338 45.42ZM67.8738 42.38L67.0634 41.7941L67.0634 41.7941L67.8738 42.38ZM70.2138 40.38L70.661 41.2744L70.661 41.2744L70.2138 40.38ZM74.5138 44.46V45.46H75.381L75.5037 44.6014L74.5138 44.46ZM74.0538 42.86L73.3931 43.6107L73.4018 43.6183L73.4106 43.6257L74.0538 42.86ZM71.1738 42.96L71.7926 43.7455L71.7956 43.7431L71.1738 42.96ZM70.2138 44.46L69.2576 44.1673L68.8618 45.46H70.2138V44.46ZM73.2738 40.68C74.5266 40.68 75.399 41.0175 76.0102 41.5899L77.3773 40.1301C76.3085 39.1291 74.9009 38.68 73.2738 38.68V40.68ZM76.0222 41.601C76.6305 42.1522 76.9738 42.9232 76.9738 44.04H78.9738C78.9738 42.4635 78.4637 41.1145 77.3653 40.119L76.0222 41.601ZM76.9738 44.04C76.9738 44.4314 76.9439 44.7597 76.8917 45.0312L78.8558 45.4088C78.9369 44.987 78.9738 44.5286 78.9738 44.04H76.9738ZM76.8885 45.0487C76.8435 45.3077 76.7742 45.5931 76.678 45.9059L78.5895 46.4941C78.7066 46.1136 78.7974 45.7456 78.859 45.3913L76.8885 45.0487ZM77.6338 45.2H69.8938V47.2H77.6338V45.2ZM68.9074 46.0356C68.8796 46.2023 68.8738 46.399 68.8738 46.58H70.8738C70.8738 46.505 70.8752 46.4484 70.8774 46.4076C70.8797 46.3634 70.8821 46.3528 70.8801 46.3644L68.9074 46.0356ZM68.8738 46.58C68.8738 47.3473 69.0873 48.0913 69.6618 48.642L71.0457 47.198C70.9802 47.1353 70.8738 46.9861 70.8738 46.58H68.8738ZM69.6618 48.642C70.2047 49.1622 70.8983 49.38 71.6338 49.38V47.38C71.3026 47.38 71.1428 47.2911 71.0457 47.198L69.6618 48.642ZM71.6338 49.38C72.8295 49.38 73.8029 48.8446 74.44 47.8328L72.7475 46.7672C72.4779 47.1954 72.1447 47.38 71.6338 47.38V49.38ZM73.5938 48.3H77.2338V46.3H73.5938V48.3ZM76.3129 46.91C75.9134 47.8533 75.2658 48.6301 74.3391 49.2479L75.4485 50.9121C76.6817 50.0899 77.5941 49.0134 78.1546 47.69L76.3129 46.91ZM74.3391 49.2479C73.4297 49.8542 72.4108 50.16 71.2538 50.16V52.16C72.79 52.16 74.1978 51.7458 75.4485 50.9121L74.3391 49.2479ZM71.2538 50.16C70.0067 50.16 69.1151 49.8188 68.472 49.2252L67.1155 50.6948C68.2057 51.7012 69.6208 52.16 71.2538 52.16V50.16ZM68.4777 49.2305C67.8613 48.6526 67.5138 47.8493 67.5138 46.7H65.5138C65.5138 48.2973 66.0195 49.6674 67.1098 50.6895L68.4777 49.2305ZM67.5138 46.7C67.5138 46.3513 67.5475 45.9846 67.6176 45.5989L65.6499 45.2411C65.56 45.7354 65.5138 46.222 65.5138 46.7H67.5138ZM67.6192 45.5899C67.796 44.5648 68.1554 43.6971 68.6841 42.9659L67.0634 41.7941C66.3387 42.7963 65.8715 43.9552 65.6483 45.2501L67.6192 45.5899ZM68.6841 42.9659C69.2188 42.2265 69.8754 41.6672 70.661 41.2744L69.7665 39.4856C68.6854 40.0261 67.782 40.8002 67.0634 41.7941L68.6841 42.9659ZM70.661 41.2744C71.4471 40.8814 72.3127 40.68 73.2738 40.68V38.68C72.0215 38.68 70.8471 38.9453 69.7665 39.4856L70.661 41.2744ZM75.5037 44.6014C75.5291 44.4235 75.5538 44.2285 75.5538 44.08H73.5538C73.5538 44.066 73.5543 44.0619 73.5536 44.0724C73.553 44.0816 73.5517 44.0971 73.5492 44.1203C73.5443 44.1671 73.5361 44.2323 73.5238 44.3186L75.5037 44.6014ZM75.5538 44.08C75.5538 43.324 75.3068 42.6066 74.6969 42.0943L73.4106 43.6257C73.4673 43.6734 73.5538 43.7693 73.5538 44.08H75.5538ZM74.7144 42.1093C74.1588 41.6204 73.4651 41.42 72.7338 41.42V43.42C73.0958 43.42 73.282 43.5129 73.3931 43.6107L74.7144 42.1093ZM72.7338 41.42C71.9245 41.42 71.1846 41.6744 70.5519 42.1769L71.7956 43.7431C72.0695 43.5256 72.3696 43.42 72.7338 43.42V41.42ZM70.5549 42.1745C69.9226 42.6727 69.5039 43.3626 69.2576 44.1673L71.17 44.7527C71.3236 44.2508 71.5449 43.9406 71.7926 43.7455L70.5549 42.1745ZM70.2138 45.46H74.5138V43.46H70.2138V45.46ZM80.898 50.74L80.5235 51.6673L80.5296 51.6697L80.898 50.74ZM79.258 49.58L78.473 50.1997L78.4812 50.2098L79.258 49.58ZM78.698 47.34V46.34H77.8029L77.7041 47.2296L78.698 47.34ZM81.998 47.34L82.9959 47.4044L83.0646 46.34H81.998V47.34ZM82.358 48.34L81.6692 49.065L81.6878 49.0826L81.7072 49.0993L82.358 48.34ZM84.598 48.46L85.0941 49.3282L85.0941 49.3282L84.598 48.46ZM84.558 47.12L84.0492 47.9809L84.072 47.9944L84.0954 48.0066L84.558 47.12ZM83.078 46.5L83.4051 45.555L83.3942 45.5513L83.078 46.5ZM81.258 45.8L80.8108 46.6944L80.8255 46.7018L80.8405 46.7087L81.258 45.8ZM80.018 44.78L80.8035 44.1611L80.8035 44.1611L80.018 44.78ZM80.078 41.36L80.8805 41.9567L80.8876 41.947L80.078 41.36ZM81.698 40.12L81.3146 39.1964L81.3083 39.199L81.698 40.12ZM86.538 40.14L86.1269 41.0516L86.1343 41.055L86.1419 41.0582L86.538 40.14ZM88.118 41.38L88.9372 40.8065L88.9372 40.8065L88.118 41.38ZM88.678 43.18L89.6758 43.2465L89.678 43.2133V43.18H88.678ZM88.658 43.48V44.48H89.5935L89.6558 43.5465L88.658 43.48ZM85.558 43.48L84.5602 43.4135L84.4891 44.48H85.558V43.48ZM83.098 42.4L82.564 41.5545L82.5535 41.5611L82.5433 41.5679L83.098 42.4ZM83.218 43.8L82.688 44.648L82.7084 44.6607L82.7294 44.6725L83.218 43.8ZM84.758 44.44L84.4308 45.385L84.4417 45.3887L84.758 44.44ZM86.538 45.16L86.0806 46.0493L86.0957 46.057L86.111 46.0642L86.538 45.16ZM87.758 46.14L86.9699 46.7556L86.9806 46.7693L86.9918 46.7826L87.758 46.14ZM87.618 49.56L86.8546 48.9141L86.8497 48.9198L86.8449 48.9257L87.618 49.56ZM85.838 50.76L86.1743 51.7018L86.1837 51.6983L85.838 50.76ZM83.278 50.16C82.5045 50.16 81.8388 50.0371 81.2663 49.8103L80.5296 51.6697C81.3705 52.0029 82.2915 52.16 83.278 52.16V50.16ZM81.2724 49.8128C80.7083 49.5849 80.3105 49.2903 80.0347 48.9502L78.4812 50.2098C79.0054 50.8564 79.701 51.3351 80.5235 51.6672L81.2724 49.8128ZM80.0429 48.9604C79.784 48.6325 79.658 48.2714 79.658 47.84H77.658C77.658 48.7152 77.9319 49.5142 78.4731 50.1996L80.0429 48.9604ZM79.658 47.84C79.658 47.8401 79.658 47.8394 79.658 47.8379C79.658 47.8364 79.6581 47.8343 79.6581 47.8314C79.6583 47.8256 79.6586 47.8177 79.6592 47.8075C79.6602 47.7867 79.662 47.7594 79.6648 47.7247C79.6704 47.655 79.6792 47.5643 79.6919 47.4504L77.7041 47.2296C77.6778 47.4665 77.658 47.6843 77.658 47.84H79.658ZM78.698 48.34H81.998V46.34H78.698V48.34ZM81 47.2756C80.957 47.9429 81.1588 48.5801 81.6692 49.065L83.0467 47.615C83.0238 47.5932 82.9856 47.5637 82.9959 47.4044L81 47.2756ZM81.7072 49.0993C82.2263 49.5442 82.8818 49.7 83.538 49.7V47.7C83.1808 47.7 83.0497 47.6158 83.0088 47.5807L81.7072 49.0993ZM83.538 49.7C84.0842 49.7 84.6219 49.5981 85.0941 49.3282L84.1018 47.5918C84.0141 47.6419 83.8451 47.7 83.538 47.7V49.7ZM85.0941 49.3282C85.6481 49.0117 86.018 48.4735 86.018 47.78H84.018C84.018 47.7733 84.0188 47.7545 84.0261 47.7275C84.0335 47.6999 84.0457 47.6712 84.0622 47.6445C84.0966 47.5888 84.1272 47.5773 84.1018 47.5918L85.0941 49.3282ZM86.018 47.78C86.018 47.0333 85.5648 46.5174 85.0205 46.2334L84.0954 48.0066C84.146 48.033 84.1209 48.0318 84.0826 47.9768C84.063 47.9487 84.0452 47.9138 84.0332 47.8744C84.0212 47.8354 84.018 47.8023 84.018 47.78H86.018ZM85.0667 46.2591C84.6811 46.0312 84.1066 45.7978 83.4051 45.555L82.7509 47.445C83.4361 47.6822 83.8481 47.8621 84.0492 47.9809L85.0667 46.2591ZM83.3942 45.5513C82.6962 45.3187 82.1257 45.0982 81.6755 44.8913L80.8405 46.7087C81.3769 46.9551 82.0197 47.2013 82.7617 47.4487L83.3942 45.5513ZM81.7052 44.9056C81.3626 44.7343 81.0631 44.4907 80.8035 44.1611L79.2325 45.3989C79.6662 45.9493 80.1933 46.3857 80.8108 46.6944L81.7052 44.9056ZM80.8035 44.1611C80.6209 43.9294 80.498 43.6064 80.498 43.12H78.498C78.498 43.9669 78.7217 44.7506 79.2325 45.3989L80.8035 44.1611ZM80.498 43.12C80.498 42.6797 80.6232 42.3027 80.8804 41.9567L79.2755 40.7633C78.7594 41.4573 78.498 42.2536 78.498 43.12H80.498ZM80.8876 41.947C81.1527 41.5813 81.5376 41.2736 82.0876 41.041L81.3083 39.199C80.4716 39.553 79.7765 40.0721 79.2684 40.773L80.8876 41.947ZM82.0813 41.0436C82.6446 40.8098 83.3235 40.68 84.138 40.68V38.68C83.1124 38.68 82.1647 38.8435 81.3146 39.1964L82.0813 41.0436ZM84.138 40.68C84.9485 40.68 85.6025 40.8151 86.1269 41.0516L86.9491 39.2284C86.1134 38.8515 85.1675 38.68 84.138 38.68V40.68ZM86.1419 41.0582C86.6756 41.2884 87.0458 41.5921 87.2987 41.9535L88.9372 40.8065C88.4435 40.1012 87.7604 39.5782 86.9341 39.2218L86.1419 41.0582ZM87.2987 41.9535C87.5514 42.3144 87.678 42.7132 87.678 43.18H89.678C89.678 42.3134 89.4312 41.5122 88.9372 40.8065L87.2987 41.9535ZM87.6802 43.1135L87.6602 43.4135L89.6558 43.5465L89.6758 43.2465L87.6802 43.1135ZM88.658 42.48H85.558V44.48H88.658V42.48ZM86.5558 43.5465C86.6001 42.8814 86.3905 42.2479 85.8669 41.7767L84.529 43.2633C84.5408 43.274 84.5459 43.2807 84.5476 43.2832C84.5491 43.2855 84.5503 43.2875 84.5516 43.2911C84.5538 43.2968 84.5657 43.3312 84.5602 43.4135L86.5558 43.5465ZM85.8669 41.7767C85.3575 41.3182 84.7051 41.16 84.058 41.16V43.16C84.3975 43.16 84.5051 43.2418 84.529 43.2633L85.8669 41.7767ZM84.058 41.16C83.5364 41.16 83.0174 41.2681 82.564 41.5545L83.632 43.2455C83.6852 43.2119 83.8062 43.16 84.058 43.16V41.16ZM82.5433 41.5679C82.0351 41.9067 81.738 42.4337 81.738 43.06H83.738C83.738 43.0673 83.735 43.1104 83.7059 43.1639C83.6773 43.2161 83.6469 43.2359 83.6527 43.2321L82.5433 41.5679ZM81.738 43.06C81.738 43.7971 82.1707 44.3247 82.688 44.648L83.748 42.952C83.678 42.9083 83.6782 42.8919 83.6969 42.9208C83.7068 42.9361 83.7183 42.9587 83.7268 42.9872C83.7352 43.0157 83.738 43.0412 83.738 43.06H81.738ZM82.7294 44.6725C83.1418 44.9035 83.7226 45.1398 84.4309 45.385L85.0851 43.495C84.4066 43.2602 83.9608 43.0698 83.7066 42.9275L82.7294 44.6725ZM84.4417 45.3887C85.1326 45.619 85.6745 45.8404 86.0806 46.0493L86.9953 44.2707C86.4681 43.9996 85.8233 43.741 85.0742 43.4913L84.4417 45.3887ZM86.111 46.0642C86.4468 46.2229 86.7308 46.4495 86.9699 46.7556L88.546 45.5244C88.1185 44.9772 87.5891 44.5505 86.965 44.2558L86.111 46.0642ZM86.9918 46.7826C87.1635 46.9874 87.278 47.2683 87.278 47.7H89.278C89.278 46.8783 89.0457 46.1193 88.5242 45.4974L86.9918 46.7826ZM87.278 47.7C87.278 48.1981 87.1326 48.5855 86.8546 48.9141L88.3814 50.2059C88.9833 49.4945 89.278 48.6419 89.278 47.7H87.278ZM86.8449 48.9257C86.5521 49.2825 86.1194 49.5906 85.4923 49.8217L86.1837 51.6983C87.0765 51.3694 87.8305 50.8775 88.391 50.1943L86.8449 48.9257ZM85.5016 49.8183C84.883 50.0392 84.1468 50.16 83.278 50.16V52.16C84.3292 52.16 85.2997 52.0141 86.1743 51.7017L85.5016 49.8183ZM92.4103 38.26L91.7191 38.9826L91.7351 38.998L91.7518 39.0126L92.4103 38.26ZM92.6503 35.62L93.3251 36.358L93.3251 36.358L92.6503 35.62ZM95.6103 35.42L94.9191 36.1426L94.9275 36.1507L94.936 36.1585L95.6103 35.42ZM95.3703 38.04L96.0451 38.778L96.0451 38.778L95.3703 38.04ZM95.1703 39.84L96.1552 40.013L96.3612 38.84H95.1703V39.84ZM93.2103 51V52H94.05L94.1952 51.173L93.2103 51ZM89.7903 51L88.8054 50.827L88.5994 52H89.7903V51ZM91.7503 39.84V38.84H90.9106L90.7654 39.667L91.7503 39.84ZM93.6903 37.68C93.3355 37.68 93.1637 37.5904 93.0688 37.5074L91.7518 39.0126C92.2969 39.4896 92.9785 39.68 93.6903 39.68V37.68ZM93.1015 37.5374C93.0001 37.4403 92.9503 37.3384 92.9503 37.16H90.9503C90.9503 37.8616 91.2072 38.493 91.7191 38.9826L93.1015 37.5374ZM92.9503 37.16C92.9503 36.8574 93.053 36.6068 93.3251 36.358L91.9755 34.882C91.3143 35.4866 90.9503 36.2626 90.9503 37.16H92.9503ZM93.3251 36.358C93.5967 36.1097 93.9185 35.98 94.3503 35.98V33.98C93.4488 33.98 92.6372 34.277 91.9755 34.882L93.3251 36.358ZM94.3503 35.98C94.6954 35.98 94.8432 36.07 94.9191 36.1426L96.3015 34.6974C95.7641 34.1833 95.0719 33.98 94.3503 33.98V35.98ZM94.936 36.1585C95.0149 36.2304 95.0703 36.3189 95.0703 36.52H97.0703C97.0703 35.8145 96.8191 35.1696 96.2846 34.6815L94.936 36.1585ZM95.0703 36.52C95.0703 36.8023 94.9731 37.0482 94.6955 37.302L96.0451 38.778C96.7009 38.1784 97.0703 37.411 97.0703 36.52H95.0703ZM94.6955 37.302C94.4198 37.554 94.1031 37.68 93.6903 37.68V39.68C94.5842 39.68 95.3875 39.3793 96.0451 38.778L94.6955 37.302ZM94.1854 39.667L92.2254 50.827L94.1952 51.173L96.1552 40.013L94.1854 39.667ZM93.2103 50H89.7903V52H93.2103V50ZM90.7752 51.173L92.7352 40.013L90.7654 39.667L88.8054 50.827L90.7752 51.173ZM91.7503 40.84H95.1703V38.84H91.7503V40.84ZM103.929 40.16L104.434 39.297L104.434 39.297L103.929 40.16ZM105.069 41.42L104.144 41.7996L105.452 44.9886L106.053 41.5945L105.069 41.42ZM105.349 39.84V38.84H104.51L104.364 39.6655L105.349 39.84ZM108.769 39.84L109.754 40.0133L109.96 38.84H108.769V39.84ZM106.809 50.98L107.793 51.1589L107.794 51.1533L106.809 50.98ZM105.689 53.76L104.861 53.1992L104.856 53.2068L104.851 53.2145L105.689 53.76ZM103.469 55.76L103.001 54.8759L102.996 54.8787L103.469 55.76ZM96.4288 55.32L97.0897 54.5695L97.0833 54.5639L96.4288 55.32ZM95.2287 52.16V51.16H94.2963L94.2312 52.0902L95.2287 52.16ZM98.6088 52.16L99.6044 52.0667L99.5194 51.16H98.6088V52.16ZM99.1888 53.16L99.7643 52.3422L99.758 52.3378L99.1888 53.16ZM102.409 52.92L101.779 52.1432L101.773 52.1483L101.767 52.1535L102.409 52.92ZM103.389 50.98L104.373 51.1563L104.373 51.1545L103.389 50.98ZM103.669 49.4L104.653 49.5745L105.32 45.8105L102.896 48.7657L103.669 49.4ZM102.049 50.68L102.496 51.5745L102.503 51.5708L102.049 50.68ZM97.8088 50.62L97.2942 51.4775L97.3025 51.4824L97.8088 50.62ZM96.3888 49.08L95.4943 49.5272L95.4979 49.5343L95.5015 49.5414L96.3888 49.08ZM96.0088 45.4L95.0236 45.2282L95.0224 45.2356L96.0088 45.4ZM97.1888 42.38L96.3606 41.8194L96.3606 41.8194L97.1888 42.38ZM99.3088 40.38L99.8003 41.2508L99.8003 41.2508L99.3088 40.38ZM104.369 45.42L105.352 45.6043L105.353 45.5944L105.355 45.5844L104.369 45.42ZM103.849 43.22L103.142 43.9271L103.148 43.9333L103.154 43.9394L103.849 43.22ZM100.549 43.4L101.2 44.1593L101.21 44.1504L100.549 43.4ZM99.4888 45.4L98.5032 45.2306L98.5024 45.2356L99.4888 45.4ZM99.9888 47.62L99.2693 48.3146L99.2815 48.3272L99.2942 48.3394L99.9888 47.62ZM103.289 47.44L103.95 48.1904L103.95 48.1904L103.289 47.44ZM101.929 40.68C102.58 40.68 103.063 40.812 103.424 41.023L104.434 39.297C103.701 38.868 102.85 38.68 101.929 38.68V40.68ZM103.424 41.023C103.806 41.247 104.024 41.5079 104.144 41.7996L105.994 41.0404C105.687 40.2921 105.145 39.713 104.434 39.297L103.424 41.023ZM106.053 41.5945L106.333 40.0145L104.364 39.6655L104.084 41.2455L106.053 41.5945ZM105.349 40.84H108.769V38.84H105.349V40.84ZM107.784 39.6667L105.824 50.8067L107.794 51.1533L109.754 40.0133L107.784 39.6667ZM105.825 50.8011C105.662 51.6973 105.339 52.4928 104.861 53.1992L106.517 54.3208C107.158 53.3739 107.582 52.316 107.793 51.1589L105.825 50.8011ZM104.851 53.2145C104.402 53.9043 103.793 54.4577 103.001 54.8759L103.936 56.6441C105.011 56.0757 105.882 55.2957 106.527 54.3055L104.851 53.2145ZM102.996 54.8787C102.245 55.2815 101.339 55.5 100.249 55.5V57.5C101.611 57.5 102.852 57.2252 103.941 56.6413L102.996 54.8787ZM100.249 55.5C98.7442 55.5 97.7401 55.1423 97.0896 54.5695L95.7679 56.0705C96.9041 57.071 98.4467 57.5 100.249 57.5V55.5ZM97.0833 54.5639C96.4615 54.0257 96.1517 53.2964 96.2263 52.2298L94.2312 52.0902C94.1192 53.6903 94.6094 55.0677 95.7742 56.0761L97.0833 54.5639ZM95.2287 53.16H98.6088V51.16H95.2287V53.16ZM97.6131 52.2533C97.6802 52.9684 98.0255 53.571 98.6195 53.9822L99.758 52.3378C99.6586 52.269 99.6173 52.2049 99.6044 52.0667L97.6131 52.2533ZM98.6133 53.9778C99.1897 54.3834 99.8836 54.54 100.609 54.54V52.54C100.161 52.54 99.9078 52.4432 99.7642 52.3422L98.6133 53.9778ZM100.609 54.54C101.526 54.54 102.36 54.2658 103.051 53.6865L101.767 52.1535C101.471 52.4009 101.105 52.54 100.609 52.54V54.54ZM103.039 53.6968C103.784 53.0921 104.189 52.186 104.373 51.1563L102.404 50.8037C102.269 51.5607 102.02 51.9479 101.779 52.1432L103.039 53.6968ZM104.373 51.1545L104.653 49.5745L102.684 49.2255L102.404 50.8055L104.373 51.1545ZM102.896 48.7657C102.564 49.1699 102.136 49.5128 101.594 49.7892L102.503 51.5708C103.268 51.1805 103.92 50.6701 104.442 50.0343L102.896 48.7657ZM101.602 49.7856C101.114 50.0295 100.556 50.16 99.9088 50.16V52.16C100.835 52.16 101.704 51.9705 102.496 51.5744L101.602 49.7856ZM99.9088 50.16C99.2807 50.16 98.7589 50.0182 98.315 49.7576L97.3025 51.4824C98.0853 51.9418 98.9635 52.16 99.9088 52.16V50.16ZM98.3232 49.7625C97.8934 49.5046 97.5439 49.134 97.276 48.6186L95.5015 49.5414C95.9269 50.3594 96.5241 51.0154 97.2943 51.4775L98.3232 49.7625ZM97.2832 48.6328C97.0317 48.1299 96.8888 47.5086 96.8888 46.74H94.8888C94.8888 47.7581 95.0791 48.6968 95.4943 49.5272L97.2832 48.6328ZM96.8888 46.74C96.8888 46.3904 96.9227 45.9993 96.9951 45.5644L95.0224 45.2356C94.9348 45.7607 94.8888 46.2629 94.8888 46.74H96.8888ZM96.9939 45.5718C97.1723 44.5487 97.5179 43.6777 98.0169 42.9406L96.3606 41.8194C95.6863 42.8156 95.2452 43.958 95.0236 45.2282L96.9939 45.5718ZM98.0169 42.9406C98.5259 42.1886 99.1217 41.634 99.8003 41.2508L98.8172 39.5092C97.8425 40.0594 97.025 40.838 96.3606 41.8194L98.0169 42.9406ZM99.8003 41.2508C100.482 40.866 101.187 40.68 101.929 40.68V38.68C100.831 38.68 99.7888 38.9606 98.8172 39.5092L99.8003 41.2508ZM105.355 45.5844C105.402 45.3013 105.429 45.0254 105.429 44.76H103.429C103.429 44.8946 103.415 45.0587 103.382 45.2556L105.355 45.5844ZM105.429 44.76C105.429 43.898 105.166 43.1019 104.543 42.5006L103.154 43.9394C103.305 44.0848 103.429 44.3153 103.429 44.76H105.429ZM104.556 42.5129C103.973 41.9304 103.228 41.66 102.409 41.66V43.66C102.762 43.66 102.978 43.763 103.142 43.9271L104.556 42.5129ZM102.409 41.66C101.461 41.66 100.611 42.0123 99.8877 42.6496L101.21 44.1504C101.606 43.801 101.997 43.66 102.409 43.66V41.66ZM99.898 42.6407C99.1313 43.2979 98.6821 44.1895 98.5032 45.2306L100.474 45.5694C100.589 44.9038 100.846 44.4621 101.2 44.1593L99.898 42.6407ZM98.5024 45.2356C98.4552 45.5187 98.4288 45.7946 98.4288 46.06H100.429C100.429 45.9254 100.442 45.7613 100.475 45.5644L98.5024 45.2356ZM98.4288 46.06C98.4288 46.9133 98.6787 47.7028 99.2693 48.3146L100.708 46.9254C100.552 46.7638 100.429 46.5134 100.429 46.06H98.4288ZM99.2942 48.3394C99.8805 48.9055 100.615 49.18 101.429 49.18V47.18C101.096 47.18 100.87 47.0811 100.683 46.9006L99.2942 48.3394ZM101.429 49.18C102.377 49.18 103.226 48.8277 103.95 48.1904L102.628 46.6896C102.231 47.039 101.841 47.18 101.429 47.18V49.18ZM103.95 48.1904C104.704 47.5262 105.158 46.6396 105.352 45.6043L103.386 45.2357C103.26 45.9071 102.994 46.3671 102.628 46.6896L103.95 48.1904ZM120.683 40.66L119.983 41.3745L119.983 41.3745L120.683 40.66ZM121.523 44.48L120.54 44.2957L120.538 44.3048L121.523 44.48ZM120.363 51V52H121.201L121.348 51.1752L120.363 51ZM116.963 51L115.978 50.8245L115.769 52H116.963V51ZM118.043 44.94L119.027 45.1155L119.028 45.1138L118.043 44.94ZM117.623 43.04L116.916 43.7471L116.923 43.7546L116.931 43.762L117.623 43.04ZM114.643 43.2L115.317 43.939L115.317 43.939L114.643 43.2ZM113.763 44.94H112.763L114.747 45.1158L113.763 44.94ZM113.763 44.84H114.763L112.778 44.6673L113.763 44.84ZM112.683 51V52H113.523L113.668 51.1727L112.683 51ZM109.263 51L108.278 50.827L108.072 52H109.263V51ZM111.223 39.84V38.84H110.383L110.238 39.667L111.223 39.84ZM114.643 39.84L115.628 40.0108L115.831 38.84H114.643V39.84ZM114.383 41.34L113.398 41.1692L112.8 44.6172L115.129 42.0056L114.383 41.34ZM115.983 40.16L115.566 39.2509L115.559 39.2543L115.983 40.16ZM118.043 40.72C118.97 40.72 119.574 40.974 119.983 41.3745L121.383 39.9455C120.512 39.0927 119.356 38.72 118.043 38.72V40.72ZM119.983 41.3745C120.386 41.7684 120.643 42.3575 120.643 43.28H122.643C122.643 41.9625 122.26 40.8049 121.383 39.9455L119.983 41.3745ZM120.643 43.28C120.643 43.5825 120.61 43.9203 120.54 44.2957L122.506 44.6643C122.595 44.1864 122.643 43.7242 122.643 43.28H120.643ZM120.538 44.3048L119.378 50.8248L121.348 51.1752L122.508 44.6552L120.538 44.3048ZM120.363 50H116.963V52H120.363V50ZM117.947 51.1755L119.027 45.1155L117.058 44.7645L115.978 50.8245L117.947 51.1755ZM119.028 45.1138C119.075 44.8471 119.103 44.5869 119.103 44.34H117.103C117.103 44.4397 117.091 44.5795 117.058 44.7662L119.028 45.1138ZM119.103 44.34C119.103 43.5835 118.881 42.8602 118.315 42.318L116.931 43.762C117.005 43.8332 117.103 43.9765 117.103 44.34H119.103ZM118.33 42.3329C117.786 41.7884 117.067 41.58 116.323 41.58V43.58C116.698 43.58 116.847 43.6782 116.916 43.7471L118.33 42.3329ZM116.323 41.58C115.431 41.58 114.623 41.8646 113.969 42.461L115.317 43.939C115.569 43.7088 115.882 43.58 116.323 43.58V41.58ZM113.969 42.461C113.318 43.055 112.941 43.8531 112.779 44.7642L114.747 45.1158C114.851 44.5336 115.061 44.1717 115.317 43.939L113.969 42.461ZM114.763 44.94V44.84H112.763V44.94H114.763ZM112.778 44.6673L111.698 50.8273L113.668 51.1727L114.748 45.0127L112.778 44.6673ZM112.683 50H109.263V52H112.683V50ZM110.248 51.173L112.208 40.013L110.238 39.667L108.278 50.827L110.248 51.173ZM111.223 40.84H114.643V38.84H111.223V40.84ZM113.658 39.6692L113.398 41.1692L115.368 41.5108L115.628 40.0108L113.658 39.6692ZM115.129 42.0056C115.475 41.618 115.897 41.3044 116.407 41.0657L115.559 39.2543C114.816 39.6023 114.171 40.0753 113.637 40.6744L115.129 42.0056ZM116.4 41.0691C116.903 40.8382 117.447 40.72 118.043 40.72V38.72C117.172 38.72 116.343 38.8952 115.566 39.2509L116.4 41.0691Z" fill="white" mask="url(#path-3-outside-2_239_245)"/>
</svg>
