<svg width="135" height="54" viewBox="0 0 135 54" fill="none" xmlns="http://www.w3.org/2000/svg">
<path d="M29.2676 0.398544C27.8016 -0.132848 26.1984 -0.132848 24.7219 0.398544L4.47187 7.68924C1.79297 8.65637 0 11.2177 0 14.0978V39.9022C0 42.7717 1.79297 45.3436 4.48242 46.3108L24.7324 53.6015C26.1984 54.1328 27.8016 54.1328 29.2781 53.6015L49.5281 46.3108C52.207 45.3436 54 42.7823 54 39.9022V14.0978C54 11.2283 52.207 8.65637 49.5176 7.68924L29.2676 0.398544ZM27 6.80713L45.3199 13.3964L27 19.9856L8.68008 13.3964L27 6.80713ZM23.625 45.9813L6.75 39.9128V19.9325L23.625 26.001V45.9813Z" fill="#005FF7"/>
<path d="M56.2676 0.398544C54.8016 -0.132848 53.1984 -0.132848 51.7219 0.398544L31.4719 7.68924C28.793 8.65637 27 11.2177 27 14.0978V39.9022C27 42.7717 28.793 45.3436 31.4824 46.3108L51.7324 53.6015C53.1984 54.1328 54.8016 54.1328 56.2781 53.6015L76.5281 46.3108C79.207 45.3436 81 42.7823 81 39.9022V14.0978C81 11.2283 79.207 8.65637 76.5176 7.68924L56.2676 0.398544ZM54 6.80713L72.3199 13.3964L54 19.9856L35.6801 13.3964L54 6.80713ZM50.625 45.9813L33.75 39.9128V19.9325L50.625 26.001V45.9813Z" fill="#0063FF" fill-opacity="0.75"/>
<path d="M83.2676 0.398544C81.8016 -0.132848 80.1984 -0.132848 78.7219 0.398544L58.4719 7.68924C55.793 8.65637 54 11.2177 54 14.0978V39.9022C54 42.7717 55.793 45.3436 58.4824 46.3108L78.7324 53.6015C80.1984 54.1328 81.8016 54.1328 83.2781 53.6015L103.528 46.3108C106.207 45.3436 108 42.7823 108 39.9022V14.0978C108 11.2283 106.207 8.65637 103.518 7.68924L83.2676 0.398544ZM81 6.80713L99.3199 13.3964L81 19.9856L62.6801 13.3964L81 6.80713ZM77.625 45.9813L60.75 39.9128V19.9325L77.625 26.001V45.9813Z" fill="#0063FF" fill-opacity="0.5"/>
<path d="M110.268 0.398544C108.802 -0.132848 107.198 -0.132848 105.722 0.398544L85.4719 7.68924C82.793 8.65637 81 11.2177 81 14.0978V39.9022C81 42.7717 82.793 45.3436 85.4824 46.3108L105.732 53.6015C107.198 54.1328 108.802 54.1328 110.278 53.6015L130.528 46.3108C133.207 45.3436 135 42.7823 135 39.9022V14.0978C135 11.2283 133.207 8.65637 130.518 7.68924L110.268 0.398544ZM108 6.80713L126.32 13.3964L108 19.9856L89.6801 13.3964L108 6.80713ZM104.625 45.9813L87.75 39.9128V19.9325L104.625 26.001V45.9813Z" fill="#0063FF" fill-opacity="0.25"/>
</svg>
