<svg width="474" height="428" viewBox="0 0 474 428" fill="none" xmlns="http://www.w3.org/2000/svg">
<path d="M105.146 1.4318C99.8797 -0.477268 94.1203 -0.477268 88.8156 1.4318L16.0656 27.6243C6.4414 31.0988 0 40.3005 0 50.6477V143.352C0 153.661 6.44141 162.901 16.1035 166.376L88.8535 192.568C94.1203 194.477 99.8797 194.477 105.184 192.568L177.934 166.376C187.559 162.901 194 153.699 194 143.352V50.6477C194 40.3387 187.559 31.0988 177.896 27.6243L105.146 1.4318ZM97 24.4552L162.816 48.1277L97 71.8002L31.184 48.1277L97 24.4552ZM84.875 165.192L24.25 143.39V71.6093L84.875 93.411V165.192Z" fill="#F5F5F5"/>
<path d="M384.48 1.4318C379.214 -0.477268 373.454 -0.477268 368.15 1.4318L295.4 27.6243C285.775 31.0988 279.334 40.3005 279.334 50.6477V143.352C279.334 153.661 285.775 162.901 295.438 166.376L368.188 192.568C373.454 194.477 379.214 194.477 384.518 192.568L457.268 166.376C466.893 162.901 473.334 153.699 473.334 143.352V50.6477C473.334 40.3387 466.893 31.0988 457.23 27.6243L384.48 1.4318ZM376.334 24.4552L442.15 48.1277L376.334 71.8002L310.518 48.1277L376.334 24.4552ZM364.209 165.192L303.584 143.39V71.6093L364.209 93.411V165.192Z" fill="#F5F5F5"/>
<path d="M105.146 235.432C99.8797 233.523 94.1203 233.523 88.8156 235.432L16.0656 261.624C6.4414 265.099 0 274.301 0 284.648V377.352C0 387.661 6.44141 396.901 16.1035 400.376L88.8535 426.568C94.1203 428.477 99.8797 428.477 105.184 426.568L177.934 400.376C187.559 396.901 194 387.699 194 377.352V284.648C194 274.339 187.559 265.099 177.896 261.624L105.146 235.432ZM97 258.455L162.816 282.128L97 305.8L31.184 282.128L97 258.455ZM84.875 399.192L24.25 377.39V305.609L84.875 327.411V399.192Z" fill="#F5F5F5"/>
<path d="M384.48 235.432C379.214 233.523 373.454 233.523 368.15 235.432L295.4 261.624C285.775 265.099 279.334 274.301 279.334 284.648V377.352C279.334 387.661 285.775 396.901 295.438 400.376L368.188 426.568C373.454 428.477 379.214 428.477 384.518 426.568L457.268 400.376C466.893 396.901 473.334 387.699 473.334 377.352V284.648C473.334 274.339 466.893 265.099 457.23 261.624L384.48 235.432ZM376.334 258.455L442.15 282.128L376.334 305.8L310.518 282.128L376.334 258.455ZM364.209 399.192L303.584 377.39V305.609L364.209 327.411V399.192Z" fill="black"/>
</svg>
