<svg width="18" height="16" viewBox="0 0 18 16" fill="none" xmlns="http://www.w3.org/2000/svg">
<path d="M3.09375 0C2.62617 0 2.25 0.334375 2.25 0.75C2.25 1.96563 3.07266 2.60625 3.62461 3.03437L3.66328 3.06562C4.23633 3.50937 4.5 3.74688 4.5 4.25C4.5 4.66563 4.87617 5 5.34375 5C5.81133 5 6.1875 4.66563 6.1875 4.25C6.1875 3.03437 5.36484 2.39375 4.81289 1.96563L4.77422 1.93438C4.20117 1.49063 3.9375 1.25312 3.9375 0.75C3.9375 0.334375 3.56133 0 3.09375 0ZM1.125 6C0.502734 6 0 6.44688 0 7V13C0 14.6562 1.51172 16 3.375 16H10.125C11.9883 16 13.5 14.6562 13.5 13H14.0625C16.2387 13 18 11.4344 18 9.5C18 7.56563 16.2387 6 14.0625 6H12.375H1.125ZM13.5 8H14.0625C14.9941 8 15.75 8.67188 15.75 9.5C15.75 10.3281 14.9941 11 14.0625 11H13.5V8ZM7.875 0.75C7.875 0.334375 7.49883 0 7.03125 0C6.56367 0 6.1875 0.334375 6.1875 0.75C6.1875 1.96563 7.01016 2.60625 7.56211 3.03437L7.60078 3.06562C8.17383 3.50937 8.4375 3.74688 8.4375 4.25C8.4375 4.66563 8.81367 5 9.28125 5C9.74883 5 10.125 4.66563 10.125 4.25C10.125 3.03437 9.30234 2.39375 8.75039 1.96563L8.71172 1.93438C8.13867 1.49063 7.875 1.25312 7.875 0.75Z" fill="white"/>
</svg>
