<svg width="1606" height="580" viewBox="0 0 1606 580" fill="none" xmlns="http://www.w3.org/2000/svg">
<path d="M1409.76 27.2768C1405.07 25.5744 1399.93 25.5744 1395.2 27.2768L1330.33 50.634C1321.74 53.7324 1316 61.9381 1316 71.1652V153.835C1316 163.028 1321.74 171.268 1330.36 174.366L1395.24 197.723C1399.93 199.426 1405.07 199.426 1409.8 197.723L1474.67 174.366C1483.26 171.268 1489 163.062 1489 153.835V71.1652C1489 61.9722 1483.26 53.7324 1474.64 50.634L1409.76 27.2768ZM1402.5 47.808L1461.19 68.918L1402.5 90.0281L1343.81 68.918L1402.5 47.808ZM1391.69 173.31L1337.62 153.869V89.8578L1391.69 109.299V173.31Z" fill="#F5F5F5"/>
<path d="M1174.61 286.635C1172.28 285.788 1169.72 285.788 1167.37 286.635L1135.12 298.246C1130.86 299.786 1128 303.865 1128 308.452V349.548C1128 354.118 1130.86 358.214 1135.14 359.754L1167.39 371.365C1169.72 372.212 1172.28 372.212 1174.63 371.365L1206.88 359.754C1211.14 358.214 1214 354.135 1214 349.548V308.452C1214 303.882 1211.14 299.786 1206.86 298.246L1174.61 286.635ZM1171 296.841L1200.18 307.335L1171 317.829L1141.82 307.335L1171 296.841ZM1165.62 359.229L1138.75 349.565V317.744L1165.62 327.409V359.229Z" fill="#F5F5F5"/>
<path d="M1544.63 446.989C1540.99 445.67 1537.01 445.67 1533.35 446.989L1483.1 465.081C1476.45 467.481 1472 473.836 1472 480.983V545.017C1472 552.137 1476.45 558.519 1483.12 560.919L1533.37 579.011C1537.01 580.33 1540.99 580.33 1544.65 579.011L1594.9 560.919C1601.55 558.519 1606 552.164 1606 545.017V480.983C1606 473.863 1601.55 467.481 1594.88 465.081L1544.63 446.989ZM1539 462.892L1584.46 479.243L1539 495.594L1493.54 479.243L1539 462.892ZM1530.62 560.102L1488.75 545.043V495.462L1530.62 510.521V560.102Z" fill="#F5F5F5"/>
<path d="M216.581 459.893C213.296 458.702 209.704 458.702 206.395 459.893L161.02 476.23C155.018 478.397 151 484.136 151 490.59V548.41C151 554.84 155.018 560.603 161.044 562.77L206.419 579.107C209.704 580.298 213.296 580.298 216.605 579.107L261.98 562.77C267.982 560.603 272 554.864 272 548.41V490.59C272 484.16 267.982 478.397 261.956 476.23L216.581 459.893ZM211.5 474.253L252.55 489.018L211.5 503.783L170.45 489.018L211.5 474.253ZM203.938 562.032L166.125 548.434V503.664L203.938 517.261V562.032Z" fill="#F5F5F5"/>
<path d="M93.7646 1.27682C89.068 -0.425605 83.932 -0.425605 79.2016 1.27682L14.3266 24.634C5.74414 27.7324 0 35.9381 0 45.1652V127.835C0 137.028 5.74414 145.268 14.3604 148.366L79.2354 171.723C83.932 173.426 89.068 173.426 93.7984 171.723L158.673 148.366C167.256 145.268 173 137.062 173 127.835V45.1652C173 35.9722 167.256 27.7324 158.64 24.634L93.7646 1.27682ZM86.5 21.808L145.192 42.918L86.5 64.0281L27.8084 42.918L86.5 21.808ZM75.6875 147.31L21.625 127.869V63.8578L75.6875 83.2995V147.31Z" fill="#F5F5F5"/>
</svg>
