<svg width="104" height="15" viewBox="0 0 104 15" fill="none" xmlns="http://www.w3.org/2000/svg">
<path d="M9.07724 5.36C8.84924 4.94 8.51924 4.622 8.08724 4.406C7.66724 4.178 7.16924 4.064 6.59324 4.064C5.59724 4.064 4.79924 4.394 4.19924 5.054C3.59924 5.702 3.29924 6.572 3.29924 7.664C3.29924 8.828 3.61124 9.74 4.23524 10.4C4.87124 11.048 5.74124 11.372 6.84524 11.372C7.60124 11.372 8.23724 11.18 8.75324 10.796C9.28124 10.412 9.66524 9.86 9.90524 9.14H5.99924V6.872H12.6952V9.734C12.4672 10.502 12.0772 11.216 11.5252 11.876C10.9852 12.536 10.2952 13.07 9.45524 13.478C8.61524 13.886 7.66724 14.09 6.61124 14.09C5.36324 14.09 4.24724 13.82 3.26324 13.28C2.29124 12.728 1.52924 11.966 0.977242 10.994C0.437242 10.022 0.167242 8.912 0.167242 7.664C0.167242 6.416 0.437242 5.306 0.977242 4.334C1.52924 3.35 2.29124 2.588 3.26324 2.048C4.23524 1.496 5.34524 1.22 6.59324 1.22C8.10524 1.22 9.37724 1.586 10.4092 2.318C11.4532 3.05 12.1432 4.064 12.4792 5.36H9.07724ZM23.8682 8.816C23.8682 9.104 23.8502 9.404 23.8142 9.716H16.8482C16.8962 10.34 17.0942 10.82 17.4422 11.156C17.8022 11.48 18.2402 11.642 18.7562 11.642C19.5242 11.642 20.0582 11.318 20.3582 10.67H23.6342C23.4662 11.33 23.1602 11.924 22.7162 12.452C22.2842 12.98 21.7382 13.394 21.0782 13.694C20.4182 13.994 19.6802 14.144 18.8642 14.144C17.8802 14.144 17.0042 13.934 16.2362 13.514C15.4682 13.094 14.8682 12.494 14.4362 11.714C14.0042 10.934 13.7882 10.022 13.7882 8.978C13.7882 7.934 13.9982 7.022 14.4182 6.242C14.8502 5.462 15.4502 4.862 16.2182 4.442C16.9862 4.022 17.8682 3.812 18.8642 3.812C19.8362 3.812 20.7002 4.016 21.4562 4.424C22.2122 4.832 22.8002 5.414 23.2202 6.17C23.6522 6.926 23.8682 7.808 23.8682 8.816ZM20.7182 8.006C20.7182 7.478 20.5382 7.058 20.1782 6.746C19.8182 6.434 19.3682 6.278 18.8282 6.278C18.3122 6.278 17.8742 6.428 17.5142 6.728C17.1662 7.028 16.9502 7.454 16.8662 8.006H20.7182ZM31.09 11.39V14H29.524C28.408 14 27.538 13.73 26.914 13.19C26.29 12.638 25.978 11.744 25.978 10.508V6.512H24.754V3.956H25.978V1.508H29.056V3.956H31.072V6.512H29.056V10.544C29.056 10.844 29.128 11.06 29.272 11.192C29.416 11.324 29.656 11.39 29.992 11.39H31.09ZM41.1909 14.126C40.2669 14.126 39.4389 13.976 38.7069 13.676C37.9749 13.376 37.3869 12.932 36.9429 12.344C36.5109 11.756 36.2829 11.048 36.2589 10.22H39.5349C39.5829 10.688 39.7449 11.048 40.0209 11.3C40.2969 11.54 40.6569 11.66 41.1009 11.66C41.5569 11.66 41.9169 11.558 42.1809 11.354C42.4449 11.138 42.5769 10.844 42.5769 10.472C42.5769 10.16 42.4689 9.902 42.2529 9.698C42.0489 9.494 41.7909 9.326 41.4789 9.194C41.1789 9.062 40.7469 8.912 40.1829 8.744C39.3669 8.492 38.7009 8.24 38.1849 7.988C37.6689 7.736 37.2249 7.364 36.8529 6.872C36.4809 6.38 36.2949 5.738 36.2949 4.946C36.2949 3.77 36.7209 2.852 37.5729 2.192C38.4249 1.52 39.5349 1.184 40.9029 1.184C42.2949 1.184 43.4169 1.52 44.2689 2.192C45.1209 2.852 45.5769 3.776 45.6369 4.964H42.3069C42.2829 4.556 42.1329 4.238 41.8569 4.01C41.5809 3.77 41.2269 3.65 40.7949 3.65C40.4229 3.65 40.1229 3.752 39.8949 3.956C39.6669 4.148 39.5529 4.43 39.5529 4.802C39.5529 5.21 39.7449 5.528 40.1289 5.756C40.5129 5.984 41.1129 6.23 41.9289 6.494C42.7449 6.77 43.4049 7.034 43.9089 7.286C44.4249 7.538 44.8689 7.904 45.2409 8.384C45.6129 8.864 45.7989 9.482 45.7989 10.238C45.7989 10.958 45.6129 11.612 45.2409 12.2C44.8809 12.788 44.3529 13.256 43.6569 13.604C42.9609 13.952 42.1389 14.126 41.1909 14.126ZM53.2911 11.39V14H51.7251C50.6091 14 49.7391 13.73 49.1151 13.19C48.4911 12.638 48.1791 11.744 48.1791 10.508V6.512H46.9551V3.956H48.1791V1.508H51.2571V3.956H53.2731V6.512H51.2571V10.544C51.2571 10.844 51.3291 11.06 51.4731 11.192C51.6171 11.324 51.8571 11.39 52.1931 11.39H53.2911ZM54.3936 8.96C54.3936 7.928 54.5856 7.022 54.9696 6.242C55.3656 5.462 55.8996 4.862 56.5716 4.442C57.2436 4.022 57.9936 3.812 58.8216 3.812C59.5296 3.812 60.1476 3.956 60.6756 4.244C61.2156 4.532 61.6296 4.91 61.9176 5.378V3.956H64.9956V14H61.9176V12.578C61.6176 13.046 61.1976 13.424 60.6576 13.712C60.1296 14 59.5116 14.144 58.8036 14.144C57.9876 14.144 57.2436 13.934 56.5716 13.514C55.8996 13.082 55.3656 12.476 54.9696 11.696C54.5856 10.904 54.3936 9.992 54.3936 8.96ZM61.9176 8.978C61.9176 8.21 61.7016 7.604 61.2696 7.16C60.8496 6.716 60.3336 6.494 59.7216 6.494C59.1096 6.494 58.5876 6.716 58.1556 7.16C57.7356 7.592 57.5256 8.192 57.5256 8.96C57.5256 9.728 57.7356 10.34 58.1556 10.796C58.5876 11.24 59.1096 11.462 59.7216 11.462C60.3336 11.462 60.8496 11.24 61.2696 10.796C61.7016 10.352 61.9176 9.746 61.9176 8.978ZM70.3004 5.63C70.6604 5.078 71.1104 4.646 71.6504 4.334C72.1904 4.01 72.7904 3.848 73.4504 3.848V7.106H72.6044C71.8364 7.106 71.2604 7.274 70.8764 7.61C70.4924 7.934 70.3004 8.51 70.3004 9.338V14H67.2224V3.956H70.3004V5.63ZM80.5197 11.39V14H78.9537C77.8377 14 76.9677 13.73 76.3437 13.19C75.7197 12.638 75.4077 11.744 75.4077 10.508V6.512H74.1837V3.956H75.4077V1.508H78.4857V3.956H80.5017V6.512H78.4857V10.544C78.4857 10.844 78.5577 11.06 78.7017 11.192C78.8457 11.324 79.0857 11.39 79.4217 11.39H80.5197ZM91.7022 8.816C91.7022 9.104 91.6842 9.404 91.6482 9.716H84.6822C84.7302 10.34 84.9282 10.82 85.2762 11.156C85.6362 11.48 86.0742 11.642 86.5902 11.642C87.3582 11.642 87.8922 11.318 88.1922 10.67H91.4682C91.3002 11.33 90.9942 11.924 90.5502 12.452C90.1182 12.98 89.5722 13.394 88.9122 13.694C88.2522 13.994 87.5142 14.144 86.6982 14.144C85.7142 14.144 84.8382 13.934 84.0702 13.514C83.3022 13.094 82.7022 12.494 82.2702 11.714C81.8382 10.934 81.6222 10.022 81.6222 8.978C81.6222 7.934 81.8322 7.022 82.2522 6.242C82.6842 5.462 83.2842 4.862 84.0522 4.442C84.8202 4.022 85.7022 3.812 86.6982 3.812C87.6702 3.812 88.5342 4.016 89.2902 4.424C90.0462 4.832 90.6342 5.414 91.0542 6.17C91.4862 6.926 91.7022 7.808 91.7022 8.816ZM88.5522 8.006C88.5522 7.478 88.3722 7.058 88.0122 6.746C87.6522 6.434 87.2022 6.278 86.6622 6.278C86.1462 6.278 85.7082 6.428 85.3482 6.728C85.0002 7.028 84.7842 7.454 84.7002 8.006H88.5522ZM92.714 8.96C92.714 7.928 92.906 7.022 93.29 6.242C93.686 5.462 94.22 4.862 94.892 4.442C95.564 4.022 96.314 3.812 97.142 3.812C97.802 3.812 98.402 3.95 98.942 4.226C99.494 4.502 99.926 4.874 100.238 5.342V0.68H103.316V14H100.238V12.56C99.95 13.04 99.536 13.424 98.996 13.712C98.468 14 97.85 14.144 97.142 14.144C96.314 14.144 95.564 13.934 94.892 13.514C94.22 13.082 93.686 12.476 93.29 11.696C92.906 10.904 92.714 9.992 92.714 8.96ZM100.238 8.978C100.238 8.21 100.022 7.604 99.59 7.16C99.17 6.716 98.654 6.494 98.042 6.494C97.43 6.494 96.908 6.716 96.476 7.16C96.056 7.592 95.846 8.192 95.846 8.96C95.846 9.728 96.056 10.34 96.476 10.796C96.908 11.24 97.43 11.462 98.042 11.462C98.654 11.462 99.17 11.24 99.59 10.796C100.022 10.352 100.238 9.746 100.238 8.978Z" fill="#005FF6"/>
</svg>
