<svg width="248" height="76" viewBox="0 0 248 76" fill="none" xmlns="http://www.w3.org/2000/svg">
<path d="M15.797 10.6C15.417 9.9 14.867 9.37 14.147 9.01C13.447 8.63 12.617 8.44 11.657 8.44C9.99703 8.44 8.66703 8.99 7.66703 10.09C6.66703 11.17 6.16703 12.62 6.16703 14.44C6.16703 16.38 6.68703 17.9 7.72703 19C8.78703 20.08 10.237 20.62 12.077 20.62C13.337 20.62 14.397 20.3 15.257 19.66C16.137 19.02 16.777 18.1 17.177 16.9H10.667V13.12H21.827V17.89C21.447 19.17 20.797 20.36 19.877 21.46C18.977 22.56 17.827 23.45 16.427 24.13C15.027 24.81 13.447 25.15 11.687 25.15C9.60703 25.15 7.74703 24.7 6.10703 23.8C4.48703 22.88 3.21703 21.61 2.29703 19.99C1.39703 18.37 0.947031 16.52 0.947031 14.44C0.947031 12.36 1.39703 10.51 2.29703 8.89C3.21703 7.25 4.48703 5.98 6.10703 5.08C7.72703 4.16 9.57703 3.7 11.657 3.7C14.177 3.7 16.297 4.31 18.017 5.53C19.757 6.75 20.907 8.44 21.467 10.6H15.797ZM40.4486 16.36C40.4486 16.84 40.4186 17.34 40.3586 17.86H28.7486C28.8286 18.9 29.1586 19.7 29.7386 20.26C30.3386 20.8 31.0686 21.07 31.9286 21.07C33.2086 21.07 34.0986 20.53 34.5986 19.45H40.0586C39.7786 20.55 39.2686 21.54 38.5286 22.42C37.8086 23.3 36.8986 23.99 35.7986 24.49C34.6986 24.99 33.4686 25.24 32.1086 25.24C30.4686 25.24 29.0086 24.89 27.7286 24.19C26.4486 23.49 25.4486 22.49 24.7286 21.19C24.0086 19.89 23.6486 18.37 23.6486 16.63C23.6486 14.89 23.9986 13.37 24.6986 12.07C25.4186 10.77 26.4186 9.77 27.6986 9.07C28.9786 8.37 30.4486 8.02 32.1086 8.02C33.7286 8.02 35.1686 8.36 36.4286 9.04C37.6886 9.72 38.6686 10.69 39.3686 11.95C40.0886 13.21 40.4486 14.68 40.4486 16.36ZM35.1986 15.01C35.1986 14.13 34.8986 13.43 34.2986 12.91C33.6986 12.39 32.9486 12.13 32.0486 12.13C31.1886 12.13 30.4586 12.38 29.8586 12.88C29.2786 13.38 28.9186 14.09 28.7786 15.01H35.1986ZM52.4849 20.65V25H49.8749C48.0149 25 46.5649 24.55 45.5249 23.65C44.4849 22.73 43.9649 21.24 43.9649 19.18V12.52H41.9249V8.26H43.9649V4.18H49.0949V8.26H52.4549V12.52H49.0949V19.24C49.0949 19.74 49.2149 20.1 49.4549 20.32C49.6949 20.54 50.0949 20.65 50.6549 20.65H52.4849ZM78.7998 8.26L68.2998 32.95H62.7798L66.6198 24.43L59.8098 8.26H65.5398L69.4098 18.73L73.2498 8.26H78.7998ZM88.2749 25.24C86.6349 25.24 85.1549 24.89 83.8349 24.19C82.5349 23.49 81.5049 22.49 80.7449 21.19C80.0049 19.89 79.6349 18.37 79.6349 16.63C79.6349 14.91 80.0149 13.4 80.7749 12.1C81.5349 10.78 82.5749 9.77 83.8949 9.07C85.2149 8.37 86.6949 8.02 88.3349 8.02C89.9749 8.02 91.4549 8.37 92.7749 9.07C94.0949 9.77 95.1349 10.78 95.8949 12.1C96.6549 13.4 97.0349 14.91 97.0349 16.63C97.0349 18.35 96.6449 19.87 95.8649 21.19C95.1049 22.49 94.0549 23.49 92.7149 24.19C91.3949 24.89 89.9149 25.24 88.2749 25.24ZM88.2749 20.8C89.2549 20.8 90.0849 20.44 90.7649 19.72C91.4649 19 91.8149 17.97 91.8149 16.63C91.8149 15.29 91.4749 14.26 90.7949 13.54C90.1349 12.82 89.3149 12.46 88.3349 12.46C87.3349 12.46 86.5049 12.82 85.8449 13.54C85.1849 14.24 84.8549 15.27 84.8549 16.63C84.8549 17.97 85.1749 19 85.8149 19.72C86.4749 20.44 87.2949 20.8 88.2749 20.8ZM116.286 8.26V25H111.156V22.72C110.636 23.46 109.926 24.06 109.026 24.52C108.146 24.96 107.166 25.18 106.086 25.18C104.806 25.18 103.676 24.9 102.696 24.34C101.716 23.76 100.956 22.93 100.416 21.85C99.8765 20.77 99.6065 19.5 99.6065 18.04V8.26H104.706V17.35C104.706 18.47 104.996 19.34 105.576 19.96C106.156 20.58 106.936 20.89 107.916 20.89C108.916 20.89 109.706 20.58 110.286 19.96C110.866 19.34 111.156 18.47 111.156 17.35V8.26H116.286ZM125.101 11.05C125.701 10.13 126.451 9.41 127.351 8.89C128.251 8.35 129.251 8.08 130.351 8.08V13.51H128.941C127.661 13.51 126.701 13.79 126.061 14.35C125.421 14.89 125.101 15.85 125.101 17.23V25H119.971V8.26H125.101V11.05ZM141.741 6.52C140.841 6.52 140.101 6.26 139.521 5.74C138.961 5.2 138.681 4.54 138.681 3.76C138.681 2.96 138.961 2.3 139.521 1.78C140.101 1.24 140.841 0.969998 141.741 0.969998C142.621 0.969998 143.341 1.24 143.901 1.78C144.481 2.3 144.771 2.96 144.771 3.76C144.771 4.54 144.481 5.2 143.901 5.74C143.341 6.26 142.621 6.52 141.741 6.52ZM144.291 8.26V25H139.161V8.26H144.291ZM158.208 8.08C160.168 8.08 161.728 8.72 162.888 10C164.068 11.26 164.658 13 164.658 15.22V25H159.558V15.91C159.558 14.79 159.268 13.92 158.688 13.3C158.108 12.68 157.328 12.37 156.348 12.37C155.368 12.37 154.588 12.68 154.008 13.3C153.428 13.92 153.138 14.79 153.138 15.91V25H148.008V8.26H153.138V10.48C153.658 9.74 154.358 9.16 155.238 8.74C156.118 8.3 157.108 8.08 158.208 8.08ZM175.033 25.24C173.573 25.24 172.273 24.99 171.133 24.49C169.993 23.99 169.093 23.31 168.433 22.45C167.773 21.57 167.403 20.59 167.323 19.51H172.393C172.453 20.09 172.723 20.56 173.203 20.92C173.683 21.28 174.273 21.46 174.973 21.46C175.613 21.46 176.103 21.34 176.443 21.1C176.803 20.84 176.983 20.51 176.983 20.11C176.983 19.63 176.733 19.28 176.233 19.06C175.733 18.82 174.923 18.56 173.803 18.28C172.603 18 171.603 17.71 170.803 17.41C170.003 17.09 169.313 16.6 168.733 15.94C168.153 15.26 167.863 14.35 167.863 13.21C167.863 12.25 168.123 11.38 168.643 10.6C169.183 9.8 169.963 9.17 170.983 8.71C172.023 8.25 173.253 8.02 174.673 8.02C176.773 8.02 178.423 8.54 179.623 9.58C180.843 10.62 181.543 12 181.723 13.72H176.983C176.903 13.14 176.643 12.68 176.203 12.34C175.783 12 175.223 11.83 174.523 11.83C173.923 11.83 173.463 11.95 173.143 12.19C172.823 12.41 172.663 12.72 172.663 13.12C172.663 13.6 172.913 13.96 173.413 14.2C173.933 14.44 174.733 14.68 175.813 14.92C177.053 15.24 178.063 15.56 178.843 15.88C179.623 16.18 180.303 16.68 180.883 17.38C181.483 18.06 181.793 18.98 181.813 20.14C181.813 21.12 181.533 22 180.973 22.78C180.433 23.54 179.643 24.14 178.603 24.58C177.583 25.02 176.393 25.24 175.033 25.24ZM194.282 20.65V25H191.672C189.812 25 188.362 24.55 187.322 23.65C186.282 22.73 185.762 21.24 185.762 19.18V12.52H183.722V8.26H185.762V4.18H190.892V8.26H194.252V12.52H190.892V19.24C190.892 19.74 191.012 20.1 191.252 20.32C191.492 20.54 191.892 20.65 192.452 20.65H194.282ZM196.119 16.6C196.119 14.88 196.439 13.37 197.079 12.07C197.739 10.77 198.629 9.77 199.749 9.07C200.869 8.37 202.119 8.02 203.499 8.02C204.679 8.02 205.709 8.26 206.589 8.74C207.489 9.22 208.179 9.85 208.659 10.63V8.26H213.789V25H208.659V22.63C208.159 23.41 207.459 24.04 206.559 24.52C205.679 25 204.649 25.24 203.469 25.24C202.109 25.24 200.869 24.89 199.749 24.19C198.629 23.47 197.739 22.46 197.079 21.16C196.439 19.84 196.119 18.32 196.119 16.6ZM208.659 16.63C208.659 15.35 208.299 14.34 207.579 13.6C206.879 12.86 206.019 12.49 204.999 12.49C203.979 12.49 203.109 12.86 202.389 13.6C201.689 14.32 201.339 15.32 201.339 16.6C201.339 17.88 201.689 18.9 202.389 19.66C203.109 20.4 203.979 20.77 204.999 20.77C206.019 20.77 206.879 20.4 207.579 19.66C208.299 18.92 208.659 17.91 208.659 16.63ZM227.701 8.08C229.661 8.08 231.221 8.72 232.381 10C233.561 11.26 234.151 13 234.151 15.22V25H229.051V15.91C229.051 14.79 228.761 13.92 228.181 13.3C227.601 12.68 226.821 12.37 225.841 12.37C224.861 12.37 224.081 12.68 223.501 13.3C222.921 13.92 222.631 14.79 222.631 15.91V25H217.501V8.26H222.631V10.48C223.151 9.74 223.851 9.16 224.731 8.74C225.611 8.3 226.601 8.08 227.701 8.08ZM247.045 20.65V25H244.435C242.575 25 241.125 24.55 240.085 23.65C239.045 22.73 238.525 21.24 238.525 19.18V12.52H236.485V8.26H238.525V4.18H243.655V8.26H247.015V12.52H243.655V19.24C243.655 19.74 243.775 20.1 244.015 20.32C244.255 20.54 244.655 20.65 245.215 20.65H247.045ZM1.48551 66.6C1.48551 64.88 1.80551 63.37 2.44551 62.07C3.10551 60.77 3.99551 59.77 5.11551 59.07C6.23551 58.37 7.48551 58.02 8.86551 58.02C9.96551 58.02 10.9655 58.25 11.8655 58.71C12.7855 59.17 13.5055 59.79 14.0255 60.57V52.8H19.1555V75H14.0255V72.6C13.5455 73.4 12.8555 74.04 11.9555 74.52C11.0755 75 10.0455 75.24 8.86551 75.24C7.48551 75.24 6.23551 74.89 5.11551 74.19C3.99551 73.47 3.10551 72.46 2.44551 71.16C1.80551 69.84 1.48551 68.32 1.48551 66.6ZM14.0255 66.63C14.0255 65.35 13.6655 64.34 12.9455 63.6C12.2455 62.86 11.3855 62.49 10.3655 62.49C9.34551 62.49 8.47551 62.86 7.75551 63.6C7.05551 64.32 6.70551 65.32 6.70551 66.6C6.70551 67.88 7.05551 68.9 7.75551 69.66C8.47551 70.4 9.34551 70.77 10.3655 70.77C11.3855 70.77 12.2455 70.4 12.9455 69.66C13.6655 68.92 14.0255 67.91 14.0255 66.63ZM25.4468 56.52C24.5468 56.52 23.8068 56.26 23.2268 55.74C22.6668 55.2 22.3868 54.54 22.3868 53.76C22.3868 52.96 22.6668 52.3 23.2268 51.78C23.8068 51.24 24.5468 50.97 25.4468 50.97C26.3268 50.97 27.0468 51.24 27.6068 51.78C28.1868 52.3 28.4768 52.96 28.4768 53.76C28.4768 54.54 28.1868 55.2 27.6068 55.74C27.0468 56.26 26.3268 56.52 25.4468 56.52ZM27.9968 58.26V75H22.8668V58.26H27.9968ZM38.5245 75.24C37.0645 75.24 35.7645 74.99 34.6245 74.49C33.4845 73.99 32.5845 73.31 31.9245 72.45C31.2645 71.57 30.8945 70.59 30.8145 69.51H35.8845C35.9445 70.09 36.2145 70.56 36.6945 70.92C37.1745 71.28 37.7645 71.46 38.4645 71.46C39.1045 71.46 39.5945 71.34 39.9345 71.1C40.2945 70.84 40.4745 70.51 40.4745 70.11C40.4745 69.63 40.2245 69.28 39.7245 69.06C39.2245 68.82 38.4145 68.56 37.2945 68.28C36.0945 68 35.0945 67.71 34.2945 67.41C33.4945 67.09 32.8045 66.6 32.2245 65.94C31.6445 65.26 31.3545 64.35 31.3545 63.21C31.3545 62.25 31.6145 61.38 32.1345 60.6C32.6745 59.8 33.4545 59.17 34.4745 58.71C35.5145 58.25 36.7445 58.02 38.1645 58.02C40.2645 58.02 41.9145 58.54 43.1145 59.58C44.3345 60.62 45.0345 62 45.2145 63.72H40.4745C40.3945 63.14 40.1345 62.68 39.6945 62.34C39.2745 62 38.7145 61.83 38.0145 61.83C37.4145 61.83 36.9545 61.95 36.6345 62.19C36.3145 62.41 36.1545 62.72 36.1545 63.12C36.1545 63.6 36.4045 63.96 36.9045 64.2C37.4245 64.44 38.2245 64.68 39.3045 64.92C40.5445 65.24 41.5545 65.56 42.3345 65.88C43.1145 66.18 43.7945 66.68 44.3745 67.38C44.9745 68.06 45.2845 68.98 45.3045 70.14C45.3045 71.12 45.0245 72 44.4645 72.78C43.9245 73.54 43.1345 74.14 42.0945 74.58C41.0745 75.02 39.8845 75.24 38.5245 75.24ZM47.423 66.63C47.423 64.89 47.773 63.37 48.473 62.07C49.193 60.77 50.183 59.77 51.443 59.07C52.723 58.37 54.183 58.02 55.823 58.02C57.923 58.02 59.673 58.57 61.073 59.67C62.493 60.77 63.423 62.32 63.863 64.32H58.403C57.943 63.04 57.053 62.4 55.733 62.4C54.793 62.4 54.043 62.77 53.483 63.51C52.923 64.23 52.643 65.27 52.643 66.63C52.643 67.99 52.923 69.04 53.483 69.78C54.043 70.5 54.793 70.86 55.733 70.86C57.053 70.86 57.943 70.22 58.403 68.94H63.863C63.423 70.9 62.493 72.44 61.073 73.56C59.653 74.68 57.903 75.24 55.823 75.24C54.183 75.24 52.723 74.89 51.443 74.19C50.183 73.49 49.193 72.49 48.473 71.19C47.773 69.89 47.423 68.37 47.423 66.63ZM74.2271 75.24C72.5871 75.24 71.1071 74.89 69.7871 74.19C68.4871 73.49 67.4571 72.49 66.6971 71.19C65.9571 69.89 65.5871 68.37 65.5871 66.63C65.5871 64.91 65.9671 63.4 66.7271 62.1C67.4871 60.78 68.5271 59.77 69.8471 59.07C71.1671 58.37 72.6471 58.02 74.2871 58.02C75.9271 58.02 77.4071 58.37 78.7271 59.07C80.0471 59.77 81.0871 60.78 81.8471 62.1C82.6071 63.4 82.9871 64.91 82.9871 66.63C82.9871 68.35 82.5971 69.87 81.8171 71.19C81.0571 72.49 80.0071 73.49 78.6671 74.19C77.3471 74.89 75.8671 75.24 74.2271 75.24ZM74.2271 70.8C75.2071 70.8 76.0371 70.44 76.7171 69.72C77.4171 69 77.7671 67.97 77.7671 66.63C77.7671 65.29 77.4271 64.26 76.7471 63.54C76.0871 62.82 75.2671 62.46 74.2871 62.46C73.2871 62.46 72.4571 62.82 71.7971 63.54C71.1371 64.24 70.8071 65.27 70.8071 66.63C70.8071 67.97 71.1271 69 71.7671 69.72C72.4271 70.44 73.2471 70.8 74.2271 70.8ZM102.239 58.26V75H97.1086V72.72C96.5886 73.46 95.8786 74.06 94.9786 74.52C94.0986 74.96 93.1186 75.18 92.0386 75.18C90.7586 75.18 89.6286 74.9 88.6486 74.34C87.6686 73.76 86.9086 72.93 86.3686 71.85C85.8286 70.77 85.5586 69.5 85.5586 68.04V58.26H90.6586V67.35C90.6586 68.47 90.9486 69.34 91.5286 69.96C92.1086 70.58 92.8886 70.89 93.8686 70.89C94.8686 70.89 95.6586 70.58 96.2386 69.96C96.8186 69.34 97.1086 68.47 97.1086 67.35V58.26H102.239ZM116.123 58.08C118.083 58.08 119.643 58.72 120.803 60C121.983 61.26 122.573 63 122.573 65.22V75H117.473V65.91C117.473 64.79 117.183 63.92 116.603 63.3C116.023 62.68 115.243 62.37 114.263 62.37C113.283 62.37 112.503 62.68 111.923 63.3C111.343 63.92 111.053 64.79 111.053 65.91V75H105.923V58.26H111.053V60.48C111.573 59.74 112.273 59.16 113.153 58.74C114.033 58.3 115.023 58.08 116.123 58.08ZM135.468 70.65V75H132.858C130.998 75 129.548 74.55 128.508 73.65C127.468 72.73 126.948 71.24 126.948 69.18V62.52H124.908V58.26H126.948V54.18H132.078V58.26H135.438V62.52H132.078V69.24C132.078 69.74 132.198 70.1 132.438 70.32C132.678 70.54 133.078 70.65 133.638 70.65H135.468ZM149.813 60.63C150.293 59.85 150.983 59.22 151.883 58.74C152.783 58.26 153.813 58.02 154.973 58.02C156.353 58.02 157.603 58.37 158.723 59.07C159.843 59.77 160.723 60.77 161.363 62.07C162.023 63.37 162.353 64.88 162.353 66.6C162.353 68.32 162.023 69.84 161.363 71.16C160.723 72.46 159.843 73.47 158.723 74.19C157.603 74.89 156.353 75.24 154.973 75.24C153.793 75.24 152.763 75.01 151.883 74.55C151.003 74.07 150.313 73.44 149.813 72.66V75H144.683V52.8H149.813V60.63ZM157.133 66.6C157.133 65.32 156.773 64.32 156.053 63.6C155.353 62.86 154.483 62.49 153.443 62.49C152.423 62.49 151.553 62.86 150.833 63.6C150.133 64.34 149.783 65.35 149.783 66.63C149.783 67.91 150.133 68.92 150.833 69.66C151.553 70.4 152.423 70.77 153.443 70.77C154.463 70.77 155.333 70.4 156.053 69.66C156.773 68.9 157.133 67.88 157.133 66.6ZM180.825 66.36C180.825 66.84 180.795 67.34 180.735 67.86H169.125C169.205 68.9 169.535 69.7 170.115 70.26C170.715 70.8 171.445 71.07 172.305 71.07C173.585 71.07 174.475 70.53 174.975 69.45H180.435C180.155 70.55 179.645 71.54 178.905 72.42C178.185 73.3 177.275 73.99 176.175 74.49C175.075 74.99 173.845 75.24 172.485 75.24C170.845 75.24 169.385 74.89 168.105 74.19C166.825 73.49 165.825 72.49 165.105 71.19C164.385 69.89 164.025 68.37 164.025 66.63C164.025 64.89 164.375 63.37 165.075 62.07C165.795 60.77 166.795 59.77 168.075 59.07C169.355 58.37 170.825 58.02 172.485 58.02C174.105 58.02 175.545 58.36 176.805 59.04C178.065 59.72 179.045 60.69 179.745 61.95C180.465 63.21 180.825 64.68 180.825 66.36ZM175.575 65.01C175.575 64.13 175.275 63.43 174.675 62.91C174.075 62.39 173.325 62.13 172.425 62.13C171.565 62.13 170.835 62.38 170.235 62.88C169.655 63.38 169.295 64.09 169.155 65.01H175.575ZM188.661 52.8V75H183.531V52.8H188.661ZM199.999 75.24C198.359 75.24 196.879 74.89 195.559 74.19C194.259 73.49 193.229 72.49 192.469 71.19C191.729 69.89 191.359 68.37 191.359 66.63C191.359 64.91 191.739 63.4 192.499 62.1C193.259 60.78 194.299 59.77 195.619 59.07C196.939 58.37 198.419 58.02 200.059 58.02C201.699 58.02 203.179 58.37 204.499 59.07C205.819 59.77 206.859 60.78 207.619 62.1C208.379 63.4 208.759 64.91 208.759 66.63C208.759 68.35 208.369 69.87 207.589 71.19C206.829 72.49 205.779 73.49 204.439 74.19C203.119 74.89 201.639 75.24 199.999 75.24ZM199.999 70.8C200.979 70.8 201.809 70.44 202.489 69.72C203.189 69 203.539 67.97 203.539 66.63C203.539 65.29 203.199 64.26 202.519 63.54C201.859 62.82 201.039 62.46 200.059 62.46C199.059 62.46 198.229 62.82 197.569 63.54C196.909 64.24 196.579 65.27 196.579 66.63C196.579 67.97 196.899 69 197.539 69.72C198.199 70.44 199.019 70.8 199.999 70.8ZM235.51 58.26L230.98 75H225.31L222.67 64.14L219.94 75H214.3L209.74 58.26H214.87L217.24 70.23L220.06 58.26H225.49L228.34 70.17L230.68 58.26H235.51ZM244.216 53.19L243.616 67.56H239.266L238.666 53.19H244.216ZM241.516 75.24C240.616 75.24 239.876 74.98 239.296 74.46C238.736 73.92 238.456 73.26 238.456 72.48C238.456 71.68 238.736 71.01 239.296 70.47C239.876 69.93 240.616 69.66 241.516 69.66C242.396 69.66 243.116 69.93 243.676 70.47C244.256 71.01 244.546 71.68 244.546 72.48C244.546 73.26 244.256 73.92 243.676 74.46C243.116 74.98 242.396 75.24 241.516 75.24Z" fill="#005FF7"/>
</svg>
