<svg width="334" height="257" viewBox="0 0 334 257" fill="none" xmlns="http://www.w3.org/2000/svg">
<path d="M39.5681 179.105C38.8781 179.105 38.2581 178.985 37.7081 178.745C37.1681 178.495 36.7431 178.155 36.4331 177.725C36.1231 177.285 35.9631 176.78 35.9531 176.21H37.4081C37.4581 176.7 37.6581 177.115 38.0081 177.455C38.3681 177.785 38.8881 177.95 39.5681 177.95C40.2181 177.95 40.7281 177.79 41.0981 177.47C41.4781 177.14 41.6681 176.72 41.6681 176.21C41.6681 175.81 41.5581 175.485 41.3381 175.235C41.1181 174.985 40.8431 174.795 40.5131 174.665C40.1831 174.535 39.7381 174.395 39.1781 174.245C38.4881 174.065 37.9331 173.885 37.5131 173.705C37.1031 173.525 36.7481 173.245 36.4481 172.865C36.1581 172.475 36.0131 171.955 36.0131 171.305C36.0131 170.735 36.1581 170.23 36.4481 169.79C36.7381 169.35 37.1431 169.01 37.6631 168.77C38.1931 168.53 38.7981 168.41 39.4781 168.41C40.4581 168.41 41.2581 168.655 41.8781 169.145C42.5081 169.635 42.8631 170.285 42.9431 171.095H41.4431C41.3931 170.695 41.1831 170.345 40.8131 170.045C40.4431 169.735 39.9531 169.58 39.3431 169.58C38.7731 169.58 38.3081 169.73 37.9481 170.03C37.5881 170.32 37.4081 170.73 37.4081 171.26C37.4081 171.64 37.5131 171.95 37.7231 172.19C37.9431 172.43 38.2081 172.615 38.5181 172.745C38.8381 172.865 39.2831 173.005 39.8531 173.165C40.5431 173.355 41.0981 173.545 41.5181 173.735C41.9381 173.915 42.2981 174.2 42.5981 174.59C42.8981 174.97 43.0481 175.49 43.0481 176.15C43.0481 176.66 42.9131 177.14 42.6431 177.59C42.3731 178.04 41.9731 178.405 41.4431 178.685C40.9131 178.965 40.2881 179.105 39.5681 179.105ZM45.7619 169.445C45.5019 169.445 45.2819 169.355 45.1019 169.175C44.9219 168.995 44.8319 168.775 44.8319 168.515C44.8319 168.255 44.9219 168.035 45.1019 167.855C45.2819 167.675 45.5019 167.585 45.7619 167.585C46.0119 167.585 46.2219 167.675 46.3919 167.855C46.5719 168.035 46.6619 168.255 46.6619 168.515C46.6619 168.775 46.5719 168.995 46.3919 169.175C46.2219 169.355 46.0119 169.445 45.7619 169.445ZM46.4219 170.78V179H45.0569V170.78H46.4219ZM52.1383 170.645C52.8483 170.645 53.4683 170.8 53.9983 171.11C54.5383 171.42 54.9383 171.81 55.1983 172.28V170.78H56.5783V179.18C56.5783 179.93 56.4183 180.595 56.0983 181.175C55.7783 181.765 55.3183 182.225 54.7183 182.555C54.1283 182.885 53.4383 183.05 52.6483 183.05C51.5683 183.05 50.6683 182.795 49.9483 182.285C49.2283 181.775 48.8033 181.08 48.6733 180.2H50.0233C50.1733 180.7 50.4833 181.1 50.9533 181.4C51.4233 181.71 51.9883 181.865 52.6483 181.865C53.3983 181.865 54.0083 181.63 54.4783 181.16C54.9583 180.69 55.1983 180.03 55.1983 179.18V177.455C54.9283 177.935 54.5283 178.335 53.9983 178.655C53.4683 178.975 52.8483 179.135 52.1383 179.135C51.4083 179.135 50.7433 178.955 50.1433 178.595C49.5533 178.235 49.0883 177.73 48.7483 177.08C48.4083 176.43 48.2383 175.69 48.2383 174.86C48.2383 174.02 48.4083 173.285 48.7483 172.655C49.0883 172.015 49.5533 171.52 50.1433 171.17C50.7433 170.82 51.4083 170.645 52.1383 170.645ZM55.1983 174.875C55.1983 174.255 55.0733 173.715 54.8233 173.255C54.5733 172.795 54.2333 172.445 53.8033 172.205C53.3833 171.955 52.9183 171.83 52.4083 171.83C51.8983 171.83 51.4333 171.95 51.0133 172.19C50.5933 172.43 50.2583 172.78 50.0083 173.24C49.7583 173.7 49.6333 174.24 49.6333 174.86C49.6333 175.49 49.7583 176.04 50.0083 176.51C50.2583 176.97 50.5933 177.325 51.0133 177.575C51.4333 177.815 51.8983 177.935 52.4083 177.935C52.9183 177.935 53.3833 177.815 53.8033 177.575C54.2333 177.325 54.5733 176.97 54.8233 176.51C55.0733 176.04 55.1983 175.495 55.1983 174.875ZM62.89 170.63C63.89 170.63 64.7 170.935 65.32 171.545C65.94 172.145 66.25 173.015 66.25 174.155V179H64.9V174.35C64.9 173.53 64.695 172.905 64.285 172.475C63.875 172.035 63.315 171.815 62.605 171.815C61.885 171.815 61.31 172.04 60.88 172.49C60.46 172.94 60.25 173.595 60.25 174.455V179H58.885V170.78H60.25V171.95C60.52 171.53 60.885 171.205 61.345 170.975C61.815 170.745 62.33 170.63 62.89 170.63ZM79.7687 170.78V179H78.4037V177.785C78.1437 178.205 77.7787 178.535 77.3087 178.775C76.8487 179.005 76.3387 179.12 75.7787 179.12C75.1387 179.12 74.5637 178.99 74.0537 178.73C73.5437 178.46 73.1387 178.06 72.8387 177.53C72.5487 177 72.4037 176.355 72.4037 175.595V170.78H73.7537V175.415C73.7537 176.225 73.9587 176.85 74.3687 177.29C74.7787 177.72 75.3387 177.935 76.0487 177.935C76.7787 177.935 77.3537 177.71 77.7737 177.26C78.1937 176.81 78.4037 176.155 78.4037 175.295V170.78H79.7687ZM83.4385 172.295C83.7085 171.825 84.1085 171.435 84.6385 171.125C85.1785 170.805 85.8035 170.645 86.5135 170.645C87.2435 170.645 87.9035 170.82 88.4935 171.17C89.0935 171.52 89.5635 172.015 89.9035 172.655C90.2435 173.285 90.4135 174.02 90.4135 174.86C90.4135 175.69 90.2435 176.43 89.9035 177.08C89.5635 177.73 89.0935 178.235 88.4935 178.595C87.9035 178.955 87.2435 179.135 86.5135 179.135C85.8135 179.135 85.1935 178.98 84.6535 178.67C84.1235 178.35 83.7185 177.955 83.4385 177.485V182.9H82.0735V170.78H83.4385V172.295ZM89.0185 174.86C89.0185 174.24 88.8935 173.7 88.6435 173.24C88.3935 172.78 88.0535 172.43 87.6235 172.19C87.2035 171.95 86.7385 171.83 86.2285 171.83C85.7285 171.83 85.2635 171.955 84.8335 172.205C84.4135 172.445 84.0735 172.8 83.8135 173.27C83.5635 173.73 83.4385 174.265 83.4385 174.875C83.4385 175.495 83.5635 176.04 83.8135 176.51C84.0735 176.97 84.4135 177.325 84.8335 177.575C85.2635 177.815 85.7285 177.935 86.2285 177.935C86.7385 177.935 87.2035 177.815 87.6235 177.575C88.0535 177.325 88.3935 176.97 88.6435 176.51C88.8935 176.04 89.0185 175.49 89.0185 174.86ZM97.5742 172.31C97.8542 171.82 98.2642 171.42 98.8042 171.11C99.3442 170.8 99.9592 170.645 100.649 170.645C101.389 170.645 102.054 170.82 102.644 171.17C103.234 171.52 103.699 172.015 104.039 172.655C104.379 173.285 104.549 174.02 104.549 174.86C104.549 175.69 104.379 176.43 104.039 177.08C103.699 177.73 103.229 178.235 102.629 178.595C102.039 178.955 101.379 179.135 100.649 179.135C99.9392 179.135 99.3142 178.98 98.7742 178.67C98.2442 178.36 97.8442 177.965 97.5742 177.485V179H96.2092V167.9H97.5742V172.31ZM103.154 174.86C103.154 174.24 103.029 173.7 102.779 173.24C102.529 172.78 102.189 172.43 101.759 172.19C101.339 171.95 100.874 171.83 100.364 171.83C99.8642 171.83 99.3992 171.955 98.9692 172.205C98.5492 172.445 98.2092 172.8 97.9492 173.27C97.6992 173.73 97.5742 174.265 97.5742 174.875C97.5742 175.495 97.6992 176.04 97.9492 176.51C98.2092 176.97 98.5492 177.325 98.9692 177.575C99.3992 177.815 99.8642 177.935 100.364 177.935C100.874 177.935 101.339 177.815 101.759 177.575C102.189 177.325 102.529 176.97 102.779 176.51C103.029 176.04 103.154 175.49 103.154 174.86ZM113.846 174.575C113.846 174.835 113.831 175.11 113.801 175.4H107.231C107.281 176.21 107.556 176.845 108.056 177.305C108.566 177.755 109.181 177.98 109.901 177.98C110.491 177.98 110.981 177.845 111.371 177.575C111.771 177.295 112.051 176.925 112.211 176.465H113.681C113.461 177.255 113.021 177.9 112.361 178.4C111.701 178.89 110.881 179.135 109.901 179.135C109.121 179.135 108.421 178.96 107.801 178.61C107.191 178.26 106.711 177.765 106.361 177.125C106.011 176.475 105.836 175.725 105.836 174.875C105.836 174.025 106.006 173.28 106.346 172.64C106.686 172 107.161 171.51 107.771 171.17C108.391 170.82 109.101 170.645 109.901 170.645C110.681 170.645 111.371 170.815 111.971 171.155C112.571 171.495 113.031 171.965 113.351 172.565C113.681 173.155 113.846 173.825 113.846 174.575ZM112.436 174.29C112.436 173.77 112.321 173.325 112.091 172.955C111.861 172.575 111.546 172.29 111.146 172.1C110.756 171.9 110.321 171.8 109.841 171.8C109.151 171.8 108.561 172.02 108.071 172.46C107.591 172.9 107.316 173.51 107.246 174.29H112.436ZM117.013 167.9V179H115.648V167.9H117.013ZM122.924 179.135C122.154 179.135 121.454 178.96 120.824 178.61C120.204 178.26 119.714 177.765 119.354 177.125C119.004 176.475 118.829 175.725 118.829 174.875C118.829 174.035 119.009 173.295 119.369 172.655C119.739 172.005 120.239 171.51 120.869 171.17C121.499 170.82 122.204 170.645 122.984 170.645C123.764 170.645 124.469 170.82 125.099 171.17C125.729 171.51 126.224 172 126.584 172.64C126.954 173.28 127.139 174.025 127.139 174.875C127.139 175.725 126.949 176.475 126.569 177.125C126.199 177.765 125.694 178.26 125.054 178.61C124.414 178.96 123.704 179.135 122.924 179.135ZM122.924 177.935C123.414 177.935 123.874 177.82 124.304 177.59C124.734 177.36 125.079 177.015 125.339 176.555C125.609 176.095 125.744 175.535 125.744 174.875C125.744 174.215 125.614 173.655 125.354 173.195C125.094 172.735 124.754 172.395 124.334 172.175C123.914 171.945 123.459 171.83 122.969 171.83C122.469 171.83 122.009 171.945 121.589 172.175C121.179 172.395 120.849 172.735 120.599 173.195C120.349 173.655 120.224 174.215 120.224 174.875C120.224 175.545 120.344 176.11 120.584 176.57C120.834 177.03 121.164 177.375 121.574 177.605C121.984 177.825 122.434 177.935 122.924 177.935ZM139.884 170.78L137.319 179H135.909L133.929 172.475L131.949 179H130.539L127.959 170.78H129.354L131.244 177.68L133.284 170.78H134.679L136.674 177.695L138.534 170.78H139.884ZM146.903 171.905V176.75C146.903 177.15 146.988 177.435 147.158 177.605C147.328 177.765 147.623 177.845 148.043 177.845H149.048V179H147.818C147.058 179 146.488 178.825 146.108 178.475C145.728 178.125 145.538 177.55 145.538 176.75V171.905H144.473V170.78H145.538V168.71H146.903V170.78H149.048V171.905H146.903ZM154.286 179.135C153.516 179.135 152.816 178.96 152.186 178.61C151.566 178.26 151.076 177.765 150.716 177.125C150.366 176.475 150.191 175.725 150.191 174.875C150.191 174.035 150.371 173.295 150.731 172.655C151.101 172.005 151.601 171.51 152.231 171.17C152.861 170.82 153.566 170.645 154.346 170.645C155.126 170.645 155.831 170.82 156.461 171.17C157.091 171.51 157.586 172 157.946 172.64C158.316 173.28 158.501 174.025 158.501 174.875C158.501 175.725 158.311 176.475 157.931 177.125C157.561 177.765 157.056 178.26 156.416 178.61C155.776 178.96 155.066 179.135 154.286 179.135ZM154.286 177.935C154.776 177.935 155.236 177.82 155.666 177.59C156.096 177.36 156.441 177.015 156.701 176.555C156.971 176.095 157.106 175.535 157.106 174.875C157.106 174.215 156.976 173.655 156.716 173.195C156.456 172.735 156.116 172.395 155.696 172.175C155.276 171.945 154.821 171.83 154.331 171.83C153.831 171.83 153.371 171.945 152.951 172.175C152.541 172.395 152.211 172.735 151.961 173.195C151.711 173.655 151.586 174.215 151.586 174.875C151.586 175.545 151.706 176.11 151.946 176.57C152.196 177.03 152.526 177.375 152.936 177.605C153.346 177.825 153.796 177.935 154.286 177.935ZM167.685 170.645C168.395 170.645 169.015 170.8 169.545 171.11C170.085 171.42 170.485 171.81 170.745 172.28V170.78H172.125V179.18C172.125 179.93 171.965 180.595 171.645 181.175C171.325 181.765 170.865 182.225 170.265 182.555C169.675 182.885 168.985 183.05 168.195 183.05C167.115 183.05 166.215 182.795 165.495 182.285C164.775 181.775 164.35 181.08 164.22 180.2H165.57C165.72 180.7 166.03 181.1 166.5 181.4C166.97 181.71 167.535 181.865 168.195 181.865C168.945 181.865 169.555 181.63 170.025 181.16C170.505 180.69 170.745 180.03 170.745 179.18V177.455C170.475 177.935 170.075 178.335 169.545 178.655C169.015 178.975 168.395 179.135 167.685 179.135C166.955 179.135 166.29 178.955 165.69 178.595C165.1 178.235 164.635 177.73 164.295 177.08C163.955 176.43 163.785 175.69 163.785 174.86C163.785 174.02 163.955 173.285 164.295 172.655C164.635 172.015 165.1 171.52 165.69 171.17C166.29 170.82 166.955 170.645 167.685 170.645ZM170.745 174.875C170.745 174.255 170.62 173.715 170.37 173.255C170.12 172.795 169.78 172.445 169.35 172.205C168.93 171.955 168.465 171.83 167.955 171.83C167.445 171.83 166.98 171.95 166.56 172.19C166.14 172.43 165.805 172.78 165.555 173.24C165.305 173.7 165.18 174.24 165.18 174.86C165.18 175.49 165.305 176.04 165.555 176.51C165.805 176.97 166.14 177.325 166.56 177.575C166.98 177.815 167.445 177.935 167.955 177.935C168.465 177.935 168.93 177.815 169.35 177.575C169.78 177.325 170.12 176.97 170.37 176.51C170.62 176.04 170.745 175.495 170.745 174.875ZM181.932 174.575C181.932 174.835 181.917 175.11 181.887 175.4H175.317C175.367 176.21 175.642 176.845 176.142 177.305C176.652 177.755 177.267 177.98 177.987 177.98C178.577 177.98 179.067 177.845 179.457 177.575C179.857 177.295 180.137 176.925 180.297 176.465H181.767C181.547 177.255 181.107 177.9 180.447 178.4C179.787 178.89 178.967 179.135 177.987 179.135C177.207 179.135 176.507 178.96 175.887 178.61C175.277 178.26 174.797 177.765 174.447 177.125C174.097 176.475 173.922 175.725 173.922 174.875C173.922 174.025 174.092 173.28 174.432 172.64C174.772 172 175.247 171.51 175.857 171.17C176.477 170.82 177.187 170.645 177.987 170.645C178.767 170.645 179.457 170.815 180.057 171.155C180.657 171.495 181.117 171.965 181.437 172.565C181.767 173.155 181.932 173.825 181.932 174.575ZM180.522 174.29C180.522 173.77 180.407 173.325 180.177 172.955C179.947 172.575 179.632 172.29 179.232 172.1C178.842 171.9 178.407 171.8 177.927 171.8C177.237 171.8 176.647 172.02 176.157 172.46C175.677 172.9 175.402 173.51 175.332 174.29H180.522ZM185.399 171.905V176.75C185.399 177.15 185.484 177.435 185.654 177.605C185.824 177.765 186.119 177.845 186.539 177.845H187.544V179H186.314C185.554 179 184.984 178.825 184.604 178.475C184.224 178.125 184.034 177.55 184.034 176.75V171.905H182.969V170.78H184.034V168.71H185.399V170.78H187.544V171.905H185.399ZM192.687 174.86C192.687 174.02 192.857 173.285 193.197 172.655C193.537 172.015 194.002 171.52 194.592 171.17C195.192 170.82 195.857 170.645 196.587 170.645C197.307 170.645 197.932 170.8 198.462 171.11C198.992 171.42 199.387 171.81 199.647 172.28V170.78H201.027V179H199.647V177.47C199.377 177.95 198.972 178.35 198.432 178.67C197.902 178.98 197.282 179.135 196.572 179.135C195.842 179.135 195.182 178.955 194.592 178.595C194.002 178.235 193.537 177.73 193.197 177.08C192.857 176.43 192.687 175.69 192.687 174.86ZM199.647 174.875C199.647 174.255 199.522 173.715 199.272 173.255C199.022 172.795 198.682 172.445 198.252 172.205C197.832 171.955 197.367 171.83 196.857 171.83C196.347 171.83 195.882 171.95 195.462 172.19C195.042 172.43 194.707 172.78 194.457 173.24C194.207 173.7 194.082 174.24 194.082 174.86C194.082 175.49 194.207 176.04 194.457 176.51C194.707 176.97 195.042 177.325 195.462 177.575C195.882 177.815 196.347 177.935 196.857 177.935C197.367 177.935 197.832 177.815 198.252 177.575C198.682 177.325 199.022 176.97 199.272 176.51C199.522 176.04 199.647 175.495 199.647 174.875ZM214.022 169.34H208.757V172.76C208.987 172.44 209.327 172.18 209.777 171.98C210.227 171.77 210.712 171.665 211.232 171.665C212.062 171.665 212.737 171.84 213.257 172.19C213.777 172.53 214.147 172.975 214.367 173.525C214.597 174.065 214.712 174.64 214.712 175.25C214.712 175.97 214.577 176.615 214.307 177.185C214.037 177.755 213.622 178.205 213.062 178.535C212.512 178.865 211.827 179.03 211.007 179.03C209.957 179.03 209.107 178.76 208.457 178.22C207.807 177.68 207.412 176.96 207.272 176.06H208.607C208.737 176.63 209.012 177.075 209.432 177.395C209.852 177.715 210.382 177.875 211.022 177.875C211.812 177.875 212.407 177.64 212.807 177.17C213.207 176.69 213.407 176.06 213.407 175.28C213.407 174.5 213.207 173.9 212.807 173.48C212.407 173.05 211.817 172.835 211.037 172.835C210.507 172.835 210.042 172.965 209.642 173.225C209.252 173.475 208.967 173.82 208.787 174.26H207.497V168.14H214.022V169.34ZM216.526 173.465C216.526 171.745 216.806 170.405 217.366 169.445C217.926 168.475 218.906 167.99 220.306 167.99C221.696 167.99 222.671 168.475 223.231 169.445C223.791 170.405 224.071 171.745 224.071 173.465C224.071 175.215 223.791 176.575 223.231 177.545C222.671 178.515 221.696 179 220.306 179C218.906 179 217.926 178.515 217.366 177.545C216.806 176.575 216.526 175.215 216.526 173.465ZM222.721 173.465C222.721 172.595 222.661 171.86 222.541 171.26C222.431 170.65 222.196 170.16 221.836 169.79C221.486 169.42 220.976 169.235 220.306 169.235C219.626 169.235 219.106 169.42 218.746 169.79C218.396 170.16 218.161 170.65 218.041 171.26C217.931 171.86 217.876 172.595 217.876 173.465C217.876 174.365 217.931 175.12 218.041 175.73C218.161 176.34 218.396 176.83 218.746 177.2C219.106 177.57 219.626 177.755 220.306 177.755C220.976 177.755 221.486 177.57 221.836 177.2C222.196 176.83 222.431 176.34 222.541 175.73C222.661 175.12 222.721 174.365 222.721 173.465ZM225.645 170.6C225.645 169.92 225.85 169.38 226.26 168.98C226.67 168.57 227.195 168.365 227.835 168.365C228.475 168.365 229 168.57 229.41 168.98C229.82 169.38 230.025 169.92 230.025 170.6C230.025 171.29 229.82 171.84 229.41 172.25C229 172.65 228.475 172.85 227.835 172.85C227.195 172.85 226.67 172.65 226.26 172.25C225.85 171.84 225.645 171.29 225.645 170.6ZM234.405 168.53L228.33 179H226.98L233.055 168.53H234.405ZM227.835 169.205C227.495 169.205 227.225 169.325 227.025 169.565C226.835 169.795 226.74 170.14 226.74 170.6C226.74 171.06 226.835 171.41 227.025 171.65C227.225 171.89 227.495 172.01 227.835 172.01C228.175 172.01 228.445 171.89 228.645 171.65C228.845 171.4 228.945 171.05 228.945 170.6C228.945 170.14 228.845 169.795 228.645 169.565C228.445 169.325 228.175 169.205 227.835 169.205ZM231.39 176.93C231.39 176.24 231.595 175.695 232.005 175.295C232.415 174.885 232.94 174.68 233.58 174.68C234.22 174.68 234.74 174.885 235.14 175.295C235.55 175.695 235.755 176.24 235.755 176.93C235.755 177.61 235.55 178.155 235.14 178.565C234.74 178.975 234.22 179.18 233.58 179.18C232.94 179.18 232.415 178.98 232.005 178.58C231.595 178.17 231.39 177.62 231.39 176.93ZM233.565 175.535C233.225 175.535 232.955 175.655 232.755 175.895C232.555 176.125 232.455 176.47 232.455 176.93C232.455 177.38 232.555 177.725 232.755 177.965C232.955 178.195 233.225 178.31 233.565 178.31C233.905 178.31 234.175 178.195 234.375 177.965C234.575 177.725 234.675 177.38 234.675 176.93C234.675 176.47 234.575 176.125 234.375 175.895C234.175 175.655 233.905 175.535 233.565 175.535ZM242.916 172.295C243.186 171.825 243.586 171.435 244.116 171.125C244.656 170.805 245.281 170.645 245.991 170.645C246.721 170.645 247.381 170.82 247.971 171.17C248.571 171.52 249.041 172.015 249.381 172.655C249.721 173.285 249.891 174.02 249.891 174.86C249.891 175.69 249.721 176.43 249.381 177.08C249.041 177.73 248.571 178.235 247.971 178.595C247.381 178.955 246.721 179.135 245.991 179.135C245.291 179.135 244.671 178.98 244.131 178.67C243.601 178.35 243.196 177.955 242.916 177.485V182.9H241.551V170.78H242.916V172.295ZM248.496 174.86C248.496 174.24 248.371 173.7 248.121 173.24C247.871 172.78 247.531 172.43 247.101 172.19C246.681 171.95 246.216 171.83 245.706 171.83C245.206 171.83 244.741 171.955 244.311 172.205C243.891 172.445 243.551 172.8 243.291 173.27C243.041 173.73 242.916 174.265 242.916 174.875C242.916 175.495 243.041 176.04 243.291 176.51C243.551 176.97 243.891 177.325 244.311 177.575C244.741 177.815 245.206 177.935 245.706 177.935C246.216 177.935 246.681 177.815 247.101 177.575C247.531 177.325 247.871 176.97 248.121 176.51C248.371 176.04 248.496 175.49 248.496 174.86ZM259.188 174.575C259.188 174.835 259.173 175.11 259.143 175.4H252.573C252.623 176.21 252.898 176.845 253.398 177.305C253.908 177.755 254.523 177.98 255.243 177.98C255.833 177.98 256.323 177.845 256.713 177.575C257.113 177.295 257.393 176.925 257.553 176.465H259.023C258.803 177.255 258.363 177.9 257.703 178.4C257.043 178.89 256.223 179.135 255.243 179.135C254.463 179.135 253.763 178.96 253.143 178.61C252.533 178.26 252.053 177.765 251.703 177.125C251.353 176.475 251.178 175.725 251.178 174.875C251.178 174.025 251.348 173.28 251.688 172.64C252.028 172 252.503 171.51 253.113 171.17C253.733 170.82 254.443 170.645 255.243 170.645C256.023 170.645 256.713 170.815 257.313 171.155C257.913 171.495 258.373 171.965 258.693 172.565C259.023 173.155 259.188 173.825 259.188 174.575ZM257.778 174.29C257.778 173.77 257.663 173.325 257.433 172.955C257.203 172.575 256.888 172.29 256.488 172.1C256.098 171.9 255.663 171.8 255.183 171.8C254.493 171.8 253.903 172.02 253.413 172.46C252.933 172.9 252.658 173.51 252.588 174.29H257.778ZM262.354 172.115C262.594 171.645 262.934 171.28 263.374 171.02C263.824 170.76 264.369 170.63 265.009 170.63V172.04H264.649C263.119 172.04 262.354 172.87 262.354 174.53V179H260.989V170.78H262.354V172.115ZM266.075 174.875C266.075 174.025 266.245 173.285 266.585 172.655C266.925 172.015 267.395 171.52 267.995 171.17C268.605 170.82 269.3 170.645 270.08 170.645C271.09 170.645 271.92 170.89 272.57 171.38C273.23 171.87 273.665 172.55 273.875 173.42H272.405C272.265 172.92 271.99 172.525 271.58 172.235C271.18 171.945 270.68 171.8 270.08 171.8C269.3 171.8 268.67 172.07 268.19 172.61C267.71 173.14 267.47 173.895 267.47 174.875C267.47 175.865 267.71 176.63 268.19 177.17C268.67 177.71 269.3 177.98 270.08 177.98C270.68 177.98 271.18 177.84 271.58 177.56C271.98 177.28 272.255 176.88 272.405 176.36H273.875C273.655 177.2 273.215 177.875 272.555 178.385C271.895 178.885 271.07 179.135 270.08 179.135C269.3 179.135 268.605 178.96 267.995 178.61C267.395 178.26 266.925 177.765 266.585 177.125C266.245 176.485 266.075 175.735 266.075 174.875ZM283.197 174.575C283.197 174.835 283.182 175.11 283.152 175.4H276.582C276.632 176.21 276.907 176.845 277.407 177.305C277.917 177.755 278.532 177.98 279.252 177.98C279.842 177.98 280.332 177.845 280.722 177.575C281.122 177.295 281.402 176.925 281.562 176.465H283.032C282.812 177.255 282.372 177.9 281.712 178.4C281.052 178.89 280.232 179.135 279.252 179.135C278.472 179.135 277.772 178.96 277.152 178.61C276.542 178.26 276.062 177.765 275.712 177.125C275.362 176.475 275.187 175.725 275.187 174.875C275.187 174.025 275.357 173.28 275.697 172.64C276.037 172 276.512 171.51 277.122 171.17C277.742 170.82 278.452 170.645 279.252 170.645C280.032 170.645 280.722 170.815 281.322 171.155C281.922 171.495 282.382 171.965 282.702 172.565C283.032 173.155 283.197 173.825 283.197 174.575ZM281.787 174.29C281.787 173.77 281.672 173.325 281.442 172.955C281.212 172.575 280.897 172.29 280.497 172.1C280.107 171.9 279.672 171.8 279.192 171.8C278.502 171.8 277.912 172.02 277.422 172.46C276.942 172.9 276.667 173.51 276.597 174.29H281.787ZM289.003 170.63C290.003 170.63 290.813 170.935 291.433 171.545C292.053 172.145 292.363 173.015 292.363 174.155V179H291.013V174.35C291.013 173.53 290.808 172.905 290.398 172.475C289.988 172.035 289.428 171.815 288.718 171.815C287.998 171.815 287.423 172.04 286.993 172.49C286.573 172.94 286.363 173.595 286.363 174.455V179H284.998V170.78H286.363V171.95C286.633 171.53 286.998 171.205 287.458 170.975C287.928 170.745 288.443 170.63 289.003 170.63ZM296.258 171.905V176.75C296.258 177.15 296.343 177.435 296.513 177.605C296.683 177.765 296.978 177.845 297.398 177.845H298.403V179H297.173C296.413 179 295.843 178.825 295.463 178.475C295.083 178.125 294.893 177.55 294.893 176.75V171.905H293.828V170.78H294.893V168.71H296.258V170.78H298.403V171.905H296.258ZM41.185 199.86C41.185 199.02 41.355 198.285 41.695 197.655C42.035 197.015 42.5 196.52 43.09 196.17C43.69 195.82 44.36 195.645 45.1 195.645C45.74 195.645 46.335 195.795 46.885 196.095C47.435 196.385 47.855 196.77 48.145 197.25V192.9H49.525V204H48.145V202.455C47.875 202.945 47.475 203.35 46.945 203.67C46.415 203.98 45.795 204.135 45.085 204.135C44.355 204.135 43.69 203.955 43.09 203.595C42.5 203.235 42.035 202.73 41.695 202.08C41.355 201.43 41.185 200.69 41.185 199.86ZM48.145 199.875C48.145 199.255 48.02 198.715 47.77 198.255C47.52 197.795 47.18 197.445 46.75 197.205C46.33 196.955 45.865 196.83 45.355 196.83C44.845 196.83 44.38 196.95 43.96 197.19C43.54 197.43 43.205 197.78 42.955 198.24C42.705 198.7 42.58 199.24 42.58 199.86C42.58 200.49 42.705 201.04 42.955 201.51C43.205 201.97 43.54 202.325 43.96 202.575C44.38 202.815 44.845 202.935 45.355 202.935C45.865 202.935 46.33 202.815 46.75 202.575C47.18 202.325 47.52 201.97 47.77 201.51C48.02 201.04 48.145 200.495 48.145 199.875ZM52.5368 194.445C52.2768 194.445 52.0568 194.355 51.8768 194.175C51.6968 193.995 51.6068 193.775 51.6068 193.515C51.6068 193.255 51.6968 193.035 51.8768 192.855C52.0568 192.675 52.2768 192.585 52.5368 192.585C52.7868 192.585 52.9968 192.675 53.1668 192.855C53.3468 193.035 53.4368 193.255 53.4368 193.515C53.4368 193.775 53.3468 193.995 53.1668 194.175C52.9968 194.355 52.7868 194.445 52.5368 194.445ZM53.1968 195.78V204H51.8318V195.78H53.1968ZM58.4332 204.135C57.8032 204.135 57.2382 204.03 56.7382 203.82C56.2382 203.6 55.8432 203.3 55.5532 202.92C55.2632 202.53 55.1032 202.085 55.0732 201.585H56.4832C56.5232 201.995 56.7132 202.33 57.0532 202.59C57.4032 202.85 57.8582 202.98 58.4182 202.98C58.9382 202.98 59.3482 202.865 59.6482 202.635C59.9482 202.405 60.0982 202.115 60.0982 201.765C60.0982 201.405 59.9382 201.14 59.6182 200.97C59.2982 200.79 58.8032 200.615 58.1332 200.445C57.5232 200.285 57.0232 200.125 56.6332 199.965C56.2532 199.795 55.9232 199.55 55.6432 199.23C55.3732 198.9 55.2382 198.47 55.2382 197.94C55.2382 197.52 55.3632 197.135 55.6132 196.785C55.8632 196.435 56.2182 196.16 56.6782 195.96C57.1382 195.75 57.6632 195.645 58.2532 195.645C59.1632 195.645 59.8982 195.875 60.4582 196.335C61.0182 196.795 61.3182 197.425 61.3582 198.225H59.9932C59.9632 197.795 59.7882 197.45 59.4682 197.19C59.1582 196.93 58.7382 196.8 58.2082 196.8C57.7182 196.8 57.3282 196.905 57.0382 197.115C56.7482 197.325 56.6032 197.6 56.6032 197.94C56.6032 198.21 56.6882 198.435 56.8582 198.615C57.0382 198.785 57.2582 198.925 57.5182 199.035C57.7882 199.135 58.1582 199.25 58.6282 199.38C59.2182 199.54 59.6982 199.7 60.0682 199.86C60.4382 200.01 60.7532 200.24 61.0132 200.55C61.2832 200.86 61.4232 201.265 61.4332 201.765C61.4332 202.215 61.3082 202.62 61.0582 202.98C60.8082 203.34 60.4532 203.625 59.9932 203.835C59.5432 204.035 59.0232 204.135 58.4332 204.135ZM62.8501 199.875C62.8501 199.025 63.0201 198.285 63.3601 197.655C63.7001 197.015 64.1701 196.52 64.7701 196.17C65.3801 195.82 66.0751 195.645 66.8551 195.645C67.8651 195.645 68.6951 195.89 69.3451 196.38C70.0051 196.87 70.4401 197.55 70.6501 198.42H69.1801C69.0401 197.92 68.7651 197.525 68.3551 197.235C67.9551 196.945 67.4551 196.8 66.8551 196.8C66.0751 196.8 65.4451 197.07 64.9651 197.61C64.4851 198.14 64.2451 198.895 64.2451 199.875C64.2451 200.865 64.4851 201.63 64.9651 202.17C65.4451 202.71 66.0751 202.98 66.8551 202.98C67.4551 202.98 67.9551 202.84 68.3551 202.56C68.7551 202.28 69.0301 201.88 69.1801 201.36H70.6501C70.4301 202.2 69.9901 202.875 69.3301 203.385C68.6701 203.885 67.8451 204.135 66.8551 204.135C66.0751 204.135 65.3801 203.96 64.7701 203.61C64.1701 203.26 63.7001 202.765 63.3601 202.125C63.0201 201.485 62.8501 200.735 62.8501 199.875ZM76.0564 204.135C75.2864 204.135 74.5864 203.96 73.9564 203.61C73.3364 203.26 72.8464 202.765 72.4864 202.125C72.1364 201.475 71.9614 200.725 71.9614 199.875C71.9614 199.035 72.1414 198.295 72.5014 197.655C72.8714 197.005 73.3714 196.51 74.0014 196.17C74.6314 195.82 75.3364 195.645 76.1164 195.645C76.8964 195.645 77.6014 195.82 78.2314 196.17C78.8614 196.51 79.3564 197 79.7164 197.64C80.0864 198.28 80.2714 199.025 80.2714 199.875C80.2714 200.725 80.0814 201.475 79.7014 202.125C79.3314 202.765 78.8264 203.26 78.1864 203.61C77.5464 203.96 76.8364 204.135 76.0564 204.135ZM76.0564 202.935C76.5464 202.935 77.0064 202.82 77.4364 202.59C77.8664 202.36 78.2114 202.015 78.4714 201.555C78.7414 201.095 78.8764 200.535 78.8764 199.875C78.8764 199.215 78.7464 198.655 78.4864 198.195C78.2264 197.735 77.8864 197.395 77.4664 197.175C77.0464 196.945 76.5914 196.83 76.1014 196.83C75.6014 196.83 75.1414 196.945 74.7214 197.175C74.3114 197.395 73.9814 197.735 73.7314 198.195C73.4814 198.655 73.3564 199.215 73.3564 199.875C73.3564 200.545 73.4764 201.11 73.7164 201.57C73.9664 202.03 74.2964 202.375 74.7064 202.605C75.1164 202.825 75.5664 202.935 76.0564 202.935ZM89.3561 195.78V204H87.9911V202.785C87.7311 203.205 87.3661 203.535 86.8961 203.775C86.4361 204.005 85.9261 204.12 85.3661 204.12C84.7261 204.12 84.1511 203.99 83.6411 203.73C83.1311 203.46 82.7261 203.06 82.4261 202.53C82.1361 202 81.9911 201.355 81.9911 200.595V195.78H83.3411V200.415C83.3411 201.225 83.5461 201.85 83.9561 202.29C84.3661 202.72 84.9261 202.935 85.6361 202.935C86.3661 202.935 86.9411 202.71 87.3611 202.26C87.7811 201.81 87.9911 201.155 87.9911 200.295V195.78H89.3561ZM95.6659 195.63C96.6659 195.63 97.4759 195.935 98.0959 196.545C98.7159 197.145 99.0259 198.015 99.0259 199.155V204H97.6759V199.35C97.6759 198.53 97.4709 197.905 97.0609 197.475C96.6509 197.035 96.0909 196.815 95.3809 196.815C94.6609 196.815 94.0859 197.04 93.6559 197.49C93.2359 197.94 93.0259 198.595 93.0259 199.455V204H91.6609V195.78H93.0259V196.95C93.2959 196.53 93.6609 196.205 94.1209 195.975C94.5909 195.745 95.1059 195.63 95.6659 195.63ZM102.921 196.905V201.75C102.921 202.15 103.006 202.435 103.176 202.605C103.346 202.765 103.641 202.845 104.061 202.845H105.066V204H103.836C103.076 204 102.506 203.825 102.126 203.475C101.746 203.125 101.556 202.55 101.556 201.75V196.905H100.491V195.78H101.556V193.71H102.921V195.78H105.066V196.905H102.921ZM114.303 204.135C113.533 204.135 112.833 203.96 112.203 203.61C111.583 203.26 111.093 202.765 110.733 202.125C110.383 201.475 110.208 200.725 110.208 199.875C110.208 199.035 110.388 198.295 110.748 197.655C111.118 197.005 111.618 196.51 112.248 196.17C112.878 195.82 113.583 195.645 114.363 195.645C115.143 195.645 115.848 195.82 116.478 196.17C117.108 196.51 117.603 197 117.963 197.64C118.333 198.28 118.518 199.025 118.518 199.875C118.518 200.725 118.328 201.475 117.948 202.125C117.578 202.765 117.073 203.26 116.433 203.61C115.793 203.96 115.083 204.135 114.303 204.135ZM114.303 202.935C114.793 202.935 115.253 202.82 115.683 202.59C116.113 202.36 116.458 202.015 116.718 201.555C116.988 201.095 117.123 200.535 117.123 199.875C117.123 199.215 116.993 198.655 116.733 198.195C116.473 197.735 116.133 197.395 115.713 197.175C115.293 196.945 114.838 196.83 114.348 196.83C113.848 196.83 113.388 196.945 112.968 197.175C112.558 197.395 112.228 197.735 111.978 198.195C111.728 198.655 111.603 199.215 111.603 199.875C111.603 200.545 111.723 201.11 111.963 201.57C112.213 202.03 112.543 202.375 112.953 202.605C113.363 202.825 113.813 202.935 114.303 202.935ZM124.318 195.63C125.318 195.63 126.128 195.935 126.748 196.545C127.368 197.145 127.678 198.015 127.678 199.155V204H126.328V199.35C126.328 198.53 126.123 197.905 125.713 197.475C125.303 197.035 124.743 196.815 124.033 196.815C123.313 196.815 122.738 197.04 122.308 197.49C121.888 197.94 121.678 198.595 121.678 199.455V204H120.313V195.78H121.678V196.95C121.948 196.53 122.313 196.205 122.773 195.975C123.243 195.745 123.758 195.63 124.318 195.63ZM140.987 195.78L136.037 207.87H134.627L136.247 203.91L132.932 195.78H134.447L137.027 202.44L139.577 195.78H140.987ZM145.944 204.135C145.174 204.135 144.474 203.96 143.844 203.61C143.224 203.26 142.734 202.765 142.374 202.125C142.024 201.475 141.849 200.725 141.849 199.875C141.849 199.035 142.029 198.295 142.389 197.655C142.759 197.005 143.259 196.51 143.889 196.17C144.519 195.82 145.224 195.645 146.004 195.645C146.784 195.645 147.489 195.82 148.119 196.17C148.749 196.51 149.244 197 149.604 197.64C149.974 198.28 150.159 199.025 150.159 199.875C150.159 200.725 149.969 201.475 149.589 202.125C149.219 202.765 148.714 203.26 148.074 203.61C147.434 203.96 146.724 204.135 145.944 204.135ZM145.944 202.935C146.434 202.935 146.894 202.82 147.324 202.59C147.754 202.36 148.099 202.015 148.359 201.555C148.629 201.095 148.764 200.535 148.764 199.875C148.764 199.215 148.634 198.655 148.374 198.195C148.114 197.735 147.774 197.395 147.354 197.175C146.934 196.945 146.479 196.83 145.989 196.83C145.489 196.83 145.029 196.945 144.609 197.175C144.199 197.395 143.869 197.735 143.619 198.195C143.369 198.655 143.244 199.215 143.244 199.875C143.244 200.545 143.364 201.11 143.604 201.57C143.854 202.03 144.184 202.375 144.594 202.605C145.004 202.825 145.454 202.935 145.944 202.935ZM159.244 195.78V204H157.879V202.785C157.619 203.205 157.254 203.535 156.784 203.775C156.324 204.005 155.814 204.12 155.254 204.12C154.614 204.12 154.039 203.99 153.529 203.73C153.019 203.46 152.614 203.06 152.314 202.53C152.024 202 151.879 201.355 151.879 200.595V195.78H153.229V200.415C153.229 201.225 153.434 201.85 153.844 202.29C154.254 202.72 154.814 202.935 155.524 202.935C156.254 202.935 156.829 202.71 157.249 202.26C157.669 201.81 157.879 201.155 157.879 200.295V195.78H159.244ZM162.914 197.115C163.154 196.645 163.494 196.28 163.934 196.02C164.384 195.76 164.929 195.63 165.569 195.63V197.04H165.209C163.679 197.04 162.914 197.87 162.914 199.53V204H161.549V195.78H162.914V197.115ZM174.488 196.905H172.763V204H171.398V196.905H170.333V195.78H171.398V195.195C171.398 194.275 171.633 193.605 172.103 193.185C172.583 192.755 173.348 192.54 174.398 192.54V193.68C173.798 193.68 173.373 193.8 173.123 194.04C172.883 194.27 172.763 194.655 172.763 195.195V195.78H174.488V196.905ZM176.785 194.445C176.525 194.445 176.305 194.355 176.125 194.175C175.945 193.995 175.855 193.775 175.855 193.515C175.855 193.255 175.945 193.035 176.125 192.855C176.305 192.675 176.525 192.585 176.785 192.585C177.035 192.585 177.245 192.675 177.415 192.855C177.595 193.035 177.685 193.255 177.685 193.515C177.685 193.775 177.595 193.995 177.415 194.175C177.245 194.355 177.035 194.445 176.785 194.445ZM177.445 195.78V204H176.08V195.78H177.445ZM181.136 197.115C181.376 196.645 181.716 196.28 182.156 196.02C182.606 195.76 183.151 195.63 183.791 195.63V197.04H183.431C181.901 197.04 181.136 197.87 181.136 199.53V204H179.771V195.78H181.136V197.115ZM188.277 204.135C187.647 204.135 187.082 204.03 186.582 203.82C186.082 203.6 185.687 203.3 185.397 202.92C185.107 202.53 184.947 202.085 184.917 201.585H186.327C186.367 201.995 186.557 202.33 186.897 202.59C187.247 202.85 187.702 202.98 188.262 202.98C188.782 202.98 189.192 202.865 189.492 202.635C189.792 202.405 189.942 202.115 189.942 201.765C189.942 201.405 189.782 201.14 189.462 200.97C189.142 200.79 188.647 200.615 187.977 200.445C187.367 200.285 186.867 200.125 186.477 199.965C186.097 199.795 185.767 199.55 185.487 199.23C185.217 198.9 185.082 198.47 185.082 197.94C185.082 197.52 185.207 197.135 185.457 196.785C185.707 196.435 186.062 196.16 186.522 195.96C186.982 195.75 187.507 195.645 188.097 195.645C189.007 195.645 189.742 195.875 190.302 196.335C190.862 196.795 191.162 197.425 191.202 198.225H189.837C189.807 197.795 189.632 197.45 189.312 197.19C189.002 196.93 188.582 196.8 188.052 196.8C187.562 196.8 187.172 196.905 186.882 197.115C186.592 197.325 186.447 197.6 186.447 197.94C186.447 198.21 186.532 198.435 186.702 198.615C186.882 198.785 187.102 198.925 187.362 199.035C187.632 199.135 188.002 199.25 188.472 199.38C189.062 199.54 189.542 199.7 189.912 199.86C190.282 200.01 190.597 200.24 190.857 200.55C191.127 200.86 191.267 201.265 191.277 201.765C191.277 202.215 191.152 202.62 190.902 202.98C190.652 203.34 190.297 203.625 189.837 203.835C189.387 204.035 188.867 204.135 188.277 204.135ZM194.869 196.905V201.75C194.869 202.15 194.954 202.435 195.124 202.605C195.294 202.765 195.589 202.845 196.009 202.845H197.014V204H195.784C195.024 204 194.454 203.825 194.074 203.475C193.694 203.125 193.504 202.55 193.504 201.75V196.905H192.439V195.78H193.504V193.71H194.869V195.78H197.014V196.905H194.869ZM204.032 197.295C204.302 196.825 204.702 196.435 205.232 196.125C205.772 195.805 206.397 195.645 207.107 195.645C207.837 195.645 208.497 195.82 209.087 196.17C209.687 196.52 210.157 197.015 210.497 197.655C210.837 198.285 211.007 199.02 211.007 199.86C211.007 200.69 210.837 201.43 210.497 202.08C210.157 202.73 209.687 203.235 209.087 203.595C208.497 203.955 207.837 204.135 207.107 204.135C206.407 204.135 205.787 203.98 205.247 203.67C204.717 203.35 204.312 202.955 204.032 202.485V207.9H202.667V195.78H204.032V197.295ZM209.612 199.86C209.612 199.24 209.487 198.7 209.237 198.24C208.987 197.78 208.647 197.43 208.217 197.19C207.797 196.95 207.332 196.83 206.822 196.83C206.322 196.83 205.857 196.955 205.427 197.205C205.007 197.445 204.667 197.8 204.407 198.27C204.157 198.73 204.032 199.265 204.032 199.875C204.032 200.495 204.157 201.04 204.407 201.51C204.667 201.97 205.007 202.325 205.427 202.575C205.857 202.815 206.322 202.935 206.822 202.935C207.332 202.935 207.797 202.815 208.217 202.575C208.647 202.325 208.987 201.97 209.237 201.51C209.487 201.04 209.612 200.49 209.612 199.86ZM214.168 197.115C214.408 196.645 214.748 196.28 215.188 196.02C215.638 195.76 216.183 195.63 216.823 195.63V197.04H216.463C214.933 197.04 214.168 197.87 214.168 199.53V204H212.803V195.78H214.168V197.115ZM221.984 204.135C221.214 204.135 220.514 203.96 219.884 203.61C219.264 203.26 218.774 202.765 218.414 202.125C218.064 201.475 217.889 200.725 217.889 199.875C217.889 199.035 218.069 198.295 218.429 197.655C218.799 197.005 219.299 196.51 219.929 196.17C220.559 195.82 221.264 195.645 222.044 195.645C222.824 195.645 223.529 195.82 224.159 196.17C224.789 196.51 225.284 197 225.644 197.64C226.014 198.28 226.199 199.025 226.199 199.875C226.199 200.725 226.009 201.475 225.629 202.125C225.259 202.765 224.754 203.26 224.114 203.61C223.474 203.96 222.764 204.135 221.984 204.135ZM221.984 202.935C222.474 202.935 222.934 202.82 223.364 202.59C223.794 202.36 224.139 202.015 224.399 201.555C224.669 201.095 224.804 200.535 224.804 199.875C224.804 199.215 224.674 198.655 224.414 198.195C224.154 197.735 223.814 197.395 223.394 197.175C222.974 196.945 222.519 196.83 222.029 196.83C221.529 196.83 221.069 196.945 220.649 197.175C220.239 197.395 219.909 197.735 219.659 198.195C219.409 198.655 219.284 199.215 219.284 199.875C219.284 200.545 219.404 201.11 219.644 201.57C219.894 202.03 220.224 202.375 220.634 202.605C221.044 202.825 221.494 202.935 221.984 202.935ZM231.339 196.905H229.614V204H228.249V196.905H227.184V195.78H228.249V195.195C228.249 194.275 228.484 193.605 228.954 193.185C229.434 192.755 230.199 192.54 231.249 192.54V193.68C230.649 193.68 230.224 193.8 229.974 194.04C229.734 194.27 229.614 194.655 229.614 195.195V195.78H231.339V196.905ZM240.43 199.575C240.43 199.835 240.415 200.11 240.385 200.4H233.815C233.865 201.21 234.14 201.845 234.64 202.305C235.15 202.755 235.765 202.98 236.485 202.98C237.075 202.98 237.565 202.845 237.955 202.575C238.355 202.295 238.635 201.925 238.795 201.465H240.265C240.045 202.255 239.605 202.9 238.945 203.4C238.285 203.89 237.465 204.135 236.485 204.135C235.705 204.135 235.005 203.96 234.385 203.61C233.775 203.26 233.295 202.765 232.945 202.125C232.595 201.475 232.42 200.725 232.42 199.875C232.42 199.025 232.59 198.28 232.93 197.64C233.27 197 233.745 196.51 234.355 196.17C234.975 195.82 235.685 195.645 236.485 195.645C237.265 195.645 237.955 195.815 238.555 196.155C239.155 196.495 239.615 196.965 239.935 197.565C240.265 198.155 240.43 198.825 240.43 199.575ZM239.02 199.29C239.02 198.77 238.905 198.325 238.675 197.955C238.445 197.575 238.13 197.29 237.73 197.1C237.34 196.9 236.905 196.8 236.425 196.8C235.735 196.8 235.145 197.02 234.655 197.46C234.175 197.9 233.9 198.51 233.83 199.29H239.02ZM245.142 204.135C244.512 204.135 243.947 204.03 243.447 203.82C242.947 203.6 242.552 203.3 242.262 202.92C241.972 202.53 241.812 202.085 241.782 201.585H243.192C243.232 201.995 243.422 202.33 243.762 202.59C244.112 202.85 244.567 202.98 245.127 202.98C245.647 202.98 246.057 202.865 246.357 202.635C246.657 202.405 246.807 202.115 246.807 201.765C246.807 201.405 246.647 201.14 246.327 200.97C246.007 200.79 245.512 200.615 244.842 200.445C244.232 200.285 243.732 200.125 243.342 199.965C242.962 199.795 242.632 199.55 242.352 199.23C242.082 198.9 241.947 198.47 241.947 197.94C241.947 197.52 242.072 197.135 242.322 196.785C242.572 196.435 242.927 196.16 243.387 195.96C243.847 195.75 244.372 195.645 244.962 195.645C245.872 195.645 246.607 195.875 247.167 196.335C247.727 196.795 248.027 197.425 248.067 198.225H246.702C246.672 197.795 246.497 197.45 246.177 197.19C245.867 196.93 245.447 196.8 244.917 196.8C244.427 196.8 244.037 196.905 243.747 197.115C243.457 197.325 243.312 197.6 243.312 197.94C243.312 198.21 243.397 198.435 243.567 198.615C243.747 198.785 243.967 198.925 244.227 199.035C244.497 199.135 244.867 199.25 245.337 199.38C245.927 199.54 246.407 199.7 246.777 199.86C247.147 200.01 247.462 200.24 247.722 200.55C247.992 200.86 248.132 201.265 248.142 201.765C248.142 202.215 248.017 202.62 247.767 202.98C247.517 203.34 247.162 203.625 246.702 203.835C246.252 204.035 245.732 204.135 245.142 204.135ZM252.979 204.135C252.349 204.135 251.784 204.03 251.284 203.82C250.784 203.6 250.389 203.3 250.099 202.92C249.809 202.53 249.649 202.085 249.619 201.585H251.029C251.069 201.995 251.259 202.33 251.599 202.59C251.949 202.85 252.404 202.98 252.964 202.98C253.484 202.98 253.894 202.865 254.194 202.635C254.494 202.405 254.644 202.115 254.644 201.765C254.644 201.405 254.484 201.14 254.164 200.97C253.844 200.79 253.349 200.615 252.679 200.445C252.069 200.285 251.569 200.125 251.179 199.965C250.799 199.795 250.469 199.55 250.189 199.23C249.919 198.9 249.784 198.47 249.784 197.94C249.784 197.52 249.909 197.135 250.159 196.785C250.409 196.435 250.764 196.16 251.224 195.96C251.684 195.75 252.209 195.645 252.799 195.645C253.709 195.645 254.444 195.875 255.004 196.335C255.564 196.795 255.864 197.425 255.904 198.225H254.539C254.509 197.795 254.334 197.45 254.014 197.19C253.704 196.93 253.284 196.8 252.754 196.8C252.264 196.8 251.874 196.905 251.584 197.115C251.294 197.325 251.149 197.6 251.149 197.94C251.149 198.21 251.234 198.435 251.404 198.615C251.584 198.785 251.804 198.925 252.064 199.035C252.334 199.135 252.704 199.25 253.174 199.38C253.764 199.54 254.244 199.7 254.614 199.86C254.984 200.01 255.299 200.24 255.559 200.55C255.829 200.86 255.969 201.265 255.979 201.765C255.979 202.215 255.854 202.62 255.604 202.98C255.354 203.34 254.999 203.625 254.539 203.835C254.089 204.035 253.569 204.135 252.979 204.135ZM258.611 194.445C258.351 194.445 258.131 194.355 257.951 194.175C257.771 193.995 257.681 193.775 257.681 193.515C257.681 193.255 257.771 193.035 257.951 192.855C258.131 192.675 258.351 192.585 258.611 192.585C258.861 192.585 259.071 192.675 259.241 192.855C259.421 193.035 259.511 193.255 259.511 193.515C259.511 193.775 259.421 193.995 259.241 194.175C259.071 194.355 258.861 194.445 258.611 194.445ZM259.271 195.78V204H257.906V195.78H259.271ZM265.182 204.135C264.412 204.135 263.712 203.96 263.082 203.61C262.462 203.26 261.972 202.765 261.612 202.125C261.262 201.475 261.087 200.725 261.087 199.875C261.087 199.035 261.267 198.295 261.627 197.655C261.997 197.005 262.497 196.51 263.127 196.17C263.757 195.82 264.462 195.645 265.242 195.645C266.022 195.645 266.727 195.82 267.357 196.17C267.987 196.51 268.482 197 268.842 197.64C269.212 198.28 269.397 199.025 269.397 199.875C269.397 200.725 269.207 201.475 268.827 202.125C268.457 202.765 267.952 203.26 267.312 203.61C266.672 203.96 265.962 204.135 265.182 204.135ZM265.182 202.935C265.672 202.935 266.132 202.82 266.562 202.59C266.992 202.36 267.337 202.015 267.597 201.555C267.867 201.095 268.002 200.535 268.002 199.875C268.002 199.215 267.872 198.655 267.612 198.195C267.352 197.735 267.012 197.395 266.592 197.175C266.172 196.945 265.717 196.83 265.227 196.83C264.727 196.83 264.267 196.945 263.847 197.175C263.437 197.395 263.107 197.735 262.857 198.195C262.607 198.655 262.482 199.215 262.482 199.875C262.482 200.545 262.602 201.11 262.842 201.57C263.092 202.03 263.422 202.375 263.832 202.605C264.242 202.825 264.692 202.935 265.182 202.935ZM275.197 195.63C276.197 195.63 277.007 195.935 277.627 196.545C278.247 197.145 278.557 198.015 278.557 199.155V204H277.207V199.35C277.207 198.53 277.002 197.905 276.592 197.475C276.182 197.035 275.622 196.815 274.912 196.815C274.192 196.815 273.617 197.04 273.187 197.49C272.767 197.94 272.557 198.595 272.557 199.455V204H271.192V195.78H272.557V196.95C272.827 196.53 273.192 196.205 273.652 195.975C274.122 195.745 274.637 195.63 275.197 195.63ZM280.277 199.86C280.277 199.02 280.447 198.285 280.787 197.655C281.127 197.015 281.592 196.52 282.182 196.17C282.782 195.82 283.447 195.645 284.177 195.645C284.897 195.645 285.522 195.8 286.052 196.11C286.582 196.42 286.977 196.81 287.237 197.28V195.78H288.617V204H287.237V202.47C286.967 202.95 286.562 203.35 286.022 203.67C285.492 203.98 284.872 204.135 284.162 204.135C283.432 204.135 282.772 203.955 282.182 203.595C281.592 203.235 281.127 202.73 280.787 202.08C280.447 201.43 280.277 200.69 280.277 199.86ZM287.237 199.875C287.237 199.255 287.112 198.715 286.862 198.255C286.612 197.795 286.272 197.445 285.842 197.205C285.422 196.955 284.957 196.83 284.447 196.83C283.937 196.83 283.472 196.95 283.052 197.19C282.632 197.43 282.297 197.78 282.047 198.24C281.797 198.7 281.672 199.24 281.672 199.86C281.672 200.49 281.797 201.04 282.047 201.51C282.297 201.97 282.632 202.325 283.052 202.575C283.472 202.815 283.937 202.935 284.447 202.935C284.957 202.935 285.422 202.815 285.842 202.575C286.272 202.325 286.612 201.97 286.862 201.51C287.112 201.04 287.237 200.495 287.237 199.875ZM292.289 192.9V204H290.924V192.9H292.289ZM148.512 220.78L145.947 229H144.537L142.557 222.475L140.577 229H139.167L136.587 220.78H137.982L139.872 227.68L141.912 220.78H143.307L145.302 227.695L147.162 220.78H148.512ZM157.366 224.575C157.366 224.835 157.351 225.11 157.321 225.4H150.751C150.801 226.21 151.076 226.845 151.576 227.305C152.086 227.755 152.701 227.98 153.421 227.98C154.011 227.98 154.501 227.845 154.891 227.575C155.291 227.295 155.571 226.925 155.731 226.465H157.201C156.981 227.255 156.541 227.9 155.881 228.4C155.221 228.89 154.401 229.135 153.421 229.135C152.641 229.135 151.941 228.96 151.321 228.61C150.711 228.26 150.231 227.765 149.881 227.125C149.531 226.475 149.356 225.725 149.356 224.875C149.356 224.025 149.526 223.28 149.866 222.64C150.206 222 150.681 221.51 151.291 221.17C151.911 220.82 152.621 220.645 153.421 220.645C154.201 220.645 154.891 220.815 155.491 221.155C156.091 221.495 156.551 221.965 156.871 222.565C157.201 223.155 157.366 223.825 157.366 224.575ZM155.956 224.29C155.956 223.77 155.841 223.325 155.611 222.955C155.381 222.575 155.066 222.29 154.666 222.1C154.276 221.9 153.841 221.8 153.361 221.8C152.671 221.8 152.081 222.02 151.591 222.46C151.111 222.9 150.836 223.51 150.766 224.29H155.956ZM160.533 222.31C160.813 221.82 161.223 221.42 161.763 221.11C162.303 220.8 162.918 220.645 163.608 220.645C164.348 220.645 165.013 220.82 165.603 221.17C166.193 221.52 166.658 222.015 166.998 222.655C167.338 223.285 167.508 224.02 167.508 224.86C167.508 225.69 167.338 226.43 166.998 227.08C166.658 227.73 166.188 228.235 165.588 228.595C164.998 228.955 164.338 229.135 163.608 229.135C162.898 229.135 162.273 228.98 161.733 228.67C161.203 228.36 160.803 227.965 160.533 227.485V229H159.168V217.9H160.533V222.31ZM166.113 224.86C166.113 224.24 165.988 223.7 165.738 223.24C165.488 222.78 165.148 222.43 164.718 222.19C164.298 221.95 163.833 221.83 163.323 221.83C162.823 221.83 162.358 221.955 161.928 222.205C161.508 222.445 161.168 222.8 160.908 223.27C160.658 223.73 160.533 224.265 160.533 224.875C160.533 225.495 160.658 226.04 160.908 226.51C161.168 226.97 161.508 227.325 161.928 227.575C162.358 227.815 162.823 227.935 163.323 227.935C163.833 227.935 164.298 227.815 164.718 227.575C165.148 227.325 165.488 226.97 165.738 226.51C165.988 226.04 166.113 225.49 166.113 224.86ZM172.215 229.135C171.585 229.135 171.02 229.03 170.52 228.82C170.02 228.6 169.625 228.3 169.335 227.92C169.045 227.53 168.885 227.085 168.855 226.585H170.265C170.305 226.995 170.495 227.33 170.835 227.59C171.185 227.85 171.64 227.98 172.2 227.98C172.72 227.98 173.13 227.865 173.43 227.635C173.73 227.405 173.88 227.115 173.88 226.765C173.88 226.405 173.72 226.14 173.4 225.97C173.08 225.79 172.585 225.615 171.915 225.445C171.305 225.285 170.805 225.125 170.415 224.965C170.035 224.795 169.705 224.55 169.425 224.23C169.155 223.9 169.02 223.47 169.02 222.94C169.02 222.52 169.145 222.135 169.395 221.785C169.645 221.435 170 221.16 170.46 220.96C170.92 220.75 171.445 220.645 172.035 220.645C172.945 220.645 173.68 220.875 174.24 221.335C174.8 221.795 175.1 222.425 175.14 223.225H173.775C173.745 222.795 173.57 222.45 173.25 222.19C172.94 221.93 172.52 221.8 171.99 221.8C171.5 221.8 171.11 221.905 170.82 222.115C170.53 222.325 170.385 222.6 170.385 222.94C170.385 223.21 170.47 223.435 170.64 223.615C170.82 223.785 171.04 223.925 171.3 224.035C171.57 224.135 171.94 224.25 172.41 224.38C173 224.54 173.48 224.7 173.85 224.86C174.22 225.01 174.535 225.24 174.795 225.55C175.065 225.86 175.205 226.265 175.215 226.765C175.215 227.215 175.09 227.62 174.84 227.98C174.59 228.34 174.235 228.625 173.775 228.835C173.325 229.035 172.805 229.135 172.215 229.135ZM177.847 219.445C177.587 219.445 177.367 219.355 177.187 219.175C177.007 218.995 176.917 218.775 176.917 218.515C176.917 218.255 177.007 218.035 177.187 217.855C177.367 217.675 177.587 217.585 177.847 217.585C178.097 217.585 178.307 217.675 178.477 217.855C178.657 218.035 178.747 218.255 178.747 218.515C178.747 218.775 178.657 218.995 178.477 219.175C178.307 219.355 178.097 219.445 177.847 219.445ZM178.507 220.78V229H177.142V220.78H178.507ZM182.498 221.905V226.75C182.498 227.15 182.583 227.435 182.753 227.605C182.923 227.765 183.218 227.845 183.638 227.845H184.643V229H183.413C182.653 229 182.083 228.825 181.703 228.475C181.323 228.125 181.133 227.55 181.133 226.75V221.905H180.068V220.78H181.133V218.71H182.498V220.78H184.643V221.905H182.498ZM193.797 224.575C193.797 224.835 193.782 225.11 193.752 225.4H187.182C187.232 226.21 187.507 226.845 188.007 227.305C188.517 227.755 189.132 227.98 189.852 227.98C190.442 227.98 190.932 227.845 191.322 227.575C191.722 227.295 192.002 226.925 192.162 226.465H193.632C193.412 227.255 192.972 227.9 192.312 228.4C191.652 228.89 190.832 229.135 189.852 229.135C189.072 229.135 188.372 228.96 187.752 228.61C187.142 228.26 186.662 227.765 186.312 227.125C185.962 226.475 185.787 225.725 185.787 224.875C185.787 224.025 185.957 223.28 186.297 222.64C186.637 222 187.112 221.51 187.722 221.17C188.342 220.82 189.052 220.645 189.852 220.645C190.632 220.645 191.322 220.815 191.922 221.155C192.522 221.495 192.982 221.965 193.302 222.565C193.632 223.155 193.797 223.825 193.797 224.575ZM192.387 224.29C192.387 223.77 192.272 223.325 192.042 222.955C191.812 222.575 191.497 222.29 191.097 222.1C190.707 221.9 190.272 221.8 189.792 221.8C189.102 221.8 188.512 222.02 188.022 222.46C187.542 222.9 187.267 223.51 187.197 224.29H192.387ZM196.034 229.09C195.774 229.09 195.554 229 195.374 228.82C195.194 228.64 195.104 228.42 195.104 228.16C195.104 227.9 195.194 227.68 195.374 227.5C195.554 227.32 195.774 227.23 196.034 227.23C196.284 227.23 196.494 227.32 196.664 227.5C196.844 227.68 196.934 227.9 196.934 228.16C196.934 228.42 196.844 228.64 196.664 228.82C196.494 229 196.284 229.09 196.034 229.09Z" fill="black"/>
<path d="M58.797 63.6C58.417 62.9 57.867 62.37 57.147 62.01C56.447 61.63 55.617 61.44 54.657 61.44C52.997 61.44 51.667 61.99 50.667 63.09C49.667 64.17 49.167 65.62 49.167 67.44C49.167 69.38 49.687 70.9 50.727 72C51.787 73.08 53.237 73.62 55.077 73.62C56.337 73.62 57.397 73.3 58.257 72.66C59.137 72.02 59.777 71.1 60.177 69.9H53.667V66.12H64.827V70.89C64.447 72.17 63.797 73.36 62.877 74.46C61.977 75.56 60.827 76.45 59.427 77.13C58.027 77.81 56.447 78.15 54.687 78.15C52.607 78.15 50.747 77.7 49.107 76.8C47.487 75.88 46.217 74.61 45.297 72.99C44.397 71.37 43.947 69.52 43.947 67.44C43.947 65.36 44.397 63.51 45.297 61.89C46.217 60.25 47.487 58.98 49.107 58.08C50.727 57.16 52.577 56.7 54.657 56.7C57.177 56.7 59.297 57.31 61.017 58.53C62.757 59.75 63.907 61.44 64.467 63.6H58.797ZM83.4486 69.36C83.4486 69.84 83.4186 70.34 83.3586 70.86H71.7486C71.8286 71.9 72.1586 72.7 72.7386 73.26C73.3386 73.8 74.0686 74.07 74.9286 74.07C76.2086 74.07 77.0986 73.53 77.5986 72.45H83.0586C82.7786 73.55 82.2686 74.54 81.5286 75.42C80.8086 76.3 79.8986 76.99 78.7986 77.49C77.6986 77.99 76.4686 78.24 75.1086 78.24C73.4686 78.24 72.0086 77.89 70.7286 77.19C69.4486 76.49 68.4486 75.49 67.7286 74.19C67.0086 72.89 66.6486 71.37 66.6486 69.63C66.6486 67.89 66.9986 66.37 67.6986 65.07C68.4186 63.77 69.4186 62.77 70.6986 62.07C71.9786 61.37 73.4486 61.02 75.1086 61.02C76.7286 61.02 78.1686 61.36 79.4286 62.04C80.6886 62.72 81.6686 63.69 82.3686 64.95C83.0886 66.21 83.4486 67.68 83.4486 69.36ZM78.1986 68.01C78.1986 67.13 77.8986 66.43 77.2986 65.91C76.6986 65.39 75.9486 65.13 75.0486 65.13C74.1886 65.13 73.4586 65.38 72.8586 65.88C72.2786 66.38 71.9186 67.09 71.7786 68.01H78.1986ZM95.4849 73.65V78H92.8749C91.0149 78 89.5649 77.55 88.5249 76.65C87.4849 75.73 86.9649 74.24 86.9649 72.18V65.52H84.9249V61.26H86.9649V57.18H92.0949V61.26H95.4549V65.52H92.0949V72.24C92.0949 72.74 92.2149 73.1 92.4549 73.32C92.6949 73.54 93.0949 73.65 93.6549 73.65H95.4849ZM121.8 61.26L111.3 85.95H105.78L109.62 77.43L102.81 61.26H108.54L112.41 71.73L116.25 61.26H121.8ZM131.275 78.24C129.635 78.24 128.155 77.89 126.835 77.19C125.535 76.49 124.505 75.49 123.745 74.19C123.005 72.89 122.635 71.37 122.635 69.63C122.635 67.91 123.015 66.4 123.775 65.1C124.535 63.78 125.575 62.77 126.895 62.07C128.215 61.37 129.695 61.02 131.335 61.02C132.975 61.02 134.455 61.37 135.775 62.07C137.095 62.77 138.135 63.78 138.895 65.1C139.655 66.4 140.035 67.91 140.035 69.63C140.035 71.35 139.645 72.87 138.865 74.19C138.105 75.49 137.055 76.49 135.715 77.19C134.395 77.89 132.915 78.24 131.275 78.24ZM131.275 73.8C132.255 73.8 133.085 73.44 133.765 72.72C134.465 72 134.815 70.97 134.815 69.63C134.815 68.29 134.475 67.26 133.795 66.54C133.135 65.82 132.315 65.46 131.335 65.46C130.335 65.46 129.505 65.82 128.845 66.54C128.185 67.24 127.855 68.27 127.855 69.63C127.855 70.97 128.175 72 128.815 72.72C129.475 73.44 130.295 73.8 131.275 73.8ZM159.286 61.26V78H154.156V75.72C153.636 76.46 152.926 77.06 152.026 77.52C151.146 77.96 150.166 78.18 149.086 78.18C147.806 78.18 146.676 77.9 145.696 77.34C144.716 76.76 143.956 75.93 143.416 74.85C142.876 73.77 142.606 72.5 142.606 71.04V61.26H147.706V70.35C147.706 71.47 147.996 72.34 148.576 72.96C149.156 73.58 149.936 73.89 150.916 73.89C151.916 73.89 152.706 73.58 153.286 72.96C153.866 72.34 154.156 71.47 154.156 70.35V61.26H159.286ZM168.101 64.05C168.701 63.13 169.451 62.41 170.351 61.89C171.251 61.35 172.251 61.08 173.351 61.08V66.51H171.941C170.661 66.51 169.701 66.79 169.061 67.35C168.421 67.89 168.101 68.85 168.101 70.23V78H162.971V61.26H168.101V64.05ZM184.741 59.52C183.841 59.52 183.101 59.26 182.521 58.74C181.961 58.2 181.681 57.54 181.681 56.76C181.681 55.96 181.961 55.3 182.521 54.78C183.101 54.24 183.841 53.97 184.741 53.97C185.621 53.97 186.341 54.24 186.901 54.78C187.481 55.3 187.771 55.96 187.771 56.76C187.771 57.54 187.481 58.2 186.901 58.74C186.341 59.26 185.621 59.52 184.741 59.52ZM187.291 61.26V78H182.161V61.26H187.291ZM201.208 61.08C203.168 61.08 204.728 61.72 205.888 63C207.068 64.26 207.658 66 207.658 68.22V78H202.558V68.91C202.558 67.79 202.268 66.92 201.688 66.3C201.108 65.68 200.328 65.37 199.348 65.37C198.368 65.37 197.588 65.68 197.008 66.3C196.428 66.92 196.138 67.79 196.138 68.91V78H191.008V61.26H196.138V63.48C196.658 62.74 197.358 62.16 198.238 61.74C199.118 61.3 200.108 61.08 201.208 61.08ZM218.033 78.24C216.573 78.24 215.273 77.99 214.133 77.49C212.993 76.99 212.093 76.31 211.433 75.45C210.773 74.57 210.403 73.59 210.323 72.51H215.393C215.453 73.09 215.723 73.56 216.203 73.92C216.683 74.28 217.273 74.46 217.973 74.46C218.613 74.46 219.103 74.34 219.443 74.1C219.803 73.84 219.983 73.51 219.983 73.11C219.983 72.63 219.733 72.28 219.233 72.06C218.733 71.82 217.923 71.56 216.803 71.28C215.603 71 214.603 70.71 213.803 70.41C213.003 70.09 212.313 69.6 211.733 68.94C211.153 68.26 210.863 67.35 210.863 66.21C210.863 65.25 211.123 64.38 211.643 63.6C212.183 62.8 212.963 62.17 213.983 61.71C215.023 61.25 216.253 61.02 217.673 61.02C219.773 61.02 221.423 61.54 222.623 62.58C223.843 63.62 224.543 65 224.723 66.72H219.983C219.903 66.14 219.643 65.68 219.203 65.34C218.783 65 218.223 64.83 217.523 64.83C216.923 64.83 216.463 64.95 216.143 65.19C215.823 65.41 215.663 65.72 215.663 66.12C215.663 66.6 215.913 66.96 216.413 67.2C216.933 67.44 217.733 67.68 218.813 67.92C220.053 68.24 221.063 68.56 221.843 68.88C222.623 69.18 223.303 69.68 223.883 70.38C224.483 71.06 224.793 71.98 224.813 73.14C224.813 74.12 224.533 75 223.973 75.78C223.433 76.54 222.643 77.14 221.603 77.58C220.583 78.02 219.393 78.24 218.033 78.24ZM237.282 73.65V78H234.672C232.812 78 231.362 77.55 230.322 76.65C229.282 75.73 228.762 74.24 228.762 72.18V65.52H226.722V61.26H228.762V57.18H233.892V61.26H237.252V65.52H233.892V72.24C233.892 72.74 234.012 73.1 234.252 73.32C234.492 73.54 234.892 73.65 235.452 73.65H237.282ZM239.119 69.6C239.119 67.88 239.439 66.37 240.079 65.07C240.739 63.77 241.629 62.77 242.749 62.07C243.869 61.37 245.119 61.02 246.499 61.02C247.679 61.02 248.709 61.26 249.589 61.74C250.489 62.22 251.179 62.85 251.659 63.63V61.26H256.789V78H251.659V75.63C251.159 76.41 250.459 77.04 249.559 77.52C248.679 78 247.649 78.24 246.469 78.24C245.109 78.24 243.869 77.89 242.749 77.19C241.629 76.47 240.739 75.46 240.079 74.16C239.439 72.84 239.119 71.32 239.119 69.6ZM251.659 69.63C251.659 68.35 251.299 67.34 250.579 66.6C249.879 65.86 249.019 65.49 247.999 65.49C246.979 65.49 246.109 65.86 245.389 66.6C244.689 67.32 244.339 68.32 244.339 69.6C244.339 70.88 244.689 71.9 245.389 72.66C246.109 73.4 246.979 73.77 247.999 73.77C249.019 73.77 249.879 73.4 250.579 72.66C251.299 71.92 251.659 70.91 251.659 69.63ZM270.701 61.08C272.661 61.08 274.221 61.72 275.381 63C276.561 64.26 277.151 66 277.151 68.22V78H272.051V68.91C272.051 67.79 271.761 66.92 271.181 66.3C270.601 65.68 269.821 65.37 268.841 65.37C267.861 65.37 267.081 65.68 266.501 66.3C265.921 66.92 265.631 67.79 265.631 68.91V78H260.501V61.26H265.631V63.48C266.151 62.74 266.851 62.16 267.731 61.74C268.611 61.3 269.601 61.08 270.701 61.08ZM290.045 73.65V78H287.435C285.575 78 284.125 77.55 283.085 76.65C282.045 75.73 281.525 74.24 281.525 72.18V65.52H279.485V61.26H281.525V57.18H286.655V61.26H290.015V65.52H286.655V72.24C286.655 72.74 286.775 73.1 287.015 73.32C287.255 73.54 287.655 73.65 288.215 73.65H290.045ZM44.4855 119.6C44.4855 117.88 44.8055 116.37 45.4455 115.07C46.1055 113.77 46.9955 112.77 48.1155 112.07C49.2355 111.37 50.4855 111.02 51.8655 111.02C52.9655 111.02 53.9655 111.25 54.8655 111.71C55.7855 112.17 56.5055 112.79 57.0255 113.57V105.8H62.1555V128H57.0255V125.6C56.5455 126.4 55.8555 127.04 54.9555 127.52C54.0755 128 53.0455 128.24 51.8655 128.24C50.4855 128.24 49.2355 127.89 48.1155 127.19C46.9955 126.47 46.1055 125.46 45.4455 124.16C44.8055 122.84 44.4855 121.32 44.4855 119.6ZM57.0255 119.63C57.0255 118.35 56.6655 117.34 55.9455 116.6C55.2455 115.86 54.3855 115.49 53.3655 115.49C52.3455 115.49 51.4755 115.86 50.7555 116.6C50.0555 117.32 49.7055 118.32 49.7055 119.6C49.7055 120.88 50.0555 121.9 50.7555 122.66C51.4755 123.4 52.3455 123.77 53.3655 123.77C54.3855 123.77 55.2455 123.4 55.9455 122.66C56.6655 121.92 57.0255 120.91 57.0255 119.63ZM68.4468 109.52C67.5468 109.52 66.8068 109.26 66.2268 108.74C65.6668 108.2 65.3868 107.54 65.3868 106.76C65.3868 105.96 65.6668 105.3 66.2268 104.78C66.8068 104.24 67.5468 103.97 68.4468 103.97C69.3268 103.97 70.0468 104.24 70.6068 104.78C71.1868 105.3 71.4768 105.96 71.4768 106.76C71.4768 107.54 71.1868 108.2 70.6068 108.74C70.0468 109.26 69.3268 109.52 68.4468 109.52ZM70.9968 111.26V128H65.8668V111.26H70.9968ZM81.5245 128.24C80.0645 128.24 78.7645 127.99 77.6245 127.49C76.4845 126.99 75.5845 126.31 74.9245 125.45C74.2645 124.57 73.8945 123.59 73.8145 122.51H78.8845C78.9445 123.09 79.2145 123.56 79.6945 123.92C80.1745 124.28 80.7645 124.46 81.4645 124.46C82.1045 124.46 82.5945 124.34 82.9345 124.1C83.2945 123.84 83.4745 123.51 83.4745 123.11C83.4745 122.63 83.2245 122.28 82.7245 122.06C82.2245 121.82 81.4145 121.56 80.2945 121.28C79.0945 121 78.0945 120.71 77.2945 120.41C76.4945 120.09 75.8045 119.6 75.2245 118.94C74.6445 118.26 74.3545 117.35 74.3545 116.21C74.3545 115.25 74.6145 114.38 75.1345 113.6C75.6745 112.8 76.4545 112.17 77.4745 111.71C78.5145 111.25 79.7445 111.02 81.1645 111.02C83.2645 111.02 84.9145 111.54 86.1145 112.58C87.3345 113.62 88.0345 115 88.2145 116.72H83.4745C83.3945 116.14 83.1345 115.68 82.6945 115.34C82.2745 115 81.7145 114.83 81.0145 114.83C80.4145 114.83 79.9545 114.95 79.6345 115.19C79.3145 115.41 79.1545 115.72 79.1545 116.12C79.1545 116.6 79.4045 116.96 79.9045 117.2C80.4245 117.44 81.2245 117.68 82.3045 117.92C83.5445 118.24 84.5545 118.56 85.3345 118.88C86.1145 119.18 86.7945 119.68 87.3745 120.38C87.9745 121.06 88.2845 121.98 88.3045 123.14C88.3045 124.12 88.0245 125 87.4645 125.78C86.9245 126.54 86.1345 127.14 85.0945 127.58C84.0745 128.02 82.8845 128.24 81.5245 128.24ZM90.423 119.63C90.423 117.89 90.773 116.37 91.473 115.07C92.193 113.77 93.183 112.77 94.443 112.07C95.723 111.37 97.183 111.02 98.823 111.02C100.923 111.02 102.673 111.57 104.073 112.67C105.493 113.77 106.423 115.32 106.863 117.32H101.403C100.943 116.04 100.053 115.4 98.733 115.4C97.793 115.4 97.043 115.77 96.483 116.51C95.923 117.23 95.643 118.27 95.643 119.63C95.643 120.99 95.923 122.04 96.483 122.78C97.043 123.5 97.793 123.86 98.733 123.86C100.053 123.86 100.943 123.22 101.403 121.94H106.863C106.423 123.9 105.493 125.44 104.073 126.56C102.653 127.68 100.903 128.24 98.823 128.24C97.183 128.24 95.723 127.89 94.443 127.19C93.183 126.49 92.193 125.49 91.473 124.19C90.773 122.89 90.423 121.37 90.423 119.63ZM117.227 128.24C115.587 128.24 114.107 127.89 112.787 127.19C111.487 126.49 110.457 125.49 109.697 124.19C108.957 122.89 108.587 121.37 108.587 119.63C108.587 117.91 108.967 116.4 109.727 115.1C110.487 113.78 111.527 112.77 112.847 112.07C114.167 111.37 115.647 111.02 117.287 111.02C118.927 111.02 120.407 111.37 121.727 112.07C123.047 112.77 124.087 113.78 124.847 115.1C125.607 116.4 125.987 117.91 125.987 119.63C125.987 121.35 125.597 122.87 124.817 124.19C124.057 125.49 123.007 126.49 121.667 127.19C120.347 127.89 118.867 128.24 117.227 128.24ZM117.227 123.8C118.207 123.8 119.037 123.44 119.717 122.72C120.417 122 120.767 120.97 120.767 119.63C120.767 118.29 120.427 117.26 119.747 116.54C119.087 115.82 118.267 115.46 117.287 115.46C116.287 115.46 115.457 115.82 114.797 116.54C114.137 117.24 113.807 118.27 113.807 119.63C113.807 120.97 114.127 122 114.767 122.72C115.427 123.44 116.247 123.8 117.227 123.8ZM145.239 111.26V128H140.109V125.72C139.589 126.46 138.879 127.06 137.979 127.52C137.099 127.96 136.119 128.18 135.039 128.18C133.759 128.18 132.629 127.9 131.649 127.34C130.669 126.76 129.909 125.93 129.369 124.85C128.829 123.77 128.559 122.5 128.559 121.04V111.26H133.659V120.35C133.659 121.47 133.949 122.34 134.529 122.96C135.109 123.58 135.889 123.89 136.869 123.89C137.869 123.89 138.659 123.58 139.239 122.96C139.819 122.34 140.109 121.47 140.109 120.35V111.26H145.239ZM159.123 111.08C161.083 111.08 162.643 111.72 163.803 113C164.983 114.26 165.573 116 165.573 118.22V128H160.473V118.91C160.473 117.79 160.183 116.92 159.603 116.3C159.023 115.68 158.243 115.37 157.263 115.37C156.283 115.37 155.503 115.68 154.923 116.3C154.343 116.92 154.053 117.79 154.053 118.91V128H148.923V111.26H154.053V113.48C154.573 112.74 155.273 112.16 156.153 111.74C157.033 111.3 158.023 111.08 159.123 111.08ZM178.468 123.65V128H175.858C173.998 128 172.548 127.55 171.508 126.65C170.468 125.73 169.948 124.24 169.948 122.18V115.52H167.908V111.26H169.948V107.18H175.078V111.26H178.438V115.52H175.078V122.24C175.078 122.74 175.198 123.1 175.438 123.32C175.678 123.54 176.078 123.65 176.638 123.65H178.468ZM192.813 113.63C193.293 112.85 193.983 112.22 194.883 111.74C195.783 111.26 196.813 111.02 197.973 111.02C199.353 111.02 200.603 111.37 201.723 112.07C202.843 112.77 203.723 113.77 204.363 115.07C205.023 116.37 205.353 117.88 205.353 119.6C205.353 121.32 205.023 122.84 204.363 124.16C203.723 125.46 202.843 126.47 201.723 127.19C200.603 127.89 199.353 128.24 197.973 128.24C196.793 128.24 195.763 128.01 194.883 127.55C194.003 127.07 193.313 126.44 192.813 125.66V128H187.683V105.8H192.813V113.63ZM200.133 119.6C200.133 118.32 199.773 117.32 199.053 116.6C198.353 115.86 197.483 115.49 196.443 115.49C195.423 115.49 194.553 115.86 193.833 116.6C193.133 117.34 192.783 118.35 192.783 119.63C192.783 120.91 193.133 121.92 193.833 122.66C194.553 123.4 195.423 123.77 196.443 123.77C197.463 123.77 198.333 123.4 199.053 122.66C199.773 121.9 200.133 120.88 200.133 119.6ZM223.825 119.36C223.825 119.84 223.795 120.34 223.735 120.86H212.125C212.205 121.9 212.535 122.7 213.115 123.26C213.715 123.8 214.445 124.07 215.305 124.07C216.585 124.07 217.475 123.53 217.975 122.45H223.435C223.155 123.55 222.645 124.54 221.905 125.42C221.185 126.3 220.275 126.99 219.175 127.49C218.075 127.99 216.845 128.24 215.485 128.24C213.845 128.24 212.385 127.89 211.105 127.19C209.825 126.49 208.825 125.49 208.105 124.19C207.385 122.89 207.025 121.37 207.025 119.63C207.025 117.89 207.375 116.37 208.075 115.07C208.795 113.77 209.795 112.77 211.075 112.07C212.355 111.37 213.825 111.02 215.485 111.02C217.105 111.02 218.545 111.36 219.805 112.04C221.065 112.72 222.045 113.69 222.745 114.95C223.465 116.21 223.825 117.68 223.825 119.36ZM218.575 118.01C218.575 117.13 218.275 116.43 217.675 115.91C217.075 115.39 216.325 115.13 215.425 115.13C214.565 115.13 213.835 115.38 213.235 115.88C212.655 116.38 212.295 117.09 212.155 118.01H218.575ZM231.661 105.8V128H226.531V105.8H231.661ZM242.999 128.24C241.359 128.24 239.879 127.89 238.559 127.19C237.259 126.49 236.229 125.49 235.469 124.19C234.729 122.89 234.359 121.37 234.359 119.63C234.359 117.91 234.739 116.4 235.499 115.1C236.259 113.78 237.299 112.77 238.619 112.07C239.939 111.37 241.419 111.02 243.059 111.02C244.699 111.02 246.179 111.37 247.499 112.07C248.819 112.77 249.859 113.78 250.619 115.1C251.379 116.4 251.759 117.91 251.759 119.63C251.759 121.35 251.369 122.87 250.589 124.19C249.829 125.49 248.779 126.49 247.439 127.19C246.119 127.89 244.639 128.24 242.999 128.24ZM242.999 123.8C243.979 123.8 244.809 123.44 245.489 122.72C246.189 122 246.539 120.97 246.539 119.63C246.539 118.29 246.199 117.26 245.519 116.54C244.859 115.82 244.039 115.46 243.059 115.46C242.059 115.46 241.229 115.82 240.569 116.54C239.909 117.24 239.579 118.27 239.579 119.63C239.579 120.97 239.899 122 240.539 122.72C241.199 123.44 242.019 123.8 242.999 123.8ZM278.51 111.26L273.98 128H268.31L265.67 117.14L262.94 128H257.3L252.74 111.26H257.87L260.24 123.23L263.06 111.26H268.49L271.34 123.17L273.68 111.26H278.51ZM287.216 106.19L286.616 120.56H282.266L281.666 106.19H287.216ZM284.516 128.24C283.616 128.24 282.876 127.98 282.296 127.46C281.736 126.92 281.456 126.26 281.456 125.48C281.456 124.68 281.736 124.01 282.296 123.47C282.876 122.93 283.616 122.66 284.516 122.66C285.396 122.66 286.116 122.93 286.676 123.47C287.256 124.01 287.546 124.68 287.546 125.48C287.546 126.26 287.256 126.92 286.676 127.46C286.116 127.98 285.396 128.24 284.516 128.24Z" fill="#005FF7"/>
</svg>
