<svg width="215" height="27" viewBox="0 0 215 27" fill="none" xmlns="http://www.w3.org/2000/svg">
<path d="M21.7674 1.43V26H15.7824V15.885H6.47238V26H0.487383V1.43H6.47238V11.055H15.7824V1.43H21.7674ZM44.498 15.92C44.498 16.48 44.463 17.0633 44.393 17.67H30.848C30.9413 18.8833 31.3263 19.8167 32.003 20.47C32.703 21.1 33.5546 21.415 34.558 21.415C36.0513 21.415 37.0896 20.785 37.673 19.525H44.043C43.7163 20.8083 43.1213 21.9633 42.258 22.99C41.418 24.0167 40.3563 24.8217 39.073 25.405C37.7896 25.9883 36.3546 26.28 34.768 26.28C32.8546 26.28 31.1513 25.8717 29.658 25.055C28.1646 24.2383 26.998 23.0717 26.158 21.555C25.318 20.0383 24.898 18.265 24.898 16.235C24.898 14.205 25.3063 12.4317 26.123 10.915C26.963 9.39833 28.1296 8.23167 29.623 7.415C31.1163 6.59833 32.8313 6.19 34.768 6.19C36.658 6.19 38.338 6.58667 39.808 7.38C41.278 8.17333 42.4213 9.305 43.238 10.775C44.078 12.245 44.498 13.96 44.498 15.92ZM38.373 14.345C38.373 13.3183 38.023 12.5017 37.323 11.895C36.623 11.2883 35.748 10.985 34.698 10.985C33.6946 10.985 32.843 11.2767 32.143 11.86C31.4663 12.4433 31.0463 13.2717 30.883 14.345H38.373ZM53.6404 0.0999997V26H47.6554V0.0999997H53.6404ZM63.9626 0.0999997V26H57.9776V0.0999997H63.9626ZM77.1899 26.28C75.2765 26.28 73.5499 25.8717 72.0099 25.055C70.4932 24.2383 69.2915 23.0717 68.4049 21.555C67.5415 20.0383 67.1099 18.265 67.1099 16.235C67.1099 14.2283 67.5532 12.4667 68.4399 10.95C69.3265 9.41 70.5399 8.23167 72.0799 7.415C73.6199 6.59833 75.3466 6.19 77.2599 6.19C79.1732 6.19 80.8999 6.59833 82.4399 7.415C83.9799 8.23167 85.1932 9.41 86.0799 10.95C86.9666 12.4667 87.4099 14.2283 87.4099 16.235C87.4099 18.2417 86.9549 20.015 86.0449 21.555C85.1582 23.0717 83.9332 24.2383 82.3699 25.055C80.8299 25.8717 79.1032 26.28 77.1899 26.28ZM77.1899 21.1C78.3332 21.1 79.3015 20.68 80.0949 19.84C80.9116 19 81.3199 17.7983 81.3199 16.235C81.3199 14.6717 80.9232 13.47 80.1299 12.63C79.3599 11.79 78.4032 11.37 77.2599 11.37C76.0932 11.37 75.1249 11.79 74.3549 12.63C73.5849 13.4467 73.1999 14.6483 73.1999 16.235C73.1999 17.7983 73.5732 19 74.3199 19.84C75.0899 20.68 76.0466 21.1 77.1899 21.1ZM131.812 1.43L125.407 26H118.162L114.242 9.83L110.182 26H102.937L96.707 1.43H103.112L106.647 19.315L111.022 1.43H117.602L121.802 19.315L125.372 1.43H131.812ZM143.704 26.28C141.79 26.28 140.064 25.8717 138.524 25.055C137.007 24.2383 135.805 23.0717 134.919 21.555C134.055 20.0383 133.624 18.265 133.624 16.235C133.624 14.2283 134.067 12.4667 134.954 10.95C135.84 9.41 137.054 8.23167 138.594 7.415C140.134 6.59833 141.86 6.19 143.774 6.19C145.687 6.19 147.414 6.59833 148.954 7.415C150.494 8.23167 151.707 9.41 152.594 10.95C153.48 12.4667 153.924 14.2283 153.924 16.235C153.924 18.2417 153.469 20.015 152.559 21.555C151.672 23.0717 150.447 24.2383 148.884 25.055C147.344 25.8717 145.617 26.28 143.704 26.28ZM143.704 21.1C144.847 21.1 145.815 20.68 146.609 19.84C147.425 19 147.834 17.7983 147.834 16.235C147.834 14.6717 147.437 13.47 146.644 12.63C145.874 11.79 144.917 11.37 143.774 11.37C142.607 11.37 141.639 11.79 140.869 12.63C140.099 13.4467 139.714 14.6483 139.714 16.235C139.714 17.7983 140.087 19 140.834 19.84C141.604 20.68 142.56 21.1 143.704 21.1ZM163.084 9.725C163.784 8.65167 164.659 7.81167 165.709 7.205C166.759 6.575 167.925 6.26 169.209 6.26V12.595H167.564C166.07 12.595 164.95 12.9217 164.204 13.575C163.457 14.205 163.084 15.325 163.084 16.935V26H157.099V6.47H163.084V9.725ZM178.054 0.0999997V26H172.069V0.0999997H178.054ZM181.202 16.2C181.202 14.1933 181.575 12.4317 182.322 10.915C183.092 9.39833 184.13 8.23167 185.437 7.415C186.743 6.59833 188.202 6.19 189.812 6.19C191.095 6.19 192.262 6.45833 193.312 6.995C194.385 7.53167 195.225 8.255 195.832 9.165V0.0999997H201.817V26H195.832V23.2C195.272 24.1333 194.467 24.88 193.417 25.44C192.39 26 191.188 26.28 189.812 26.28C188.202 26.28 186.743 25.8717 185.437 25.055C184.13 24.215 183.092 23.0367 182.322 21.52C181.575 19.98 181.202 18.2067 181.202 16.2ZM195.832 16.235C195.832 14.7417 195.412 13.5633 194.572 12.7C193.755 11.8367 192.752 11.405 191.562 11.405C190.372 11.405 189.357 11.8367 188.517 12.7C187.7 13.54 187.292 14.7067 187.292 16.2C187.292 17.6933 187.7 18.8833 188.517 19.77C189.357 20.6333 190.372 21.065 191.562 21.065C192.752 21.065 193.755 20.6333 194.572 19.77C195.412 18.9067 195.832 17.7283 195.832 16.235ZM214.022 0.554998L213.322 17.32H208.247L207.547 0.554998H214.022ZM210.872 26.28C209.822 26.28 208.958 25.9767 208.282 25.37C207.628 24.74 207.302 23.97 207.302 23.06C207.302 22.1267 207.628 21.345 208.282 20.715C208.958 20.085 209.822 19.77 210.872 19.77C211.898 19.77 212.738 20.085 213.392 20.715C214.068 21.345 214.407 22.1267 214.407 23.06C214.407 23.97 214.068 24.74 213.392 25.37C212.738 25.9767 211.898 26.28 210.872 26.28Z" fill="#005FF6"/>
</svg>
