<svg width="639" height="639" viewBox="0 0 639 639" fill="none" xmlns="http://www.w3.org/2000/svg">
<path d="M346.333 4.7161C328.985 -1.57203 310.015 -1.57203 292.542 4.7161L52.9172 90.9893C21.2168 102.434 0 132.742 0 166.824V472.176C0 506.132 21.2168 536.566 53.042 548.011L292.667 634.284C310.015 640.572 328.985 640.572 346.458 634.284L586.083 548.011C617.783 536.566 639 506.258 639 472.176V166.824C639 132.868 617.783 102.434 585.958 90.9893L346.333 4.7161ZM319.5 80.551L536.286 158.524L319.5 236.497L102.714 158.524L319.5 80.551ZM279.562 544.112L79.875 472.302V235.868L279.562 307.678V544.112Z" fill="#F5F5F5"/>
<path d="M79.875 471.762V234.633L279.562 307.02V544.148L79.875 471.762Z" fill="#005FF7" stroke="#F5F5F5"/>
</svg>
