<svg width="54" height="54" viewBox="0 0 54 54" fill="none" xmlns="http://www.w3.org/2000/svg">
<path d="M29.2676 0.398544C27.8016 -0.132848 26.1984 -0.132848 24.7219 0.398544L4.47187 7.68924C1.79297 8.65637 0 11.2177 0 14.0978V39.9022C0 42.7717 1.79297 45.3436 4.48242 46.3108L24.7324 53.6015C26.1984 54.1329 27.8016 54.1329 29.2781 53.6015L49.5281 46.3108C52.207 45.3436 54 42.7823 54 39.9022V14.0978C54 11.2283 52.207 8.65637 49.5176 7.68924L29.2676 0.398544ZM27 6.80713L45.3199 13.3964L27 19.9856L8.68008 13.3964L27 6.80713ZM23.625 45.9813L6.75 39.9128V19.9325L23.625 26.001V45.9813Z" fill="white"/>
</svg>
