<svg width="128" height="128" viewBox="0 0 128 128" fill="none" xmlns="http://www.w3.org/2000/svg">
<path d="M69.375 0.944696C65.9 -0.314899 62.1 -0.314899 58.6 0.944696L10.6 18.2263C4.25 20.5188 0 26.59 0 33.417V94.583C0 101.385 4.25 107.481 10.625 109.774L58.625 127.055C62.1 128.315 65.9 128.315 69.4 127.055L117.4 109.774C123.75 107.481 128 101.41 128 94.583V33.417C128 26.6152 123.75 20.5188 117.375 18.2263L69.375 0.944696ZM64 16.1354L107.425 31.7544L64 47.3734L20.575 31.7544L64 16.1354ZM56 108.993L16 94.6081V47.2474L56 61.632V108.993Z" fill="black"/>
<path d="M16 94.5V47L56 61.5V109L16 94.5Z" fill="#005FF7" stroke="black"/>
</svg>
