<svg width="230" height="80" viewBox="0 0 230 80" fill="none" xmlns="http://www.w3.org/2000/svg">
<path d="M80.4384 35.1156C80.4384 34.0756 80.6634 33.1506 81.1134 32.3406C81.5634 31.5206 82.1884 30.8856 82.9884 30.4356C83.7984 29.9756 84.7134 29.7456 85.7334 29.7456C86.9834 29.7456 88.0534 30.0756 88.9434 30.7356C89.8334 31.3956 90.4284 32.2956 90.7284 33.4356H87.9084C87.6984 32.9956 87.3984 32.6606 87.0084 32.4306C86.6284 32.2006 86.1934 32.0856 85.7034 32.0856C84.9134 32.0856 84.2734 32.3606 83.7834 32.9106C83.2934 33.4606 83.0484 34.1956 83.0484 35.1156C83.0484 36.0356 83.2934 36.7706 83.7834 37.3206C84.2734 37.8706 84.9134 38.1456 85.7034 38.1456C86.1934 38.1456 86.6284 38.0306 87.0084 37.8006C87.3984 37.5706 87.6984 37.2356 87.9084 36.7956H90.7284C90.4284 37.9356 89.8334 38.8356 88.9434 39.4956C88.0534 40.1456 86.9834 40.4706 85.7334 40.4706C84.7134 40.4706 83.7984 40.2456 82.9884 39.7956C82.1884 39.3356 81.5634 38.7006 81.1134 37.8906C80.6634 37.0806 80.4384 36.1556 80.4384 35.1156ZM96.1092 40.5156C95.2892 40.5156 94.5492 40.3406 93.8892 39.9906C93.2392 39.6406 92.7242 39.1406 92.3442 38.4906C91.9742 37.8406 91.7892 37.0806 91.7892 36.2106C91.7892 35.3506 91.9792 34.5956 92.3592 33.9456C92.7392 33.2856 93.2592 32.7806 93.9192 32.4306C94.5792 32.0806 95.3192 31.9056 96.1392 31.9056C96.9592 31.9056 97.6992 32.0806 98.3592 32.4306C99.0192 32.7806 99.5392 33.2856 99.9192 33.9456C100.299 34.5956 100.489 35.3506 100.489 36.2106C100.489 37.0706 100.294 37.8306 99.9042 38.4906C99.5242 39.1406 98.9992 39.6406 98.3292 39.9906C97.6692 40.3406 96.9292 40.5156 96.1092 40.5156ZM96.1092 38.2956C96.5992 38.2956 97.0142 38.1156 97.3542 37.7556C97.7042 37.3956 97.8792 36.8806 97.8792 36.2106C97.8792 35.5406 97.7092 35.0256 97.3692 34.6656C97.0392 34.3056 96.6292 34.1256 96.1392 34.1256C95.6392 34.1256 95.2242 34.3056 94.8942 34.6656C94.5642 35.0156 94.3992 35.5306 94.3992 36.2106C94.3992 36.8806 94.5592 37.3956 94.8792 37.7556C95.2092 38.1156 95.6192 38.2956 96.1092 38.2956ZM106.95 31.9356C107.93 31.9356 108.71 32.2556 109.29 32.8956C109.88 33.5256 110.175 34.3956 110.175 35.5056V40.3956H107.625V35.8506C107.625 35.2906 107.48 34.8556 107.19 34.5456C106.9 34.2356 106.51 34.0806 106.02 34.0806C105.53 34.0806 105.14 34.2356 104.85 34.5456C104.56 34.8556 104.415 35.2906 104.415 35.8506V40.3956H101.85V32.0256H104.415V33.1356C104.675 32.7656 105.025 32.4756 105.465 32.2656C105.905 32.0456 106.4 31.9356 106.95 31.9356ZM116.622 38.2206V40.3956H115.317C114.387 40.3956 113.662 40.1706 113.142 39.7206C112.622 39.2606 112.362 38.5156 112.362 37.4856V34.1556H111.342V32.0256H112.362V29.9856H114.927V32.0256H116.607V34.1556H114.927V37.5156C114.927 37.7656 114.987 37.9456 115.107 38.0556C115.227 38.1656 115.427 38.2206 115.707 38.2206H116.622ZM117.541 36.1956C117.541 35.3356 117.701 34.5806 118.021 33.9306C118.351 33.2806 118.796 32.7806 119.356 32.4306C119.916 32.0806 120.541 31.9056 121.231 31.9056C121.821 31.9056 122.336 32.0256 122.776 32.2656C123.226 32.5056 123.571 32.8206 123.811 33.2106V32.0256H126.376V40.3956H123.811V39.2106C123.561 39.6006 123.211 39.9156 122.761 40.1556C122.321 40.3956 121.806 40.5156 121.216 40.5156C120.536 40.5156 119.916 40.3406 119.356 39.9906C118.796 39.6306 118.351 39.1256 118.021 38.4756C117.701 37.8156 117.541 37.0556 117.541 36.1956ZM123.811 36.2106C123.811 35.5706 123.631 35.0656 123.271 34.6956C122.921 34.3256 122.491 34.1406 121.981 34.1406C121.471 34.1406 121.036 34.3256 120.676 34.6956C120.326 35.0556 120.151 35.5556 120.151 36.1956C120.151 36.8356 120.326 37.3456 120.676 37.7256C121.036 38.0956 121.471 38.2806 121.981 38.2806C122.491 38.2806 122.921 38.0956 123.271 37.7256C123.631 37.3556 123.811 36.8506 123.811 36.2106ZM127.722 36.2106C127.722 35.3406 127.897 34.5806 128.247 33.9306C128.607 33.2806 129.102 32.7806 129.732 32.4306C130.372 32.0806 131.102 31.9056 131.922 31.9056C132.972 31.9056 133.847 32.1806 134.547 32.7306C135.257 33.2806 135.722 34.0556 135.942 35.0556H133.212C132.982 34.4156 132.537 34.0956 131.877 34.0956C131.407 34.0956 131.032 34.2806 130.752 34.6506C130.472 35.0106 130.332 35.5306 130.332 36.2106C130.332 36.8906 130.472 37.4156 130.752 37.7856C131.032 38.1456 131.407 38.3256 131.877 38.3256C132.537 38.3256 132.982 38.0056 133.212 37.3656H135.942C135.722 38.3456 135.257 39.1156 134.547 39.6756C133.837 40.2356 132.962 40.5156 131.922 40.5156C131.102 40.5156 130.372 40.3406 129.732 39.9906C129.102 39.6406 128.607 39.1406 128.247 38.4906C127.897 37.8406 127.722 37.0806 127.722 36.2106ZM141.979 38.2206V40.3956H140.674C139.744 40.3956 139.019 40.1706 138.499 39.7206C137.979 39.2606 137.719 38.5156 137.719 37.4856V34.1556H136.699V32.0256H137.719V29.9856H140.284V32.0256H141.964V34.1556H140.284V37.5156C140.284 37.7656 140.344 37.9456 140.464 38.0556C140.584 38.1656 140.784 38.2206 141.064 38.2206H141.979ZM147.786 40.5156C147.336 40.5156 146.966 40.3856 146.676 40.1256C146.396 39.8556 146.256 39.5256 146.256 39.1356C146.256 38.7356 146.396 38.4006 146.676 38.1306C146.966 37.8606 147.336 37.7256 147.786 37.7256C148.226 37.7256 148.586 37.8606 148.866 38.1306C149.156 38.4006 149.301 38.7356 149.301 39.1356C149.301 39.5256 149.156 39.8556 148.866 40.1256C148.586 40.3856 148.226 40.5156 147.786 40.5156ZM147.786 34.4106C147.336 34.4106 146.966 34.2806 146.676 34.0206C146.396 33.7506 146.256 33.4206 146.256 33.0306C146.256 32.6306 146.396 32.2956 146.676 32.0256C146.966 31.7556 147.336 31.6206 147.786 31.6206C148.226 31.6206 148.586 31.7556 148.866 32.0256C149.156 32.2956 149.301 32.6306 149.301 33.0306C149.301 33.4206 149.156 33.7506 148.866 34.0206C148.586 34.2806 148.226 34.4106 147.786 34.4106ZM35.0118 57.0256L29.7618 69.3706H27.0018L28.9218 65.1106L25.5168 57.0256H28.3818L30.3168 62.2606L32.2368 57.0256H35.0118ZM39.7493 65.5156C38.9293 65.5156 38.1893 65.3406 37.5293 64.9906C36.8793 64.6406 36.3643 64.1406 35.9843 63.4906C35.6143 62.8406 35.4293 62.0806 35.4293 61.2106C35.4293 60.3506 35.6193 59.5956 35.9993 58.9456C36.3793 58.2856 36.8993 57.7806 37.5593 57.4306C38.2193 57.0806 38.9593 56.9056 39.7793 56.9056C40.5993 56.9056 41.3393 57.0806 41.9993 57.4306C42.6593 57.7806 43.1793 58.2856 43.5593 58.9456C43.9393 59.5956 44.1293 60.3506 44.1293 61.2106C44.1293 62.0706 43.9343 62.8306 43.5443 63.4906C43.1643 64.1406 42.6393 64.6406 41.9693 64.9906C41.3093 65.3406 40.5693 65.5156 39.7493 65.5156ZM39.7493 63.2956C40.2393 63.2956 40.6543 63.1156 40.9943 62.7556C41.3443 62.3956 41.5193 61.8806 41.5193 61.2106C41.5193 60.5406 41.3493 60.0256 41.0093 59.6656C40.6793 59.3056 40.2693 59.1256 39.7793 59.1256C39.2793 59.1256 38.8643 59.3056 38.5343 59.6656C38.2043 60.0156 38.0393 60.5306 38.0393 61.2106C38.0393 61.8806 38.1993 62.3956 38.5193 62.7556C38.8493 63.1156 39.2593 63.2956 39.7493 63.2956ZM53.7551 57.0256V65.3956H51.1901V64.2556C50.9301 64.6256 50.5751 64.9256 50.1251 65.1556C49.6851 65.3756 49.1951 65.4856 48.6551 65.4856C48.0151 65.4856 47.4501 65.3456 46.9601 65.0656C46.4701 64.7756 46.0901 64.3606 45.8201 63.8206C45.5501 63.2806 45.4151 62.6456 45.4151 61.9156V57.0256H47.9651V61.5706C47.9651 62.1306 48.1101 62.5656 48.4001 62.8756C48.6901 63.1856 49.0801 63.3406 49.5701 63.3406C50.0701 63.3406 50.4651 63.1856 50.7551 62.8756C51.0451 62.5656 51.1901 62.1306 51.1901 61.5706V57.0256H53.7551ZM58.1625 58.4206C58.4625 57.9606 58.8375 57.6006 59.2875 57.3406C59.7375 57.0706 60.2375 56.9356 60.7875 56.9356V59.6506H60.0825C59.4425 59.6506 58.9625 59.7906 58.6425 60.0706C58.3225 60.3406 58.1625 60.8206 58.1625 61.5106V65.3956H55.5975V57.0256H58.1625V58.4206ZM69.9035 61.0756C69.9035 61.3156 69.8885 61.5656 69.8586 61.8256H64.0535C64.0935 62.3456 64.2585 62.7456 64.5485 63.0256C64.8485 63.2956 65.2135 63.4306 65.6435 63.4306C66.2835 63.4306 66.7285 63.1606 66.9785 62.6206H69.7086C69.5686 63.1706 69.3136 63.6656 68.9436 64.1056C68.5836 64.5456 68.1285 64.8906 67.5785 65.1406C67.0285 65.3906 66.4135 65.5156 65.7335 65.5156C64.9135 65.5156 64.1835 65.3406 63.5435 64.9906C62.9035 64.6406 62.4035 64.1406 62.0435 63.4906C61.6835 62.8406 61.5035 62.0806 61.5035 61.2106C61.5035 60.3406 61.6785 59.5806 62.0285 58.9306C62.3885 58.2806 62.8885 57.7806 63.5285 57.4306C64.1685 57.0806 64.9035 56.9056 65.7335 56.9056C66.5435 56.9056 67.2635 57.0756 67.8935 57.4156C68.5235 57.7556 69.0135 58.2406 69.3636 58.8706C69.7235 59.5006 69.9035 60.2356 69.9035 61.0756ZM67.2785 60.4006C67.2785 59.9606 67.1285 59.6106 66.8285 59.3506C66.5285 59.0906 66.1535 58.9606 65.7035 58.9606C65.2735 58.9606 64.9085 59.0856 64.6085 59.3356C64.3185 59.5856 64.1385 59.9406 64.0685 60.4006H67.2785ZM81.9367 56.9356C82.9767 56.9356 83.8017 57.2506 84.4117 57.8806C85.0317 58.5106 85.3417 59.3856 85.3417 60.5056V65.3956H82.7917V60.8506C82.7917 60.3106 82.6467 59.8956 82.3567 59.6056C82.0767 59.3056 81.6867 59.1556 81.1867 59.1556C80.6867 59.1556 80.2917 59.3056 80.0017 59.6056C79.7217 59.8956 79.5817 60.3106 79.5817 60.8506V65.3956H77.0317V60.8506C77.0317 60.3106 76.8867 59.8956 76.5967 59.6056C76.3167 59.3056 75.9267 59.1556 75.4267 59.1556C74.9267 59.1556 74.5317 59.3056 74.2417 59.6056C73.9617 59.8956 73.8217 60.3106 73.8217 60.8506V65.3956H71.2567V57.0256H73.8217V58.0756C74.0817 57.7256 74.4217 57.4506 74.8417 57.2506C75.2617 57.0406 75.7367 56.9356 76.2667 56.9356C76.8967 56.9356 77.4567 57.0706 77.9467 57.3406C78.4467 57.6106 78.8367 57.9956 79.1167 58.4956C79.4067 58.0356 79.8017 57.6606 80.3017 57.3706C80.8017 57.0806 81.3467 56.9356 81.9367 56.9356ZM86.6256 61.1956C86.6256 60.3356 86.7856 59.5806 87.1056 58.9306C87.4356 58.2806 87.8806 57.7806 88.4406 57.4306C89.0006 57.0806 89.6256 56.9056 90.3156 56.9056C90.9056 56.9056 91.4206 57.0256 91.8606 57.2656C92.3106 57.5056 92.6556 57.8206 92.8956 58.2106V57.0256H95.4606V65.3956H92.8956V64.2106C92.6456 64.6006 92.2956 64.9156 91.8456 65.1556C91.4056 65.3956 90.8906 65.5156 90.3006 65.5156C89.6206 65.5156 89.0006 65.3406 88.4406 64.9906C87.8806 64.6306 87.4356 64.1256 87.1056 63.4756C86.7856 62.8156 86.6256 62.0556 86.6256 61.1956ZM92.8956 61.2106C92.8956 60.5706 92.7156 60.0656 92.3556 59.6956C92.0056 59.3256 91.5756 59.1406 91.0656 59.1406C90.5556 59.1406 90.1206 59.3256 89.7606 59.6956C89.4106 60.0556 89.2356 60.5556 89.2356 61.1956C89.2356 61.8356 89.4106 62.3456 89.7606 62.7256C90.1206 63.0956 90.5556 63.2806 91.0656 63.2806C91.5756 63.2806 92.0056 63.0956 92.3556 62.7256C92.7156 62.3556 92.8956 61.8506 92.8956 61.2106ZM98.6063 56.1556C98.1563 56.1556 97.7863 56.0256 97.4963 55.7656C97.2163 55.4956 97.0763 55.1656 97.0763 54.7756C97.0763 54.3756 97.2163 54.0456 97.4963 53.7856C97.7863 53.5156 98.1563 53.3806 98.6063 53.3806C99.0463 53.3806 99.4063 53.5156 99.6863 53.7856C99.9763 54.0456 100.121 54.3756 100.121 54.7756C100.121 55.1656 99.9763 55.4956 99.6863 55.7656C99.4063 56.0256 99.0463 56.1556 98.6063 56.1556ZM99.8813 57.0256V65.3956H97.3163V57.0256H99.8813ZM104.305 54.2956V65.3956H101.74V54.2956H104.305ZM114.504 55.3756C115.684 55.3756 116.714 55.6006 117.594 56.0506C118.474 56.4906 119.149 57.1156 119.619 57.9256C120.099 58.7256 120.339 59.6506 120.339 60.7006C120.339 61.5506 120.189 62.3406 119.889 63.0706C119.599 63.8006 119.164 64.3856 118.584 64.8256C118.014 65.2556 117.334 65.4706 116.544 65.4706C116.014 65.4706 115.574 65.3656 115.224 65.1556C114.884 64.9456 114.654 64.6506 114.534 64.2706C114.254 64.6606 113.894 64.9656 113.454 65.1856C113.014 65.3956 112.534 65.5006 112.014 65.5006C111.274 65.5006 110.689 65.2806 110.259 64.8406C109.839 64.3906 109.629 63.7806 109.629 63.0106C109.629 62.2806 109.779 61.5956 110.079 60.9556C110.379 60.3056 110.794 59.7856 111.324 59.3956C111.854 59.0056 112.449 58.8106 113.109 58.8106C113.949 58.8106 114.519 59.1106 114.819 59.7106L114.954 58.9156H117.024L116.364 62.6806C116.334 62.8606 116.319 63.0206 116.319 63.1606C116.319 63.6006 116.514 63.8206 116.904 63.8206C117.384 63.8206 117.749 63.5156 117.999 62.9056C118.259 62.2856 118.389 61.5756 118.389 60.7756C118.389 59.6256 118.024 58.7256 117.294 58.0756C116.574 57.4256 115.559 57.1006 114.249 57.1006C113.129 57.1006 112.109 57.3706 111.189 57.9106C110.279 58.4506 109.564 59.1906 109.044 60.1306C108.524 61.0606 108.264 62.0856 108.264 63.2056C108.264 64.4156 108.614 65.3556 109.314 66.0256C110.024 66.6956 111.014 67.0306 112.284 67.0306C113.274 67.0306 114.159 66.8506 114.939 66.4906L115.344 68.1256C114.364 68.5556 113.264 68.7706 112.044 68.7706C110.904 68.7706 109.899 68.5506 109.029 68.1106C108.169 67.6706 107.504 67.0456 107.034 66.2356C106.564 65.4256 106.329 64.4806 106.329 63.4006C106.329 61.8906 106.684 60.5256 107.394 59.3056C108.104 58.0756 109.079 57.1156 110.319 56.4256C111.569 55.7256 112.964 55.3756 114.504 55.3756ZM112.854 63.6556C113.134 63.6556 113.394 63.5706 113.634 63.4006C113.884 63.2306 114.079 63.0056 114.219 62.7256C114.369 62.4356 114.444 62.1256 114.444 61.7956C114.444 61.4556 114.349 61.1806 114.159 60.9706C113.969 60.7506 113.709 60.6406 113.379 60.6406C112.939 60.6406 112.574 60.8306 112.284 61.2106C111.994 61.5906 111.849 62.0406 111.849 62.5606C111.849 62.8906 111.934 63.1556 112.104 63.3556C112.274 63.5556 112.524 63.6556 112.854 63.6556ZM130.255 61.0756C130.255 61.3156 130.24 61.5656 130.21 61.8256H124.405C124.445 62.3456 124.61 62.7456 124.9 63.0256C125.2 63.2956 125.565 63.4306 125.995 63.4306C126.635 63.4306 127.08 63.1606 127.33 62.6206H130.06C129.92 63.1706 129.665 63.6656 129.295 64.1056C128.935 64.5456 128.48 64.8906 127.93 65.1406C127.38 65.3906 126.765 65.5156 126.085 65.5156C125.265 65.5156 124.535 65.3406 123.895 64.9906C123.255 64.6406 122.755 64.1406 122.395 63.4906C122.035 62.8406 121.855 62.0806 121.855 61.2106C121.855 60.3406 122.03 59.5806 122.38 58.9306C122.74 58.2806 123.24 57.7806 123.88 57.4306C124.52 57.0806 125.255 56.9056 126.085 56.9056C126.895 56.9056 127.615 57.0756 128.245 57.4156C128.875 57.7556 129.365 58.2406 129.715 58.8706C130.075 59.5006 130.255 60.2356 130.255 61.0756ZM127.63 60.4006C127.63 59.9606 127.48 59.6106 127.18 59.3506C126.88 59.0906 126.505 58.9606 126.055 58.9606C125.625 58.9606 125.26 59.0856 124.96 59.3356C124.67 59.5856 124.49 59.9406 124.42 60.4006H127.63ZM142.288 56.9356C143.328 56.9356 144.153 57.2506 144.763 57.8806C145.383 58.5106 145.693 59.3856 145.693 60.5056V65.3956H143.143V60.8506C143.143 60.3106 142.998 59.8956 142.708 59.6056C142.428 59.3056 142.038 59.1556 141.538 59.1556C141.038 59.1556 140.643 59.3056 140.353 59.6056C140.073 59.8956 139.933 60.3106 139.933 60.8506V65.3956H137.383V60.8506C137.383 60.3106 137.238 59.8956 136.948 59.6056C136.668 59.3056 136.278 59.1556 135.778 59.1556C135.278 59.1556 134.883 59.3056 134.593 59.6056C134.313 59.8956 134.173 60.3106 134.173 60.8506V65.3956H131.608V57.0256H134.173V58.0756C134.433 57.7256 134.773 57.4506 135.193 57.2506C135.613 57.0406 136.088 56.9356 136.618 56.9356C137.248 56.9356 137.808 57.0706 138.298 57.3406C138.798 57.6106 139.188 57.9956 139.468 58.4956C139.758 58.0356 140.153 57.6606 140.653 57.3706C141.153 57.0806 141.698 56.9356 142.288 56.9356ZM146.977 61.1956C146.977 60.3356 147.137 59.5806 147.457 58.9306C147.787 58.2806 148.232 57.7806 148.792 57.4306C149.352 57.0806 149.977 56.9056 150.667 56.9056C151.257 56.9056 151.772 57.0256 152.212 57.2656C152.662 57.5056 153.007 57.8206 153.247 58.2106V57.0256H155.812V65.3956H153.247V64.2106C152.997 64.6006 152.647 64.9156 152.197 65.1556C151.757 65.3956 151.242 65.5156 150.652 65.5156C149.972 65.5156 149.352 65.3406 148.792 64.9906C148.232 64.6306 147.787 64.1256 147.457 63.4756C147.137 62.8156 146.977 62.0556 146.977 61.1956ZM153.247 61.2106C153.247 60.5706 153.067 60.0656 152.707 59.6956C152.357 59.3256 151.927 59.1406 151.417 59.1406C150.907 59.1406 150.472 59.3256 150.112 59.6956C149.762 60.0556 149.587 60.5556 149.587 61.1956C149.587 61.8356 149.762 62.3456 150.112 62.7256C150.472 63.0956 150.907 63.2806 151.417 63.2806C151.927 63.2806 152.357 63.0956 152.707 62.7256C153.067 62.3556 153.247 61.8506 153.247 61.2106ZM158.958 56.1556C158.508 56.1556 158.138 56.0256 157.848 55.7656C157.568 55.4956 157.428 55.1656 157.428 54.7756C157.428 54.3756 157.568 54.0456 157.848 53.7856C158.138 53.5156 158.508 53.3806 158.958 53.3806C159.398 53.3806 159.758 53.5156 160.038 53.7856C160.328 54.0456 160.473 54.3756 160.473 54.7756C160.473 55.1656 160.328 55.4956 160.038 55.7656C159.758 56.0256 159.398 56.1556 158.958 56.1556ZM160.233 57.0256V65.3956H157.668V57.0256H160.233ZM164.657 54.2956V65.3956H162.092V54.2956H164.657ZM167.716 65.5156C167.266 65.5156 166.896 65.3856 166.606 65.1256C166.326 64.8556 166.186 64.5256 166.186 64.1356C166.186 63.7356 166.326 63.4006 166.606 63.1306C166.896 62.8606 167.266 62.7256 167.716 62.7256C168.156 62.7256 168.516 62.8606 168.796 63.1306C169.086 63.4006 169.231 63.7356 169.231 64.1356C169.231 64.5256 169.086 64.8556 168.796 65.1256C168.516 65.3856 168.156 65.5156 167.716 65.5156ZM170.239 61.2106C170.239 60.3406 170.414 59.5806 170.764 58.9306C171.124 58.2806 171.619 57.7806 172.249 57.4306C172.889 57.0806 173.619 56.9056 174.439 56.9056C175.489 56.9056 176.364 57.1806 177.064 57.7306C177.774 58.2806 178.239 59.0556 178.459 60.0556H175.729C175.499 59.4156 175.054 59.0956 174.394 59.0956C173.924 59.0956 173.549 59.2806 173.269 59.6506C172.989 60.0106 172.849 60.5306 172.849 61.2106C172.849 61.8906 172.989 62.4156 173.269 62.7856C173.549 63.1456 173.924 63.3256 174.394 63.3256C175.054 63.3256 175.499 63.0056 175.729 62.3656H178.459C178.239 63.3456 177.774 64.1156 177.064 64.6756C176.354 65.2356 175.479 65.5156 174.439 65.5156C173.619 65.5156 172.889 65.3406 172.249 64.9906C171.619 64.6406 171.124 64.1406 170.764 63.4906C170.414 62.8406 170.239 62.0806 170.239 61.2106ZM183.641 65.5156C182.821 65.5156 182.081 65.3406 181.421 64.9906C180.771 64.6406 180.256 64.1406 179.876 63.4906C179.506 62.8406 179.321 62.0806 179.321 61.2106C179.321 60.3506 179.511 59.5956 179.891 58.9456C180.271 58.2856 180.791 57.7806 181.451 57.4306C182.111 57.0806 182.851 56.9056 183.671 56.9056C184.491 56.9056 185.231 57.0806 185.891 57.4306C186.551 57.7806 187.071 58.2856 187.451 58.9456C187.831 59.5956 188.021 60.3506 188.021 61.2106C188.021 62.0706 187.826 62.8306 187.436 63.4906C187.056 64.1406 186.531 64.6406 185.861 64.9906C185.201 65.3406 184.461 65.5156 183.641 65.5156ZM183.641 63.2956C184.131 63.2956 184.546 63.1156 184.886 62.7556C185.236 62.3956 185.411 61.8806 185.411 61.2106C185.411 60.5406 185.241 60.0256 184.901 59.6656C184.571 59.3056 184.161 59.1256 183.671 59.1256C183.171 59.1256 182.756 59.3056 182.426 59.6656C182.096 60.0156 181.931 60.5306 181.931 61.2106C181.931 61.8806 182.091 62.3956 182.411 62.7556C182.741 63.1156 183.151 63.2956 183.641 63.2956ZM200.062 56.9356C201.102 56.9356 201.927 57.2506 202.537 57.8806C203.157 58.5106 203.467 59.3856 203.467 60.5056V65.3956H200.917V60.8506C200.917 60.3106 200.772 59.8956 200.482 59.6056C200.202 59.3056 199.812 59.1556 199.312 59.1556C198.812 59.1556 198.417 59.3056 198.127 59.6056C197.847 59.8956 197.707 60.3106 197.707 60.8506V65.3956H195.157V60.8506C195.157 60.3106 195.012 59.8956 194.722 59.6056C194.442 59.3056 194.052 59.1556 193.552 59.1556C193.052 59.1556 192.657 59.3056 192.367 59.6056C192.087 59.8956 191.947 60.3106 191.947 60.8506V65.3956H189.382V57.0256H191.947V58.0756C192.207 57.7256 192.547 57.4506 192.967 57.2506C193.387 57.0406 193.862 56.9356 194.392 56.9356C195.022 56.9356 195.582 57.0706 196.072 57.3406C196.572 57.6106 196.962 57.9956 197.242 58.4956C197.532 58.0356 197.927 57.6606 198.427 57.3706C198.927 57.0806 199.472 56.9356 200.062 56.9356Z" fill="black"/>
<path d="M107.062 0.597046C106.169 0.597046 105.445 1.36962 105.445 2.32186C105.445 2.86446 105.684 3.37472 106.092 3.70171L113.422 9.56609C113.806 9.87152 114.332 9.87152 114.716 9.56609L122.046 3.70171C122.454 3.37472 122.693 2.86446 122.693 2.32186C122.693 1.36962 121.969 0.597046 121.076 0.597046H107.062ZM105.445 4.62162V12.0958C105.445 13.3643 106.412 14.3956 107.601 14.3956H120.537C121.726 14.3956 122.693 13.3643 122.693 12.0958V4.62162L115.363 10.486C114.594 11.1005 113.543 11.1005 112.775 10.486L105.445 4.62162Z" fill="black"/>
</svg>
