<svg width="311" height="59" viewBox="0 0 311 59" fill="none" xmlns="http://www.w3.org/2000/svg">
<path d="M87.342 5.364V7.83H82.194V10.494H86.046V12.888H82.194V18H79.116V5.364H87.342ZM98.8778 7.956V18H95.7998V16.632C95.4878 17.076 95.0618 17.436 94.5218 17.712C93.9938 17.976 93.4058 18.108 92.7578 18.108C91.9898 18.108 91.3118 17.94 90.7238 17.604C90.1358 17.256 89.6798 16.758 89.3558 16.11C89.0318 15.462 88.8698 14.7 88.8698 13.824V7.956H91.9298V13.41C91.9298 14.082 92.1038 14.604 92.4518 14.976C92.7998 15.348 93.2678 15.534 93.8558 15.534C94.4558 15.534 94.9298 15.348 95.2778 14.976C95.6258 14.604 95.7998 14.082 95.7998 13.41V7.956H98.8778ZM107.209 7.848C108.385 7.848 109.321 8.232 110.017 9C110.725 9.756 111.079 10.8 111.079 12.132V18H108.019V12.546C108.019 11.874 107.845 11.352 107.497 10.98C107.149 10.608 106.681 10.422 106.093 10.422C105.505 10.422 105.037 10.608 104.689 10.98C104.341 11.352 104.167 11.874 104.167 12.546V18H101.089V7.956H104.167V9.288C104.479 8.844 104.899 8.496 105.427 8.244C105.955 7.98 106.549 7.848 107.209 7.848ZM112.606 12.96C112.606 11.928 112.798 11.022 113.182 10.242C113.578 9.462 114.112 8.862 114.784 8.442C115.456 8.022 116.206 7.812 117.034 7.812C117.694 7.812 118.294 7.95 118.834 8.226C119.386 8.502 119.818 8.874 120.13 9.342V4.68H123.208V18H120.13V16.56C119.842 17.04 119.428 17.424 118.888 17.712C118.36 18 117.742 18.144 117.034 18.144C116.206 18.144 115.456 17.934 114.784 17.514C114.112 17.082 113.578 16.476 113.182 15.696C112.798 14.904 112.606 13.992 112.606 12.96ZM120.13 12.978C120.13 12.21 119.914 11.604 119.482 11.16C119.062 10.716 118.546 10.494 117.934 10.494C117.322 10.494 116.8 10.716 116.368 11.16C115.948 11.592 115.738 12.192 115.738 12.96C115.738 13.728 115.948 14.34 116.368 14.796C116.8 15.24 117.322 15.462 117.934 15.462C118.546 15.462 119.062 15.24 119.482 14.796C119.914 14.352 120.13 13.746 120.13 12.978ZM124.822 12.96C124.822 11.928 125.014 11.022 125.398 10.242C125.794 9.462 126.328 8.862 127 8.442C127.672 8.022 128.422 7.812 129.25 7.812C129.958 7.812 130.576 7.956 131.104 8.244C131.644 8.532 132.058 8.91 132.346 9.378V7.956H135.424V18H132.346V16.578C132.046 17.046 131.626 17.424 131.086 17.712C130.558 18 129.94 18.144 129.232 18.144C128.416 18.144 127.672 17.934 127 17.514C126.328 17.082 125.794 16.476 125.398 15.696C125.014 14.904 124.822 13.992 124.822 12.96ZM132.346 12.978C132.346 12.21 132.13 11.604 131.698 11.16C131.278 10.716 130.762 10.494 130.15 10.494C129.538 10.494 129.016 10.716 128.584 11.16C128.164 11.592 127.954 12.192 127.954 12.96C127.954 13.728 128.164 14.34 128.584 14.796C129.016 15.24 129.538 15.462 130.15 15.462C130.762 15.462 131.278 15.24 131.698 14.796C132.13 14.352 132.346 13.746 132.346 12.978ZM150.467 7.848C151.715 7.848 152.705 8.226 153.437 8.982C154.181 9.738 154.553 10.788 154.553 12.132V18H151.493V12.546C151.493 11.898 151.319 11.4 150.971 11.052C150.635 10.692 150.167 10.512 149.567 10.512C148.967 10.512 148.493 10.692 148.145 11.052C147.809 11.4 147.641 11.898 147.641 12.546V18H144.581V12.546C144.581 11.898 144.407 11.4 144.059 11.052C143.723 10.692 143.255 10.512 142.655 10.512C142.055 10.512 141.581 10.692 141.233 11.052C140.897 11.4 140.729 11.898 140.729 12.546V18H137.651V7.956H140.729V9.216C141.041 8.796 141.449 8.466 141.953 8.226C142.457 7.974 143.027 7.848 143.663 7.848C144.419 7.848 145.091 8.01 145.679 8.334C146.279 8.658 146.747 9.12 147.083 9.72C147.431 9.168 147.905 8.718 148.505 8.37C149.105 8.022 149.759 7.848 150.467 7.848ZM166.174 12.816C166.174 13.104 166.156 13.404 166.12 13.716H159.154C159.202 14.34 159.4 14.82 159.748 15.156C160.108 15.48 160.546 15.642 161.062 15.642C161.83 15.642 162.364 15.318 162.664 14.67H165.94C165.772 15.33 165.466 15.924 165.022 16.452C164.59 16.98 164.044 17.394 163.384 17.694C162.724 17.994 161.986 18.144 161.17 18.144C160.186 18.144 159.31 17.934 158.542 17.514C157.774 17.094 157.174 16.494 156.742 15.714C156.31 14.934 156.094 14.022 156.094 12.978C156.094 11.934 156.304 11.022 156.724 10.242C157.156 9.462 157.756 8.862 158.524 8.442C159.292 8.022 160.174 7.812 161.17 7.812C162.142 7.812 163.006 8.016 163.762 8.424C164.518 8.832 165.106 9.414 165.526 10.17C165.958 10.926 166.174 11.808 166.174 12.816ZM163.024 12.006C163.024 11.478 162.844 11.058 162.484 10.746C162.124 10.434 161.674 10.278 161.134 10.278C160.618 10.278 160.18 10.428 159.82 10.728C159.472 11.028 159.256 11.454 159.172 12.006H163.024ZM173.918 7.848C175.094 7.848 176.03 8.232 176.726 9C177.434 9.756 177.788 10.8 177.788 12.132V18H174.728V12.546C174.728 11.874 174.554 11.352 174.206 10.98C173.858 10.608 173.39 10.422 172.802 10.422C172.214 10.422 171.746 10.608 171.398 10.98C171.05 11.352 170.876 11.874 170.876 12.546V18H167.798V7.956H170.876V9.288C171.188 8.844 171.608 8.496 172.136 8.244C172.664 7.98 173.258 7.848 173.918 7.848ZM185.525 15.39V18H183.959C182.843 18 181.973 17.73 181.349 17.19C180.725 16.638 180.413 15.744 180.413 14.508V10.512H179.189V7.956H180.413V5.508H183.491V7.956H185.507V10.512H183.491V14.544C183.491 14.844 183.563 15.06 183.707 15.192C183.851 15.324 184.091 15.39 184.427 15.39H185.525ZM186.627 12.96C186.627 11.928 186.819 11.022 187.203 10.242C187.599 9.462 188.133 8.862 188.805 8.442C189.477 8.022 190.227 7.812 191.055 7.812C191.763 7.812 192.381 7.956 192.909 8.244C193.449 8.532 193.863 8.91 194.151 9.378V7.956H197.229V18H194.151V16.578C193.851 17.046 193.431 17.424 192.891 17.712C192.363 18 191.745 18.144 191.037 18.144C190.221 18.144 189.477 17.934 188.805 17.514C188.133 17.082 187.599 16.476 187.203 15.696C186.819 14.904 186.627 13.992 186.627 12.96ZM194.151 12.978C194.151 12.21 193.935 11.604 193.503 11.16C193.083 10.716 192.567 10.494 191.955 10.494C191.343 10.494 190.821 10.716 190.389 11.16C189.969 11.592 189.759 12.192 189.759 12.96C189.759 13.728 189.969 14.34 190.389 14.796C190.821 15.24 191.343 15.462 191.955 15.462C192.567 15.462 193.083 15.24 193.503 14.796C193.935 14.352 194.151 13.746 194.151 12.978ZM202.534 4.68V18H199.456V4.68H202.534Z" fill="white"/>
<path d="M96.504 29.364L93.21 42H89.484L87.468 33.684L85.38 42H81.654L78.45 29.364H81.744L83.562 38.562L85.812 29.364H89.196L91.356 38.562L93.192 29.364H96.504ZM107.516 36.816C107.516 37.104 107.498 37.404 107.462 37.716H100.496C100.544 38.34 100.742 38.82 101.09 39.156C101.45 39.48 101.888 39.642 102.404 39.642C103.172 39.642 103.706 39.318 104.006 38.67H107.282C107.114 39.33 106.808 39.924 106.364 40.452C105.932 40.98 105.386 41.394 104.726 41.694C104.066 41.994 103.328 42.144 102.512 42.144C101.528 42.144 100.652 41.934 99.8836 41.514C99.1156 41.094 98.5156 40.494 98.0836 39.714C97.6516 38.934 97.4356 38.022 97.4356 36.978C97.4356 35.934 97.6456 35.022 98.0656 34.242C98.4976 33.462 99.0976 32.862 99.8656 32.442C100.634 32.022 101.516 31.812 102.512 31.812C103.484 31.812 104.348 32.016 105.104 32.424C105.86 32.832 106.448 33.414 106.868 34.17C107.3 34.926 107.516 35.808 107.516 36.816ZM104.366 36.006C104.366 35.478 104.186 35.058 103.826 34.746C103.466 34.434 103.016 34.278 102.476 34.278C101.96 34.278 101.522 34.428 101.162 34.728C100.814 35.028 100.598 35.454 100.514 36.006H104.366ZM112.217 33.378C112.505 32.91 112.919 32.532 113.459 32.244C113.999 31.956 114.617 31.812 115.313 31.812C116.141 31.812 116.891 32.022 117.563 32.442C118.235 32.862 118.763 33.462 119.147 34.242C119.543 35.022 119.741 35.928 119.741 36.96C119.741 37.992 119.543 38.904 119.147 39.696C118.763 40.476 118.235 41.082 117.563 41.514C116.891 41.934 116.141 42.144 115.313 42.144C114.605 42.144 113.987 42.006 113.459 41.73C112.931 41.442 112.517 41.064 112.217 40.596V42H109.139V28.68H112.217V33.378ZM116.609 36.96C116.609 36.192 116.393 35.592 115.961 35.16C115.541 34.716 115.019 34.494 114.395 34.494C113.783 34.494 113.261 34.716 112.829 35.16C112.409 35.604 112.199 36.21 112.199 36.978C112.199 37.746 112.409 38.352 112.829 38.796C113.261 39.24 113.783 39.462 114.395 39.462C115.007 39.462 115.529 39.24 115.961 38.796C116.393 38.34 116.609 37.728 116.609 36.96ZM129.905 29.364C131.237 29.364 132.401 29.628 133.397 30.156C134.393 30.684 135.161 31.428 135.701 32.388C136.253 33.336 136.529 34.434 136.529 35.682C136.529 36.918 136.253 38.016 135.701 38.976C135.161 39.936 134.387 40.68 133.379 41.208C132.383 41.736 131.225 42 129.905 42H125.171V29.364H129.905ZM129.707 39.336C130.871 39.336 131.777 39.018 132.425 38.382C133.073 37.746 133.397 36.846 133.397 35.682C133.397 34.518 133.073 33.612 132.425 32.964C131.777 32.316 130.871 31.992 129.707 31.992H128.249V39.336H129.707ZM147.717 36.816C147.717 37.104 147.699 37.404 147.663 37.716H140.697C140.745 38.34 140.943 38.82 141.291 39.156C141.651 39.48 142.089 39.642 142.605 39.642C143.373 39.642 143.907 39.318 144.207 38.67H147.483C147.315 39.33 147.009 39.924 146.565 40.452C146.133 40.98 145.587 41.394 144.927 41.694C144.267 41.994 143.529 42.144 142.713 42.144C141.729 42.144 140.853 41.934 140.085 41.514C139.317 41.094 138.717 40.494 138.285 39.714C137.853 38.934 137.637 38.022 137.637 36.978C137.637 35.934 137.847 35.022 138.267 34.242C138.699 33.462 139.299 32.862 140.067 32.442C140.835 32.022 141.717 31.812 142.713 31.812C143.685 31.812 144.549 32.016 145.305 32.424C146.061 32.832 146.649 33.414 147.069 34.17C147.501 34.926 147.717 35.808 147.717 36.816ZM144.567 36.006C144.567 35.478 144.387 35.058 144.027 34.746C143.667 34.434 143.217 34.278 142.677 34.278C142.161 34.278 141.723 34.428 141.363 34.728C141.015 35.028 140.799 35.454 140.715 36.006H144.567ZM153.427 42.144C152.551 42.144 151.771 41.994 151.087 41.694C150.403 41.394 149.863 40.986 149.467 40.47C149.071 39.942 148.849 39.354 148.801 38.706H151.843C151.879 39.054 152.041 39.336 152.329 39.552C152.617 39.768 152.971 39.876 153.391 39.876C153.775 39.876 154.069 39.804 154.273 39.66C154.489 39.504 154.597 39.306 154.597 39.066C154.597 38.778 154.447 38.568 154.147 38.436C153.847 38.292 153.361 38.136 152.689 37.968C151.969 37.8 151.369 37.626 150.889 37.446C150.409 37.254 149.995 36.96 149.647 36.564C149.299 36.156 149.125 35.61 149.125 34.926C149.125 34.35 149.281 33.828 149.593 33.36C149.917 32.88 150.385 32.502 150.997 32.226C151.621 31.95 152.359 31.812 153.211 31.812C154.471 31.812 155.461 32.124 156.181 32.748C156.913 33.372 157.333 34.2 157.441 35.232H154.597C154.549 34.884 154.393 34.608 154.129 34.404C153.877 34.2 153.541 34.098 153.121 34.098C152.761 34.098 152.485 34.17 152.293 34.314C152.101 34.446 152.005 34.632 152.005 34.872C152.005 35.16 152.155 35.376 152.455 35.52C152.767 35.664 153.247 35.808 153.895 35.952C154.639 36.144 155.245 36.336 155.713 36.528C156.181 36.708 156.589 37.008 156.937 37.428C157.297 37.836 157.483 38.388 157.495 39.084C157.495 39.672 157.327 40.2 156.991 40.668C156.667 41.124 156.193 41.484 155.569 41.748C154.957 42.012 154.243 42.144 153.427 42.144ZM160.926 30.912C160.386 30.912 159.942 30.756 159.594 30.444C159.258 30.12 159.09 29.724 159.09 29.256C159.09 28.776 159.258 28.38 159.594 28.068C159.942 27.744 160.386 27.582 160.926 27.582C161.454 27.582 161.886 27.744 162.222 28.068C162.57 28.38 162.744 28.776 162.744 29.256C162.744 29.724 162.57 30.12 162.222 30.444C161.886 30.756 161.454 30.912 160.926 30.912ZM162.456 31.956V42H159.378V31.956H162.456ZM168.502 31.812C169.21 31.812 169.828 31.956 170.356 32.244C170.896 32.532 171.31 32.91 171.598 33.378V31.956H174.676V41.982C174.676 42.906 174.49 43.74 174.118 44.484C173.758 45.24 173.2 45.84 172.444 46.284C171.7 46.728 170.77 46.95 169.654 46.95C168.166 46.95 166.96 46.596 166.036 45.888C165.112 45.192 164.584 44.244 164.452 43.044H167.494C167.59 43.428 167.818 43.728 168.178 43.944C168.538 44.172 168.982 44.286 169.51 44.286C170.146 44.286 170.65 44.1 171.022 43.728C171.406 43.368 171.598 42.786 171.598 41.982V40.56C171.298 41.028 170.884 41.412 170.356 41.712C169.828 42 169.21 42.144 168.502 42.144C167.674 42.144 166.924 41.934 166.252 41.514C165.58 41.082 165.046 40.476 164.65 39.696C164.266 38.904 164.074 37.992 164.074 36.96C164.074 35.928 164.266 35.022 164.65 34.242C165.046 33.462 165.58 32.862 166.252 32.442C166.924 32.022 167.674 31.812 168.502 31.812ZM171.598 36.978C171.598 36.21 171.382 35.604 170.95 35.16C170.53 34.716 170.014 34.494 169.402 34.494C168.79 34.494 168.268 34.716 167.836 35.16C167.416 35.592 167.206 36.192 167.206 36.96C167.206 37.728 167.416 38.34 167.836 38.796C168.268 39.24 168.79 39.462 169.402 39.462C170.014 39.462 170.53 39.24 170.95 38.796C171.382 38.352 171.598 37.746 171.598 36.978ZM183.023 31.848C184.199 31.848 185.135 32.232 185.831 33C186.539 33.756 186.893 34.8 186.893 36.132V42H183.833V36.546C183.833 35.874 183.659 35.352 183.311 34.98C182.963 34.608 182.495 34.422 181.907 34.422C181.319 34.422 180.851 34.608 180.503 34.98C180.155 35.352 179.981 35.874 179.981 36.546V42H176.903V31.956H179.981V33.288C180.293 32.844 180.713 32.496 181.241 32.244C181.769 31.98 182.363 31.848 183.023 31.848Z" fill="white"/>
<path d="M29.2676 5.39854C27.8016 4.86715 26.1984 4.86715 24.7219 5.39854L4.47187 12.6892C1.79297 13.6564 0 16.2177 0 19.0978V44.9022C0 47.7717 1.79297 50.3436 4.48242 51.3108L24.7324 58.6015C26.1984 59.1329 27.8016 59.1329 29.2781 58.6015L49.5281 51.3108C52.207 50.3436 54 47.7823 54 44.9022V19.0978C54 16.2283 52.207 13.6564 49.5176 12.6892L29.2676 5.39854ZM27 11.8071L45.3199 18.3964L27 24.9856L8.68008 18.3964L27 11.8071ZM23.625 50.9813L6.75 44.9128V24.9325L23.625 31.001V50.9813Z" fill="white"/>
</svg>
