<svg width="264" height="63" viewBox="0 0 264 63" fill="none" xmlns="http://www.w3.org/2000/svg">
<path d="M4.56814 12.105C3.87814 12.105 3.25814 11.985 2.70814 11.745C2.16814 11.495 1.74314 11.155 1.43314 10.725C1.12314 10.285 0.963145 9.78 0.953145 9.21H2.40814C2.45814 9.7 2.65814 10.115 3.00814 10.455C3.36814 10.785 3.88814 10.95 4.56814 10.95C5.21814 10.95 5.72814 10.79 6.09814 10.47C6.47814 10.14 6.66814 9.72 6.66814 9.21C6.66814 8.81 6.55814 8.485 6.33814 8.235C6.11814 7.985 5.84314 7.795 5.51314 7.665C5.18314 7.535 4.73814 7.395 4.17814 7.245C3.48814 7.065 2.93314 6.885 2.51314 6.705C2.10314 6.525 1.74814 6.245 1.44814 5.865C1.15814 5.475 1.01314 4.955 1.01314 4.305C1.01314 3.735 1.15814 3.23 1.44814 2.79C1.73814 2.35 2.14314 2.01 2.66314 1.77C3.19314 1.53 3.79814 1.41 4.47814 1.41C5.45814 1.41 6.25814 1.655 6.87814 2.145C7.50815 2.635 7.86314 3.285 7.94314 4.095H6.44314C6.39314 3.695 6.18314 3.345 5.81314 3.045C5.44314 2.735 4.95314 2.58 4.34314 2.58C3.77314 2.58 3.30814 2.73 2.94814 3.03C2.58814 3.32 2.40814 3.73 2.40814 4.26C2.40814 4.64 2.51314 4.95 2.72314 5.19C2.94314 5.43 3.20814 5.615 3.51814 5.745C3.83814 5.865 4.28314 6.005 4.85314 6.165C5.54314 6.355 6.09814 6.545 6.51815 6.735C6.93814 6.915 7.29814 7.2 7.59814 7.59C7.89814 7.97 8.04814 8.49 8.04814 9.15C8.04814 9.66 7.91314 10.14 7.64314 10.59C7.37314 11.04 6.97314 11.405 6.44314 11.685C5.91314 11.965 5.28814 12.105 4.56814 12.105ZM10.7619 2.445C10.5019 2.445 10.2819 2.355 10.1019 2.175C9.92186 1.995 9.83186 1.775 9.83186 1.515C9.83186 1.255 9.92186 1.035 10.1019 0.855C10.2819 0.674999 10.5019 0.584999 10.7619 0.584999C11.0119 0.584999 11.2219 0.674999 11.3919 0.855C11.5719 1.035 11.6619 1.255 11.6619 1.515C11.6619 1.775 11.5719 1.995 11.3919 2.175C11.2219 2.355 11.0119 2.445 10.7619 2.445ZM11.4219 3.78V12H10.0569V3.78H11.4219ZM17.1383 3.645C17.8483 3.645 18.4683 3.8 18.9983 4.11C19.5383 4.42 19.9383 4.81 20.1983 5.28V3.78H21.5783V12.18C21.5783 12.93 21.4183 13.595 21.0983 14.175C20.7783 14.765 20.3183 15.225 19.7183 15.555C19.1283 15.885 18.4383 16.05 17.6483 16.05C16.5683 16.05 15.6683 15.795 14.9483 15.285C14.2283 14.775 13.8033 14.08 13.6733 13.2H15.0233C15.1733 13.7 15.4833 14.1 15.9533 14.4C16.4233 14.71 16.9883 14.865 17.6483 14.865C18.3983 14.865 19.0083 14.63 19.4783 14.16C19.9583 13.69 20.1983 13.03 20.1983 12.18V10.455C19.9283 10.935 19.5283 11.335 18.9983 11.655C18.4683 11.975 17.8483 12.135 17.1383 12.135C16.4083 12.135 15.7433 11.955 15.1433 11.595C14.5533 11.235 14.0883 10.73 13.7483 10.08C13.4083 9.43 13.2383 8.69 13.2383 7.86C13.2383 7.02 13.4083 6.285 13.7483 5.655C14.0883 5.015 14.5533 4.52 15.1433 4.17C15.7433 3.82 16.4083 3.645 17.1383 3.645ZM20.1983 7.875C20.1983 7.255 20.0733 6.715 19.8233 6.255C19.5733 5.795 19.2333 5.445 18.8033 5.205C18.3833 4.955 17.9183 4.83 17.4083 4.83C16.8983 4.83 16.4333 4.95 16.0133 5.19C15.5933 5.43 15.2583 5.78 15.0083 6.24C14.7583 6.7 14.6333 7.24 14.6333 7.86C14.6333 8.49 14.7583 9.04 15.0083 9.51C15.2583 9.97 15.5933 10.325 16.0133 10.575C16.4333 10.815 16.8983 10.935 17.4083 10.935C17.9183 10.935 18.3833 10.815 18.8033 10.575C19.2333 10.325 19.5733 9.97 19.8233 9.51C20.0733 9.04 20.1983 8.495 20.1983 7.875ZM27.89 3.63C28.89 3.63 29.7 3.935 30.32 4.545C30.94 5.145 31.25 6.015 31.25 7.155V12H29.9V7.35C29.9 6.53 29.695 5.905 29.285 5.475C28.875 5.035 28.315 4.815 27.605 4.815C26.885 4.815 26.31 5.04 25.88 5.49C25.46 5.94 25.25 6.595 25.25 7.455V12H23.885V3.78H25.25V4.95C25.52 4.53 25.885 4.205 26.345 3.975C26.815 3.745 27.33 3.63 27.89 3.63ZM44.7687 3.78V12H43.4037V10.785C43.1437 11.205 42.7787 11.535 42.3087 11.775C41.8487 12.005 41.3387 12.12 40.7787 12.12C40.1387 12.12 39.5637 11.99 39.0537 11.73C38.5437 11.46 38.1387 11.06 37.8387 10.53C37.5487 10 37.4037 9.355 37.4037 8.595V3.78H38.7537V8.415C38.7537 9.225 38.9587 9.85 39.3687 10.29C39.7787 10.72 40.3387 10.935 41.0487 10.935C41.7787 10.935 42.3537 10.71 42.7737 10.26C43.1937 9.81 43.4037 9.155 43.4037 8.295V3.78H44.7687ZM48.4385 5.295C48.7085 4.825 49.1085 4.435 49.6385 4.125C50.1785 3.805 50.8035 3.645 51.5135 3.645C52.2435 3.645 52.9035 3.82 53.4935 4.17C54.0935 4.52 54.5635 5.015 54.9035 5.655C55.2435 6.285 55.4135 7.02 55.4135 7.86C55.4135 8.69 55.2435 9.43 54.9035 10.08C54.5635 10.73 54.0935 11.235 53.4935 11.595C52.9035 11.955 52.2435 12.135 51.5135 12.135C50.8135 12.135 50.1935 11.98 49.6535 11.67C49.1235 11.35 48.7185 10.955 48.4385 10.485V15.9H47.0735V3.78H48.4385V5.295ZM54.0185 7.86C54.0185 7.24 53.8935 6.7 53.6435 6.24C53.3935 5.78 53.0535 5.43 52.6235 5.19C52.2035 4.95 51.7385 4.83 51.2285 4.83C50.7285 4.83 50.2635 4.955 49.8335 5.205C49.4135 5.445 49.0735 5.8 48.8135 6.27C48.5635 6.73 48.4385 7.265 48.4385 7.875C48.4385 8.495 48.5635 9.04 48.8135 9.51C49.0735 9.97 49.4135 10.325 49.8335 10.575C50.2635 10.815 50.7285 10.935 51.2285 10.935C51.7385 10.935 52.2035 10.815 52.6235 10.575C53.0535 10.325 53.3935 9.97 53.6435 9.51C53.8935 9.04 54.0185 8.49 54.0185 7.86ZM62.5742 5.31C62.8542 4.82 63.2642 4.42 63.8042 4.11C64.3442 3.8 64.9592 3.645 65.6492 3.645C66.3892 3.645 67.0542 3.82 67.6442 4.17C68.2342 4.52 68.6992 5.015 69.0392 5.655C69.3792 6.285 69.5492 7.02 69.5492 7.86C69.5492 8.69 69.3792 9.43 69.0392 10.08C68.6992 10.73 68.2292 11.235 67.6292 11.595C67.0392 11.955 66.3792 12.135 65.6492 12.135C64.9392 12.135 64.3142 11.98 63.7742 11.67C63.2442 11.36 62.8442 10.965 62.5742 10.485V12H61.2092V0.9H62.5742V5.31ZM68.1542 7.86C68.1542 7.24 68.0292 6.7 67.7792 6.24C67.5292 5.78 67.1892 5.43 66.7592 5.19C66.3392 4.95 65.8742 4.83 65.3642 4.83C64.8642 4.83 64.3992 4.955 63.9692 5.205C63.5492 5.445 63.2092 5.8 62.9492 6.27C62.6992 6.73 62.5742 7.265 62.5742 7.875C62.5742 8.495 62.6992 9.04 62.9492 9.51C63.2092 9.97 63.5492 10.325 63.9692 10.575C64.3992 10.815 64.8642 10.935 65.3642 10.935C65.8742 10.935 66.3392 10.815 66.7592 10.575C67.1892 10.325 67.5292 9.97 67.7792 9.51C68.0292 9.04 68.1542 8.49 68.1542 7.86ZM78.8459 7.575C78.8459 7.835 78.8309 8.11 78.8009 8.4H72.2309C72.2809 9.21 72.5559 9.845 73.0559 10.305C73.5659 10.755 74.1809 10.98 74.9009 10.98C75.4909 10.98 75.9809 10.845 76.3709 10.575C76.7709 10.295 77.0509 9.925 77.2109 9.465H78.6809C78.4609 10.255 78.0209 10.9 77.3609 11.4C76.7009 11.89 75.8809 12.135 74.9009 12.135C74.1209 12.135 73.4209 11.96 72.8009 11.61C72.1909 11.26 71.7109 10.765 71.3609 10.125C71.0109 9.475 70.8359 8.725 70.8359 7.875C70.8359 7.025 71.0059 6.28 71.3459 5.64C71.6859 5 72.1609 4.51 72.7709 4.17C73.3909 3.82 74.1009 3.645 74.9009 3.645C75.6809 3.645 76.3709 3.815 76.9709 4.155C77.5709 4.495 78.0309 4.965 78.3509 5.565C78.6809 6.155 78.8459 6.825 78.8459 7.575ZM77.4359 7.29C77.4359 6.77 77.3209 6.325 77.0909 5.955C76.8609 5.575 76.5459 5.29 76.1459 5.1C75.7559 4.9 75.3209 4.8 74.8409 4.8C74.1509 4.8 73.5609 5.02 73.0709 5.46C72.5909 5.9 72.3159 6.51 72.2459 7.29H77.4359ZM82.0127 0.9V12H80.6477V0.9H82.0127ZM87.9241 12.135C87.1541 12.135 86.4541 11.96 85.8241 11.61C85.2041 11.26 84.7141 10.765 84.3541 10.125C84.0041 9.475 83.8291 8.725 83.8291 7.875C83.8291 7.035 84.0091 6.295 84.3691 5.655C84.7391 5.005 85.2391 4.51 85.8691 4.17C86.4991 3.82 87.2041 3.645 87.9841 3.645C88.7641 3.645 89.4691 3.82 90.0991 4.17C90.7291 4.51 91.2241 5 91.5841 5.64C91.9541 6.28 92.1391 7.025 92.1391 7.875C92.1391 8.725 91.9491 9.475 91.5691 10.125C91.1991 10.765 90.6941 11.26 90.0541 11.61C89.4141 11.96 88.7041 12.135 87.9241 12.135ZM87.9241 10.935C88.4141 10.935 88.8741 10.82 89.3041 10.59C89.7341 10.36 90.0791 10.015 90.3391 9.555C90.6091 9.095 90.7441 8.535 90.7441 7.875C90.7441 7.215 90.6141 6.655 90.3541 6.195C90.0941 5.735 89.7541 5.395 89.3341 5.175C88.9141 4.945 88.4591 4.83 87.9691 4.83C87.4691 4.83 87.0091 4.945 86.5891 5.175C86.1791 5.395 85.8491 5.735 85.5991 6.195C85.3491 6.655 85.2241 7.215 85.2241 7.875C85.2241 8.545 85.3441 9.11 85.5841 9.57C85.8341 10.03 86.1641 10.375 86.5741 10.605C86.9841 10.825 87.4341 10.935 87.9241 10.935ZM104.884 3.78L102.319 12H100.909L98.9288 5.475L96.9488 12H95.5388L92.9588 3.78H94.3538L96.2438 10.68L98.2838 3.78H99.6788L101.674 10.695L103.534 3.78H104.884ZM111.903 4.905V9.75C111.903 10.15 111.988 10.435 112.158 10.605C112.328 10.765 112.623 10.845 113.043 10.845H114.048V12H112.818C112.058 12 111.488 11.825 111.108 11.475C110.728 11.125 110.538 10.55 110.538 9.75V4.905H109.473V3.78H110.538V1.71H111.903V3.78H114.048V4.905H111.903ZM119.286 12.135C118.516 12.135 117.816 11.96 117.186 11.61C116.566 11.26 116.076 10.765 115.716 10.125C115.366 9.475 115.191 8.725 115.191 7.875C115.191 7.035 115.371 6.295 115.731 5.655C116.101 5.005 116.601 4.51 117.231 4.17C117.861 3.82 118.566 3.645 119.346 3.645C120.126 3.645 120.831 3.82 121.461 4.17C122.091 4.51 122.586 5 122.946 5.64C123.316 6.28 123.501 7.025 123.501 7.875C123.501 8.725 123.311 9.475 122.931 10.125C122.561 10.765 122.056 11.26 121.416 11.61C120.776 11.96 120.066 12.135 119.286 12.135ZM119.286 10.935C119.776 10.935 120.236 10.82 120.666 10.59C121.096 10.36 121.441 10.015 121.701 9.555C121.971 9.095 122.106 8.535 122.106 7.875C122.106 7.215 121.976 6.655 121.716 6.195C121.456 5.735 121.116 5.395 120.696 5.175C120.276 4.945 119.821 4.83 119.331 4.83C118.831 4.83 118.371 4.945 117.951 5.175C117.541 5.395 117.211 5.735 116.961 6.195C116.711 6.655 116.586 7.215 116.586 7.875C116.586 8.545 116.706 9.11 116.946 9.57C117.196 10.03 117.526 10.375 117.936 10.605C118.346 10.825 118.796 10.935 119.286 10.935ZM132.685 3.645C133.395 3.645 134.015 3.8 134.545 4.11C135.085 4.42 135.485 4.81 135.745 5.28V3.78H137.125V12.18C137.125 12.93 136.965 13.595 136.645 14.175C136.325 14.765 135.865 15.225 135.265 15.555C134.675 15.885 133.985 16.05 133.195 16.05C132.115 16.05 131.215 15.795 130.495 15.285C129.775 14.775 129.35 14.08 129.22 13.2H130.57C130.72 13.7 131.03 14.1 131.5 14.4C131.97 14.71 132.535 14.865 133.195 14.865C133.945 14.865 134.555 14.63 135.025 14.16C135.505 13.69 135.745 13.03 135.745 12.18V10.455C135.475 10.935 135.075 11.335 134.545 11.655C134.015 11.975 133.395 12.135 132.685 12.135C131.955 12.135 131.29 11.955 130.69 11.595C130.1 11.235 129.635 10.73 129.295 10.08C128.955 9.43 128.785 8.69 128.785 7.86C128.785 7.02 128.955 6.285 129.295 5.655C129.635 5.015 130.1 4.52 130.69 4.17C131.29 3.82 131.955 3.645 132.685 3.645ZM135.745 7.875C135.745 7.255 135.62 6.715 135.37 6.255C135.12 5.795 134.78 5.445 134.35 5.205C133.93 4.955 133.465 4.83 132.955 4.83C132.445 4.83 131.98 4.95 131.56 5.19C131.14 5.43 130.805 5.78 130.555 6.24C130.305 6.7 130.18 7.24 130.18 7.86C130.18 8.49 130.305 9.04 130.555 9.51C130.805 9.97 131.14 10.325 131.56 10.575C131.98 10.815 132.445 10.935 132.955 10.935C133.465 10.935 133.93 10.815 134.35 10.575C134.78 10.325 135.12 9.97 135.37 9.51C135.62 9.04 135.745 8.495 135.745 7.875ZM146.932 7.575C146.932 7.835 146.917 8.11 146.887 8.4H140.317C140.367 9.21 140.642 9.845 141.142 10.305C141.652 10.755 142.267 10.98 142.987 10.98C143.577 10.98 144.067 10.845 144.457 10.575C144.857 10.295 145.137 9.925 145.297 9.465H146.767C146.547 10.255 146.107 10.9 145.447 11.4C144.787 11.89 143.967 12.135 142.987 12.135C142.207 12.135 141.507 11.96 140.887 11.61C140.277 11.26 139.797 10.765 139.447 10.125C139.097 9.475 138.922 8.725 138.922 7.875C138.922 7.025 139.092 6.28 139.432 5.64C139.772 5 140.247 4.51 140.857 4.17C141.477 3.82 142.187 3.645 142.987 3.645C143.767 3.645 144.457 3.815 145.057 4.155C145.657 4.495 146.117 4.965 146.437 5.565C146.767 6.155 146.932 6.825 146.932 7.575ZM145.522 7.29C145.522 6.77 145.407 6.325 145.177 5.955C144.947 5.575 144.632 5.29 144.232 5.1C143.842 4.9 143.407 4.8 142.927 4.8C142.237 4.8 141.647 5.02 141.157 5.46C140.677 5.9 140.402 6.51 140.332 7.29H145.522ZM150.399 4.905V9.75C150.399 10.15 150.484 10.435 150.654 10.605C150.824 10.765 151.119 10.845 151.539 10.845H152.544V12H151.314C150.554 12 149.984 11.825 149.604 11.475C149.224 11.125 149.034 10.55 149.034 9.75V4.905H147.969V3.78H149.034V1.71H150.399V3.78H152.544V4.905H150.399ZM157.687 7.86C157.687 7.02 157.857 6.285 158.197 5.655C158.537 5.015 159.002 4.52 159.592 4.17C160.192 3.82 160.857 3.645 161.587 3.645C162.307 3.645 162.932 3.8 163.462 4.11C163.992 4.42 164.387 4.81 164.647 5.28V3.78H166.027V12H164.647V10.47C164.377 10.95 163.972 11.35 163.432 11.67C162.902 11.98 162.282 12.135 161.572 12.135C160.842 12.135 160.182 11.955 159.592 11.595C159.002 11.235 158.537 10.73 158.197 10.08C157.857 9.43 157.687 8.69 157.687 7.86ZM164.647 7.875C164.647 7.255 164.522 6.715 164.272 6.255C164.022 5.795 163.682 5.445 163.252 5.205C162.832 4.955 162.367 4.83 161.857 4.83C161.347 4.83 160.882 4.95 160.462 5.19C160.042 5.43 159.707 5.78 159.457 6.24C159.207 6.7 159.082 7.24 159.082 7.86C159.082 8.49 159.207 9.04 159.457 9.51C159.707 9.97 160.042 10.325 160.462 10.575C160.882 10.815 161.347 10.935 161.857 10.935C162.367 10.935 162.832 10.815 163.252 10.575C163.682 10.325 164.022 9.97 164.272 9.51C164.522 9.04 164.647 8.495 164.647 7.875ZM179.022 2.34H173.757V5.76C173.987 5.44 174.327 5.18 174.777 4.98C175.227 4.77 175.712 4.665 176.232 4.665C177.062 4.665 177.737 4.84 178.257 5.19C178.777 5.53 179.147 5.975 179.367 6.525C179.597 7.065 179.712 7.64 179.712 8.25C179.712 8.97 179.577 9.615 179.307 10.185C179.037 10.755 178.622 11.205 178.062 11.535C177.512 11.865 176.827 12.03 176.007 12.03C174.957 12.03 174.107 11.76 173.457 11.22C172.807 10.68 172.412 9.96 172.272 9.06H173.607C173.737 9.63 174.012 10.075 174.432 10.395C174.852 10.715 175.382 10.875 176.022 10.875C176.812 10.875 177.407 10.64 177.807 10.17C178.207 9.69 178.407 9.06 178.407 8.28C178.407 7.5 178.207 6.9 177.807 6.48C177.407 6.05 176.817 5.835 176.037 5.835C175.507 5.835 175.042 5.965 174.642 6.225C174.252 6.475 173.967 6.82 173.787 7.26H172.497V1.14H179.022V2.34ZM181.526 6.465C181.526 4.745 181.806 3.405 182.366 2.445C182.926 1.475 183.906 0.99 185.306 0.99C186.696 0.99 187.671 1.475 188.231 2.445C188.791 3.405 189.071 4.745 189.071 6.465C189.071 8.215 188.791 9.575 188.231 10.545C187.671 11.515 186.696 12 185.306 12C183.906 12 182.926 11.515 182.366 10.545C181.806 9.575 181.526 8.215 181.526 6.465ZM187.721 6.465C187.721 5.595 187.661 4.86 187.541 4.26C187.431 3.65 187.196 3.16 186.836 2.79C186.486 2.42 185.976 2.235 185.306 2.235C184.626 2.235 184.106 2.42 183.746 2.79C183.396 3.16 183.161 3.65 183.041 4.26C182.931 4.86 182.876 5.595 182.876 6.465C182.876 7.365 182.931 8.12 183.041 8.73C183.161 9.34 183.396 9.83 183.746 10.2C184.106 10.57 184.626 10.755 185.306 10.755C185.976 10.755 186.486 10.57 186.836 10.2C187.196 9.83 187.431 9.34 187.541 8.73C187.661 8.12 187.721 7.365 187.721 6.465ZM190.645 3.6C190.645 2.92 190.85 2.38 191.26 1.98C191.67 1.57 192.195 1.365 192.835 1.365C193.475 1.365 194 1.57 194.41 1.98C194.82 2.38 195.025 2.92 195.025 3.6C195.025 4.29 194.82 4.84 194.41 5.25C194 5.65 193.475 5.85 192.835 5.85C192.195 5.85 191.67 5.65 191.26 5.25C190.85 4.84 190.645 4.29 190.645 3.6ZM199.405 1.53L193.33 12H191.98L198.055 1.53H199.405ZM192.835 2.205C192.495 2.205 192.225 2.325 192.025 2.565C191.835 2.795 191.74 3.14 191.74 3.6C191.74 4.06 191.835 4.41 192.025 4.65C192.225 4.89 192.495 5.01 192.835 5.01C193.175 5.01 193.445 4.89 193.645 4.65C193.845 4.4 193.945 4.05 193.945 3.6C193.945 3.14 193.845 2.795 193.645 2.565C193.445 2.325 193.175 2.205 192.835 2.205ZM196.39 9.93C196.39 9.24 196.595 8.695 197.005 8.295C197.415 7.885 197.94 7.68 198.58 7.68C199.22 7.68 199.74 7.885 200.14 8.295C200.55 8.695 200.755 9.24 200.755 9.93C200.755 10.61 200.55 11.155 200.14 11.565C199.74 11.975 199.22 12.18 198.58 12.18C197.94 12.18 197.415 11.98 197.005 11.58C196.595 11.17 196.39 10.62 196.39 9.93ZM198.565 8.535C198.225 8.535 197.955 8.655 197.755 8.895C197.555 9.125 197.455 9.47 197.455 9.93C197.455 10.38 197.555 10.725 197.755 10.965C197.955 11.195 198.225 11.31 198.565 11.31C198.905 11.31 199.175 11.195 199.375 10.965C199.575 10.725 199.675 10.38 199.675 9.93C199.675 9.47 199.575 9.125 199.375 8.895C199.175 8.655 198.905 8.535 198.565 8.535ZM207.916 5.295C208.186 4.825 208.586 4.435 209.116 4.125C209.656 3.805 210.281 3.645 210.991 3.645C211.721 3.645 212.381 3.82 212.971 4.17C213.571 4.52 214.041 5.015 214.381 5.655C214.721 6.285 214.891 7.02 214.891 7.86C214.891 8.69 214.721 9.43 214.381 10.08C214.041 10.73 213.571 11.235 212.971 11.595C212.381 11.955 211.721 12.135 210.991 12.135C210.291 12.135 209.671 11.98 209.131 11.67C208.601 11.35 208.196 10.955 207.916 10.485V15.9H206.551V3.78H207.916V5.295ZM213.496 7.86C213.496 7.24 213.371 6.7 213.121 6.24C212.871 5.78 212.531 5.43 212.101 5.19C211.681 4.95 211.216 4.83 210.706 4.83C210.206 4.83 209.741 4.955 209.311 5.205C208.891 5.445 208.551 5.8 208.291 6.27C208.041 6.73 207.916 7.265 207.916 7.875C207.916 8.495 208.041 9.04 208.291 9.51C208.551 9.97 208.891 10.325 209.311 10.575C209.741 10.815 210.206 10.935 210.706 10.935C211.216 10.935 211.681 10.815 212.101 10.575C212.531 10.325 212.871 9.97 213.121 9.51C213.371 9.04 213.496 8.49 213.496 7.86ZM224.188 7.575C224.188 7.835 224.173 8.11 224.143 8.4H217.573C217.623 9.21 217.898 9.845 218.398 10.305C218.908 10.755 219.523 10.98 220.243 10.98C220.833 10.98 221.323 10.845 221.713 10.575C222.113 10.295 222.393 9.925 222.553 9.465H224.023C223.803 10.255 223.363 10.9 222.703 11.4C222.043 11.89 221.223 12.135 220.243 12.135C219.463 12.135 218.763 11.96 218.143 11.61C217.533 11.26 217.053 10.765 216.703 10.125C216.353 9.475 216.178 8.725 216.178 7.875C216.178 7.025 216.348 6.28 216.688 5.64C217.028 5 217.503 4.51 218.113 4.17C218.733 3.82 219.443 3.645 220.243 3.645C221.023 3.645 221.713 3.815 222.313 4.155C222.913 4.495 223.373 4.965 223.693 5.565C224.023 6.155 224.188 6.825 224.188 7.575ZM222.778 7.29C222.778 6.77 222.663 6.325 222.433 5.955C222.203 5.575 221.888 5.29 221.488 5.1C221.098 4.9 220.663 4.8 220.183 4.8C219.493 4.8 218.903 5.02 218.413 5.46C217.933 5.9 217.658 6.51 217.588 7.29H222.778ZM227.354 5.115C227.594 4.645 227.934 4.28 228.374 4.02C228.824 3.76 229.369 3.63 230.009 3.63V5.04H229.649C228.119 5.04 227.354 5.87 227.354 7.53V12H225.989V3.78H227.354V5.115ZM231.075 7.875C231.075 7.025 231.245 6.285 231.585 5.655C231.925 5.015 232.395 4.52 232.995 4.17C233.605 3.82 234.3 3.645 235.08 3.645C236.09 3.645 236.92 3.89 237.57 4.38C238.23 4.87 238.665 5.55 238.875 6.42H237.405C237.265 5.92 236.99 5.525 236.58 5.235C236.18 4.945 235.68 4.8 235.08 4.8C234.3 4.8 233.67 5.07 233.19 5.61C232.71 6.14 232.47 6.895 232.47 7.875C232.47 8.865 232.71 9.63 233.19 10.17C233.67 10.71 234.3 10.98 235.08 10.98C235.68 10.98 236.18 10.84 236.58 10.56C236.98 10.28 237.255 9.88 237.405 9.36H238.875C238.655 10.2 238.215 10.875 237.555 11.385C236.895 11.885 236.07 12.135 235.08 12.135C234.3 12.135 233.605 11.96 232.995 11.61C232.395 11.26 231.925 10.765 231.585 10.125C231.245 9.485 231.075 8.735 231.075 7.875ZM248.197 7.575C248.197 7.835 248.182 8.11 248.152 8.4H241.582C241.632 9.21 241.907 9.845 242.407 10.305C242.917 10.755 243.532 10.98 244.252 10.98C244.842 10.98 245.332 10.845 245.722 10.575C246.122 10.295 246.402 9.925 246.562 9.465H248.032C247.812 10.255 247.372 10.9 246.712 11.4C246.052 11.89 245.232 12.135 244.252 12.135C243.472 12.135 242.772 11.96 242.152 11.61C241.542 11.26 241.062 10.765 240.712 10.125C240.362 9.475 240.187 8.725 240.187 7.875C240.187 7.025 240.357 6.28 240.697 5.64C241.037 5 241.512 4.51 242.122 4.17C242.742 3.82 243.452 3.645 244.252 3.645C245.032 3.645 245.722 3.815 246.322 4.155C246.922 4.495 247.382 4.965 247.702 5.565C248.032 6.155 248.197 6.825 248.197 7.575ZM246.787 7.29C246.787 6.77 246.672 6.325 246.442 5.955C246.212 5.575 245.897 5.29 245.497 5.1C245.107 4.9 244.672 4.8 244.192 4.8C243.502 4.8 242.912 5.02 242.422 5.46C241.942 5.9 241.667 6.51 241.597 7.29H246.787ZM254.003 3.63C255.003 3.63 255.813 3.935 256.433 4.545C257.053 5.145 257.363 6.015 257.363 7.155V12H256.013V7.35C256.013 6.53 255.808 5.905 255.398 5.475C254.988 5.035 254.428 4.815 253.718 4.815C252.998 4.815 252.423 5.04 251.993 5.49C251.573 5.94 251.363 6.595 251.363 7.455V12H249.998V3.78H251.363V4.95C251.633 4.53 251.998 4.205 252.458 3.975C252.928 3.745 253.443 3.63 254.003 3.63ZM261.258 4.905V9.75C261.258 10.15 261.343 10.435 261.513 10.605C261.683 10.765 261.978 10.845 262.398 10.845H263.403V12H262.173C261.413 12 260.843 11.825 260.463 11.475C260.083 11.125 259.893 10.55 259.893 9.75V4.905H258.828V3.78H259.893V1.71H261.258V3.78H263.403V4.905H261.258ZM6.18504 32.86C6.18504 32.02 6.35504 31.285 6.69504 30.655C7.03504 30.015 7.50004 29.52 8.09004 29.17C8.69004 28.82 9.36004 28.645 10.1 28.645C10.74 28.645 11.335 28.795 11.885 29.095C12.435 29.385 12.855 29.77 13.145 30.25V25.9H14.525V37H13.145V35.455C12.875 35.945 12.475 36.35 11.945 36.67C11.415 36.98 10.795 37.135 10.085 37.135C9.35504 37.135 8.69004 36.955 8.09004 36.595C7.50004 36.235 7.03504 35.73 6.69504 35.08C6.35504 34.43 6.18504 33.69 6.18504 32.86ZM13.145 32.875C13.145 32.255 13.02 31.715 12.77 31.255C12.52 30.795 12.18 30.445 11.75 30.205C11.33 29.955 10.865 29.83 10.355 29.83C9.84504 29.83 9.38004 29.95 8.96004 30.19C8.54004 30.43 8.20504 30.78 7.95504 31.24C7.70504 31.7 7.58004 32.24 7.58004 32.86C7.58004 33.49 7.70504 34.04 7.95504 34.51C8.20504 34.97 8.54004 35.325 8.96004 35.575C9.38004 35.815 9.84504 35.935 10.355 35.935C10.865 35.935 11.33 35.815 11.75 35.575C12.18 35.325 12.52 34.97 12.77 34.51C13.02 34.04 13.145 33.495 13.145 32.875ZM17.5368 27.445C17.2768 27.445 17.0568 27.355 16.8768 27.175C16.6968 26.995 16.6068 26.775 16.6068 26.515C16.6068 26.255 16.6968 26.035 16.8768 25.855C17.0568 25.675 17.2768 25.585 17.5368 25.585C17.7868 25.585 17.9968 25.675 18.1668 25.855C18.3468 26.035 18.4368 26.255 18.4368 26.515C18.4368 26.775 18.3468 26.995 18.1668 27.175C17.9968 27.355 17.7868 27.445 17.5368 27.445ZM18.1968 28.78V37H16.8318V28.78H18.1968ZM23.4332 37.135C22.8032 37.135 22.2382 37.03 21.7382 36.82C21.2382 36.6 20.8432 36.3 20.5532 35.92C20.2632 35.53 20.1032 35.085 20.0732 34.585H21.4832C21.5232 34.995 21.7132 35.33 22.0532 35.59C22.4032 35.85 22.8582 35.98 23.4182 35.98C23.9382 35.98 24.3482 35.865 24.6482 35.635C24.9482 35.405 25.0982 35.115 25.0982 34.765C25.0982 34.405 24.9382 34.14 24.6182 33.97C24.2982 33.79 23.8032 33.615 23.1332 33.445C22.5232 33.285 22.0232 33.125 21.6332 32.965C21.2532 32.795 20.9232 32.55 20.6432 32.23C20.3732 31.9 20.2382 31.47 20.2382 30.94C20.2382 30.52 20.3632 30.135 20.6132 29.785C20.8632 29.435 21.2182 29.16 21.6782 28.96C22.1382 28.75 22.6632 28.645 23.2532 28.645C24.1632 28.645 24.8982 28.875 25.4582 29.335C26.0182 29.795 26.3182 30.425 26.3582 31.225H24.9932C24.9632 30.795 24.7882 30.45 24.4682 30.19C24.1582 29.93 23.7382 29.8 23.2082 29.8C22.7182 29.8 22.3282 29.905 22.0382 30.115C21.7482 30.325 21.6032 30.6 21.6032 30.94C21.6032 31.21 21.6882 31.435 21.8582 31.615C22.0382 31.785 22.2582 31.925 22.5182 32.035C22.7882 32.135 23.1582 32.25 23.6282 32.38C24.2182 32.54 24.6982 32.7 25.0682 32.86C25.4382 33.01 25.7532 33.24 26.0132 33.55C26.2832 33.86 26.4232 34.265 26.4332 34.765C26.4332 35.215 26.3082 35.62 26.0582 35.98C25.8082 36.34 25.4532 36.625 24.9932 36.835C24.5432 37.035 24.0232 37.135 23.4332 37.135ZM27.8501 32.875C27.8501 32.025 28.0201 31.285 28.3601 30.655C28.7001 30.015 29.1701 29.52 29.7701 29.17C30.3801 28.82 31.0751 28.645 31.8551 28.645C32.8651 28.645 33.6951 28.89 34.3451 29.38C35.0051 29.87 35.4401 30.55 35.6501 31.42H34.1801C34.0401 30.92 33.7651 30.525 33.3551 30.235C32.9551 29.945 32.4551 29.8 31.8551 29.8C31.0751 29.8 30.4451 30.07 29.9651 30.61C29.4851 31.14 29.2451 31.895 29.2451 32.875C29.2451 33.865 29.4851 34.63 29.9651 35.17C30.4451 35.71 31.0751 35.98 31.8551 35.98C32.4551 35.98 32.9551 35.84 33.3551 35.56C33.7551 35.28 34.0301 34.88 34.1801 34.36H35.6501C35.4301 35.2 34.9901 35.875 34.3301 36.385C33.6701 36.885 32.8451 37.135 31.8551 37.135C31.0751 37.135 30.3801 36.96 29.7701 36.61C29.1701 36.26 28.7001 35.765 28.3601 35.125C28.0201 34.485 27.8501 33.735 27.8501 32.875ZM41.0564 37.135C40.2864 37.135 39.5864 36.96 38.9564 36.61C38.3364 36.26 37.8464 35.765 37.4864 35.125C37.1364 34.475 36.9614 33.725 36.9614 32.875C36.9614 32.035 37.1414 31.295 37.5014 30.655C37.8714 30.005 38.3714 29.51 39.0014 29.17C39.6314 28.82 40.3364 28.645 41.1164 28.645C41.8964 28.645 42.6014 28.82 43.2314 29.17C43.8614 29.51 44.3564 30 44.7164 30.64C45.0864 31.28 45.2714 32.025 45.2714 32.875C45.2714 33.725 45.0814 34.475 44.7014 35.125C44.3314 35.765 43.8264 36.26 43.1864 36.61C42.5464 36.96 41.8364 37.135 41.0564 37.135ZM41.0564 35.935C41.5464 35.935 42.0064 35.82 42.4364 35.59C42.8664 35.36 43.2114 35.015 43.4714 34.555C43.7414 34.095 43.8764 33.535 43.8764 32.875C43.8764 32.215 43.7464 31.655 43.4864 31.195C43.2264 30.735 42.8864 30.395 42.4664 30.175C42.0464 29.945 41.5914 29.83 41.1014 29.83C40.6014 29.83 40.1414 29.945 39.7214 30.175C39.3114 30.395 38.9814 30.735 38.7314 31.195C38.4814 31.655 38.3564 32.215 38.3564 32.875C38.3564 33.545 38.4764 34.11 38.7164 34.57C38.9664 35.03 39.2964 35.375 39.7064 35.605C40.1164 35.825 40.5664 35.935 41.0564 35.935ZM54.3561 28.78V37H52.9911V35.785C52.7311 36.205 52.3661 36.535 51.8961 36.775C51.4361 37.005 50.9261 37.12 50.3661 37.12C49.7261 37.12 49.1511 36.99 48.6411 36.73C48.1311 36.46 47.7261 36.06 47.4261 35.53C47.1361 35 46.9911 34.355 46.9911 33.595V28.78H48.3411V33.415C48.3411 34.225 48.5461 34.85 48.9561 35.29C49.3661 35.72 49.9261 35.935 50.6361 35.935C51.3661 35.935 51.9411 35.71 52.3611 35.26C52.7811 34.81 52.9911 34.155 52.9911 33.295V28.78H54.3561ZM60.6659 28.63C61.6659 28.63 62.4759 28.935 63.0959 29.545C63.7159 30.145 64.0259 31.015 64.0259 32.155V37H62.6759V32.35C62.6759 31.53 62.4709 30.905 62.0609 30.475C61.6509 30.035 61.0909 29.815 60.3809 29.815C59.6609 29.815 59.0859 30.04 58.6559 30.49C58.2359 30.94 58.0259 31.595 58.0259 32.455V37H56.6609V28.78H58.0259V29.95C58.2959 29.53 58.6609 29.205 59.1209 28.975C59.5909 28.745 60.1059 28.63 60.6659 28.63ZM67.9206 29.905V34.75C67.9206 35.15 68.0056 35.435 68.1756 35.605C68.3456 35.765 68.6406 35.845 69.0606 35.845H70.0656V37H68.8356C68.0756 37 67.5056 36.825 67.1256 36.475C66.7456 36.125 66.5556 35.55 66.5556 34.75V29.905H65.4906V28.78H66.5556V26.71H67.9206V28.78H70.0656V29.905H67.9206ZM79.3035 37.135C78.5335 37.135 77.8335 36.96 77.2035 36.61C76.5835 36.26 76.0935 35.765 75.7335 35.125C75.3835 34.475 75.2085 33.725 75.2085 32.875C75.2085 32.035 75.3885 31.295 75.7485 30.655C76.1185 30.005 76.6185 29.51 77.2485 29.17C77.8785 28.82 78.5835 28.645 79.3635 28.645C80.1435 28.645 80.8485 28.82 81.4785 29.17C82.1085 29.51 82.6035 30 82.9635 30.64C83.3335 31.28 83.5185 32.025 83.5185 32.875C83.5185 33.725 83.3285 34.475 82.9485 35.125C82.5785 35.765 82.0735 36.26 81.4335 36.61C80.7935 36.96 80.0835 37.135 79.3035 37.135ZM79.3035 35.935C79.7935 35.935 80.2535 35.82 80.6835 35.59C81.1135 35.36 81.4585 35.015 81.7185 34.555C81.9885 34.095 82.1235 33.535 82.1235 32.875C82.1235 32.215 81.9935 31.655 81.7335 31.195C81.4735 30.735 81.1335 30.395 80.7135 30.175C80.2935 29.945 79.8385 29.83 79.3485 29.83C78.8485 29.83 78.3885 29.945 77.9685 30.175C77.5585 30.395 77.2285 30.735 76.9785 31.195C76.7285 31.655 76.6035 32.215 76.6035 32.875C76.6035 33.545 76.7235 34.11 76.9635 34.57C77.2135 35.03 77.5435 35.375 77.9535 35.605C78.3635 35.825 78.8135 35.935 79.3035 35.935ZM89.3182 28.63C90.3182 28.63 91.1282 28.935 91.7482 29.545C92.3682 30.145 92.6782 31.015 92.6782 32.155V37H91.3282V32.35C91.3282 31.53 91.1232 30.905 90.7132 30.475C90.3032 30.035 89.7432 29.815 89.0332 29.815C88.3132 29.815 87.7382 30.04 87.3082 30.49C86.8882 30.94 86.6782 31.595 86.6782 32.455V37H85.3132V28.78H86.6782V29.95C86.9482 29.53 87.3132 29.205 87.7732 28.975C88.2432 28.745 88.7582 28.63 89.3182 28.63ZM105.987 28.78L101.037 40.87H99.627L101.247 36.91L97.932 28.78H99.447L102.027 35.44L104.577 28.78H105.987ZM110.944 37.135C110.174 37.135 109.474 36.96 108.844 36.61C108.224 36.26 107.734 35.765 107.374 35.125C107.024 34.475 106.849 33.725 106.849 32.875C106.849 32.035 107.029 31.295 107.389 30.655C107.759 30.005 108.259 29.51 108.889 29.17C109.519 28.82 110.224 28.645 111.004 28.645C111.784 28.645 112.489 28.82 113.119 29.17C113.749 29.51 114.244 30 114.604 30.64C114.974 31.28 115.159 32.025 115.159 32.875C115.159 33.725 114.969 34.475 114.589 35.125C114.219 35.765 113.714 36.26 113.074 36.61C112.434 36.96 111.724 37.135 110.944 37.135ZM110.944 35.935C111.434 35.935 111.894 35.82 112.324 35.59C112.754 35.36 113.099 35.015 113.359 34.555C113.629 34.095 113.764 33.535 113.764 32.875C113.764 32.215 113.634 31.655 113.374 31.195C113.114 30.735 112.774 30.395 112.354 30.175C111.934 29.945 111.479 29.83 110.989 29.83C110.489 29.83 110.029 29.945 109.609 30.175C109.199 30.395 108.869 30.735 108.619 31.195C108.369 31.655 108.244 32.215 108.244 32.875C108.244 33.545 108.364 34.11 108.604 34.57C108.854 35.03 109.184 35.375 109.594 35.605C110.004 35.825 110.454 35.935 110.944 35.935ZM124.244 28.78V37H122.879V35.785C122.619 36.205 122.254 36.535 121.784 36.775C121.324 37.005 120.814 37.12 120.254 37.12C119.614 37.12 119.039 36.99 118.529 36.73C118.019 36.46 117.614 36.06 117.314 35.53C117.024 35 116.879 34.355 116.879 33.595V28.78H118.229V33.415C118.229 34.225 118.434 34.85 118.844 35.29C119.254 35.72 119.814 35.935 120.524 35.935C121.254 35.935 121.829 35.71 122.249 35.26C122.669 34.81 122.879 34.155 122.879 33.295V28.78H124.244ZM127.914 30.115C128.154 29.645 128.494 29.28 128.934 29.02C129.384 28.76 129.929 28.63 130.569 28.63V30.04H130.209C128.679 30.04 127.914 30.87 127.914 32.53V37H126.549V28.78H127.914V30.115ZM139.488 29.905H137.763V37H136.398V29.905H135.333V28.78H136.398V28.195C136.398 27.275 136.633 26.605 137.103 26.185C137.583 25.755 138.348 25.54 139.398 25.54V26.68C138.798 26.68 138.373 26.8 138.123 27.04C137.883 27.27 137.763 27.655 137.763 28.195V28.78H139.488V29.905ZM141.785 27.445C141.525 27.445 141.305 27.355 141.125 27.175C140.945 26.995 140.855 26.775 140.855 26.515C140.855 26.255 140.945 26.035 141.125 25.855C141.305 25.675 141.525 25.585 141.785 25.585C142.035 25.585 142.245 25.675 142.415 25.855C142.595 26.035 142.685 26.255 142.685 26.515C142.685 26.775 142.595 26.995 142.415 27.175C142.245 27.355 142.035 27.445 141.785 27.445ZM142.445 28.78V37H141.08V28.78H142.445ZM146.136 30.115C146.376 29.645 146.716 29.28 147.156 29.02C147.606 28.76 148.151 28.63 148.791 28.63V30.04H148.431C146.901 30.04 146.136 30.87 146.136 32.53V37H144.771V28.78H146.136V30.115ZM153.277 37.135C152.647 37.135 152.082 37.03 151.582 36.82C151.082 36.6 150.687 36.3 150.397 35.92C150.107 35.53 149.947 35.085 149.917 34.585H151.327C151.367 34.995 151.557 35.33 151.897 35.59C152.247 35.85 152.702 35.98 153.262 35.98C153.782 35.98 154.192 35.865 154.492 35.635C154.792 35.405 154.942 35.115 154.942 34.765C154.942 34.405 154.782 34.14 154.462 33.97C154.142 33.79 153.647 33.615 152.977 33.445C152.367 33.285 151.867 33.125 151.477 32.965C151.097 32.795 150.767 32.55 150.487 32.23C150.217 31.9 150.082 31.47 150.082 30.94C150.082 30.52 150.207 30.135 150.457 29.785C150.707 29.435 151.062 29.16 151.522 28.96C151.982 28.75 152.507 28.645 153.097 28.645C154.007 28.645 154.742 28.875 155.302 29.335C155.862 29.795 156.162 30.425 156.202 31.225H154.837C154.807 30.795 154.632 30.45 154.312 30.19C154.002 29.93 153.582 29.8 153.052 29.8C152.562 29.8 152.172 29.905 151.882 30.115C151.592 30.325 151.447 30.6 151.447 30.94C151.447 31.21 151.532 31.435 151.702 31.615C151.882 31.785 152.102 31.925 152.362 32.035C152.632 32.135 153.002 32.25 153.472 32.38C154.062 32.54 154.542 32.7 154.912 32.86C155.282 33.01 155.597 33.24 155.857 33.55C156.127 33.86 156.267 34.265 156.277 34.765C156.277 35.215 156.152 35.62 155.902 35.98C155.652 36.34 155.297 36.625 154.837 36.835C154.387 37.035 153.867 37.135 153.277 37.135ZM159.869 29.905V34.75C159.869 35.15 159.954 35.435 160.124 35.605C160.294 35.765 160.589 35.845 161.009 35.845H162.014V37H160.784C160.024 37 159.454 36.825 159.074 36.475C158.694 36.125 158.504 35.55 158.504 34.75V29.905H157.439V28.78H158.504V26.71H159.869V28.78H162.014V29.905H159.869ZM169.032 30.295C169.302 29.825 169.702 29.435 170.232 29.125C170.772 28.805 171.397 28.645 172.107 28.645C172.837 28.645 173.497 28.82 174.087 29.17C174.687 29.52 175.157 30.015 175.497 30.655C175.837 31.285 176.007 32.02 176.007 32.86C176.007 33.69 175.837 34.43 175.497 35.08C175.157 35.73 174.687 36.235 174.087 36.595C173.497 36.955 172.837 37.135 172.107 37.135C171.407 37.135 170.787 36.98 170.247 36.67C169.717 36.35 169.312 35.955 169.032 35.485V40.9H167.667V28.78H169.032V30.295ZM174.612 32.86C174.612 32.24 174.487 31.7 174.237 31.24C173.987 30.78 173.647 30.43 173.217 30.19C172.797 29.95 172.332 29.83 171.822 29.83C171.322 29.83 170.857 29.955 170.427 30.205C170.007 30.445 169.667 30.8 169.407 31.27C169.157 31.73 169.032 32.265 169.032 32.875C169.032 33.495 169.157 34.04 169.407 34.51C169.667 34.97 170.007 35.325 170.427 35.575C170.857 35.815 171.322 35.935 171.822 35.935C172.332 35.935 172.797 35.815 173.217 35.575C173.647 35.325 173.987 34.97 174.237 34.51C174.487 34.04 174.612 33.49 174.612 32.86ZM179.168 30.115C179.408 29.645 179.748 29.28 180.188 29.02C180.638 28.76 181.183 28.63 181.823 28.63V30.04H181.463C179.933 30.04 179.168 30.87 179.168 32.53V37H177.803V28.78H179.168V30.115ZM186.984 37.135C186.214 37.135 185.514 36.96 184.884 36.61C184.264 36.26 183.774 35.765 183.414 35.125C183.064 34.475 182.889 33.725 182.889 32.875C182.889 32.035 183.069 31.295 183.429 30.655C183.799 30.005 184.299 29.51 184.929 29.17C185.559 28.82 186.264 28.645 187.044 28.645C187.824 28.645 188.529 28.82 189.159 29.17C189.789 29.51 190.284 30 190.644 30.64C191.014 31.28 191.199 32.025 191.199 32.875C191.199 33.725 191.009 34.475 190.629 35.125C190.259 35.765 189.754 36.26 189.114 36.61C188.474 36.96 187.764 37.135 186.984 37.135ZM186.984 35.935C187.474 35.935 187.934 35.82 188.364 35.59C188.794 35.36 189.139 35.015 189.399 34.555C189.669 34.095 189.804 33.535 189.804 32.875C189.804 32.215 189.674 31.655 189.414 31.195C189.154 30.735 188.814 30.395 188.394 30.175C187.974 29.945 187.519 29.83 187.029 29.83C186.529 29.83 186.069 29.945 185.649 30.175C185.239 30.395 184.909 30.735 184.659 31.195C184.409 31.655 184.284 32.215 184.284 32.875C184.284 33.545 184.404 34.11 184.644 34.57C184.894 35.03 185.224 35.375 185.634 35.605C186.044 35.825 186.494 35.935 186.984 35.935ZM196.339 29.905H194.614V37H193.249V29.905H192.184V28.78H193.249V28.195C193.249 27.275 193.484 26.605 193.954 26.185C194.434 25.755 195.199 25.54 196.249 25.54V26.68C195.649 26.68 195.224 26.8 194.974 27.04C194.734 27.27 194.614 27.655 194.614 28.195V28.78H196.339V29.905ZM205.43 32.575C205.43 32.835 205.415 33.11 205.385 33.4H198.815C198.865 34.21 199.14 34.845 199.64 35.305C200.15 35.755 200.765 35.98 201.485 35.98C202.075 35.98 202.565 35.845 202.955 35.575C203.355 35.295 203.635 34.925 203.795 34.465H205.265C205.045 35.255 204.605 35.9 203.945 36.4C203.285 36.89 202.465 37.135 201.485 37.135C200.705 37.135 200.005 36.96 199.385 36.61C198.775 36.26 198.295 35.765 197.945 35.125C197.595 34.475 197.42 33.725 197.42 32.875C197.42 32.025 197.59 31.28 197.93 30.64C198.27 30 198.745 29.51 199.355 29.17C199.975 28.82 200.685 28.645 201.485 28.645C202.265 28.645 202.955 28.815 203.555 29.155C204.155 29.495 204.615 29.965 204.935 30.565C205.265 31.155 205.43 31.825 205.43 32.575ZM204.02 32.29C204.02 31.77 203.905 31.325 203.675 30.955C203.445 30.575 203.13 30.29 202.73 30.1C202.34 29.9 201.905 29.8 201.425 29.8C200.735 29.8 200.145 30.02 199.655 30.46C199.175 30.9 198.9 31.51 198.83 32.29H204.02ZM210.142 37.135C209.512 37.135 208.947 37.03 208.447 36.82C207.947 36.6 207.552 36.3 207.262 35.92C206.972 35.53 206.812 35.085 206.782 34.585H208.192C208.232 34.995 208.422 35.33 208.762 35.59C209.112 35.85 209.567 35.98 210.127 35.98C210.647 35.98 211.057 35.865 211.357 35.635C211.657 35.405 211.807 35.115 211.807 34.765C211.807 34.405 211.647 34.14 211.327 33.97C211.007 33.79 210.512 33.615 209.842 33.445C209.232 33.285 208.732 33.125 208.342 32.965C207.962 32.795 207.632 32.55 207.352 32.23C207.082 31.9 206.947 31.47 206.947 30.94C206.947 30.52 207.072 30.135 207.322 29.785C207.572 29.435 207.927 29.16 208.387 28.96C208.847 28.75 209.372 28.645 209.962 28.645C210.872 28.645 211.607 28.875 212.167 29.335C212.727 29.795 213.027 30.425 213.067 31.225H211.702C211.672 30.795 211.497 30.45 211.177 30.19C210.867 29.93 210.447 29.8 209.917 29.8C209.427 29.8 209.037 29.905 208.747 30.115C208.457 30.325 208.312 30.6 208.312 30.94C208.312 31.21 208.397 31.435 208.567 31.615C208.747 31.785 208.967 31.925 209.227 32.035C209.497 32.135 209.867 32.25 210.337 32.38C210.927 32.54 211.407 32.7 211.777 32.86C212.147 33.01 212.462 33.24 212.722 33.55C212.992 33.86 213.132 34.265 213.142 34.765C213.142 35.215 213.017 35.62 212.767 35.98C212.517 36.34 212.162 36.625 211.702 36.835C211.252 37.035 210.732 37.135 210.142 37.135ZM217.979 37.135C217.349 37.135 216.784 37.03 216.284 36.82C215.784 36.6 215.389 36.3 215.099 35.92C214.809 35.53 214.649 35.085 214.619 34.585H216.029C216.069 34.995 216.259 35.33 216.599 35.59C216.949 35.85 217.404 35.98 217.964 35.98C218.484 35.98 218.894 35.865 219.194 35.635C219.494 35.405 219.644 35.115 219.644 34.765C219.644 34.405 219.484 34.14 219.164 33.97C218.844 33.79 218.349 33.615 217.679 33.445C217.069 33.285 216.569 33.125 216.179 32.965C215.799 32.795 215.469 32.55 215.189 32.23C214.919 31.9 214.784 31.47 214.784 30.94C214.784 30.52 214.909 30.135 215.159 29.785C215.409 29.435 215.764 29.16 216.224 28.96C216.684 28.75 217.209 28.645 217.799 28.645C218.709 28.645 219.444 28.875 220.004 29.335C220.564 29.795 220.864 30.425 220.904 31.225H219.539C219.509 30.795 219.334 30.45 219.014 30.19C218.704 29.93 218.284 29.8 217.754 29.8C217.264 29.8 216.874 29.905 216.584 30.115C216.294 30.325 216.149 30.6 216.149 30.94C216.149 31.21 216.234 31.435 216.404 31.615C216.584 31.785 216.804 31.925 217.064 32.035C217.334 32.135 217.704 32.25 218.174 32.38C218.764 32.54 219.244 32.7 219.614 32.86C219.984 33.01 220.299 33.24 220.559 33.55C220.829 33.86 220.969 34.265 220.979 34.765C220.979 35.215 220.854 35.62 220.604 35.98C220.354 36.34 219.999 36.625 219.539 36.835C219.089 37.035 218.569 37.135 217.979 37.135ZM223.611 27.445C223.351 27.445 223.131 27.355 222.951 27.175C222.771 26.995 222.681 26.775 222.681 26.515C222.681 26.255 222.771 26.035 222.951 25.855C223.131 25.675 223.351 25.585 223.611 25.585C223.861 25.585 224.071 25.675 224.241 25.855C224.421 26.035 224.511 26.255 224.511 26.515C224.511 26.775 224.421 26.995 224.241 27.175C224.071 27.355 223.861 27.445 223.611 27.445ZM224.271 28.78V37H222.906V28.78H224.271ZM230.182 37.135C229.412 37.135 228.712 36.96 228.082 36.61C227.462 36.26 226.972 35.765 226.612 35.125C226.262 34.475 226.087 33.725 226.087 32.875C226.087 32.035 226.267 31.295 226.627 30.655C226.997 30.005 227.497 29.51 228.127 29.17C228.757 28.82 229.462 28.645 230.242 28.645C231.022 28.645 231.727 28.82 232.357 29.17C232.987 29.51 233.482 30 233.842 30.64C234.212 31.28 234.397 32.025 234.397 32.875C234.397 33.725 234.207 34.475 233.827 35.125C233.457 35.765 232.952 36.26 232.312 36.61C231.672 36.96 230.962 37.135 230.182 37.135ZM230.182 35.935C230.672 35.935 231.132 35.82 231.562 35.59C231.992 35.36 232.337 35.015 232.597 34.555C232.867 34.095 233.002 33.535 233.002 32.875C233.002 32.215 232.872 31.655 232.612 31.195C232.352 30.735 232.012 30.395 231.592 30.175C231.172 29.945 230.717 29.83 230.227 29.83C229.727 29.83 229.267 29.945 228.847 30.175C228.437 30.395 228.107 30.735 227.857 31.195C227.607 31.655 227.482 32.215 227.482 32.875C227.482 33.545 227.602 34.11 227.842 34.57C228.092 35.03 228.422 35.375 228.832 35.605C229.242 35.825 229.692 35.935 230.182 35.935ZM240.197 28.63C241.197 28.63 242.007 28.935 242.627 29.545C243.247 30.145 243.557 31.015 243.557 32.155V37H242.207V32.35C242.207 31.53 242.002 30.905 241.592 30.475C241.182 30.035 240.622 29.815 239.912 29.815C239.192 29.815 238.617 30.04 238.187 30.49C237.767 30.94 237.557 31.595 237.557 32.455V37H236.192V28.78H237.557V29.95C237.827 29.53 238.192 29.205 238.652 28.975C239.122 28.745 239.637 28.63 240.197 28.63ZM245.277 32.86C245.277 32.02 245.447 31.285 245.787 30.655C246.127 30.015 246.592 29.52 247.182 29.17C247.782 28.82 248.447 28.645 249.177 28.645C249.897 28.645 250.522 28.8 251.052 29.11C251.582 29.42 251.977 29.81 252.237 30.28V28.78H253.617V37H252.237V35.47C251.967 35.95 251.562 36.35 251.022 36.67C250.492 36.98 249.872 37.135 249.162 37.135C248.432 37.135 247.772 36.955 247.182 36.595C246.592 36.235 246.127 35.73 245.787 35.08C245.447 34.43 245.277 33.69 245.277 32.86ZM252.237 32.875C252.237 32.255 252.112 31.715 251.862 31.255C251.612 30.795 251.272 30.445 250.842 30.205C250.422 29.955 249.957 29.83 249.447 29.83C248.937 29.83 248.472 29.95 248.052 30.19C247.632 30.43 247.297 30.78 247.047 31.24C246.797 31.7 246.672 32.24 246.672 32.86C246.672 33.49 246.797 34.04 247.047 34.51C247.297 34.97 247.632 35.325 248.052 35.575C248.472 35.815 248.937 35.935 249.447 35.935C249.957 35.935 250.422 35.815 250.842 35.575C251.272 35.325 251.612 34.97 251.862 34.51C252.112 34.04 252.237 33.495 252.237 32.875ZM257.289 25.9V37H255.924V25.9H257.289ZM113.512 53.78L110.947 62H109.537L107.557 55.475L105.577 62H104.167L101.587 53.78H102.982L104.872 60.68L106.912 53.78H108.307L110.302 60.695L112.162 53.78H113.512ZM122.366 57.575C122.366 57.835 122.351 58.11 122.321 58.4H115.751C115.801 59.21 116.076 59.845 116.576 60.305C117.086 60.755 117.701 60.98 118.421 60.98C119.011 60.98 119.501 60.845 119.891 60.575C120.291 60.295 120.571 59.925 120.731 59.465H122.201C121.981 60.255 121.541 60.9 120.881 61.4C120.221 61.89 119.401 62.135 118.421 62.135C117.641 62.135 116.941 61.96 116.321 61.61C115.711 61.26 115.231 60.765 114.881 60.125C114.531 59.475 114.356 58.725 114.356 57.875C114.356 57.025 114.526 56.28 114.866 55.64C115.206 55 115.681 54.51 116.291 54.17C116.911 53.82 117.621 53.645 118.421 53.645C119.201 53.645 119.891 53.815 120.491 54.155C121.091 54.495 121.551 54.965 121.871 55.565C122.201 56.155 122.366 56.825 122.366 57.575ZM120.956 57.29C120.956 56.77 120.841 56.325 120.611 55.955C120.381 55.575 120.066 55.29 119.666 55.1C119.276 54.9 118.841 54.8 118.361 54.8C117.671 54.8 117.081 55.02 116.591 55.46C116.111 55.9 115.836 56.51 115.766 57.29H120.956ZM125.533 55.31C125.813 54.82 126.223 54.42 126.763 54.11C127.303 53.8 127.918 53.645 128.608 53.645C129.348 53.645 130.013 53.82 130.603 54.17C131.193 54.52 131.658 55.015 131.998 55.655C132.338 56.285 132.508 57.02 132.508 57.86C132.508 58.69 132.338 59.43 131.998 60.08C131.658 60.73 131.188 61.235 130.588 61.595C129.998 61.955 129.338 62.135 128.608 62.135C127.898 62.135 127.273 61.98 126.733 61.67C126.203 61.36 125.803 60.965 125.533 60.485V62H124.168V50.9H125.533V55.31ZM131.113 57.86C131.113 57.24 130.988 56.7 130.738 56.24C130.488 55.78 130.148 55.43 129.718 55.19C129.298 54.95 128.833 54.83 128.323 54.83C127.823 54.83 127.358 54.955 126.928 55.205C126.508 55.445 126.168 55.8 125.908 56.27C125.658 56.73 125.533 57.265 125.533 57.875C125.533 58.495 125.658 59.04 125.908 59.51C126.168 59.97 126.508 60.325 126.928 60.575C127.358 60.815 127.823 60.935 128.323 60.935C128.833 60.935 129.298 60.815 129.718 60.575C130.148 60.325 130.488 59.97 130.738 59.51C130.988 59.04 131.113 58.49 131.113 57.86ZM137.215 62.135C136.585 62.135 136.02 62.03 135.52 61.82C135.02 61.6 134.625 61.3 134.335 60.92C134.045 60.53 133.885 60.085 133.855 59.585H135.265C135.305 59.995 135.495 60.33 135.835 60.59C136.185 60.85 136.64 60.98 137.2 60.98C137.72 60.98 138.13 60.865 138.43 60.635C138.73 60.405 138.88 60.115 138.88 59.765C138.88 59.405 138.72 59.14 138.4 58.97C138.08 58.79 137.585 58.615 136.915 58.445C136.305 58.285 135.805 58.125 135.415 57.965C135.035 57.795 134.705 57.55 134.425 57.23C134.155 56.9 134.02 56.47 134.02 55.94C134.02 55.52 134.145 55.135 134.395 54.785C134.645 54.435 135 54.16 135.46 53.96C135.92 53.75 136.445 53.645 137.035 53.645C137.945 53.645 138.68 53.875 139.24 54.335C139.8 54.795 140.1 55.425 140.14 56.225H138.775C138.745 55.795 138.57 55.45 138.25 55.19C137.94 54.93 137.52 54.8 136.99 54.8C136.5 54.8 136.11 54.905 135.82 55.115C135.53 55.325 135.385 55.6 135.385 55.94C135.385 56.21 135.47 56.435 135.64 56.615C135.82 56.785 136.04 56.925 136.3 57.035C136.57 57.135 136.94 57.25 137.41 57.38C138 57.54 138.48 57.7 138.85 57.86C139.22 58.01 139.535 58.24 139.795 58.55C140.065 58.86 140.205 59.265 140.215 59.765C140.215 60.215 140.09 60.62 139.84 60.98C139.59 61.34 139.235 61.625 138.775 61.835C138.325 62.035 137.805 62.135 137.215 62.135ZM142.847 52.445C142.587 52.445 142.367 52.355 142.187 52.175C142.007 51.995 141.917 51.775 141.917 51.515C141.917 51.255 142.007 51.035 142.187 50.855C142.367 50.675 142.587 50.585 142.847 50.585C143.097 50.585 143.307 50.675 143.477 50.855C143.657 51.035 143.747 51.255 143.747 51.515C143.747 51.775 143.657 51.995 143.477 52.175C143.307 52.355 143.097 52.445 142.847 52.445ZM143.507 53.78V62H142.142V53.78H143.507ZM147.498 54.905V59.75C147.498 60.15 147.583 60.435 147.753 60.605C147.923 60.765 148.218 60.845 148.638 60.845H149.643V62H148.413C147.653 62 147.083 61.825 146.703 61.475C146.323 61.125 146.133 60.55 146.133 59.75V54.905H145.068V53.78H146.133V51.71H147.498V53.78H149.643V54.905H147.498ZM158.797 57.575C158.797 57.835 158.782 58.11 158.752 58.4H152.182C152.232 59.21 152.507 59.845 153.007 60.305C153.517 60.755 154.132 60.98 154.852 60.98C155.442 60.98 155.932 60.845 156.322 60.575C156.722 60.295 157.002 59.925 157.162 59.465H158.632C158.412 60.255 157.972 60.9 157.312 61.4C156.652 61.89 155.832 62.135 154.852 62.135C154.072 62.135 153.372 61.96 152.752 61.61C152.142 61.26 151.662 60.765 151.312 60.125C150.962 59.475 150.787 58.725 150.787 57.875C150.787 57.025 150.957 56.28 151.297 55.64C151.637 55 152.112 54.51 152.722 54.17C153.342 53.82 154.052 53.645 154.852 53.645C155.632 53.645 156.322 53.815 156.922 54.155C157.522 54.495 157.982 54.965 158.302 55.565C158.632 56.155 158.797 56.825 158.797 57.575ZM157.387 57.29C157.387 56.77 157.272 56.325 157.042 55.955C156.812 55.575 156.497 55.29 156.097 55.1C155.707 54.9 155.272 54.8 154.792 54.8C154.102 54.8 153.512 55.02 153.022 55.46C152.542 55.9 152.267 56.51 152.197 57.29H157.387ZM161.034 62.09C160.774 62.09 160.554 62 160.374 61.82C160.194 61.64 160.104 61.42 160.104 61.16C160.104 60.9 160.194 60.68 160.374 60.5C160.554 60.32 160.774 60.23 161.034 60.23C161.284 60.23 161.494 60.32 161.664 60.5C161.844 60.68 161.934 60.9 161.934 61.16C161.934 61.42 161.844 61.64 161.664 61.82C161.494 62 161.284 62.09 161.034 62.09Z" fill="black"/>
</svg>
