<svg width="312" height="68" viewBox="0 0 312 68" fill="none" xmlns="http://www.w3.org/2000/svg">
<g filter="url(#filter0_d_427_2)">
<rect x="4" width="304" height="60" rx="10" fill="white"/>
<rect x="4.5" y="0.5" width="303" height="59" rx="9.5" stroke="#005FF6"/>
</g>
<path d="M113.077 27.36C112.849 26.94 112.519 26.622 112.087 26.406C111.667 26.178 111.169 26.064 110.593 26.064C109.597 26.064 108.799 26.394 108.199 27.054C107.599 27.702 107.299 28.572 107.299 29.664C107.299 30.828 107.611 31.74 108.235 32.4C108.871 33.048 109.741 33.372 110.845 33.372C111.601 33.372 112.237 33.18 112.753 32.796C113.281 32.412 113.665 31.86 113.905 31.14H109.999V28.872H116.695V31.734C116.467 32.502 116.077 33.216 115.525 33.876C114.985 34.536 114.295 35.07 113.455 35.478C112.615 35.886 111.667 36.09 110.611 36.09C109.363 36.09 108.247 35.82 107.263 35.28C106.291 34.728 105.529 33.966 104.977 32.994C104.437 32.022 104.167 30.912 104.167 29.664C104.167 28.416 104.437 27.306 104.977 26.334C105.529 25.35 106.291 24.588 107.263 24.048C108.235 23.496 109.345 23.22 110.593 23.22C112.105 23.22 113.377 23.586 114.409 24.318C115.453 25.05 116.143 26.064 116.479 27.36H113.077ZM127.868 30.816C127.868 31.104 127.85 31.404 127.814 31.716H120.848C120.896 32.34 121.094 32.82 121.442 33.156C121.802 33.48 122.24 33.642 122.756 33.642C123.524 33.642 124.058 33.318 124.358 32.67H127.634C127.466 33.33 127.16 33.924 126.716 34.452C126.284 34.98 125.738 35.394 125.078 35.694C124.418 35.994 123.68 36.144 122.864 36.144C121.88 36.144 121.004 35.934 120.236 35.514C119.468 35.094 118.868 34.494 118.436 33.714C118.004 32.934 117.788 32.022 117.788 30.978C117.788 29.934 117.998 29.022 118.418 28.242C118.85 27.462 119.45 26.862 120.218 26.442C120.986 26.022 121.868 25.812 122.864 25.812C123.836 25.812 124.7 26.016 125.456 26.424C126.212 26.832 126.8 27.414 127.22 28.17C127.652 28.926 127.868 29.808 127.868 30.816ZM124.718 30.006C124.718 29.478 124.538 29.058 124.178 28.746C123.818 28.434 123.368 28.278 122.828 28.278C122.312 28.278 121.874 28.428 121.514 28.728C121.166 29.028 120.95 29.454 120.866 30.006H124.718ZM135.09 33.39V36H133.524C132.408 36 131.538 35.73 130.914 35.19C130.29 34.638 129.978 33.744 129.978 32.508V28.512H128.754V25.956H129.978V23.508H133.056V25.956H135.072V28.512H133.056V32.544C133.056 32.844 133.128 33.06 133.272 33.192C133.416 33.324 133.656 33.39 133.992 33.39H135.09ZM145.191 36.126C144.267 36.126 143.439 35.976 142.707 35.676C141.975 35.376 141.387 34.932 140.943 34.344C140.511 33.756 140.283 33.048 140.259 32.22H143.535C143.583 32.688 143.745 33.048 144.021 33.3C144.297 33.54 144.657 33.66 145.101 33.66C145.557 33.66 145.917 33.558 146.181 33.354C146.445 33.138 146.577 32.844 146.577 32.472C146.577 32.16 146.469 31.902 146.253 31.698C146.049 31.494 145.791 31.326 145.479 31.194C145.179 31.062 144.747 30.912 144.183 30.744C143.367 30.492 142.701 30.24 142.185 29.988C141.669 29.736 141.225 29.364 140.853 28.872C140.481 28.38 140.295 27.738 140.295 26.946C140.295 25.77 140.721 24.852 141.573 24.192C142.425 23.52 143.535 23.184 144.903 23.184C146.295 23.184 147.417 23.52 148.269 24.192C149.121 24.852 149.577 25.776 149.637 26.964H146.307C146.283 26.556 146.133 26.238 145.857 26.01C145.581 25.77 145.227 25.65 144.795 25.65C144.423 25.65 144.123 25.752 143.895 25.956C143.667 26.148 143.553 26.43 143.553 26.802C143.553 27.21 143.745 27.528 144.129 27.756C144.513 27.984 145.113 28.23 145.929 28.494C146.745 28.77 147.405 29.034 147.909 29.286C148.425 29.538 148.869 29.904 149.241 30.384C149.613 30.864 149.799 31.482 149.799 32.238C149.799 32.958 149.613 33.612 149.241 34.2C148.881 34.788 148.353 35.256 147.657 35.604C146.961 35.952 146.139 36.126 145.191 36.126ZM157.291 33.39V36H155.725C154.609 36 153.739 35.73 153.115 35.19C152.491 34.638 152.179 33.744 152.179 32.508V28.512H150.955V25.956H152.179V23.508H155.257V25.956H157.273V28.512H155.257V32.544C155.257 32.844 155.329 33.06 155.473 33.192C155.617 33.324 155.857 33.39 156.193 33.39H157.291ZM158.394 30.96C158.394 29.928 158.586 29.022 158.97 28.242C159.366 27.462 159.9 26.862 160.572 26.442C161.244 26.022 161.994 25.812 162.822 25.812C163.53 25.812 164.148 25.956 164.676 26.244C165.216 26.532 165.63 26.91 165.918 27.378V25.956H168.996V36H165.918V34.578C165.618 35.046 165.198 35.424 164.658 35.712C164.13 36 163.512 36.144 162.804 36.144C161.988 36.144 161.244 35.934 160.572 35.514C159.9 35.082 159.366 34.476 158.97 33.696C158.586 32.904 158.394 31.992 158.394 30.96ZM165.918 30.978C165.918 30.21 165.702 29.604 165.27 29.16C164.85 28.716 164.334 28.494 163.722 28.494C163.11 28.494 162.588 28.716 162.156 29.16C161.736 29.592 161.526 30.192 161.526 30.96C161.526 31.728 161.736 32.34 162.156 32.796C162.588 33.24 163.11 33.462 163.722 33.462C164.334 33.462 164.85 33.24 165.27 32.796C165.702 32.352 165.918 31.746 165.918 30.978ZM174.3 27.63C174.66 27.078 175.11 26.646 175.65 26.334C176.19 26.01 176.79 25.848 177.45 25.848V29.106H176.604C175.836 29.106 175.26 29.274 174.876 29.61C174.492 29.934 174.3 30.51 174.3 31.338V36H171.222V25.956H174.3V27.63ZM184.52 33.39V36H182.954C181.838 36 180.968 35.73 180.344 35.19C179.72 34.638 179.408 33.744 179.408 32.508V28.512H178.184V25.956H179.408V23.508H182.486V25.956H184.502V28.512H182.486V32.544C182.486 32.844 182.558 33.06 182.702 33.192C182.846 33.324 183.086 33.39 183.422 33.39H184.52ZM195.702 30.816C195.702 31.104 195.684 31.404 195.648 31.716H188.682C188.73 32.34 188.928 32.82 189.276 33.156C189.636 33.48 190.074 33.642 190.59 33.642C191.358 33.642 191.892 33.318 192.192 32.67H195.468C195.3 33.33 194.994 33.924 194.55 34.452C194.118 34.98 193.572 35.394 192.912 35.694C192.252 35.994 191.514 36.144 190.698 36.144C189.714 36.144 188.838 35.934 188.07 35.514C187.302 35.094 186.702 34.494 186.27 33.714C185.838 32.934 185.622 32.022 185.622 30.978C185.622 29.934 185.832 29.022 186.252 28.242C186.684 27.462 187.284 26.862 188.052 26.442C188.82 26.022 189.702 25.812 190.698 25.812C191.67 25.812 192.534 26.016 193.29 26.424C194.046 26.832 194.634 27.414 195.054 28.17C195.486 28.926 195.702 29.808 195.702 30.816ZM192.552 30.006C192.552 29.478 192.372 29.058 192.012 28.746C191.652 28.434 191.202 28.278 190.662 28.278C190.146 28.278 189.708 28.428 189.348 28.728C189 29.028 188.784 29.454 188.7 30.006H192.552ZM196.714 30.96C196.714 29.928 196.906 29.022 197.29 28.242C197.686 27.462 198.22 26.862 198.892 26.442C199.564 26.022 200.314 25.812 201.142 25.812C201.802 25.812 202.402 25.95 202.942 26.226C203.494 26.502 203.926 26.874 204.238 27.342V22.68H207.316V36H204.238V34.56C203.95 35.04 203.536 35.424 202.996 35.712C202.468 36 201.85 36.144 201.142 36.144C200.314 36.144 199.564 35.934 198.892 35.514C198.22 35.082 197.686 34.476 197.29 33.696C196.906 32.904 196.714 31.992 196.714 30.96ZM204.238 30.978C204.238 30.21 204.022 29.604 203.59 29.16C203.17 28.716 202.654 28.494 202.042 28.494C201.43 28.494 200.908 28.716 200.476 29.16C200.056 29.592 199.846 30.192 199.846 30.96C199.846 31.728 200.056 32.34 200.476 32.796C200.908 33.24 201.43 33.462 202.042 33.462C202.654 33.462 203.17 33.24 203.59 32.796C204.022 32.352 204.238 31.746 204.238 30.978Z" fill="#005FF6"/>
<defs>
<filter id="filter0_d_427_2" x="0" y="0" width="312" height="68" filterUnits="userSpaceOnUse" color-interpolation-filters="sRGB">
<feFlood flood-opacity="0" result="BackgroundImageFix"/>
<feColorMatrix in="SourceAlpha" type="matrix" values="0 0 0 0 0 0 0 0 0 0 0 0 0 0 0 0 0 0 127 0" result="hardAlpha"/>
<feOffset dy="4"/>
<feGaussianBlur stdDeviation="2"/>
<feComposite in2="hardAlpha" operator="out"/>
<feColorMatrix type="matrix" values="0 0 0 0 0 0 0 0 0 0 0 0 0 0 0 0 0 0 0.25 0"/>
<feBlend mode="normal" in2="BackgroundImageFix" result="effect1_dropShadow_427_2"/>
<feBlend mode="normal" in="SourceGraphic" in2="effect1_dropShadow_427_2" result="shape"/>
</filter>
</defs>
</svg>
