<svg width="273" height="17" viewBox="0 0 273 17" fill="none" xmlns="http://www.w3.org/2000/svg">
<path d="M1.374 2.655V6.15H5.184V7.275H1.374V10.875H5.634V12H0.00900401V1.53H5.634V2.655H1.374ZM11.7044 3.63C12.7044 3.63 13.5144 3.935 14.1344 4.545C14.7544 5.145 15.0644 6.015 15.0644 7.155V12H13.7144V7.35C13.7144 6.53 13.5094 5.905 13.0994 5.475C12.6894 5.035 12.1294 4.815 11.4194 4.815C10.6994 4.815 10.1244 5.04 9.69443 5.49C9.27443 5.94 9.06443 6.595 9.06443 7.455V12H7.69943V3.78H9.06443V4.95C9.33443 4.53 9.69943 4.205 10.1594 3.975C10.6294 3.745 11.1444 3.63 11.7044 3.63ZM18.9592 4.905V9.75C18.9592 10.15 19.0442 10.435 19.2142 10.605C19.3842 10.765 19.6792 10.845 20.0992 10.845H21.1042V12H19.8742C19.1142 12 18.5442 11.825 18.1642 11.475C17.7842 11.125 17.5942 10.55 17.5942 9.75V4.905H16.5292V3.78H17.5942V1.71H18.9592V3.78H21.1042V4.905H18.9592ZM30.258 7.575C30.258 7.835 30.243 8.11 30.213 8.4H23.643C23.693 9.21 23.968 9.845 24.468 10.305C24.978 10.755 25.593 10.98 26.313 10.98C26.903 10.98 27.393 10.845 27.783 10.575C28.183 10.295 28.463 9.925 28.623 9.465H30.093C29.873 10.255 29.433 10.9 28.773 11.4C28.113 11.89 27.293 12.135 26.313 12.135C25.533 12.135 24.833 11.96 24.213 11.61C23.603 11.26 23.123 10.765 22.773 10.125C22.423 9.475 22.248 8.725 22.248 7.875C22.248 7.025 22.418 6.28 22.758 5.64C23.098 5 23.573 4.51 24.183 4.17C24.803 3.82 25.513 3.645 26.313 3.645C27.093 3.645 27.783 3.815 28.383 4.155C28.983 4.495 29.443 4.965 29.763 5.565C30.093 6.155 30.258 6.825 30.258 7.575ZM28.848 7.29C28.848 6.77 28.733 6.325 28.503 5.955C28.273 5.575 27.958 5.29 27.558 5.1C27.168 4.9 26.733 4.8 26.253 4.8C25.563 4.8 24.973 5.02 24.483 5.46C24.003 5.9 23.728 6.51 23.658 7.29H28.848ZM33.4248 5.115C33.6648 4.645 34.0048 4.28 34.4448 4.02C34.8948 3.76 35.4398 3.63 36.0798 3.63V5.04H35.7198C34.1898 5.04 33.4248 5.87 33.4248 7.53V12H32.0598V3.78H33.4248V5.115ZM48.7345 3.78L43.7845 15.87H42.3745L43.9945 11.91L40.6795 3.78H42.1945L44.7745 10.44L47.3245 3.78H48.7345ZM53.6917 12.135C52.9217 12.135 52.2217 11.96 51.5917 11.61C50.9717 11.26 50.4817 10.765 50.1217 10.125C49.7717 9.475 49.5967 8.725 49.5967 7.875C49.5967 7.035 49.7767 6.295 50.1367 5.655C50.5067 5.005 51.0067 4.51 51.6367 4.17C52.2667 3.82 52.9717 3.645 53.7517 3.645C54.5317 3.645 55.2367 3.82 55.8667 4.17C56.4967 4.51 56.9917 5 57.3517 5.64C57.7217 6.28 57.9067 7.025 57.9067 7.875C57.9067 8.725 57.7167 9.475 57.3367 10.125C56.9667 10.765 56.4617 11.26 55.8217 11.61C55.1817 11.96 54.4717 12.135 53.6917 12.135ZM53.6917 10.935C54.1817 10.935 54.6417 10.82 55.0717 10.59C55.5017 10.36 55.8467 10.015 56.1067 9.555C56.3767 9.095 56.5117 8.535 56.5117 7.875C56.5117 7.215 56.3817 6.655 56.1217 6.195C55.8617 5.735 55.5217 5.395 55.1017 5.175C54.6817 4.945 54.2267 4.83 53.7367 4.83C53.2367 4.83 52.7767 4.945 52.3567 5.175C51.9467 5.395 51.6167 5.735 51.3667 6.195C51.1167 6.655 50.9917 7.215 50.9917 7.875C50.9917 8.545 51.1117 9.11 51.3517 9.57C51.6017 10.03 51.9317 10.375 52.3417 10.605C52.7517 10.825 53.2017 10.935 53.6917 10.935ZM66.9914 3.78V12H65.6264V10.785C65.3664 11.205 65.0014 11.535 64.5314 11.775C64.0714 12.005 63.5614 12.12 63.0014 12.12C62.3614 12.12 61.7864 11.99 61.2764 11.73C60.7664 11.46 60.3614 11.06 60.0614 10.53C59.7714 10 59.6264 9.355 59.6264 8.595V3.78H60.9764V8.415C60.9764 9.225 61.1814 9.85 61.5914 10.29C62.0014 10.72 62.5614 10.935 63.2714 10.935C64.0014 10.935 64.5764 10.71 64.9964 10.26C65.4164 9.81 65.6264 9.155 65.6264 8.295V3.78H66.9914ZM70.6611 5.115C70.9011 4.645 71.2411 4.28 71.6811 4.02C72.1311 3.76 72.6761 3.63 73.3161 3.63V5.04H72.9561C71.4261 5.04 70.6611 5.87 70.6611 7.53V12H69.2961V3.78H70.6611V5.115ZM86.3908 7.575C86.3908 7.835 86.3758 8.11 86.3458 8.4H79.7758C79.8258 9.21 80.1008 9.845 80.6008 10.305C81.1108 10.755 81.7258 10.98 82.4458 10.98C83.0358 10.98 83.5258 10.845 83.9158 10.575C84.3158 10.295 84.5958 9.925 84.7558 9.465H86.2258C86.0058 10.255 85.5658 10.9 84.9058 11.4C84.2458 11.89 83.4258 12.135 82.4458 12.135C81.6658 12.135 80.9658 11.96 80.3458 11.61C79.7358 11.26 79.2558 10.765 78.9058 10.125C78.5558 9.475 78.3808 8.725 78.3808 7.875C78.3808 7.025 78.5508 6.28 78.8908 5.64C79.2308 5 79.7058 4.51 80.3158 4.17C80.9358 3.82 81.6458 3.645 82.4458 3.645C83.2258 3.645 83.9158 3.815 84.5158 4.155C85.1158 4.495 85.5758 4.965 85.8958 5.565C86.2258 6.155 86.3908 6.825 86.3908 7.575ZM84.9808 7.29C84.9808 6.77 84.8658 6.325 84.6358 5.955C84.4058 5.575 84.0908 5.29 83.6908 5.1C83.3008 4.9 82.8658 4.8 82.3858 4.8C81.6958 4.8 81.1058 5.02 80.6158 5.46C80.1358 5.9 79.8608 6.51 79.7908 7.29H84.9808ZM98.0776 3.63C98.7176 3.63 99.2876 3.765 99.7876 4.035C100.288 4.295 100.683 4.69 100.973 5.22C101.263 5.75 101.408 6.395 101.408 7.155V12H100.058V7.35C100.058 6.53 99.8526 5.905 99.4426 5.475C99.0426 5.035 98.4976 4.815 97.8076 4.815C97.0976 4.815 96.5326 5.045 96.1126 5.505C95.6926 5.955 95.4826 6.61 95.4826 7.47V12H94.1326V7.35C94.1326 6.53 93.9276 5.905 93.5176 5.475C93.1176 5.035 92.5726 4.815 91.8826 4.815C91.1726 4.815 90.6076 5.045 90.1876 5.505C89.7676 5.955 89.5576 6.61 89.5576 7.47V12H88.1926V3.78H89.5576V4.965C89.8276 4.535 90.1876 4.205 90.6376 3.975C91.0976 3.745 91.6026 3.63 92.1526 3.63C92.8426 3.63 93.4526 3.785 93.9826 4.095C94.5126 4.405 94.9076 4.86 95.1676 5.46C95.3976 4.88 95.7776 4.43 96.3076 4.11C96.8376 3.79 97.4276 3.63 98.0776 3.63ZM103.137 7.86C103.137 7.02 103.307 6.285 103.647 5.655C103.987 5.015 104.452 4.52 105.042 4.17C105.642 3.82 106.307 3.645 107.037 3.645C107.757 3.645 108.382 3.8 108.912 4.11C109.442 4.42 109.837 4.81 110.097 5.28V3.78H111.477V12H110.097V10.47C109.827 10.95 109.422 11.35 108.882 11.67C108.352 11.98 107.732 12.135 107.022 12.135C106.292 12.135 105.632 11.955 105.042 11.595C104.452 11.235 103.987 10.73 103.647 10.08C103.307 9.43 103.137 8.69 103.137 7.86ZM110.097 7.875C110.097 7.255 109.972 6.715 109.722 6.255C109.472 5.795 109.132 5.445 108.702 5.205C108.282 4.955 107.817 4.83 107.307 4.83C106.797 4.83 106.332 4.95 105.912 5.19C105.492 5.43 105.157 5.78 104.907 6.24C104.657 6.7 104.532 7.24 104.532 7.86C104.532 8.49 104.657 9.04 104.907 9.51C105.157 9.97 105.492 10.325 105.912 10.575C106.332 10.815 106.797 10.935 107.307 10.935C107.817 10.935 108.282 10.815 108.702 10.575C109.132 10.325 109.472 9.97 109.722 9.51C109.972 9.04 110.097 8.495 110.097 7.875ZM114.488 2.445C114.228 2.445 114.008 2.355 113.828 2.175C113.648 1.995 113.558 1.775 113.558 1.515C113.558 1.255 113.648 1.035 113.828 0.855C114.008 0.674999 114.228 0.584999 114.488 0.584999C114.738 0.584999 114.948 0.674999 115.118 0.855C115.298 1.035 115.388 1.255 115.388 1.515C115.388 1.775 115.298 1.995 115.118 2.175C114.948 2.355 114.738 2.445 114.488 2.445ZM115.148 3.78V12H113.783V3.78H115.148ZM118.84 0.9V12H117.475V0.9H118.84ZM129.245 3.63C129.865 3.63 130.425 3.765 130.925 4.035C131.425 4.295 131.815 4.69 132.095 5.22C132.385 5.75 132.53 6.395 132.53 7.155V12H131.18V7.35C131.18 6.53 130.975 5.905 130.565 5.475C130.155 5.035 129.595 4.815 128.885 4.815C128.165 4.815 127.59 5.04 127.16 5.49C126.74 5.94 126.53 6.595 126.53 7.455V12H125.165V0.9H126.53V4.95C126.8 4.53 127.17 4.205 127.64 3.975C128.12 3.745 128.655 3.63 129.245 3.63ZM142.26 7.575C142.26 7.835 142.245 8.11 142.215 8.4H135.645C135.695 9.21 135.97 9.845 136.47 10.305C136.98 10.755 137.595 10.98 138.315 10.98C138.905 10.98 139.395 10.845 139.785 10.575C140.185 10.295 140.465 9.925 140.625 9.465H142.095C141.875 10.255 141.435 10.9 140.775 11.4C140.115 11.89 139.295 12.135 138.315 12.135C137.535 12.135 136.835 11.96 136.215 11.61C135.605 11.26 135.125 10.765 134.775 10.125C134.425 9.475 134.25 8.725 134.25 7.875C134.25 7.025 134.42 6.28 134.76 5.64C135.1 5 135.575 4.51 136.185 4.17C136.805 3.82 137.515 3.645 138.315 3.645C139.095 3.645 139.785 3.815 140.385 4.155C140.985 4.495 141.445 4.965 141.765 5.565C142.095 6.155 142.26 6.825 142.26 7.575ZM140.85 7.29C140.85 6.77 140.735 6.325 140.505 5.955C140.275 5.575 139.96 5.29 139.56 5.1C139.17 4.9 138.735 4.8 138.255 4.8C137.565 4.8 136.975 5.02 136.485 5.46C136.005 5.9 135.73 6.51 135.66 7.29H140.85ZM145.427 5.115C145.667 4.645 146.007 4.28 146.447 4.02C146.897 3.76 147.442 3.63 148.082 3.63V5.04H147.722C146.192 5.04 145.427 5.87 145.427 7.53V12H144.062V3.78H145.427V5.115ZM157.157 7.575C157.157 7.835 157.142 8.11 157.112 8.4H150.542C150.592 9.21 150.867 9.845 151.367 10.305C151.877 10.755 152.492 10.98 153.212 10.98C153.802 10.98 154.292 10.845 154.682 10.575C155.082 10.295 155.362 9.925 155.522 9.465H156.992C156.772 10.255 156.332 10.9 155.672 11.4C155.012 11.89 154.192 12.135 153.212 12.135C152.432 12.135 151.732 11.96 151.112 11.61C150.502 11.26 150.022 10.765 149.672 10.125C149.322 9.475 149.147 8.725 149.147 7.875C149.147 7.025 149.317 6.28 149.657 5.64C149.997 5 150.472 4.51 151.082 4.17C151.702 3.82 152.412 3.645 153.212 3.645C153.992 3.645 154.682 3.815 155.282 4.155C155.882 4.495 156.342 4.965 156.662 5.565C156.992 6.155 157.157 6.825 157.157 7.575ZM155.747 7.29C155.747 6.77 155.632 6.325 155.402 5.955C155.172 5.575 154.857 5.29 154.457 5.1C154.067 4.9 153.632 4.8 153.152 4.8C152.462 4.8 151.872 5.02 151.382 5.46C150.902 5.9 150.627 6.51 150.557 7.29H155.747ZM164.623 4.905V9.75C164.623 10.15 164.708 10.435 164.878 10.605C165.048 10.765 165.343 10.845 165.763 10.845H166.768V12H165.538C164.778 12 164.208 11.825 163.828 11.475C163.448 11.125 163.258 10.55 163.258 9.75V4.905H162.193V3.78H163.258V1.71H164.623V3.78H166.768V4.905H164.623ZM172.007 12.135C171.237 12.135 170.537 11.96 169.907 11.61C169.287 11.26 168.797 10.765 168.437 10.125C168.087 9.475 167.912 8.725 167.912 7.875C167.912 7.035 168.092 6.295 168.452 5.655C168.822 5.005 169.322 4.51 169.952 4.17C170.582 3.82 171.287 3.645 172.067 3.645C172.847 3.645 173.552 3.82 174.182 4.17C174.812 4.51 175.307 5 175.667 5.64C176.037 6.28 176.222 7.025 176.222 7.875C176.222 8.725 176.032 9.475 175.652 10.125C175.282 10.765 174.777 11.26 174.137 11.61C173.497 11.96 172.787 12.135 172.007 12.135ZM172.007 10.935C172.497 10.935 172.957 10.82 173.387 10.59C173.817 10.36 174.162 10.015 174.422 9.555C174.692 9.095 174.827 8.535 174.827 7.875C174.827 7.215 174.697 6.655 174.437 6.195C174.177 5.735 173.837 5.395 173.417 5.175C172.997 4.945 172.542 4.83 172.052 4.83C171.552 4.83 171.092 4.945 170.672 5.175C170.262 5.395 169.932 5.735 169.682 6.195C169.432 6.655 169.307 7.215 169.307 7.875C169.307 8.545 169.427 9.11 169.667 9.57C169.917 10.03 170.247 10.375 170.657 10.605C171.067 10.825 171.517 10.935 172.007 10.935ZM185.406 3.645C186.116 3.645 186.736 3.8 187.266 4.11C187.806 4.42 188.206 4.81 188.466 5.28V3.78H189.846V12.18C189.846 12.93 189.686 13.595 189.366 14.175C189.046 14.765 188.586 15.225 187.986 15.555C187.396 15.885 186.706 16.05 185.916 16.05C184.836 16.05 183.936 15.795 183.216 15.285C182.496 14.775 182.071 14.08 181.941 13.2H183.291C183.441 13.7 183.751 14.1 184.221 14.4C184.691 14.71 185.256 14.865 185.916 14.865C186.666 14.865 187.276 14.63 187.746 14.16C188.226 13.69 188.466 13.03 188.466 12.18V10.455C188.196 10.935 187.796 11.335 187.266 11.655C186.736 11.975 186.116 12.135 185.406 12.135C184.676 12.135 184.011 11.955 183.411 11.595C182.821 11.235 182.356 10.73 182.016 10.08C181.676 9.43 181.506 8.69 181.506 7.86C181.506 7.02 181.676 6.285 182.016 5.655C182.356 5.015 182.821 4.52 183.411 4.17C184.011 3.82 184.676 3.645 185.406 3.645ZM188.466 7.875C188.466 7.255 188.341 6.715 188.091 6.255C187.841 5.795 187.501 5.445 187.071 5.205C186.651 4.955 186.186 4.83 185.676 4.83C185.166 4.83 184.701 4.95 184.281 5.19C183.861 5.43 183.526 5.78 183.276 6.24C183.026 6.7 182.901 7.24 182.901 7.86C182.901 8.49 183.026 9.04 183.276 9.51C183.526 9.97 183.861 10.325 184.281 10.575C184.701 10.815 185.166 10.935 185.676 10.935C186.186 10.935 186.651 10.815 187.071 10.575C187.501 10.325 187.841 9.97 188.091 9.51C188.341 9.04 188.466 8.495 188.466 7.875ZM199.653 7.575C199.653 7.835 199.638 8.11 199.608 8.4H193.038C193.088 9.21 193.363 9.845 193.863 10.305C194.373 10.755 194.988 10.98 195.708 10.98C196.298 10.98 196.788 10.845 197.178 10.575C197.578 10.295 197.858 9.925 198.018 9.465H199.488C199.268 10.255 198.828 10.9 198.168 11.4C197.508 11.89 196.688 12.135 195.708 12.135C194.928 12.135 194.228 11.96 193.608 11.61C192.998 11.26 192.518 10.765 192.168 10.125C191.818 9.475 191.643 8.725 191.643 7.875C191.643 7.025 191.813 6.28 192.153 5.64C192.493 5 192.968 4.51 193.578 4.17C194.198 3.82 194.908 3.645 195.708 3.645C196.488 3.645 197.178 3.815 197.778 4.155C198.378 4.495 198.838 4.965 199.158 5.565C199.488 6.155 199.653 6.825 199.653 7.575ZM198.243 7.29C198.243 6.77 198.128 6.325 197.898 5.955C197.668 5.575 197.353 5.29 196.953 5.1C196.563 4.9 196.128 4.8 195.648 4.8C194.958 4.8 194.368 5.02 193.878 5.46C193.398 5.9 193.123 6.51 193.053 7.29H198.243ZM203.119 4.905V9.75C203.119 10.15 203.204 10.435 203.374 10.605C203.544 10.765 203.839 10.845 204.259 10.845H205.264V12H204.034C203.274 12 202.704 11.825 202.324 11.475C201.944 11.125 201.754 10.55 201.754 9.75V4.905H200.689V3.78H201.754V1.71H203.119V3.78H205.264V4.905H203.119ZM213.827 12.135C213.197 12.135 212.632 12.03 212.132 11.82C211.632 11.6 211.237 11.3 210.947 10.92C210.657 10.53 210.497 10.085 210.467 9.585H211.877C211.917 9.995 212.107 10.33 212.447 10.59C212.797 10.85 213.252 10.98 213.812 10.98C214.332 10.98 214.742 10.865 215.042 10.635C215.342 10.405 215.492 10.115 215.492 9.765C215.492 9.405 215.332 9.14 215.012 8.97C214.692 8.79 214.197 8.615 213.527 8.445C212.917 8.285 212.417 8.125 212.027 7.965C211.647 7.795 211.317 7.55 211.037 7.23C210.767 6.9 210.632 6.47 210.632 5.94C210.632 5.52 210.757 5.135 211.007 4.785C211.257 4.435 211.612 4.16 212.072 3.96C212.532 3.75 213.057 3.645 213.647 3.645C214.557 3.645 215.292 3.875 215.852 4.335C216.412 4.795 216.712 5.425 216.752 6.225H215.387C215.357 5.795 215.182 5.45 214.862 5.19C214.552 4.93 214.132 4.8 213.602 4.8C213.112 4.8 212.722 4.905 212.432 5.115C212.142 5.325 211.997 5.6 211.997 5.94C211.997 6.21 212.082 6.435 212.252 6.615C212.432 6.785 212.652 6.925 212.912 7.035C213.182 7.135 213.552 7.25 214.022 7.38C214.612 7.54 215.092 7.7 215.462 7.86C215.832 8.01 216.147 8.24 216.407 8.55C216.677 8.86 216.817 9.265 216.827 9.765C216.827 10.215 216.702 10.62 216.452 10.98C216.202 11.34 215.847 11.625 215.387 11.835C214.937 12.035 214.417 12.135 213.827 12.135ZM220.419 4.905V9.75C220.419 10.15 220.504 10.435 220.674 10.605C220.844 10.765 221.139 10.845 221.559 10.845H222.564V12H221.334C220.574 12 220.004 11.825 219.624 11.475C219.244 11.125 219.054 10.55 219.054 9.75V4.905H217.989V3.78H219.054V1.71H220.419V3.78H222.564V4.905H220.419ZM223.708 7.86C223.708 7.02 223.878 6.285 224.218 5.655C224.558 5.015 225.023 4.52 225.613 4.17C226.213 3.82 226.878 3.645 227.608 3.645C228.328 3.645 228.953 3.8 229.483 4.11C230.013 4.42 230.408 4.81 230.668 5.28V3.78H232.048V12H230.668V10.47C230.398 10.95 229.993 11.35 229.453 11.67C228.923 11.98 228.303 12.135 227.593 12.135C226.863 12.135 226.203 11.955 225.613 11.595C225.023 11.235 224.558 10.73 224.218 10.08C223.878 9.43 223.708 8.69 223.708 7.86ZM230.668 7.875C230.668 7.255 230.543 6.715 230.293 6.255C230.043 5.795 229.703 5.445 229.273 5.205C228.853 4.955 228.388 4.83 227.878 4.83C227.368 4.83 226.903 4.95 226.483 5.19C226.063 5.43 225.728 5.78 225.478 6.24C225.228 6.7 225.103 7.24 225.103 7.86C225.103 8.49 225.228 9.04 225.478 9.51C225.728 9.97 226.063 10.325 226.483 10.575C226.903 10.815 227.368 10.935 227.878 10.935C228.388 10.935 228.853 10.815 229.273 10.575C229.703 10.325 230.043 9.97 230.293 9.51C230.543 9.04 230.668 8.495 230.668 7.875ZM235.72 5.115C235.96 4.645 236.3 4.28 236.74 4.02C237.19 3.76 237.735 3.63 238.375 3.63V5.04H238.015C236.485 5.04 235.72 5.87 235.72 7.53V12H234.355V3.78H235.72V5.115ZM241.615 4.905V9.75C241.615 10.15 241.7 10.435 241.87 10.605C242.04 10.765 242.335 10.845 242.755 10.845H243.76V12H242.53C241.77 12 241.2 11.825 240.82 11.475C240.44 11.125 240.25 10.55 240.25 9.75V4.905H239.185V3.78H240.25V1.71H241.615V3.78H243.76V4.905H241.615ZM252.914 7.575C252.914 7.835 252.899 8.11 252.869 8.4H246.299C246.349 9.21 246.624 9.845 247.124 10.305C247.634 10.755 248.249 10.98 248.969 10.98C249.559 10.98 250.049 10.845 250.439 10.575C250.839 10.295 251.119 9.925 251.279 9.465H252.749C252.529 10.255 252.089 10.9 251.429 11.4C250.769 11.89 249.949 12.135 248.969 12.135C248.189 12.135 247.489 11.96 246.869 11.61C246.259 11.26 245.779 10.765 245.429 10.125C245.079 9.475 244.904 8.725 244.904 7.875C244.904 7.025 245.074 6.28 245.414 5.64C245.754 5 246.229 4.51 246.839 4.17C247.459 3.82 248.169 3.645 248.969 3.645C249.749 3.645 250.439 3.815 251.039 4.155C251.639 4.495 252.099 4.965 252.419 5.565C252.749 6.155 252.914 6.825 252.914 7.575ZM251.504 7.29C251.504 6.77 251.389 6.325 251.159 5.955C250.929 5.575 250.614 5.29 250.214 5.1C249.824 4.9 249.389 4.8 248.909 4.8C248.219 4.8 247.629 5.02 247.139 5.46C246.659 5.9 246.384 6.51 246.314 7.29H251.504ZM254.206 7.86C254.206 7.02 254.376 6.285 254.716 5.655C255.056 5.015 255.521 4.52 256.111 4.17C256.711 3.82 257.381 3.645 258.121 3.645C258.761 3.645 259.356 3.795 259.906 4.095C260.456 4.385 260.876 4.77 261.166 5.25V0.9H262.546V12H261.166V10.455C260.896 10.945 260.496 11.35 259.966 11.67C259.436 11.98 258.816 12.135 258.106 12.135C257.376 12.135 256.711 11.955 256.111 11.595C255.521 11.235 255.056 10.73 254.716 10.08C254.376 9.43 254.206 8.69 254.206 7.86ZM261.166 7.875C261.166 7.255 261.041 6.715 260.791 6.255C260.541 5.795 260.201 5.445 259.771 5.205C259.351 4.955 258.886 4.83 258.376 4.83C257.866 4.83 257.401 4.95 256.981 5.19C256.561 5.43 256.226 5.78 255.976 6.24C255.726 6.7 255.601 7.24 255.601 7.86C255.601 8.49 255.726 9.04 255.976 9.51C256.226 9.97 256.561 10.325 256.981 10.575C257.401 10.815 257.866 10.935 258.376 10.935C258.886 10.935 259.351 10.815 259.771 10.575C260.201 10.325 260.541 9.97 260.791 9.51C261.041 9.04 261.166 8.495 261.166 7.875ZM265.288 12.09C265.028 12.09 264.808 12 264.628 11.82C264.448 11.64 264.358 11.42 264.358 11.16C264.358 10.9 264.448 10.68 264.628 10.5C264.808 10.32 265.028 10.23 265.288 10.23C265.538 10.23 265.748 10.32 265.918 10.5C266.098 10.68 266.188 10.9 266.188 11.16C266.188 11.42 266.098 11.64 265.918 11.82C265.748 12 265.538 12.09 265.288 12.09ZM268.437 12.09C268.177 12.09 267.957 12 267.777 11.82C267.597 11.64 267.507 11.42 267.507 11.16C267.507 10.9 267.597 10.68 267.777 10.5C267.957 10.32 268.177 10.23 268.437 10.23C268.687 10.23 268.897 10.32 269.067 10.5C269.247 10.68 269.337 10.9 269.337 11.16C269.337 11.42 269.247 11.64 269.067 11.82C268.897 12 268.687 12.09 268.437 12.09ZM271.587 12.09C271.327 12.09 271.107 12 270.927 11.82C270.747 11.64 270.657 11.42 270.657 11.16C270.657 10.9 270.747 10.68 270.927 10.5C271.107 10.32 271.327 10.23 271.587 10.23C271.837 10.23 272.047 10.32 272.217 10.5C272.397 10.68 272.487 10.9 272.487 11.16C272.487 11.42 272.397 11.64 272.217 11.82C272.047 12 271.837 12.09 271.587 12.09Z" fill="#2B232F"/>
</svg>
