<svg width="846" height="646" viewBox="0 0 846 646" fill="none" xmlns="http://www.w3.org/2000/svg">
<g filter="url(#filter0_d_507_2)">
<rect x="435" y="205" width="407" height="433" rx="10" fill="#F5F5F5"/>
</g>
<path d="M482.802 270.45V273.875H478.152V288H473.877V273.875H469.227V270.45H482.802ZM493.522 273.9C495.122 273.9 496.406 274.433 497.372 275.5C498.339 276.55 498.822 278 498.822 279.85V288H494.572V280.425C494.572 279.492 494.331 278.767 493.847 278.25C493.364 277.733 492.714 277.475 491.897 277.475C491.081 277.475 490.431 277.733 489.947 278.25C489.464 278.767 489.222 279.492 489.222 280.425V288H484.947V269.5H489.222V275.925C489.656 275.308 490.247 274.817 490.997 274.45C491.747 274.083 492.589 273.9 493.522 273.9ZM500.943 281C500.943 279.567 501.21 278.308 501.743 277.225C502.293 276.142 503.035 275.308 503.968 274.725C504.901 274.142 505.943 273.85 507.093 273.85C508.076 273.85 508.935 274.05 509.668 274.45C510.418 274.85 510.993 275.375 511.393 276.025V274.05H515.668V288H511.393V286.025C510.976 286.675 510.393 287.2 509.643 287.6C508.91 288 508.051 288.2 507.068 288.2C505.935 288.2 504.901 287.908 503.968 287.325C503.035 286.725 502.293 285.883 501.743 284.8C501.21 283.7 500.943 282.433 500.943 281ZM511.393 281.025C511.393 279.958 511.093 279.117 510.493 278.5C509.91 277.883 509.193 277.575 508.343 277.575C507.493 277.575 506.768 277.883 506.168 278.5C505.585 279.1 505.293 279.933 505.293 281C505.293 282.067 505.585 282.917 506.168 283.55C506.768 284.167 507.493 284.475 508.343 284.475C509.193 284.475 509.91 284.167 510.493 283.55C511.093 282.933 511.393 282.092 511.393 281.025ZM527.261 273.9C528.894 273.9 530.194 274.433 531.161 275.5C532.144 276.55 532.636 278 532.636 279.85V288H528.386V280.425C528.386 279.492 528.144 278.767 527.661 278.25C527.178 277.733 526.528 277.475 525.711 277.475C524.894 277.475 524.244 277.733 523.761 278.25C523.278 278.767 523.036 279.492 523.036 280.425V288H518.761V274.05H523.036V275.9C523.469 275.283 524.053 274.8 524.786 274.45C525.519 274.083 526.344 273.9 527.261 273.9ZM544.132 288L539.882 282.15V288H535.607V269.5H539.882V279.725L544.107 274.05H549.382L543.582 281.05L549.432 288H544.132ZM570.609 274.05L561.859 294.625H557.259L560.459 287.525L554.784 274.05H559.559L562.784 282.775L565.984 274.05H570.609ZM578.504 288.2C577.138 288.2 575.904 287.908 574.804 287.325C573.721 286.742 572.863 285.908 572.229 284.825C571.613 283.742 571.304 282.475 571.304 281.025C571.304 279.592 571.621 278.333 572.254 277.25C572.888 276.15 573.754 275.308 574.854 274.725C575.954 274.142 577.188 273.85 578.554 273.85C579.921 273.85 581.154 274.142 582.254 274.725C583.354 275.308 584.221 276.15 584.854 277.25C585.488 278.333 585.804 279.592 585.804 281.025C585.804 282.458 585.479 283.725 584.829 284.825C584.196 285.908 583.321 286.742 582.204 287.325C581.104 287.908 579.871 288.2 578.504 288.2ZM578.504 284.5C579.321 284.5 580.013 284.2 580.579 283.6C581.163 283 581.454 282.142 581.454 281.025C581.454 279.908 581.171 279.05 580.604 278.45C580.054 277.85 579.371 277.55 578.554 277.55C577.721 277.55 577.029 277.85 576.479 278.45C575.929 279.033 575.654 279.892 575.654 281.025C575.654 282.142 575.921 283 576.454 283.6C577.004 284.2 577.688 284.5 578.504 284.5ZM601.847 274.05V288H597.572V286.1C597.139 286.717 596.547 287.217 595.797 287.6C595.064 287.967 594.247 288.15 593.347 288.15C592.281 288.15 591.339 287.917 590.522 287.45C589.706 286.967 589.072 286.275 588.622 285.375C588.172 284.475 587.947 283.417 587.947 282.2V274.05H592.197V281.625C592.197 282.558 592.439 283.283 592.922 283.8C593.406 284.317 594.056 284.575 594.872 284.575C595.706 284.575 596.364 284.317 596.847 283.8C597.331 283.283 597.572 282.558 597.572 281.625V274.05H601.847ZM617.216 277.6H614.916V288H610.641V277.6H609.091V274.05H610.641V273.65C610.641 271.933 611.133 270.633 612.116 269.75C613.099 268.85 614.541 268.4 616.441 268.4C616.758 268.4 616.991 268.408 617.141 268.425V272.05C616.324 272 615.749 272.117 615.416 272.4C615.083 272.683 614.916 273.192 614.916 273.925V274.05H617.216V277.6ZM625.575 288.2C624.208 288.2 622.975 287.908 621.875 287.325C620.791 286.742 619.933 285.908 619.3 284.825C618.683 283.742 618.375 282.475 618.375 281.025C618.375 279.592 618.691 278.333 619.325 277.25C619.958 276.15 620.825 275.308 621.925 274.725C623.025 274.142 624.258 273.85 625.625 273.85C626.991 273.85 628.225 274.142 629.325 274.725C630.425 275.308 631.291 276.15 631.925 277.25C632.558 278.333 632.875 279.592 632.875 281.025C632.875 282.458 632.55 283.725 631.9 284.825C631.266 285.908 630.391 286.742 629.275 287.325C628.175 287.908 626.941 288.2 625.575 288.2ZM625.575 284.5C626.391 284.5 627.083 284.2 627.65 283.6C628.233 283 628.525 282.142 628.525 281.025C628.525 279.908 628.241 279.05 627.675 278.45C627.125 277.85 626.441 277.55 625.625 277.55C624.791 277.55 624.1 277.85 623.55 278.45C623 279.033 622.725 279.892 622.725 281.025C622.725 282.142 622.991 283 623.525 283.6C624.075 284.2 624.758 284.5 625.575 284.5ZM639.418 276.375C639.918 275.608 640.543 275.008 641.293 274.575C642.043 274.125 642.876 273.9 643.793 273.9V278.425H642.618C641.551 278.425 640.751 278.658 640.218 279.125C639.684 279.575 639.418 280.375 639.418 281.525V288H635.143V274.05H639.418V276.375ZM665.384 274.05L656.634 294.625H652.034L655.234 287.525L649.559 274.05H654.334L657.559 282.775L660.759 274.05H665.384ZM673.28 288.2C671.913 288.2 670.68 287.908 669.58 287.325C668.497 286.742 667.638 285.908 667.005 284.825C666.388 283.742 666.08 282.475 666.08 281.025C666.08 279.592 666.397 278.333 667.03 277.25C667.663 276.15 668.53 275.308 669.63 274.725C670.73 274.142 671.963 273.85 673.33 273.85C674.697 273.85 675.93 274.142 677.03 274.725C678.13 275.308 678.997 276.15 679.63 277.25C680.263 278.333 680.58 279.592 680.58 281.025C680.58 282.458 680.255 283.725 679.605 284.825C678.972 285.908 678.097 286.742 676.98 287.325C675.88 287.908 674.647 288.2 673.28 288.2ZM673.28 284.5C674.097 284.5 674.788 284.2 675.355 283.6C675.938 283 676.23 282.142 676.23 281.025C676.23 279.908 675.947 279.05 675.38 278.45C674.83 277.85 674.147 277.55 673.33 277.55C672.497 277.55 671.805 277.85 671.255 278.45C670.705 279.033 670.43 279.892 670.43 281.025C670.43 282.142 670.697 283 671.23 283.6C671.78 284.2 672.463 284.5 673.28 284.5ZM696.623 274.05V288H692.348V286.1C691.915 286.717 691.323 287.217 690.573 287.6C689.84 287.967 689.023 288.15 688.123 288.15C687.056 288.15 686.115 287.917 685.298 287.45C684.481 286.967 683.848 286.275 683.398 285.375C682.948 284.475 682.723 283.417 682.723 282.2V274.05H686.973V281.625C686.973 282.558 687.215 283.283 687.698 283.8C688.181 284.317 688.831 284.575 689.648 284.575C690.481 284.575 691.14 284.317 691.623 283.8C692.106 283.283 692.348 282.558 692.348 281.625V274.05H696.623ZM703.969 276.375C704.469 275.608 705.094 275.008 705.844 274.575C706.594 274.125 707.427 273.9 708.344 273.9V278.425H707.169C706.102 278.425 705.302 278.658 704.769 279.125C704.235 279.575 703.969 280.375 703.969 281.525V288H699.694V274.05H703.969V276.375ZM721.36 288.2C720.143 288.2 719.06 287.992 718.11 287.575C717.16 287.158 716.41 286.592 715.86 285.875C715.31 285.142 715.001 284.325 714.935 283.425H719.16C719.21 283.908 719.435 284.3 719.835 284.6C720.235 284.9 720.726 285.05 721.31 285.05C721.843 285.05 722.251 284.95 722.535 284.75C722.835 284.533 722.985 284.258 722.985 283.925C722.985 283.525 722.776 283.233 722.36 283.05C721.943 282.85 721.268 282.633 720.335 282.4C719.335 282.167 718.501 281.925 717.835 281.675C717.168 281.408 716.593 281 716.11 280.45C715.626 279.883 715.385 279.125 715.385 278.175C715.385 277.375 715.601 276.65 716.035 276C716.485 275.333 717.135 274.808 717.985 274.425C718.851 274.042 719.876 273.85 721.06 273.85C722.81 273.85 724.185 274.283 725.185 275.15C726.201 276.017 726.785 277.167 726.935 278.6H722.985C722.918 278.117 722.701 277.733 722.335 277.45C721.985 277.167 721.518 277.025 720.935 277.025C720.435 277.025 720.051 277.125 719.785 277.325C719.518 277.508 719.385 277.767 719.385 278.1C719.385 278.5 719.593 278.8 720.01 279C720.443 279.2 721.11 279.4 722.01 279.6C723.043 279.867 723.885 280.133 724.535 280.4C725.185 280.65 725.751 281.067 726.235 281.65C726.735 282.217 726.993 282.983 727.01 283.95C727.01 284.767 726.776 285.5 726.31 286.15C725.86 286.783 725.201 287.283 724.335 287.65C723.485 288.017 722.493 288.2 721.36 288.2ZM731.775 272.6C731.025 272.6 730.409 272.383 729.925 271.95C729.459 271.5 729.225 270.95 729.225 270.3C729.225 269.633 729.459 269.083 729.925 268.65C730.409 268.2 731.025 267.975 731.775 267.975C732.509 267.975 733.109 268.2 733.575 268.65C734.059 269.083 734.3 269.633 734.3 270.3C734.3 270.95 734.059 271.5 733.575 271.95C733.109 272.383 732.509 272.6 731.775 272.6ZM733.9 274.05V288H729.625V274.05H733.9ZM742.298 273.85C743.282 273.85 744.14 274.05 744.873 274.45C745.623 274.85 746.198 275.375 746.598 276.025V274.05H750.873V287.975C750.873 289.258 750.615 290.417 750.098 291.45C749.598 292.5 748.823 293.333 747.773 293.95C746.74 294.567 745.448 294.875 743.898 294.875C741.832 294.875 740.157 294.383 738.873 293.4C737.59 292.433 736.857 291.117 736.673 289.45H740.898C741.032 289.983 741.348 290.4 741.848 290.7C742.348 291.017 742.965 291.175 743.698 291.175C744.582 291.175 745.282 290.917 745.798 290.4C746.332 289.9 746.598 289.092 746.598 287.975V286C746.182 286.65 745.607 287.183 744.873 287.6C744.14 288 743.282 288.2 742.298 288.2C741.148 288.2 740.107 287.908 739.173 287.325C738.24 286.725 737.498 285.883 736.948 284.8C736.415 283.7 736.148 282.433 736.148 281C736.148 279.567 736.415 278.308 736.948 277.225C737.498 276.142 738.24 275.308 739.173 274.725C740.107 274.142 741.148 273.85 742.298 273.85ZM746.598 281.025C746.598 279.958 746.298 279.117 745.698 278.5C745.115 277.883 744.398 277.575 743.548 277.575C742.698 277.575 741.973 277.883 741.373 278.5C740.79 279.1 740.498 279.933 740.498 281C740.498 282.067 740.79 282.917 741.373 283.55C741.973 284.167 742.698 284.475 743.548 284.475C744.398 284.475 745.115 284.167 745.698 283.55C746.298 282.933 746.598 282.092 746.598 281.025ZM762.466 273.9C764.099 273.9 765.399 274.433 766.366 275.5C767.349 276.55 767.841 278 767.841 279.85V288H763.591V280.425C763.591 279.492 763.349 278.767 762.866 278.25C762.383 277.733 761.733 277.475 760.916 277.475C760.099 277.475 759.449 277.733 758.966 278.25C758.483 278.767 758.241 279.492 758.241 280.425V288H753.966V274.05H758.241V275.9C758.674 275.283 759.258 274.8 759.991 274.45C760.724 274.083 761.549 273.9 762.466 273.9ZM789.885 274.05V288H785.61V286.1C785.176 286.717 784.585 287.217 783.835 287.6C783.101 287.967 782.285 288.15 781.385 288.15C780.318 288.15 779.376 287.917 778.56 287.45C777.743 286.967 777.11 286.275 776.66 285.375C776.21 284.475 775.985 283.417 775.985 282.2V274.05H780.235V281.625C780.235 282.558 780.476 283.283 780.96 283.8C781.443 284.317 782.093 284.575 782.91 284.575C783.743 284.575 784.401 284.317 784.885 283.8C785.368 283.283 785.61 282.558 785.61 281.625V274.05H789.885ZM797.23 276.025C797.647 275.375 798.222 274.85 798.955 274.45C799.689 274.05 800.547 273.85 801.53 273.85C802.68 273.85 803.722 274.142 804.655 274.725C805.589 275.308 806.322 276.142 806.855 277.225C807.405 278.308 807.68 279.567 807.68 281C807.68 282.433 807.405 283.7 806.855 284.8C806.322 285.883 805.589 286.725 804.655 287.325C803.722 287.908 802.68 288.2 801.53 288.2C800.564 288.2 799.705 288 798.955 287.6C798.222 287.2 797.647 286.683 797.23 286.05V294.65H792.955V274.05H797.23V276.025ZM803.33 281C803.33 279.933 803.03 279.1 802.43 278.5C801.847 277.883 801.122 277.575 800.255 277.575C799.405 277.575 798.68 277.883 798.08 278.5C797.497 279.117 797.205 279.958 797.205 281.025C797.205 282.092 797.497 282.933 798.08 283.55C798.68 284.167 799.405 284.475 800.255 284.475C801.105 284.475 801.83 284.167 802.43 283.55C803.03 282.917 803.33 282.067 803.33 281Z" fill="black"/>
<path d="M521.454 368.066L518.343 380H514.824L512.92 372.146L510.948 380H507.429L504.403 368.066H507.514L509.231 376.753L511.356 368.066H514.552L516.592 376.753L518.326 368.066H521.454ZM531.853 375.104C531.853 375.376 531.836 375.659 531.802 375.954H525.223C525.269 376.543 525.456 376.997 525.784 377.314C526.124 377.62 526.538 377.773 527.025 377.773C527.751 377.773 528.255 377.467 528.538 376.855H531.632C531.474 377.478 531.185 378.039 530.765 378.538C530.357 379.037 529.842 379.428 529.218 379.711C528.595 379.994 527.898 380.136 527.127 380.136C526.198 380.136 525.371 379.938 524.645 379.541C523.92 379.144 523.353 378.578 522.945 377.841C522.537 377.104 522.333 376.243 522.333 375.257C522.333 374.271 522.532 373.41 522.928 372.673C523.336 371.936 523.903 371.37 524.628 370.973C525.354 370.576 526.187 370.378 527.127 370.378C528.045 370.378 528.861 370.571 529.575 370.956C530.289 371.341 530.845 371.891 531.241 372.605C531.649 373.319 531.853 374.152 531.853 375.104ZM528.878 374.339C528.878 373.84 528.708 373.444 528.368 373.149C528.028 372.854 527.603 372.707 527.093 372.707C526.606 372.707 526.192 372.849 525.852 373.132C525.524 373.415 525.32 373.818 525.24 374.339H528.878ZM540.849 380.136C540.021 380.136 539.285 379.994 538.639 379.711C537.993 379.428 537.483 379.042 537.109 378.555C536.735 378.056 536.525 377.501 536.48 376.889H539.353C539.387 377.218 539.54 377.484 539.812 377.688C540.084 377.892 540.418 377.994 540.815 377.994C541.177 377.994 541.455 377.926 541.648 377.79C541.852 377.643 541.954 377.456 541.954 377.229C541.954 376.957 541.812 376.759 541.529 376.634C541.245 376.498 540.786 376.351 540.152 376.192C539.472 376.033 538.905 375.869 538.452 375.699C537.998 375.518 537.607 375.24 537.279 374.866C536.95 374.481 536.786 373.965 536.786 373.319C536.786 372.775 536.933 372.282 537.228 371.84C537.534 371.387 537.976 371.03 538.554 370.769C539.143 370.508 539.84 370.378 540.645 370.378C541.835 370.378 542.77 370.673 543.45 371.262C544.141 371.851 544.538 372.633 544.64 373.608H541.954C541.908 373.279 541.761 373.019 541.512 372.826C541.274 372.633 540.956 372.537 540.56 372.537C540.22 372.537 539.959 372.605 539.778 372.741C539.596 372.866 539.506 373.041 539.506 373.268C539.506 373.54 539.647 373.744 539.931 373.88C540.225 374.016 540.679 374.152 541.291 374.288C541.993 374.469 542.566 374.651 543.008 374.832C543.45 375.002 543.835 375.285 544.164 375.682C544.504 376.067 544.679 376.589 544.691 377.246C544.691 377.801 544.532 378.3 544.215 378.742C543.909 379.173 543.461 379.513 542.872 379.762C542.294 380.011 541.619 380.136 540.849 380.136ZM555.411 375.104C555.411 375.376 555.394 375.659 555.36 375.954H548.781C548.826 376.543 549.013 376.997 549.342 377.314C549.682 377.62 550.096 377.773 550.583 377.773C551.308 377.773 551.813 377.467 552.096 376.855H555.19C555.031 377.478 554.742 378.039 554.323 378.538C553.915 379.037 553.399 379.428 552.776 379.711C552.153 379.994 551.456 380.136 550.685 380.136C549.756 380.136 548.928 379.938 548.203 379.541C547.478 379.144 546.911 378.578 546.503 377.841C546.095 377.104 545.891 376.243 545.891 375.257C545.891 374.271 546.089 373.41 546.486 372.673C546.894 371.936 547.461 371.37 548.186 370.973C548.911 370.576 549.744 370.378 550.685 370.378C551.603 370.378 552.419 370.571 553.133 370.956C553.847 371.341 554.402 371.891 554.799 372.605C555.207 373.319 555.411 374.152 555.411 375.104ZM552.436 374.339C552.436 373.84 552.266 373.444 551.926 373.149C551.586 372.854 551.161 372.707 550.651 372.707C550.164 372.707 549.75 372.849 549.41 373.132C549.081 373.415 548.877 373.818 548.798 374.339H552.436ZM562.725 370.412C563.835 370.412 564.719 370.775 565.377 371.5C566.045 372.214 566.38 373.2 566.38 374.458V380H563.49V374.849C563.49 374.214 563.325 373.721 562.997 373.37C562.668 373.019 562.226 372.843 561.671 372.843C561.115 372.843 560.673 373.019 560.345 373.37C560.016 373.721 559.852 374.214 559.852 374.849V380H556.945V370.514H559.852V371.772C560.146 371.353 560.543 371.024 561.042 370.786C561.54 370.537 562.101 370.412 562.725 370.412ZM573.687 377.535V380H572.208C571.154 380 570.332 379.745 569.743 379.235C569.153 378.714 568.859 377.869 568.859 376.702V372.928H567.703V370.514H568.859V368.202H571.766V370.514H573.67V372.928H571.766V376.736C571.766 377.019 571.834 377.223 571.97 377.348C572.106 377.473 572.332 377.535 572.65 377.535H573.687ZM578.33 375.24C578.33 374.265 578.512 373.41 578.874 372.673C579.248 371.936 579.753 371.37 580.387 370.973C581.022 370.576 581.73 370.378 582.512 370.378C583.181 370.378 583.765 370.514 584.263 370.786C584.773 371.058 585.164 371.415 585.436 371.857V370.514H588.343V380H585.436V378.657C585.153 379.099 584.756 379.456 584.246 379.728C583.748 380 583.164 380.136 582.495 380.136C581.725 380.136 581.022 379.938 580.387 379.541C579.753 379.133 579.248 378.561 578.874 377.824C578.512 377.076 578.33 376.215 578.33 375.24ZM585.436 375.257C585.436 374.532 585.232 373.959 584.824 373.54C584.428 373.121 583.94 372.911 583.362 372.911C582.784 372.911 582.291 373.121 581.883 373.54C581.487 373.948 581.288 374.515 581.288 375.24C581.288 375.965 581.487 376.543 581.883 376.974C582.291 377.393 582.784 377.603 583.362 377.603C583.94 377.603 584.428 377.393 584.824 376.974C585.232 376.555 585.436 375.982 585.436 375.257ZM607.666 370.514L605.099 380H601.886L600.39 373.846L598.843 380H595.647L593.063 370.514H595.97L597.313 377.297L598.911 370.514H601.988L603.603 377.263L604.929 370.514H607.666ZM617.717 375.104C617.717 375.376 617.7 375.659 617.666 375.954H611.087C611.132 376.543 611.319 376.997 611.648 377.314C611.988 377.62 612.401 377.773 612.889 377.773C613.614 377.773 614.118 377.467 614.402 376.855H617.496C617.337 377.478 617.048 378.039 616.629 378.538C616.221 379.037 615.705 379.428 615.082 379.711C614.458 379.994 613.761 380.136 612.991 380.136C612.061 380.136 611.234 379.938 610.509 379.541C609.783 379.144 609.217 378.578 608.809 377.841C608.401 377.104 608.197 376.243 608.197 375.257C608.197 374.271 608.395 373.41 608.792 372.673C609.2 371.936 609.766 371.37 610.492 370.973C611.217 370.576 612.05 370.378 612.991 370.378C613.909 370.378 614.725 370.571 615.439 370.956C616.153 371.341 616.708 371.891 617.105 372.605C617.513 373.319 617.717 374.152 617.717 375.104ZM614.742 374.339C614.742 373.84 614.572 373.444 614.232 373.149C613.892 372.854 613.467 372.707 612.957 372.707C612.469 372.707 612.056 372.849 611.716 373.132C611.387 373.415 611.183 373.818 611.104 374.339H614.742ZM622.157 367.42V380H619.25V367.42H622.157ZM623.686 375.257C623.686 374.271 623.884 373.41 624.281 372.673C624.689 371.936 625.25 371.37 625.964 370.973C626.689 370.576 627.517 370.378 628.446 370.378C629.636 370.378 630.628 370.69 631.421 371.313C632.226 371.936 632.753 372.815 633.002 373.948H629.908C629.647 373.223 629.143 372.86 628.395 372.86C627.862 372.86 627.437 373.07 627.12 373.489C626.803 373.897 626.644 374.486 626.644 375.257C626.644 376.028 626.803 376.623 627.12 377.042C627.437 377.45 627.862 377.654 628.395 377.654C629.143 377.654 629.647 377.291 629.908 376.566H633.002C632.753 377.677 632.226 378.549 631.421 379.184C630.616 379.819 629.625 380.136 628.446 380.136C627.517 380.136 626.689 379.938 625.964 379.541C625.25 379.144 624.689 378.578 624.281 377.841C623.884 377.104 623.686 376.243 623.686 375.257ZM638.875 380.136C637.946 380.136 637.107 379.938 636.359 379.541C635.622 379.144 635.039 378.578 634.608 377.841C634.189 377.104 633.979 376.243 633.979 375.257C633.979 374.282 634.194 373.427 634.625 372.69C635.056 371.942 635.645 371.37 636.393 370.973C637.141 370.576 637.98 370.378 638.909 370.378C639.838 370.378 640.677 370.576 641.425 370.973C642.173 371.37 642.762 371.942 643.193 372.69C643.624 373.427 643.839 374.282 643.839 375.257C643.839 376.232 643.618 377.093 643.176 377.841C642.745 378.578 642.15 379.144 641.391 379.541C640.643 379.938 639.804 380.136 638.875 380.136ZM638.875 377.62C639.43 377.62 639.901 377.416 640.286 377.008C640.683 376.6 640.881 376.016 640.881 375.257C640.881 374.498 640.688 373.914 640.303 373.506C639.929 373.098 639.464 372.894 638.909 372.894C638.342 372.894 637.872 373.098 637.498 373.506C637.124 373.903 636.937 374.486 636.937 375.257C636.937 376.016 637.118 376.6 637.481 377.008C637.855 377.416 638.32 377.62 638.875 377.62ZM657.485 370.412C658.664 370.412 659.599 370.769 660.29 371.483C660.993 372.197 661.344 373.189 661.344 374.458V380H658.454V374.849C658.454 374.237 658.29 373.767 657.961 373.438C657.644 373.098 657.202 372.928 656.635 372.928C656.068 372.928 655.621 373.098 655.292 373.438C654.975 373.767 654.816 374.237 654.816 374.849V380H651.926V374.849C651.926 374.237 651.762 373.767 651.433 373.438C651.116 373.098 650.674 372.928 650.107 372.928C649.54 372.928 649.093 373.098 648.764 373.438C648.447 373.767 648.288 374.237 648.288 374.849V380H645.381V370.514H648.288V371.704C648.583 371.307 648.968 370.996 649.444 370.769C649.92 370.531 650.458 370.412 651.059 370.412C651.773 370.412 652.408 370.565 652.963 370.871C653.53 371.177 653.972 371.613 654.289 372.18C654.618 371.659 655.065 371.234 655.632 370.905C656.199 370.576 656.816 370.412 657.485 370.412ZM672.319 375.104C672.319 375.376 672.302 375.659 672.268 375.954H665.689C665.735 376.543 665.922 376.997 666.25 377.314C666.59 377.62 667.004 377.773 667.491 377.773C668.217 377.773 668.721 377.467 669.004 376.855H672.098C671.94 377.478 671.651 378.039 671.231 378.538C670.823 379.037 670.308 379.428 669.684 379.711C669.061 379.994 668.364 380.136 667.593 380.136C666.664 380.136 665.837 379.938 665.111 379.541C664.386 379.144 663.819 378.578 663.411 377.841C663.003 377.104 662.799 376.243 662.799 375.257C662.799 374.271 662.998 373.41 663.394 372.673C663.802 371.936 664.369 371.37 665.094 370.973C665.82 370.576 666.653 370.378 667.593 370.378C668.511 370.378 669.327 370.571 670.041 370.956C670.755 371.341 671.311 371.891 671.707 372.605C672.115 373.319 672.319 374.152 672.319 375.104ZM669.344 374.339C669.344 373.84 669.174 373.444 668.834 373.149C668.494 372.854 668.069 372.707 667.559 372.707C667.072 372.707 666.658 372.849 666.318 373.132C665.99 373.415 665.786 373.818 665.706 374.339H669.344ZM686.397 375.104C686.397 375.376 686.38 375.659 686.346 375.954H679.767C679.813 376.543 680 376.997 680.328 377.314C680.668 377.62 681.082 377.773 681.569 377.773C682.295 377.773 682.799 377.467 683.082 376.855H686.176C686.018 377.478 685.729 378.039 685.309 378.538C684.901 379.037 684.386 379.428 683.762 379.711C683.139 379.994 682.442 380.136 681.671 380.136C680.742 380.136 679.915 379.938 679.189 379.541C678.464 379.144 677.897 378.578 677.489 377.841C677.081 377.104 676.877 376.243 676.877 375.257C676.877 374.271 677.076 373.41 677.472 372.673C677.88 371.936 678.447 371.37 679.172 370.973C679.898 370.576 680.731 370.378 681.671 370.378C682.589 370.378 683.405 370.571 684.119 370.956C684.833 371.341 685.389 371.891 685.785 372.605C686.193 373.319 686.397 374.152 686.397 375.104ZM683.422 374.339C683.422 373.84 683.252 373.444 682.912 373.149C682.572 372.854 682.147 372.707 681.637 372.707C681.15 372.707 680.736 372.849 680.396 373.132C680.068 373.415 679.864 373.818 679.784 374.339H683.422ZM700.035 370.412C701.214 370.412 702.149 370.769 702.84 371.483C703.543 372.197 703.894 373.189 703.894 374.458V380H701.004V374.849C701.004 374.237 700.84 373.767 700.511 373.438C700.194 373.098 699.752 372.928 699.185 372.928C698.618 372.928 698.171 373.098 697.842 373.438C697.525 373.767 697.366 374.237 697.366 374.849V380H694.476V374.849C694.476 374.237 694.312 373.767 693.983 373.438C693.666 373.098 693.224 372.928 692.657 372.928C692.09 372.928 691.643 373.098 691.314 373.438C690.997 373.767 690.838 374.237 690.838 374.849V380H687.931V370.514H690.838V371.704C691.133 371.307 691.518 370.996 691.994 370.769C692.47 370.531 693.008 370.412 693.609 370.412C694.323 370.412 694.958 370.565 695.513 370.871C696.08 371.177 696.522 371.613 696.839 372.18C697.168 371.659 697.615 371.234 698.182 370.905C698.749 370.576 699.366 370.412 700.035 370.412ZM705.349 375.24C705.349 374.265 705.53 373.41 705.893 372.673C706.267 371.936 706.771 371.37 707.406 370.973C708.041 370.576 708.749 370.378 709.531 370.378C710.2 370.378 710.783 370.514 711.282 370.786C711.792 371.058 712.183 371.415 712.455 371.857V370.514H715.362V380H712.455V378.657C712.172 379.099 711.775 379.456 711.265 379.728C710.766 380 710.183 380.136 709.514 380.136C708.743 380.136 708.041 379.938 707.406 379.541C706.771 379.133 706.267 378.561 705.893 377.824C705.53 377.076 705.349 376.215 705.349 375.24ZM712.455 375.257C712.455 374.532 712.251 373.959 711.843 373.54C711.446 373.121 710.959 372.911 710.381 372.911C709.803 372.911 709.31 373.121 708.902 373.54C708.505 373.948 708.307 374.515 708.307 375.24C708.307 375.965 708.505 376.543 708.902 376.974C709.31 377.393 709.803 377.603 710.381 377.603C710.959 377.603 711.446 377.393 711.843 376.974C712.251 376.555 712.455 375.982 712.455 375.257ZM718.927 369.528C718.417 369.528 717.998 369.381 717.669 369.086C717.352 368.78 717.193 368.406 717.193 367.964C717.193 367.511 717.352 367.137 717.669 366.842C717.998 366.536 718.417 366.383 718.927 366.383C719.426 366.383 719.834 366.536 720.151 366.842C720.48 367.137 720.644 367.511 720.644 367.964C720.644 368.406 720.48 368.78 720.151 369.086C719.834 369.381 719.426 369.528 718.927 369.528ZM720.372 370.514V380H717.465V370.514H720.372ZM725.386 367.42V380H722.479V367.42H725.386ZM730.62 377.314L728.733 382.193H726.88L727.866 377.314H730.62ZM749.593 370.514L747.026 380H743.813L742.317 373.846L740.77 380H737.574L734.99 370.514H737.897L739.24 377.297L740.838 370.514H743.915L745.53 377.263L746.856 370.514H749.593ZM752.163 369.528C751.653 369.528 751.234 369.381 750.905 369.086C750.588 368.78 750.429 368.406 750.429 367.964C750.429 367.511 750.588 367.137 750.905 366.842C751.234 366.536 751.653 366.383 752.163 366.383C752.662 366.383 753.07 366.536 753.387 366.842C753.716 367.137 753.88 367.511 753.88 367.964C753.88 368.406 753.716 368.78 753.387 369.086C753.07 369.381 752.662 369.528 752.163 369.528ZM753.608 370.514V380H750.701V370.514H753.608ZM761.002 377.535V380H759.523C758.469 380 757.647 379.745 757.058 379.235C756.469 378.714 756.174 377.869 756.174 376.702V372.928H755.018V370.514H756.174V368.202H759.081V370.514H760.985V372.928H759.081V376.736C759.081 377.019 759.149 377.223 759.285 377.348C759.421 377.473 759.648 377.535 759.965 377.535H761.002ZM768.452 370.412C769.54 370.412 770.413 370.775 771.07 371.5C771.728 372.214 772.056 373.2 772.056 374.458V380H769.166V374.849C769.166 374.214 769.002 373.721 768.673 373.37C768.345 373.019 767.903 372.843 767.347 372.843C766.792 372.843 766.35 373.019 766.021 373.37C765.693 373.721 765.528 374.214 765.528 374.849V380H762.621V367.42H765.528V371.789C765.823 371.37 766.225 371.035 766.735 370.786C767.245 370.537 767.818 370.412 768.452 370.412ZM564.373 404.535V407H562.894C561.84 407 561.019 406.745 560.429 406.235C559.84 405.714 559.545 404.869 559.545 403.702V399.928H558.389V397.514H559.545V395.202H562.452V397.514H564.356V399.928H562.452V403.736C562.452 404.019 562.52 404.223 562.656 404.348C562.792 404.473 563.019 404.535 563.336 404.535H564.373ZM571.823 397.412C572.911 397.412 573.784 397.775 574.441 398.5C575.099 399.214 575.427 400.2 575.427 401.458V407H572.537V401.849C572.537 401.214 572.373 400.721 572.044 400.37C571.716 400.019 571.274 399.843 570.718 399.843C570.163 399.843 569.721 400.019 569.392 400.37C569.064 400.721 568.899 401.214 568.899 401.849V407H565.992V394.42H568.899V398.789C569.194 398.37 569.596 398.035 570.106 397.786C570.616 397.537 571.189 397.412 571.823 397.412ZM586.39 402.104C586.39 402.376 586.373 402.659 586.339 402.954H579.76C579.805 403.543 579.992 403.997 580.321 404.314C580.661 404.62 581.074 404.773 581.562 404.773C582.287 404.773 582.791 404.467 583.075 403.855H586.169C586.01 404.478 585.721 405.039 585.302 405.538C584.894 406.037 584.378 406.428 583.755 406.711C583.131 406.994 582.434 407.136 581.664 407.136C580.734 407.136 579.907 406.938 579.182 406.541C578.456 406.144 577.89 405.578 577.482 404.841C577.074 404.104 576.87 403.243 576.87 402.257C576.87 401.271 577.068 400.41 577.465 399.673C577.873 398.936 578.439 398.37 579.165 397.973C579.89 397.576 580.723 397.378 581.664 397.378C582.582 397.378 583.398 397.571 584.112 397.956C584.826 398.341 585.381 398.891 585.778 399.605C586.186 400.319 586.39 401.152 586.39 402.104ZM583.415 401.339C583.415 400.84 583.245 400.444 582.905 400.149C582.565 399.854 582.14 399.707 581.63 399.707C581.142 399.707 580.729 399.849 580.389 400.132C580.06 400.415 579.856 400.818 579.777 401.339H583.415ZM590.948 402.24C590.948 401.265 591.129 400.41 591.492 399.673C591.866 398.936 592.37 398.37 593.005 397.973C593.639 397.576 594.348 397.378 595.13 397.378C595.753 397.378 596.32 397.508 596.83 397.769C597.351 398.03 597.759 398.381 598.054 398.823V394.42H600.961V407H598.054V405.64C597.782 406.093 597.391 406.456 596.881 406.728C596.382 407 595.798 407.136 595.13 407.136C594.348 407.136 593.639 406.938 593.005 406.541C592.37 406.133 591.866 405.561 591.492 404.824C591.129 404.076 590.948 403.215 590.948 402.24ZM598.054 402.257C598.054 401.532 597.85 400.959 597.442 400.54C597.045 400.121 596.558 399.911 595.98 399.911C595.402 399.911 594.909 400.121 594.501 400.54C594.104 400.948 593.906 401.515 593.906 402.24C593.906 402.965 594.104 403.543 594.501 403.974C594.909 404.393 595.402 404.603 595.98 404.603C596.558 404.603 597.045 404.393 597.442 403.974C597.85 403.555 598.054 402.982 598.054 402.257ZM604.526 396.528C604.016 396.528 603.596 396.381 603.268 396.086C602.95 395.78 602.792 395.406 602.792 394.964C602.792 394.511 602.95 394.137 603.268 393.842C603.596 393.536 604.016 393.383 604.526 393.383C605.024 393.383 605.432 393.536 605.75 393.842C606.078 394.137 606.243 394.511 606.243 394.964C606.243 395.406 606.078 395.78 605.75 396.086C605.432 396.381 605.024 396.528 604.526 396.528ZM605.971 397.514V407H603.064V397.514H605.971ZM611.936 407.136C611.109 407.136 610.372 406.994 609.726 406.711C609.08 406.428 608.57 406.042 608.196 405.555C607.822 405.056 607.613 404.501 607.567 403.889H610.44C610.474 404.218 610.627 404.484 610.899 404.688C611.171 404.892 611.506 404.994 611.902 404.994C612.265 404.994 612.543 404.926 612.735 404.79C612.939 404.643 613.041 404.456 613.041 404.229C613.041 403.957 612.9 403.759 612.616 403.634C612.333 403.498 611.874 403.351 611.239 403.192C610.559 403.033 609.993 402.869 609.539 402.699C609.086 402.518 608.695 402.24 608.366 401.866C608.038 401.481 607.873 400.965 607.873 400.319C607.873 399.775 608.021 399.282 608.315 398.84C608.621 398.387 609.063 398.03 609.641 397.769C610.231 397.508 610.928 397.378 611.732 397.378C612.922 397.378 613.857 397.673 614.537 398.262C615.229 398.851 615.625 399.633 615.727 400.608H613.041C612.996 400.279 612.849 400.019 612.599 399.826C612.361 399.633 612.044 399.537 611.647 399.537C611.307 399.537 611.047 399.605 610.865 399.741C610.684 399.866 610.593 400.041 610.593 400.268C610.593 400.54 610.735 400.744 611.018 400.88C611.313 401.016 611.766 401.152 612.378 401.288C613.081 401.469 613.653 401.651 614.095 401.832C614.537 402.002 614.923 402.285 615.251 402.682C615.591 403.067 615.767 403.589 615.778 404.246C615.778 404.801 615.62 405.3 615.302 405.742C614.996 406.173 614.549 406.513 613.959 406.762C613.381 407.011 612.707 407.136 611.936 407.136ZM616.979 402.257C616.979 401.271 617.177 400.41 617.574 399.673C617.982 398.936 618.543 398.37 619.257 397.973C619.982 397.576 620.81 397.378 621.739 397.378C622.929 397.378 623.921 397.69 624.714 398.313C625.519 398.936 626.046 399.815 626.295 400.948H623.201C622.94 400.223 622.436 399.86 621.688 399.86C621.155 399.86 620.73 400.07 620.413 400.489C620.096 400.897 619.937 401.486 619.937 402.257C619.937 403.028 620.096 403.623 620.413 404.042C620.73 404.45 621.155 404.654 621.688 404.654C622.436 404.654 622.94 404.291 623.201 403.566H626.295C626.046 404.677 625.519 405.549 624.714 406.184C623.909 406.819 622.918 407.136 621.739 407.136C620.81 407.136 619.982 406.938 619.257 406.541C618.543 406.144 617.982 405.578 617.574 404.841C617.177 404.104 616.979 403.243 616.979 402.257ZM632.168 407.136C631.239 407.136 630.4 406.938 629.652 406.541C628.915 406.144 628.332 405.578 627.901 404.841C627.482 404.104 627.272 403.243 627.272 402.257C627.272 401.282 627.487 400.427 627.918 399.69C628.349 398.942 628.938 398.37 629.686 397.973C630.434 397.576 631.273 397.378 632.202 397.378C633.131 397.378 633.97 397.576 634.718 397.973C635.466 398.37 636.055 398.942 636.486 399.69C636.917 400.427 637.132 401.282 637.132 402.257C637.132 403.232 636.911 404.093 636.469 404.841C636.038 405.578 635.443 406.144 634.684 406.541C633.936 406.938 633.097 407.136 632.168 407.136ZM632.168 404.62C632.723 404.62 633.194 404.416 633.579 404.008C633.976 403.6 634.174 403.016 634.174 402.257C634.174 401.498 633.981 400.914 633.596 400.506C633.222 400.098 632.757 399.894 632.202 399.894C631.635 399.894 631.165 400.098 630.791 400.506C630.417 400.903 630.23 401.486 630.23 402.257C630.23 403.016 630.411 403.6 630.774 404.008C631.148 404.416 631.613 404.62 632.168 404.62ZM648.041 397.514V407H645.134V405.708C644.839 406.127 644.437 406.467 643.927 406.728C643.428 406.977 642.873 407.102 642.261 407.102C641.536 407.102 640.895 406.943 640.34 406.626C639.785 406.297 639.354 405.827 639.048 405.215C638.742 404.603 638.589 403.883 638.589 403.056V397.514H641.479V402.665C641.479 403.3 641.643 403.793 641.972 404.144C642.301 404.495 642.743 404.671 643.298 404.671C643.865 404.671 644.312 404.495 644.641 404.144C644.97 403.793 645.134 403.3 645.134 402.665V397.514H648.041ZM655.909 397.412C657.02 397.412 657.904 397.775 658.561 398.5C659.23 399.214 659.564 400.2 659.564 401.458V407H656.674V401.849C656.674 401.214 656.51 400.721 656.181 400.37C655.853 400.019 655.411 399.843 654.855 399.843C654.3 399.843 653.858 400.019 653.529 400.37C653.201 400.721 653.036 401.214 653.036 401.849V407H650.129V397.514H653.036V398.772C653.331 398.353 653.728 398.024 654.226 397.786C654.725 397.537 655.286 397.412 655.909 397.412ZM666.871 404.535V407H665.392C664.338 407 663.517 406.745 662.927 406.235C662.338 405.714 662.043 404.869 662.043 403.702V399.928H660.887V397.514H662.043V395.202H664.95V397.514H666.854V399.928H664.95V403.736C664.95 404.019 665.018 404.223 665.154 404.348C665.29 404.473 665.517 404.535 665.834 404.535H666.871ZM671.515 402.257C671.515 401.271 671.713 400.41 672.11 399.673C672.518 398.936 673.079 398.37 673.793 397.973C674.518 397.576 675.346 397.378 676.275 397.378C677.465 397.378 678.457 397.69 679.25 398.313C680.055 398.936 680.582 399.815 680.831 400.948H677.737C677.476 400.223 676.972 399.86 676.224 399.86C675.691 399.86 675.266 400.07 674.949 400.489C674.632 400.897 674.473 401.486 674.473 402.257C674.473 403.028 674.632 403.623 674.949 404.042C675.266 404.45 675.691 404.654 676.224 404.654C676.972 404.654 677.476 404.291 677.737 403.566H680.831C680.582 404.677 680.055 405.549 679.25 406.184C678.445 406.819 677.454 407.136 676.275 407.136C675.346 407.136 674.518 406.938 673.793 406.541C673.079 406.144 672.518 405.578 672.11 404.841C671.713 404.104 671.515 403.243 671.515 402.257ZM686.704 407.136C685.775 407.136 684.936 406.938 684.188 406.541C683.451 406.144 682.868 405.578 682.437 404.841C682.018 404.104 681.808 403.243 681.808 402.257C681.808 401.282 682.023 400.427 682.454 399.69C682.885 398.942 683.474 398.37 684.222 397.973C684.97 397.576 685.809 397.378 686.738 397.378C687.667 397.378 688.506 397.576 689.254 397.973C690.002 398.37 690.591 398.942 691.022 399.69C691.453 400.427 691.668 401.282 691.668 402.257C691.668 403.232 691.447 404.093 691.005 404.841C690.574 405.578 689.979 406.144 689.22 406.541C688.472 406.938 687.633 407.136 686.704 407.136ZM686.704 404.62C687.259 404.62 687.73 404.416 688.115 404.008C688.512 403.6 688.71 403.016 688.71 402.257C688.71 401.498 688.517 400.914 688.132 400.506C687.758 400.098 687.293 399.894 686.738 399.894C686.171 399.894 685.701 400.098 685.327 400.506C684.953 400.903 684.766 401.486 684.766 402.257C684.766 403.016 684.947 403.6 685.31 404.008C685.684 404.416 686.149 404.62 686.704 404.62ZM692.632 402.24C692.632 401.265 692.814 400.41 693.176 399.673C693.55 398.936 694.055 398.37 694.689 397.973C695.324 397.576 696.032 397.378 696.814 397.378C697.438 397.378 698.004 397.508 698.514 397.769C699.036 398.03 699.444 398.381 699.738 398.823V394.42H702.645V407H699.738V405.64C699.466 406.093 699.075 406.456 698.565 406.728C698.067 407 697.483 407.136 696.814 407.136C696.032 407.136 695.324 406.938 694.689 406.541C694.055 406.133 693.55 405.561 693.176 404.824C692.814 404.076 692.632 403.215 692.632 402.24ZM699.738 402.257C699.738 401.532 699.534 400.959 699.126 400.54C698.73 400.121 698.242 399.911 697.664 399.911C697.086 399.911 696.593 400.121 696.185 400.54C695.789 400.948 695.59 401.515 695.59 402.24C695.59 402.965 695.789 403.543 696.185 403.974C696.593 404.393 697.086 404.603 697.664 404.603C698.242 404.603 698.73 404.393 699.126 403.974C699.534 403.555 699.738 402.982 699.738 402.257ZM713.69 402.104C713.69 402.376 713.673 402.659 713.639 402.954H707.06C707.106 403.543 707.293 403.997 707.621 404.314C707.961 404.62 708.375 404.773 708.862 404.773C709.588 404.773 710.092 404.467 710.375 403.855H713.469C713.311 404.478 713.022 405.039 712.602 405.538C712.194 406.037 711.679 406.428 711.055 406.711C710.432 406.994 709.735 407.136 708.964 407.136C708.035 407.136 707.208 406.938 706.482 406.541C705.757 406.144 705.19 405.578 704.782 404.841C704.374 404.104 704.17 403.243 704.17 402.257C704.17 401.271 704.369 400.41 704.765 399.673C705.173 398.936 705.74 398.37 706.465 397.973C707.191 397.576 708.024 397.378 708.964 397.378C709.882 397.378 710.698 397.571 711.412 397.956C712.126 398.341 712.682 398.891 713.078 399.605C713.486 400.319 713.69 401.152 713.69 402.104ZM710.715 401.339C710.715 400.84 710.545 400.444 710.205 400.149C709.865 399.854 709.44 399.707 708.93 399.707C708.443 399.707 708.029 399.849 707.689 400.132C707.361 400.415 707.157 400.818 707.077 401.339H710.715ZM716.584 407.136C716.074 407.136 715.655 406.989 715.326 406.694C715.009 406.388 714.85 406.014 714.85 405.572C714.85 405.119 715.009 404.739 715.326 404.433C715.655 404.127 716.074 403.974 716.584 403.974C717.083 403.974 717.491 404.127 717.808 404.433C718.137 404.739 718.301 405.119 718.301 405.572C718.301 406.014 718.137 406.388 717.808 406.694C717.491 406.989 717.083 407.136 716.584 407.136ZM525.586 449.066V461H522.679V453.843L520.01 461H517.664L514.978 453.826V461H512.071V449.066H515.505L518.854 457.328L522.169 449.066H525.586ZM527.098 456.24C527.098 455.265 527.279 454.41 527.642 453.673C528.016 452.936 528.52 452.37 529.155 451.973C529.79 451.576 530.498 451.378 531.28 451.378C531.949 451.378 532.532 451.514 533.031 451.786C533.541 452.058 533.932 452.415 534.204 452.857V451.514H537.111V461H534.204V459.657C533.921 460.099 533.524 460.456 533.014 460.728C532.515 461 531.932 461.136 531.263 461.136C530.492 461.136 529.79 460.938 529.155 460.541C528.52 460.133 528.016 459.561 527.642 458.824C527.279 458.076 527.098 457.215 527.098 456.24ZM534.204 456.257C534.204 455.532 534 454.959 533.592 454.54C533.195 454.121 532.708 453.911 532.13 453.911C531.552 453.911 531.059 454.121 530.651 454.54C530.254 454.948 530.056 455.515 530.056 456.24C530.056 456.965 530.254 457.543 530.651 457.974C531.059 458.393 531.552 458.603 532.13 458.603C532.708 458.603 533.195 458.393 533.592 457.974C534 457.555 534.204 456.982 534.204 456.257ZM545.011 461L542.121 457.022V461H539.214V448.42H542.121V455.373L544.994 451.514H548.581L544.637 456.274L548.615 461H545.011ZM558.665 456.104C558.665 456.376 558.648 456.659 558.614 456.954H552.035C552.08 457.543 552.267 457.997 552.596 458.314C552.936 458.62 553.35 458.773 553.837 458.773C554.562 458.773 555.067 458.467 555.35 457.855H558.444C558.285 458.478 557.996 459.039 557.577 459.538C557.169 460.037 556.653 460.428 556.03 460.711C555.407 460.994 554.71 461.136 553.939 461.136C553.01 461.136 552.182 460.938 551.457 460.541C550.732 460.144 550.165 459.578 549.757 458.841C549.349 458.104 549.145 457.243 549.145 456.257C549.145 455.271 549.343 454.41 549.74 453.673C550.148 452.936 550.715 452.37 551.44 451.973C552.165 451.576 552.998 451.378 553.939 451.378C554.857 451.378 555.673 451.571 556.387 451.956C557.101 452.341 557.656 452.891 558.053 453.605C558.461 454.319 558.665 455.152 558.665 456.104ZM555.69 455.339C555.69 454.84 555.52 454.444 555.18 454.149C554.84 453.854 554.415 453.707 553.905 453.707C553.418 453.707 553.004 453.849 552.664 454.132C552.335 454.415 552.131 454.818 552.052 455.339H555.69ZM567.66 461.136C566.833 461.136 566.096 460.994 565.45 460.711C564.804 460.428 564.294 460.042 563.92 459.555C563.546 459.056 563.336 458.501 563.291 457.889H566.164C566.198 458.218 566.351 458.484 566.623 458.688C566.895 458.892 567.229 458.994 567.626 458.994C567.989 458.994 568.266 458.926 568.459 458.79C568.663 458.643 568.765 458.456 568.765 458.229C568.765 457.957 568.623 457.759 568.34 457.634C568.057 457.498 567.598 457.351 566.963 457.192C566.283 457.033 565.716 456.869 565.263 456.699C564.81 456.518 564.419 456.24 564.09 455.866C563.761 455.481 563.597 454.965 563.597 454.319C563.597 453.775 563.744 453.282 564.039 452.84C564.345 452.387 564.787 452.03 565.365 451.769C565.954 451.508 566.651 451.378 567.456 451.378C568.646 451.378 569.581 451.673 570.261 452.262C570.952 452.851 571.349 453.633 571.451 454.608H568.765C568.72 454.279 568.572 454.019 568.323 453.826C568.085 453.633 567.768 453.537 567.371 453.537C567.031 453.537 566.77 453.605 566.589 453.741C566.408 453.866 566.317 454.041 566.317 454.268C566.317 454.54 566.459 454.744 566.742 454.88C567.037 455.016 567.49 455.152 568.102 455.288C568.805 455.469 569.377 455.651 569.819 455.832C570.261 456.002 570.646 456.285 570.975 456.682C571.315 457.067 571.491 457.589 571.502 458.246C571.502 458.801 571.343 459.3 571.026 459.742C570.72 460.173 570.272 460.513 569.683 460.762C569.105 461.011 568.431 461.136 567.66 461.136ZM582.648 451.514V461H579.741V459.708C579.446 460.127 579.044 460.467 578.534 460.728C578.035 460.977 577.48 461.102 576.868 461.102C576.142 461.102 575.502 460.943 574.947 460.626C574.391 460.297 573.961 459.827 573.655 459.215C573.349 458.603 573.196 457.883 573.196 457.056V451.514H576.086V456.665C576.086 457.3 576.25 457.793 576.579 458.144C576.907 458.495 577.349 458.671 577.905 458.671C578.471 458.671 578.919 458.495 579.248 458.144C579.576 457.793 579.741 457.3 579.741 456.665V451.514H582.648ZM587.643 453.095C587.983 452.574 588.408 452.166 588.918 451.871C589.428 451.565 589.994 451.412 590.618 451.412V454.489H589.819C589.093 454.489 588.549 454.648 588.187 454.965C587.824 455.271 587.643 455.815 587.643 456.597V461H584.736V451.514H587.643V453.095ZM600.949 456.104C600.949 456.376 600.932 456.659 600.898 456.954H594.319C594.364 457.543 594.551 457.997 594.88 458.314C595.22 458.62 595.634 458.773 596.121 458.773C596.846 458.773 597.351 458.467 597.634 457.855H600.728C600.569 458.478 600.28 459.039 599.861 459.538C599.453 460.037 598.937 460.428 598.314 460.711C597.691 460.994 596.994 461.136 596.223 461.136C595.294 461.136 594.466 460.938 593.741 460.541C593.016 460.144 592.449 459.578 592.041 458.841C591.633 458.104 591.429 457.243 591.429 456.257C591.429 455.271 591.627 454.41 592.024 453.673C592.432 452.936 592.999 452.37 593.724 451.973C594.449 451.576 595.282 451.378 596.223 451.378C597.141 451.378 597.957 451.571 598.671 451.956C599.385 452.341 599.94 452.891 600.337 453.605C600.745 454.319 600.949 455.152 600.949 456.104ZM597.974 455.339C597.974 454.84 597.804 454.444 597.464 454.149C597.124 453.854 596.699 453.707 596.189 453.707C595.702 453.707 595.288 453.849 594.948 454.132C594.619 454.415 594.415 454.818 594.336 455.339H597.974ZM611.372 458.535V461H609.893C608.839 461 608.018 460.745 607.428 460.235C606.839 459.714 606.544 458.869 606.544 457.702V453.928H605.388V451.514H606.544V449.202H609.451V451.514H611.355V453.928H609.451V457.736C609.451 458.019 609.519 458.223 609.655 458.348C609.791 458.473 610.018 458.535 610.335 458.535H611.372ZM617.31 461.136C616.38 461.136 615.542 460.938 614.794 460.541C614.057 460.144 613.473 459.578 613.043 458.841C612.623 458.104 612.414 457.243 612.414 456.257C612.414 455.282 612.629 454.427 613.059 453.69C613.49 452.942 614.08 452.37 614.828 451.973C615.576 451.576 616.414 451.378 617.344 451.378C618.273 451.378 619.112 451.576 619.86 451.973C620.608 452.37 621.197 452.942 621.628 453.69C622.058 454.427 622.274 455.282 622.274 456.257C622.274 457.232 622.053 458.093 621.611 458.841C621.18 459.578 620.585 460.144 619.826 460.541C619.078 460.938 618.239 461.136 617.31 461.136ZM617.31 458.62C617.865 458.62 618.335 458.416 618.721 458.008C619.117 457.6 619.316 457.016 619.316 456.257C619.316 455.498 619.123 454.914 618.738 454.506C618.364 454.098 617.899 453.894 617.344 453.894C616.777 453.894 616.307 454.098 615.933 454.506C615.559 454.903 615.372 455.486 615.372 456.257C615.372 457.016 615.553 457.6 615.916 458.008C616.29 458.416 616.754 458.62 617.31 458.62ZM626.84 456.257C626.84 455.271 627.039 454.41 627.435 453.673C627.843 452.936 628.404 452.37 629.118 451.973C629.844 451.576 630.671 451.378 631.6 451.378C632.79 451.378 633.782 451.69 634.575 452.313C635.38 452.936 635.907 453.815 636.156 454.948H633.062C632.802 454.223 632.297 453.86 631.549 453.86C631.017 453.86 630.592 454.07 630.274 454.489C629.957 454.897 629.798 455.486 629.798 456.257C629.798 457.028 629.957 457.623 630.274 458.042C630.592 458.45 631.017 458.654 631.549 458.654C632.297 458.654 632.802 458.291 633.062 457.566H636.156C635.907 458.677 635.38 459.549 634.575 460.184C633.771 460.819 632.779 461.136 631.6 461.136C630.671 461.136 629.844 460.938 629.118 460.541C628.404 460.144 627.843 459.578 627.435 458.841C627.039 458.104 626.84 457.243 626.84 456.257ZM643.542 451.412C644.63 451.412 645.503 451.775 646.16 452.5C646.818 453.214 647.146 454.2 647.146 455.458V461H644.256V455.849C644.256 455.214 644.092 454.721 643.763 454.37C643.435 454.019 642.993 453.843 642.437 453.843C641.882 453.843 641.44 454.019 641.111 454.37C640.783 454.721 640.618 455.214 640.618 455.849V461H637.711V448.42H640.618V452.789C640.913 452.37 641.315 452.035 641.825 451.786C642.335 451.537 642.908 451.412 643.542 451.412ZM658.108 456.104C658.108 456.376 658.091 456.659 658.057 456.954H651.478C651.524 457.543 651.711 457.997 652.039 458.314C652.379 458.62 652.793 458.773 653.28 458.773C654.006 458.773 654.51 458.467 654.793 457.855H657.887C657.729 458.478 657.44 459.039 657.02 459.538C656.612 460.037 656.097 460.428 655.473 460.711C654.85 460.994 654.153 461.136 653.382 461.136C652.453 461.136 651.626 460.938 650.9 460.541C650.175 460.144 649.608 459.578 649.2 458.841C648.792 458.104 648.588 457.243 648.588 456.257C648.588 455.271 648.787 454.41 649.183 453.673C649.591 452.936 650.158 452.37 650.883 451.973C651.609 451.576 652.442 451.378 653.382 451.378C654.3 451.378 655.116 451.571 655.83 451.956C656.544 452.341 657.1 452.891 657.496 453.605C657.904 454.319 658.108 455.152 658.108 456.104ZM655.133 455.339C655.133 454.84 654.963 454.444 654.623 454.149C654.283 453.854 653.858 453.707 653.348 453.707C652.861 453.707 652.447 453.849 652.107 454.132C651.779 454.415 651.575 454.818 651.495 455.339H655.133ZM659.064 456.257C659.064 455.271 659.262 454.41 659.659 453.673C660.067 452.936 660.628 452.37 661.342 451.973C662.067 451.576 662.895 451.378 663.824 451.378C665.014 451.378 666.006 451.69 666.799 452.313C667.604 452.936 668.131 453.815 668.38 454.948H665.286C665.025 454.223 664.521 453.86 663.773 453.86C663.24 453.86 662.815 454.07 662.498 454.489C662.181 454.897 662.022 455.486 662.022 456.257C662.022 457.028 662.181 457.623 662.498 458.042C662.815 458.45 663.24 458.654 663.773 458.654C664.521 458.654 665.025 458.291 665.286 457.566H668.38C668.131 458.677 667.604 459.549 666.799 460.184C665.994 460.819 665.003 461.136 663.824 461.136C662.895 461.136 662.067 460.938 661.342 460.541C660.628 460.144 660.067 459.578 659.659 458.841C659.262 458.104 659.064 457.243 659.064 456.257ZM675.732 461L672.842 457.022V461H669.935V448.42H672.842V455.373L675.715 451.514H679.302L675.358 456.274L679.336 461H675.732ZM689.333 458.535V461H687.854C686.8 461 685.979 460.745 685.389 460.235C684.8 459.714 684.505 458.869 684.505 457.702V453.928H683.349V451.514H684.505V449.202H687.412V451.514H689.316V453.928H687.412V457.736C687.412 458.019 687.48 458.223 687.616 458.348C687.752 458.473 687.979 458.535 688.296 458.535H689.333ZM696.783 451.412C697.871 451.412 698.744 451.775 699.401 452.5C700.059 453.214 700.387 454.2 700.387 455.458V461H697.497V455.849C697.497 455.214 697.333 454.721 697.004 454.37C696.676 454.019 696.234 453.843 695.678 453.843C695.123 453.843 694.681 454.019 694.352 454.37C694.024 454.721 693.859 455.214 693.859 455.849V461H690.952V448.42H693.859V452.789C694.154 452.37 694.556 452.035 695.066 451.786C695.576 451.537 696.149 451.412 696.783 451.412ZM711.35 456.104C711.35 456.376 711.333 456.659 711.299 456.954H704.72C704.765 457.543 704.952 457.997 705.281 458.314C705.621 458.62 706.034 458.773 706.522 458.773C707.247 458.773 707.751 458.467 708.035 457.855H711.129C710.97 458.478 710.681 459.039 710.262 459.538C709.854 460.037 709.338 460.428 708.715 460.711C708.091 460.994 707.394 461.136 706.624 461.136C705.694 461.136 704.867 460.938 704.142 460.541C703.416 460.144 702.85 459.578 702.442 458.841C702.034 458.104 701.83 457.243 701.83 456.257C701.83 455.271 702.028 454.41 702.425 453.673C702.833 452.936 703.399 452.37 704.125 451.973C704.85 451.576 705.683 451.378 706.624 451.378C707.542 451.378 708.358 451.571 709.072 451.956C709.786 452.341 710.341 452.891 710.738 453.605C711.146 454.319 711.35 455.152 711.35 456.104ZM708.375 455.339C708.375 454.84 708.205 454.444 707.865 454.149C707.525 453.854 707.1 453.707 706.59 453.707C706.102 453.707 705.689 453.849 705.349 454.132C705.02 454.415 704.816 454.818 704.737 455.339H708.375ZM720.345 461.136C719.517 461.136 718.781 460.994 718.135 460.711C717.489 460.428 716.979 460.042 716.605 459.555C716.231 459.056 716.021 458.501 715.976 457.889H718.849C718.883 458.218 719.036 458.484 719.308 458.688C719.58 458.892 719.914 458.994 720.311 458.994C720.673 458.994 720.951 458.926 721.144 458.79C721.348 458.643 721.45 458.456 721.45 458.229C721.45 457.957 721.308 457.759 721.025 457.634C720.741 457.498 720.282 457.351 719.648 457.192C718.968 457.033 718.401 456.869 717.948 456.699C717.494 456.518 717.103 456.24 716.775 455.866C716.446 455.481 716.282 454.965 716.282 454.319C716.282 453.775 716.429 453.282 716.724 452.84C717.03 452.387 717.472 452.03 718.05 451.769C718.639 451.508 719.336 451.378 720.141 451.378C721.331 451.378 722.266 451.673 722.946 452.262C723.637 452.851 724.034 453.633 724.136 454.608H721.45C721.404 454.279 721.257 454.019 721.008 453.826C720.77 453.633 720.452 453.537 720.056 453.537C719.716 453.537 719.455 453.605 719.274 453.741C719.092 453.866 719.002 454.041 719.002 454.268C719.002 454.54 719.143 454.744 719.427 454.88C719.721 455.016 720.175 455.152 720.787 455.288C721.489 455.469 722.062 455.651 722.504 455.832C722.946 456.002 723.331 456.285 723.66 456.682C724 457.067 724.175 457.589 724.187 458.246C724.187 458.801 724.028 459.3 723.711 459.742C723.405 460.173 722.957 460.513 722.368 460.762C721.79 461.011 721.115 461.136 720.345 461.136ZM728.872 452.857C729.155 452.415 729.546 452.058 730.045 451.786C730.544 451.514 731.127 451.378 731.796 451.378C732.578 451.378 733.286 451.576 733.921 451.973C734.556 452.37 735.054 452.936 735.417 453.673C735.791 454.41 735.978 455.265 735.978 456.24C735.978 457.215 735.791 458.076 735.417 458.824C735.054 459.561 734.556 460.133 733.921 460.541C733.286 460.938 732.578 461.136 731.796 461.136C731.139 461.136 730.555 461 730.045 460.728C729.546 460.456 729.155 460.105 728.872 459.674V465.522H725.965V451.514H728.872V452.857ZM733.02 456.24C733.02 455.515 732.816 454.948 732.408 454.54C732.011 454.121 731.518 453.911 730.929 453.911C730.351 453.911 729.858 454.121 729.45 454.54C729.053 454.959 728.855 455.532 728.855 456.257C728.855 456.982 729.053 457.555 729.45 457.974C729.858 458.393 730.351 458.603 730.929 458.603C731.507 458.603 732 458.393 732.408 457.974C732.816 457.543 733.02 456.965 733.02 456.24ZM736.925 456.24C736.925 455.265 737.107 454.41 737.469 453.673C737.843 452.936 738.348 452.37 738.982 451.973C739.617 451.576 740.325 451.378 741.107 451.378C741.776 451.378 742.36 451.514 742.858 451.786C743.368 452.058 743.759 452.415 744.031 452.857V451.514H746.938V461H744.031V459.657C743.748 460.099 743.351 460.456 742.841 460.728C742.343 461 741.759 461.136 741.09 461.136C740.32 461.136 739.617 460.938 738.982 460.541C738.348 460.133 737.843 459.561 737.469 458.824C737.107 458.076 736.925 457.215 736.925 456.24ZM744.031 456.257C744.031 455.532 743.827 454.959 743.419 454.54C743.023 454.121 742.535 453.911 741.957 453.911C741.379 453.911 740.886 454.121 740.478 454.54C740.082 454.948 739.883 455.515 739.883 456.24C739.883 456.965 740.082 457.543 740.478 457.974C740.886 458.393 741.379 458.603 741.957 458.603C742.535 458.603 743.023 458.393 743.419 457.974C743.827 457.555 744.031 456.982 744.031 456.257ZM761.145 451.412C762.324 451.412 763.259 451.769 763.95 452.483C764.653 453.197 765.004 454.189 765.004 455.458V461H762.114V455.849C762.114 455.237 761.95 454.767 761.621 454.438C761.304 454.098 760.862 453.928 760.295 453.928C759.729 453.928 759.281 454.098 758.952 454.438C758.635 454.767 758.476 455.237 758.476 455.849V461H755.586V455.849C755.586 455.237 755.422 454.767 755.093 454.438C754.776 454.098 754.334 453.928 753.767 453.928C753.201 453.928 752.753 454.098 752.424 454.438C752.107 454.767 751.948 455.237 751.948 455.849V461H749.041V451.514H751.948V452.704C752.243 452.307 752.628 451.996 753.104 451.769C753.58 451.531 754.119 451.412 754.719 451.412C755.433 451.412 756.068 451.565 756.623 451.871C757.19 452.177 757.632 452.613 757.949 453.18C758.278 452.659 758.726 452.234 759.292 451.905C759.859 451.576 760.477 451.412 761.145 451.412ZM615.361 480.928H613.797V488H610.89V480.928H609.836V478.514H610.89V478.242C610.89 477.075 611.224 476.191 611.893 475.59C612.562 474.978 613.542 474.672 614.834 474.672C615.049 474.672 615.208 474.678 615.31 474.689V477.154C614.755 477.12 614.364 477.199 614.137 477.392C613.91 477.585 613.797 477.93 613.797 478.429V478.514H615.361V480.928ZM621.045 488.136C620.116 488.136 619.277 487.938 618.529 487.541C617.792 487.144 617.209 486.578 616.778 485.841C616.359 485.104 616.149 484.243 616.149 483.257C616.149 482.282 616.364 481.427 616.795 480.69C617.226 479.942 617.815 479.37 618.563 478.973C619.311 478.576 620.15 478.378 621.079 478.378C622.008 478.378 622.847 478.576 623.595 478.973C624.343 479.37 624.932 479.942 625.363 480.69C625.794 481.427 626.009 482.282 626.009 483.257C626.009 484.232 625.788 485.093 625.346 485.841C624.915 486.578 624.32 487.144 623.561 487.541C622.813 487.938 621.974 488.136 621.045 488.136ZM621.045 485.62C621.6 485.62 622.071 485.416 622.456 485.008C622.853 484.6 623.051 484.016 623.051 483.257C623.051 482.498 622.858 481.914 622.473 481.506C622.099 481.098 621.634 480.894 621.079 480.894C620.512 480.894 620.042 481.098 619.668 481.506C619.294 481.903 619.107 482.486 619.107 483.257C619.107 484.016 619.288 484.6 619.651 485.008C620.025 485.416 620.49 485.62 621.045 485.62ZM630.458 475.42V488H627.551V475.42H630.458ZM631.987 483.24C631.987 482.265 632.168 481.41 632.531 480.673C632.905 479.936 633.409 479.37 634.044 478.973C634.678 478.576 635.387 478.378 636.169 478.378C636.792 478.378 637.359 478.508 637.869 478.769C638.39 479.03 638.798 479.381 639.093 479.823V475.42H642V488H639.093V486.64C638.821 487.093 638.43 487.456 637.92 487.728C637.421 488 636.837 488.136 636.169 488.136C635.387 488.136 634.678 487.938 634.044 487.541C633.409 487.133 632.905 486.561 632.531 485.824C632.168 485.076 631.987 484.215 631.987 483.24ZM639.093 483.257C639.093 482.532 638.889 481.959 638.481 481.54C638.084 481.121 637.597 480.911 637.019 480.911C636.441 480.911 635.948 481.121 635.54 481.54C635.143 481.948 634.945 482.515 634.945 483.24C634.945 483.965 635.143 484.543 635.54 484.974C635.948 485.393 636.441 485.603 637.019 485.603C637.597 485.603 638.084 485.393 638.481 484.974C638.889 484.555 639.093 483.982 639.093 483.257ZM653.045 483.104C653.045 483.376 653.028 483.659 652.994 483.954H646.415C646.46 484.543 646.647 484.997 646.976 485.314C647.316 485.62 647.729 485.773 648.217 485.773C648.942 485.773 649.446 485.467 649.73 484.855H652.824C652.665 485.478 652.376 486.039 651.957 486.538C651.549 487.037 651.033 487.428 650.41 487.711C649.786 487.994 649.089 488.136 648.319 488.136C647.389 488.136 646.562 487.938 645.837 487.541C645.111 487.144 644.545 486.578 644.137 485.841C643.729 485.104 643.525 484.243 643.525 483.257C643.525 482.271 643.723 481.41 644.12 480.673C644.528 479.936 645.094 479.37 645.82 478.973C646.545 478.576 647.378 478.378 648.319 478.378C649.237 478.378 650.053 478.571 650.767 478.956C651.481 479.341 652.036 479.891 652.433 480.605C652.841 481.319 653.045 482.152 653.045 483.104ZM650.07 482.339C650.07 481.84 649.9 481.444 649.56 481.149C649.22 480.854 648.795 480.707 648.285 480.707C647.797 480.707 647.384 480.849 647.044 481.132C646.715 481.415 646.511 481.818 646.432 482.339H650.07ZM657.485 480.095C657.825 479.574 658.25 479.166 658.76 478.871C659.27 478.565 659.837 478.412 660.46 478.412V481.489H659.661C658.936 481.489 658.392 481.648 658.029 481.965C657.667 482.271 657.485 482.815 657.485 483.597V488H654.578V478.514H657.485V480.095ZM665.675 475.641L665.335 483.784H662.87L662.53 475.641H665.675ZM664.145 488.136C663.635 488.136 663.216 487.989 662.887 487.694C662.57 487.388 662.411 487.014 662.411 486.572C662.411 486.119 662.57 485.739 662.887 485.433C663.216 485.127 663.635 484.974 664.145 484.974C664.644 484.974 665.052 485.127 665.369 485.433C665.698 485.739 665.862 486.119 665.862 486.572C665.862 487.014 665.698 487.388 665.369 487.694C665.052 487.989 664.644 488.136 664.145 488.136ZM587.202 530.066V538.192C587.202 539.45 586.845 540.419 586.131 541.099C585.428 541.779 584.476 542.119 583.275 542.119C582.017 542.119 581.008 541.762 580.249 541.048C579.49 540.334 579.11 539.32 579.11 538.005H582C582 538.504 582.102 538.883 582.306 539.144C582.51 539.393 582.805 539.518 583.19 539.518C583.541 539.518 583.813 539.405 584.006 539.178C584.199 538.951 584.295 538.623 584.295 538.192V530.066H587.202ZM598.917 532.514V542H596.01V540.708C595.715 541.127 595.313 541.467 594.803 541.728C594.304 541.977 593.749 542.102 593.137 542.102C592.412 542.102 591.771 541.943 591.216 541.626C590.661 541.297 590.23 540.827 589.924 540.215C589.618 539.603 589.465 538.883 589.465 538.056V532.514H592.355V537.665C592.355 538.3 592.519 538.793 592.848 539.144C593.177 539.495 593.619 539.671 594.174 539.671C594.741 539.671 595.188 539.495 595.517 539.144C595.846 538.793 596.01 538.3 596.01 537.665V532.514H598.917ZM604.864 542.136C604.037 542.136 603.3 541.994 602.654 541.711C602.008 541.428 601.498 541.042 601.124 540.555C600.75 540.056 600.541 539.501 600.495 538.889H603.368C603.402 539.218 603.555 539.484 603.827 539.688C604.099 539.892 604.434 539.994 604.83 539.994C605.193 539.994 605.471 539.926 605.663 539.79C605.867 539.643 605.969 539.456 605.969 539.229C605.969 538.957 605.828 538.759 605.544 538.634C605.261 538.498 604.802 538.351 604.167 538.192C603.487 538.033 602.921 537.869 602.467 537.699C602.014 537.518 601.623 537.24 601.294 536.866C600.966 536.481 600.801 535.965 600.801 535.319C600.801 534.775 600.949 534.282 601.243 533.84C601.549 533.387 601.991 533.03 602.569 532.769C603.159 532.508 603.856 532.378 604.66 532.378C605.85 532.378 606.785 532.673 607.465 533.262C608.157 533.851 608.553 534.633 608.655 535.608H605.969C605.924 535.279 605.777 535.019 605.527 534.826C605.289 534.633 604.972 534.537 604.575 534.537C604.235 534.537 603.975 534.605 603.793 534.741C603.612 534.866 603.521 535.041 603.521 535.268C603.521 535.54 603.663 535.744 603.946 535.88C604.241 536.016 604.694 536.152 605.306 536.288C606.009 536.469 606.581 536.651 607.023 536.832C607.465 537.002 607.851 537.285 608.179 537.682C608.519 538.067 608.695 538.589 608.706 539.246C608.706 539.801 608.548 540.3 608.23 540.742C607.924 541.173 607.477 541.513 606.887 541.762C606.309 542.011 605.635 542.136 604.864 542.136ZM615.772 539.535V542H614.293C613.239 542 612.417 541.745 611.828 541.235C611.238 540.714 610.944 539.869 610.944 538.702V534.928H609.788V532.514H610.944V530.202H613.851V532.514H615.755V534.928H613.851V538.736C613.851 539.019 613.919 539.223 614.055 539.348C614.191 539.473 614.417 539.535 614.735 539.535H615.772ZM622.455 531.528C621.945 531.528 621.526 531.381 621.197 531.086C620.88 530.78 620.721 530.406 620.721 529.964C620.721 529.511 620.88 529.137 621.197 528.842C621.526 528.536 621.945 528.383 622.455 528.383C622.954 528.383 623.362 528.536 623.679 528.842C624.008 529.137 624.172 529.511 624.172 529.964C624.172 530.406 624.008 530.78 623.679 531.086C623.362 531.381 622.954 531.528 622.455 531.528ZM623.9 532.514V542H620.993V532.514H623.9ZM631.787 532.412C632.898 532.412 633.782 532.775 634.439 533.5C635.108 534.214 635.442 535.2 635.442 536.458V542H632.552V536.849C632.552 536.214 632.388 535.721 632.059 535.37C631.73 535.019 631.288 534.843 630.733 534.843C630.178 534.843 629.736 535.019 629.407 535.37C629.078 535.721 628.914 536.214 628.914 536.849V542H626.007V532.514H628.914V533.772C629.209 533.353 629.605 533.024 630.104 532.786C630.603 532.537 631.164 532.412 631.787 532.412ZM640.487 537.257C640.487 536.271 640.685 535.41 641.082 534.673C641.49 533.936 642.051 533.37 642.765 532.973C643.49 532.576 644.317 532.378 645.247 532.378C646.437 532.378 647.428 532.69 648.222 533.313C649.026 533.936 649.553 534.815 649.803 535.948H646.709C646.448 535.223 645.944 534.86 645.196 534.86C644.663 534.86 644.238 535.07 643.921 535.489C643.603 535.897 643.445 536.486 643.445 537.257C643.445 538.028 643.603 538.623 643.921 539.042C644.238 539.45 644.663 539.654 645.196 539.654C645.944 539.654 646.448 539.291 646.709 538.566H649.803C649.553 539.677 649.026 540.549 648.222 541.184C647.417 541.819 646.425 542.136 645.247 542.136C644.317 542.136 643.49 541.938 642.765 541.541C642.051 541.144 641.49 540.578 641.082 539.841C640.685 539.104 640.487 538.243 640.487 537.257ZM650.78 537.24C650.78 536.265 650.961 535.41 651.324 534.673C651.698 533.936 652.202 533.37 652.837 532.973C653.471 532.576 654.18 532.378 654.962 532.378C655.63 532.378 656.214 532.514 656.713 532.786C657.223 533.058 657.614 533.415 657.886 533.857V532.514H660.793V542H657.886V540.657C657.602 541.099 657.206 541.456 656.696 541.728C656.197 542 655.613 542.136 654.945 542.136C654.174 542.136 653.471 541.938 652.837 541.541C652.202 541.133 651.698 540.561 651.324 539.824C650.961 539.076 650.78 538.215 650.78 537.24ZM657.886 537.257C657.886 536.532 657.682 535.959 657.274 535.54C656.877 535.121 656.39 534.911 655.812 534.911C655.234 534.911 654.741 535.121 654.333 535.54C653.936 535.948 653.738 536.515 653.738 537.24C653.738 537.965 653.936 538.543 654.333 538.974C654.741 539.393 655.234 539.603 655.812 539.603C656.39 539.603 656.877 539.393 657.274 538.974C657.682 538.555 657.886 537.982 657.886 537.257ZM666.755 542.136C665.927 542.136 665.191 541.994 664.545 541.711C663.899 541.428 663.389 541.042 663.015 540.555C662.641 540.056 662.431 539.501 662.386 538.889H665.259C665.293 539.218 665.446 539.484 665.718 539.688C665.99 539.892 666.324 539.994 666.721 539.994C667.083 539.994 667.361 539.926 667.554 539.79C667.758 539.643 667.86 539.456 667.86 539.229C667.86 538.957 667.718 538.759 667.435 538.634C667.151 538.498 666.692 538.351 666.058 538.192C665.378 538.033 664.811 537.869 664.358 537.699C663.904 537.518 663.513 537.24 663.185 536.866C662.856 536.481 662.692 535.965 662.692 535.319C662.692 534.775 662.839 534.282 663.134 533.84C663.44 533.387 663.882 533.03 664.46 532.769C665.049 532.508 665.746 532.378 666.551 532.378C667.741 532.378 668.676 532.673 669.356 533.262C670.047 533.851 670.444 534.633 670.546 535.608H667.86C667.814 535.279 667.667 535.019 667.418 534.826C667.18 534.633 666.862 534.537 666.466 534.537C666.126 534.537 665.865 534.605 665.684 534.741C665.502 534.866 665.412 535.041 665.412 535.268C665.412 535.54 665.553 535.744 665.837 535.88C666.131 536.016 666.585 536.152 667.197 536.288C667.899 536.469 668.472 536.651 668.914 536.832C669.356 537.002 669.741 537.285 670.07 537.682C670.41 538.067 670.585 538.589 670.597 539.246C670.597 539.801 670.438 540.3 670.121 540.742C669.815 541.173 669.367 541.513 668.778 541.762C668.2 542.011 667.525 542.136 666.755 542.136ZM681.317 537.104C681.317 537.376 681.3 537.659 681.266 537.954H674.687C674.733 538.543 674.92 538.997 675.248 539.314C675.588 539.62 676.002 539.773 676.489 539.773C677.215 539.773 677.719 539.467 678.002 538.855H681.096C680.938 539.478 680.649 540.039 680.229 540.538C679.821 541.037 679.306 541.428 678.682 541.711C678.059 541.994 677.362 542.136 676.591 542.136C675.662 542.136 674.835 541.938 674.109 541.541C673.384 541.144 672.817 540.578 672.409 539.841C672.001 539.104 671.797 538.243 671.797 537.257C671.797 536.271 671.996 535.41 672.392 534.673C672.8 533.936 673.367 533.37 674.092 532.973C674.818 532.576 675.651 532.378 676.591 532.378C677.509 532.378 678.325 532.571 679.039 532.956C679.753 533.341 680.309 533.891 680.705 534.605C681.113 535.319 681.317 536.152 681.317 537.104ZM678.342 536.339C678.342 535.84 678.172 535.444 677.832 535.149C677.492 534.854 677.067 534.707 676.557 534.707C676.07 534.707 675.656 534.849 675.316 535.132C674.988 535.415 674.784 535.818 674.704 536.339H678.342ZM687.813 542.136C687.303 542.136 686.884 541.989 686.555 541.694C686.238 541.388 686.079 541.014 686.079 540.572C686.079 540.119 686.238 539.739 686.555 539.433C686.884 539.127 687.303 538.974 687.813 538.974C688.312 538.974 688.72 539.127 689.037 539.433C689.366 539.739 689.53 540.119 689.53 540.572C689.53 541.014 689.366 541.388 689.037 541.694C688.72 541.989 688.312 542.136 687.813 542.136ZM687.813 535.217C687.303 535.217 686.884 535.07 686.555 534.775C686.238 534.469 686.079 534.095 686.079 533.653C686.079 533.2 686.238 532.82 686.555 532.514C686.884 532.208 687.303 532.055 687.813 532.055C688.312 532.055 688.72 532.208 689.037 532.514C689.366 532.82 689.53 533.2 689.53 533.653C689.53 534.095 689.366 534.469 689.037 534.775C688.72 535.07 688.312 535.217 687.813 535.217ZM690.502 545.553V545.281C691.636 544.102 692.514 542.708 693.137 541.099C693.761 539.49 694.072 537.818 694.072 536.084C694.072 534.339 693.749 532.644 693.103 531.001C692.457 529.346 691.539 527.93 690.349 526.751V526.479H693.205C694.373 527.544 695.274 528.927 695.908 530.627C696.543 532.316 696.86 534.135 696.86 536.084C696.86 538.011 696.554 539.807 695.942 541.473C695.33 543.139 694.475 544.499 693.375 545.553H690.502Z" fill="black"/>
<path d="M9.342 5.364V7.83H4.194V10.494H8.046V12.888H4.194V18H1.116V5.364H9.342ZM20.8778 7.956V18H17.7998V16.632C17.4878 17.076 17.0618 17.436 16.5218 17.712C15.9938 17.976 15.4058 18.108 14.7578 18.108C13.9898 18.108 13.3118 17.94 12.7238 17.604C12.1358 17.256 11.6798 16.758 11.3558 16.11C11.0318 15.462 10.8698 14.7 10.8698 13.824V7.956H13.9298V13.41C13.9298 14.082 14.1038 14.604 14.4518 14.976C14.7998 15.348 15.2678 15.534 15.8558 15.534C16.4558 15.534 16.9298 15.348 17.2778 14.976C17.6258 14.604 17.7998 14.082 17.7998 13.41V7.956H20.8778ZM29.2087 7.848C30.3847 7.848 31.3207 8.232 32.0167 9C32.7247 9.756 33.0787 10.8 33.0787 12.132V18H30.0187V12.546C30.0187 11.874 29.8447 11.352 29.4967 10.98C29.1487 10.608 28.6807 10.422 28.0927 10.422C27.5047 10.422 27.0367 10.608 26.6887 10.98C26.3407 11.352 26.1667 11.874 26.1667 12.546V18H23.0887V7.956H26.1667V9.288C26.4787 8.844 26.8987 8.496 27.4267 8.244C27.9547 7.98 28.5487 7.848 29.2087 7.848ZM34.6056 12.96C34.6056 11.928 34.7976 11.022 35.1816 10.242C35.5776 9.462 36.1116 8.862 36.7836 8.442C37.4556 8.022 38.2056 7.812 39.0336 7.812C39.6936 7.812 40.2936 7.95 40.8336 8.226C41.3856 8.502 41.8176 8.874 42.1296 9.342V4.68H45.2076V18H42.1296V16.56C41.8416 17.04 41.4276 17.424 40.8876 17.712C40.3596 18 39.7416 18.144 39.0336 18.144C38.2056 18.144 37.4556 17.934 36.7836 17.514C36.1116 17.082 35.5776 16.476 35.1816 15.696C34.7976 14.904 34.6056 13.992 34.6056 12.96ZM42.1296 12.978C42.1296 12.21 41.9136 11.604 41.4816 11.16C41.0616 10.716 40.5456 10.494 39.9336 10.494C39.3216 10.494 38.7996 10.716 38.3676 11.16C37.9476 11.592 37.7376 12.192 37.7376 12.96C37.7376 13.728 37.9476 14.34 38.3676 14.796C38.7996 15.24 39.3216 15.462 39.9336 15.462C40.5456 15.462 41.0616 15.24 41.4816 14.796C41.9136 14.352 42.1296 13.746 42.1296 12.978ZM46.8224 12.96C46.8224 11.928 47.0144 11.022 47.3984 10.242C47.7944 9.462 48.3284 8.862 49.0004 8.442C49.6724 8.022 50.4224 7.812 51.2504 7.812C51.9584 7.812 52.5764 7.956 53.1044 8.244C53.6444 8.532 54.0584 8.91 54.3464 9.378V7.956H57.4244V18H54.3464V16.578C54.0464 17.046 53.6264 17.424 53.0864 17.712C52.5584 18 51.9404 18.144 51.2324 18.144C50.4164 18.144 49.6724 17.934 49.0004 17.514C48.3284 17.082 47.7944 16.476 47.3984 15.696C47.0144 14.904 46.8224 13.992 46.8224 12.96ZM54.3464 12.978C54.3464 12.21 54.1304 11.604 53.6984 11.16C53.2784 10.716 52.7624 10.494 52.1504 10.494C51.5384 10.494 51.0164 10.716 50.5844 11.16C50.1644 11.592 49.9544 12.192 49.9544 12.96C49.9544 13.728 50.1644 14.34 50.5844 14.796C51.0164 15.24 51.5384 15.462 52.1504 15.462C52.7624 15.462 53.2784 15.24 53.6984 14.796C54.1304 14.352 54.3464 13.746 54.3464 12.978ZM72.4672 7.848C73.7152 7.848 74.7052 8.226 75.4372 8.982C76.1812 9.738 76.5532 10.788 76.5532 12.132V18H73.4932V12.546C73.4932 11.898 73.3192 11.4 72.9712 11.052C72.6352 10.692 72.1672 10.512 71.5672 10.512C70.9672 10.512 70.4932 10.692 70.1452 11.052C69.8092 11.4 69.6412 11.898 69.6412 12.546V18H66.5812V12.546C66.5812 11.898 66.4072 11.4 66.0592 11.052C65.7232 10.692 65.2552 10.512 64.6552 10.512C64.0552 10.512 63.5812 10.692 63.2332 11.052C62.8972 11.4 62.7292 11.898 62.7292 12.546V18H59.6512V7.956H62.7292V9.216C63.0412 8.796 63.4492 8.466 63.9532 8.226C64.4572 7.974 65.0272 7.848 65.6632 7.848C66.4192 7.848 67.0912 8.01 67.6792 8.334C68.2792 8.658 68.7472 9.12 69.0832 9.72C69.4312 9.168 69.9052 8.718 70.5052 8.37C71.1052 8.022 71.7592 7.848 72.4672 7.848ZM88.1738 12.816C88.1738 13.104 88.1558 13.404 88.1198 13.716H81.1538C81.2018 14.34 81.3998 14.82 81.7478 15.156C82.1078 15.48 82.5458 15.642 83.0618 15.642C83.8298 15.642 84.3638 15.318 84.6638 14.67H87.9398C87.7718 15.33 87.4658 15.924 87.0218 16.452C86.5898 16.98 86.0438 17.394 85.3838 17.694C84.7238 17.994 83.9858 18.144 83.1698 18.144C82.1858 18.144 81.3098 17.934 80.5418 17.514C79.7738 17.094 79.1738 16.494 78.7418 15.714C78.3098 14.934 78.0938 14.022 78.0938 12.978C78.0938 11.934 78.3038 11.022 78.7238 10.242C79.1558 9.462 79.7558 8.862 80.5238 8.442C81.2918 8.022 82.1738 7.812 83.1698 7.812C84.1418 7.812 85.0058 8.016 85.7618 8.424C86.5178 8.832 87.1058 9.414 87.5258 10.17C87.9578 10.926 88.1738 11.808 88.1738 12.816ZM85.0238 12.006C85.0238 11.478 84.8438 11.058 84.4838 10.746C84.1238 10.434 83.6738 10.278 83.1338 10.278C82.6178 10.278 82.1798 10.428 81.8198 10.728C81.4718 11.028 81.2558 11.454 81.1718 12.006H85.0238ZM95.9176 7.848C97.0936 7.848 98.0296 8.232 98.7256 9C99.4336 9.756 99.7876 10.8 99.7876 12.132V18H96.7276V12.546C96.7276 11.874 96.5536 11.352 96.2056 10.98C95.8576 10.608 95.3896 10.422 94.8016 10.422C94.2136 10.422 93.7456 10.608 93.3976 10.98C93.0496 11.352 92.8756 11.874 92.8756 12.546V18H89.7976V7.956H92.8756V9.288C93.1876 8.844 93.6076 8.496 94.1356 8.244C94.6636 7.98 95.2576 7.848 95.9176 7.848ZM107.525 15.39V18H105.959C104.843 18 103.973 17.73 103.349 17.19C102.725 16.638 102.413 15.744 102.413 14.508V10.512H101.189V7.956H102.413V5.508H105.491V7.956H107.507V10.512H105.491V14.544C105.491 14.844 105.563 15.06 105.707 15.192C105.851 15.324 106.091 15.39 106.427 15.39H107.525ZM108.627 12.96C108.627 11.928 108.819 11.022 109.203 10.242C109.599 9.462 110.133 8.862 110.805 8.442C111.477 8.022 112.227 7.812 113.055 7.812C113.763 7.812 114.381 7.956 114.909 8.244C115.449 8.532 115.863 8.91 116.151 9.378V7.956H119.229V18H116.151V16.578C115.851 17.046 115.431 17.424 114.891 17.712C114.363 18 113.745 18.144 113.037 18.144C112.221 18.144 111.477 17.934 110.805 17.514C110.133 17.082 109.599 16.476 109.203 15.696C108.819 14.904 108.627 13.992 108.627 12.96ZM116.151 12.978C116.151 12.21 115.935 11.604 115.503 11.16C115.083 10.716 114.567 10.494 113.955 10.494C113.343 10.494 112.821 10.716 112.389 11.16C111.969 11.592 111.759 12.192 111.759 12.96C111.759 13.728 111.969 14.34 112.389 14.796C112.821 15.24 113.343 15.462 113.955 15.462C114.567 15.462 115.083 15.24 115.503 14.796C115.935 14.352 116.151 13.746 116.151 12.978ZM124.534 4.68V18H121.456V4.68H124.534Z" fill="white"/>
<defs>
<filter id="filter0_d_507_2" x="431" y="205" width="415" height="441" filterUnits="userSpaceOnUse" color-interpolation-filters="sRGB">
<feFlood flood-opacity="0" result="BackgroundImageFix"/>
<feColorMatrix in="SourceAlpha" type="matrix" values="0 0 0 0 0 0 0 0 0 0 0 0 0 0 0 0 0 0 127 0" result="hardAlpha"/>
<feOffset dy="4"/>
<feGaussianBlur stdDeviation="2"/>
<feComposite in2="hardAlpha" operator="out"/>
<feColorMatrix type="matrix" values="0 0 0 0 0 0 0 0 0 0 0 0 0 0 0 0 0 0 0.25 0"/>
<feBlend mode="normal" in2="BackgroundImageFix" result="effect1_dropShadow_507_2"/>
<feBlend mode="normal" in="SourceGraphic" in2="effect1_dropShadow_507_2" result="shape"/>
</filter>
</defs>
</svg>
