<svg width="339" height="28" viewBox="0 0 339 28" fill="none" xmlns="http://www.w3.org/2000/svg">
<path d="M13.802 3.45V6.875H9.15195V21H4.87695V6.875H0.226953V3.45H13.802ZM24.5225 6.9C26.1225 6.9 27.4058 7.43333 28.3725 8.5C29.3391 9.55 29.8225 11 29.8225 12.85V21H25.5725V13.425C25.5725 12.4917 25.3308 11.7667 24.8475 11.25C24.3641 10.7333 23.7141 10.475 22.8975 10.475C22.0808 10.475 21.4308 10.7333 20.9475 11.25C20.4641 11.7667 20.2225 12.4917 20.2225 13.425V21H15.9475V2.5H20.2225V8.925C20.6558 8.30833 21.2475 7.81667 21.9975 7.45C22.7475 7.08333 23.5891 6.9 24.5225 6.9ZM31.9432 14C31.9432 12.5667 32.2098 11.3083 32.7432 10.225C33.2932 9.14167 34.0348 8.30833 34.9682 7.725C35.9015 7.14167 36.9432 6.85 38.0932 6.85C39.0765 6.85 39.9348 7.05 40.6682 7.45C41.4182 7.85 41.9932 8.375 42.3932 9.025V7.05H46.6682V21H42.3932V19.025C41.9765 19.675 41.3932 20.2 40.6432 20.6C39.9098 21 39.0515 21.2 38.0682 21.2C36.9348 21.2 35.9015 20.9083 34.9682 20.325C34.0348 19.725 33.2932 18.8833 32.7432 17.8C32.2098 16.7 31.9432 15.4333 31.9432 14ZM42.3932 14.025C42.3932 12.9583 42.0932 12.1167 41.4932 11.5C40.9098 10.8833 40.1932 10.575 39.3432 10.575C38.4932 10.575 37.7682 10.8833 37.1682 11.5C36.5848 12.1 36.2932 12.9333 36.2932 14C36.2932 15.0667 36.5848 15.9167 37.1682 16.55C37.7682 17.1667 38.4932 17.475 39.3432 17.475C40.1932 17.475 40.9098 17.1667 41.4932 16.55C42.0932 15.9333 42.3932 15.0917 42.3932 14.025ZM58.2609 6.9C59.8943 6.9 61.1943 7.43333 62.1609 8.5C63.1443 9.55 63.6359 11 63.6359 12.85V21H59.3859V13.425C59.3859 12.4917 59.1443 11.7667 58.6609 11.25C58.1776 10.7333 57.5276 10.475 56.7109 10.475C55.8943 10.475 55.2443 10.7333 54.7609 11.25C54.2776 11.7667 54.0359 12.4917 54.0359 13.425V21H49.7609V7.05H54.0359V8.9C54.4693 8.28333 55.0526 7.8 55.7859 7.45C56.5193 7.08333 57.3443 6.9 58.2609 6.9ZM75.1316 21L70.8816 15.15V21H66.6066V2.5H70.8816V12.725L75.1066 7.05H80.3816L74.5816 14.05L80.4316 21H75.1316ZM101.609 7.05L92.8586 27.625H88.2586L91.4586 20.525L85.7836 7.05H90.5586L93.7836 15.775L96.9836 7.05H101.609ZM109.504 21.2C108.138 21.2 106.904 20.9083 105.804 20.325C104.721 19.7417 103.863 18.9083 103.229 17.825C102.613 16.7417 102.304 15.475 102.304 14.025C102.304 12.5917 102.621 11.3333 103.254 10.25C103.888 9.15 104.754 8.30833 105.854 7.725C106.954 7.14167 108.188 6.85 109.554 6.85C110.921 6.85 112.154 7.14167 113.254 7.725C114.354 8.30833 115.221 9.15 115.854 10.25C116.488 11.3333 116.804 12.5917 116.804 14.025C116.804 15.4583 116.479 16.725 115.829 17.825C115.196 18.9083 114.321 19.7417 113.204 20.325C112.104 20.9083 110.871 21.2 109.504 21.2ZM109.504 17.5C110.321 17.5 111.013 17.2 111.579 16.6C112.163 16 112.454 15.1417 112.454 14.025C112.454 12.9083 112.171 12.05 111.604 11.45C111.054 10.85 110.371 10.55 109.554 10.55C108.721 10.55 108.029 10.85 107.479 11.45C106.929 12.0333 106.654 12.8917 106.654 14.025C106.654 15.1417 106.921 16 107.454 16.6C108.004 17.2 108.688 17.5 109.504 17.5ZM132.847 7.05V21H128.572V19.1C128.139 19.7167 127.547 20.2167 126.797 20.6C126.064 20.9667 125.247 21.15 124.347 21.15C123.281 21.15 122.339 20.9167 121.522 20.45C120.706 19.9667 120.072 19.275 119.622 18.375C119.172 17.475 118.947 16.4167 118.947 15.2V7.05H123.197V14.625C123.197 15.5583 123.439 16.2833 123.922 16.8C124.406 17.3167 125.056 17.575 125.872 17.575C126.706 17.575 127.364 17.3167 127.847 16.8C128.331 16.2833 128.572 15.5583 128.572 14.625V7.05H132.847ZM148.216 10.6H145.916V21H141.641V10.6H140.091V7.05H141.641V6.65C141.641 4.93333 142.133 3.63333 143.116 2.75C144.099 1.85 145.541 1.4 147.441 1.4C147.758 1.4 147.991 1.40833 148.141 1.425V5.05C147.324 5 146.749 5.11667 146.416 5.4C146.083 5.68333 145.916 6.19167 145.916 6.925V7.05H148.216V10.6ZM156.575 21.2C155.208 21.2 153.975 20.9083 152.875 20.325C151.791 19.7417 150.933 18.9083 150.3 17.825C149.683 16.7417 149.375 15.475 149.375 14.025C149.375 12.5917 149.691 11.3333 150.325 10.25C150.958 9.15 151.825 8.30833 152.925 7.725C154.025 7.14167 155.258 6.85 156.625 6.85C157.991 6.85 159.225 7.14167 160.325 7.725C161.425 8.30833 162.291 9.15 162.925 10.25C163.558 11.3333 163.875 12.5917 163.875 14.025C163.875 15.4583 163.55 16.725 162.9 17.825C162.266 18.9083 161.391 19.7417 160.275 20.325C159.175 20.9083 157.941 21.2 156.575 21.2ZM156.575 17.5C157.391 17.5 158.083 17.2 158.65 16.6C159.233 16 159.525 15.1417 159.525 14.025C159.525 12.9083 159.241 12.05 158.675 11.45C158.125 10.85 157.441 10.55 156.625 10.55C155.791 10.55 155.1 10.85 154.55 11.45C154 12.0333 153.725 12.8917 153.725 14.025C153.725 15.1417 153.991 16 154.525 16.6C155.075 17.2 155.758 17.5 156.575 17.5ZM170.418 9.375C170.918 8.60833 171.543 8.00833 172.293 7.575C173.043 7.125 173.876 6.9 174.793 6.9V11.425H173.618C172.551 11.425 171.751 11.6583 171.218 12.125C170.684 12.575 170.418 13.375 170.418 14.525V21H166.143V7.05H170.418V9.375ZM196.384 7.05L187.634 27.625H183.034L186.234 20.525L180.559 7.05H185.334L188.559 15.775L191.759 7.05H196.384ZM204.28 21.2C202.913 21.2 201.68 20.9083 200.58 20.325C199.497 19.7417 198.638 18.9083 198.005 17.825C197.388 16.7417 197.08 15.475 197.08 14.025C197.08 12.5917 197.397 11.3333 198.03 10.25C198.663 9.15 199.53 8.30833 200.63 7.725C201.73 7.14167 202.963 6.85 204.33 6.85C205.697 6.85 206.93 7.14167 208.03 7.725C209.13 8.30833 209.997 9.15 210.63 10.25C211.263 11.3333 211.58 12.5917 211.58 14.025C211.58 15.4583 211.255 16.725 210.605 17.825C209.972 18.9083 209.097 19.7417 207.98 20.325C206.88 20.9083 205.647 21.2 204.28 21.2ZM204.28 17.5C205.097 17.5 205.788 17.2 206.355 16.6C206.938 16 207.23 15.1417 207.23 14.025C207.23 12.9083 206.947 12.05 206.38 11.45C205.83 10.85 205.147 10.55 204.33 10.55C203.497 10.55 202.805 10.85 202.255 11.45C201.705 12.0333 201.43 12.8917 201.43 14.025C201.43 15.1417 201.697 16 202.23 16.6C202.78 17.2 203.463 17.5 204.28 17.5ZM227.623 7.05V21H223.348V19.1C222.915 19.7167 222.323 20.2167 221.573 20.6C220.84 20.9667 220.023 21.15 219.123 21.15C218.056 21.15 217.115 20.9167 216.298 20.45C215.481 19.9667 214.848 19.275 214.398 18.375C213.948 17.475 213.723 16.4167 213.723 15.2V7.05H217.973V14.625C217.973 15.5583 218.215 16.2833 218.698 16.8C219.181 17.3167 219.831 17.575 220.648 17.575C221.481 17.575 222.14 17.3167 222.623 16.8C223.106 16.2833 223.348 15.5583 223.348 14.625V7.05H227.623ZM234.969 9.375C235.469 8.60833 236.094 8.00833 236.844 7.575C237.594 7.125 238.427 6.9 239.344 6.9V11.425H238.169C237.102 11.425 236.302 11.6583 235.769 12.125C235.235 12.575 234.969 13.375 234.969 14.525V21H230.694V7.05H234.969V9.375ZM252.36 21.2C251.143 21.2 250.06 20.9917 249.11 20.575C248.16 20.1583 247.41 19.5917 246.86 18.875C246.31 18.1417 246.001 17.325 245.935 16.425H250.16C250.21 16.9083 250.435 17.3 250.835 17.6C251.235 17.9 251.726 18.05 252.31 18.05C252.843 18.05 253.251 17.95 253.535 17.75C253.835 17.5333 253.985 17.2583 253.985 16.925C253.985 16.525 253.776 16.2333 253.36 16.05C252.943 15.85 252.268 15.6333 251.335 15.4C250.335 15.1667 249.501 14.925 248.835 14.675C248.168 14.4083 247.593 14 247.11 13.45C246.626 12.8833 246.385 12.125 246.385 11.175C246.385 10.375 246.601 9.65 247.035 9C247.485 8.33333 248.135 7.80833 248.985 7.425C249.851 7.04167 250.876 6.85 252.06 6.85C253.81 6.85 255.185 7.28333 256.185 8.15C257.201 9.01667 257.785 10.1667 257.935 11.6H253.985C253.918 11.1167 253.701 10.7333 253.335 10.45C252.985 10.1667 252.518 10.025 251.935 10.025C251.435 10.025 251.051 10.125 250.785 10.325C250.518 10.5083 250.385 10.7667 250.385 11.1C250.385 11.5 250.593 11.8 251.01 12C251.443 12.2 252.11 12.4 253.01 12.6C254.043 12.8667 254.885 13.1333 255.535 13.4C256.185 13.65 256.751 14.0667 257.235 14.65C257.735 15.2167 257.993 15.9833 258.01 16.95C258.01 17.7667 257.776 18.5 257.31 19.15C256.86 19.7833 256.201 20.2833 255.335 20.65C254.485 21.0167 253.493 21.2 252.36 21.2ZM262.775 5.6C262.025 5.6 261.409 5.38333 260.925 4.95C260.459 4.5 260.225 3.95 260.225 3.3C260.225 2.63333 260.459 2.08333 260.925 1.65C261.409 1.2 262.025 0.974999 262.775 0.974999C263.509 0.974999 264.109 1.2 264.575 1.65C265.059 2.08333 265.3 2.63333 265.3 3.3C265.3 3.95 265.059 4.5 264.575 4.95C264.109 5.38333 263.509 5.6 262.775 5.6ZM264.9 7.05V21H260.625V7.05H264.9ZM273.298 6.85C274.282 6.85 275.14 7.05 275.873 7.45C276.623 7.85 277.198 8.375 277.598 9.025V7.05H281.873V20.975C281.873 22.2583 281.615 23.4167 281.098 24.45C280.598 25.5 279.823 26.3333 278.773 26.95C277.74 27.5667 276.448 27.875 274.898 27.875C272.832 27.875 271.157 27.3833 269.873 26.4C268.59 25.4333 267.857 24.1167 267.673 22.45H271.898C272.032 22.9833 272.348 23.4 272.848 23.7C273.348 24.0167 273.965 24.175 274.698 24.175C275.582 24.175 276.282 23.9167 276.798 23.4C277.332 22.9 277.598 22.0917 277.598 20.975V19C277.182 19.65 276.607 20.1833 275.873 20.6C275.14 21 274.282 21.2 273.298 21.2C272.148 21.2 271.107 20.9083 270.173 20.325C269.24 19.725 268.498 18.8833 267.948 17.8C267.415 16.7 267.148 15.4333 267.148 14C267.148 12.5667 267.415 11.3083 267.948 10.225C268.498 9.14167 269.24 8.30833 270.173 7.725C271.107 7.14167 272.148 6.85 273.298 6.85ZM277.598 14.025C277.598 12.9583 277.298 12.1167 276.698 11.5C276.115 10.8833 275.398 10.575 274.548 10.575C273.698 10.575 272.973 10.8833 272.373 11.5C271.79 12.1 271.498 12.9333 271.498 14C271.498 15.0667 271.79 15.9167 272.373 16.55C272.973 17.1667 273.698 17.475 274.548 17.475C275.398 17.475 276.115 17.1667 276.698 16.55C277.298 15.9333 277.598 15.0917 277.598 14.025ZM293.466 6.9C295.099 6.9 296.399 7.43333 297.366 8.5C298.349 9.55 298.841 11 298.841 12.85V21H294.591V13.425C294.591 12.4917 294.349 11.7667 293.866 11.25C293.383 10.7333 292.733 10.475 291.916 10.475C291.099 10.475 290.449 10.7333 289.966 11.25C289.483 11.7667 289.241 12.4917 289.241 13.425V21H284.966V7.05H289.241V8.9C289.674 8.28333 290.258 7.8 290.991 7.45C291.724 7.08333 292.549 6.9 293.466 6.9ZM320.885 7.05V21H316.61V19.1C316.176 19.7167 315.585 20.2167 314.835 20.6C314.101 20.9667 313.285 21.15 312.385 21.15C311.318 21.15 310.376 20.9167 309.56 20.45C308.743 19.9667 308.11 19.275 307.66 18.375C307.21 17.475 306.985 16.4167 306.985 15.2V7.05H311.235V14.625C311.235 15.5583 311.476 16.2833 311.96 16.8C312.443 17.3167 313.093 17.575 313.91 17.575C314.743 17.575 315.401 17.3167 315.885 16.8C316.368 16.2833 316.61 15.5583 316.61 14.625V7.05H320.885ZM328.23 9.025C328.647 8.375 329.222 7.85 329.955 7.45C330.689 7.05 331.547 6.85 332.53 6.85C333.68 6.85 334.722 7.14167 335.655 7.725C336.589 8.30833 337.322 9.14167 337.855 10.225C338.405 11.3083 338.68 12.5667 338.68 14C338.68 15.4333 338.405 16.7 337.855 17.8C337.322 18.8833 336.589 19.725 335.655 20.325C334.722 20.9083 333.68 21.2 332.53 21.2C331.564 21.2 330.705 21 329.955 20.6C329.222 20.2 328.647 19.6833 328.23 19.05V27.65H323.955V7.05H328.23V9.025ZM334.33 14C334.33 12.9333 334.03 12.1 333.43 11.5C332.847 10.8833 332.122 10.575 331.255 10.575C330.405 10.575 329.68 10.8833 329.08 11.5C328.497 12.1167 328.205 12.9583 328.205 14.025C328.205 15.0917 328.497 15.9333 329.08 16.55C329.68 17.1667 330.405 17.475 331.255 17.475C332.105 17.475 332.83 17.1667 333.43 16.55C334.03 15.9167 334.33 15.0667 334.33 14Z" fill="black"/>
</svg>
