<svg width="269" height="180" viewBox="0 0 269 180" fill="none" xmlns="http://www.w3.org/2000/svg">
<path d="M17.4535 2.066L14.3425 14H10.8235L8.91954 6.146L6.94754 14H3.42854L0.402539 2.066H3.51354L5.23054 10.753L7.35554 2.066H10.5515L12.5915 10.753L14.3255 2.066H17.4535ZM27.8534 9.104C27.8534 9.376 27.8364 9.65933 27.8024 9.954H21.2234C21.2688 10.5433 21.4558 10.9967 21.7844 11.314C22.1244 11.62 22.5381 11.773 23.0254 11.773C23.7508 11.773 24.2551 11.467 24.5384 10.855H27.6324C27.4738 11.4783 27.1848 12.0393 26.7654 12.538C26.3574 13.0367 25.8418 13.4277 25.2184 13.711C24.5951 13.9943 23.8981 14.136 23.1274 14.136C22.1981 14.136 21.3708 13.9377 20.6454 13.541C19.9201 13.1443 19.3534 12.5777 18.9454 11.841C18.5374 11.1043 18.3334 10.243 18.3334 9.257C18.3334 8.271 18.5318 7.40967 18.9284 6.673C19.3364 5.93633 19.9031 5.36967 20.6284 4.973C21.3538 4.57633 22.1868 4.378 23.1274 4.378C24.0454 4.378 24.8614 4.57067 25.5754 4.956C26.2894 5.34133 26.8448 5.891 27.2414 6.605C27.6494 7.319 27.8534 8.152 27.8534 9.104ZM24.8784 8.339C24.8784 7.84033 24.7084 7.44367 24.3684 7.149C24.0284 6.85433 23.6034 6.707 23.0934 6.707C22.6061 6.707 22.1924 6.84867 21.8524 7.132C21.5238 7.41533 21.3198 7.81767 21.2404 8.339H24.8784ZM36.8485 14.136C36.0212 14.136 35.2845 13.9943 34.6385 13.711C33.9925 13.4277 33.4825 13.0423 33.1085 12.555C32.7345 12.0563 32.5249 11.501 32.4795 10.889H35.3525C35.3865 11.2177 35.5395 11.484 35.8115 11.688C36.0835 11.892 36.4179 11.994 36.8145 11.994C37.1772 11.994 37.4549 11.926 37.6475 11.79C37.8515 11.6427 37.9535 11.4557 37.9535 11.229C37.9535 10.957 37.8119 10.7587 37.5285 10.634C37.2452 10.498 36.7862 10.3507 36.1515 10.192C35.4715 10.0333 34.9049 9.869 34.4515 9.699C33.9982 9.51767 33.6072 9.24 33.2785 8.866C32.9499 8.48067 32.7855 7.965 32.7855 7.319C32.7855 6.775 32.9329 6.282 33.2275 5.84C33.5335 5.38667 33.9755 5.02967 34.5535 4.769C35.1429 4.50833 35.8399 4.378 36.6445 4.378C37.8345 4.378 38.7695 4.67267 39.4495 5.262C40.1409 5.85133 40.5375 6.63333 40.6395 7.608H37.9535C37.9082 7.27933 37.7609 7.01867 37.5115 6.826C37.2735 6.63333 36.9562 6.537 36.5595 6.537C36.2195 6.537 35.9589 6.605 35.7775 6.741C35.5962 6.86567 35.5055 7.04133 35.5055 7.268C35.5055 7.54 35.6472 7.744 35.9305 7.88C36.2252 8.016 36.6785 8.152 37.2905 8.288C37.9932 8.46933 38.5655 8.65067 39.0075 8.832C39.4495 9.002 39.8349 9.28533 40.1635 9.682C40.5035 10.0673 40.6792 10.5887 40.6905 11.246C40.6905 11.8013 40.5319 12.3 40.2145 12.742C39.9085 13.1727 39.4609 13.5127 38.8715 13.762C38.2935 14.0113 37.6192 14.136 36.8485 14.136ZM51.411 9.104C51.411 9.376 51.394 9.65933 51.36 9.954H44.781C44.8264 10.5433 45.0134 10.9967 45.342 11.314C45.682 11.62 46.0957 11.773 46.583 11.773C47.3084 11.773 47.8127 11.467 48.096 10.855H51.19C51.0314 11.4783 50.7424 12.0393 50.323 12.538C49.915 13.0367 49.3994 13.4277 48.776 13.711C48.1527 13.9943 47.4557 14.136 46.685 14.136C45.7557 14.136 44.9284 13.9377 44.203 13.541C43.4777 13.1443 42.911 12.5777 42.503 11.841C42.095 11.1043 41.891 10.243 41.891 9.257C41.891 8.271 42.0894 7.40967 42.486 6.673C42.894 5.93633 43.4607 5.36967 44.186 4.973C44.9114 4.57633 45.7444 4.378 46.685 4.378C47.603 4.378 48.419 4.57067 49.133 4.956C49.847 5.34133 50.4024 5.891 50.799 6.605C51.207 7.319 51.411 8.152 51.411 9.104ZM48.436 8.339C48.436 7.84033 48.266 7.44367 47.926 7.149C47.586 6.85433 47.161 6.707 46.651 6.707C46.1637 6.707 45.75 6.84867 45.41 7.132C45.0814 7.41533 44.8774 7.81767 44.798 8.339H48.436ZM58.7246 4.412C59.8353 4.412 60.7193 4.77467 61.3766 5.5C62.0453 6.214 62.3796 7.2 62.3796 8.458V14H59.4896V8.849C59.4896 8.21433 59.3253 7.72133 58.9966 7.37C58.668 7.01867 58.226 6.843 57.6706 6.843C57.1153 6.843 56.6733 7.01867 56.3446 7.37C56.016 7.72133 55.8516 8.21433 55.8516 8.849V14H52.9446V4.514H55.8516V5.772C56.1463 5.35267 56.543 5.024 57.0416 4.786C57.5403 4.53667 58.1013 4.412 58.7246 4.412ZM69.6867 11.535V14H68.2077C67.1537 14 66.332 13.745 65.7427 13.235C65.1534 12.7137 64.8587 11.8693 64.8587 10.702V6.928H63.7027V4.514H64.8587V2.202H67.7657V4.514H69.6697V6.928H67.7657V10.736C67.7657 11.0193 67.8337 11.2233 67.9697 11.348C68.1057 11.4727 68.3324 11.535 68.6497 11.535H69.6867ZM74.3305 9.24C74.3305 8.26533 74.5118 7.40967 74.8745 6.673C75.2485 5.93633 75.7528 5.36967 76.3875 4.973C77.0222 4.57633 77.7305 4.378 78.5125 4.378C79.1812 4.378 79.7648 4.514 80.2635 4.786C80.7735 5.058 81.1645 5.415 81.4365 5.857V4.514H84.3435V14H81.4365V12.657C81.1532 13.099 80.7565 13.456 80.2465 13.728C79.7478 14 79.1642 14.136 78.4955 14.136C77.7248 14.136 77.0222 13.9377 76.3875 13.541C75.7528 13.133 75.2485 12.5607 74.8745 11.824C74.5118 11.076 74.3305 10.2147 74.3305 9.24ZM81.4365 9.257C81.4365 8.53167 81.2325 7.95933 80.8245 7.54C80.4278 7.12067 79.9405 6.911 79.3625 6.911C78.7845 6.911 78.2915 7.12067 77.8835 7.54C77.4868 7.948 77.2885 8.51467 77.2885 9.24C77.2885 9.96533 77.4868 10.5433 77.8835 10.974C78.2915 11.3933 78.7845 11.603 79.3625 11.603C79.9405 11.603 80.4278 11.3933 80.8245 10.974C81.2325 10.5547 81.4365 9.98233 81.4365 9.257ZM103.666 4.514L101.099 14H97.8861L96.3901 7.846L94.8431 14H91.6471L89.0631 4.514H91.9701L93.3131 11.297L94.9111 4.514H97.9881L99.6031 11.263L100.929 4.514H103.666ZM113.717 9.104C113.717 9.376 113.7 9.65933 113.666 9.954H107.087C107.132 10.5433 107.319 10.9967 107.648 11.314C107.988 11.62 108.401 11.773 108.889 11.773C109.614 11.773 110.118 11.467 110.402 10.855H113.496C113.337 11.4783 113.048 12.0393 112.629 12.538C112.221 13.0367 111.705 13.4277 111.082 13.711C110.458 13.9943 109.761 14.136 108.991 14.136C108.061 14.136 107.234 13.9377 106.509 13.541C105.783 13.1443 105.217 12.5777 104.809 11.841C104.401 11.1043 104.197 10.243 104.197 9.257C104.197 8.271 104.395 7.40967 104.792 6.673C105.2 5.93633 105.766 5.36967 106.492 4.973C107.217 4.57633 108.05 4.378 108.991 4.378C109.909 4.378 110.725 4.57067 111.439 4.956C112.153 5.34133 112.708 5.891 113.105 6.605C113.513 7.319 113.717 8.152 113.717 9.104ZM110.742 8.339C110.742 7.84033 110.572 7.44367 110.232 7.149C109.892 6.85433 109.467 6.707 108.957 6.707C108.469 6.707 108.056 6.84867 107.716 7.132C107.387 7.41533 107.183 7.81767 107.104 8.339H110.742ZM118.157 1.42V14H115.25V1.42H118.157ZM119.686 9.257C119.686 8.271 119.884 7.40967 120.281 6.673C120.689 5.93633 121.25 5.36967 121.964 4.973C122.689 4.57633 123.517 4.378 124.446 4.378C125.636 4.378 126.628 4.68967 127.421 5.313C128.226 5.93633 128.753 6.81467 129.002 7.948H125.908C125.647 7.22267 125.143 6.86 124.395 6.86C123.862 6.86 123.437 7.06967 123.12 7.489C122.803 7.897 122.644 8.48633 122.644 9.257C122.644 10.0277 122.803 10.6227 123.12 11.042C123.437 11.45 123.862 11.654 124.395 11.654C125.143 11.654 125.647 11.2913 125.908 10.566H129.002C128.753 11.6767 128.226 12.5493 127.421 13.184C126.616 13.8187 125.625 14.136 124.446 14.136C123.517 14.136 122.689 13.9377 121.964 13.541C121.25 13.1443 120.689 12.5777 120.281 11.841C119.884 11.1043 119.686 10.243 119.686 9.257ZM134.875 14.136C133.946 14.136 133.107 13.9377 132.359 13.541C131.622 13.1443 131.039 12.5777 130.608 11.841C130.189 11.1043 129.979 10.243 129.979 9.257C129.979 8.28233 130.194 7.42667 130.625 6.69C131.056 5.942 131.645 5.36967 132.393 4.973C133.141 4.57633 133.98 4.378 134.909 4.378C135.838 4.378 136.677 4.57633 137.425 4.973C138.173 5.36967 138.762 5.942 139.193 6.69C139.624 7.42667 139.839 8.28233 139.839 9.257C139.839 10.2317 139.618 11.093 139.176 11.841C138.745 12.5777 138.15 13.1443 137.391 13.541C136.643 13.9377 135.804 14.136 134.875 14.136ZM134.875 11.62C135.43 11.62 135.901 11.416 136.286 11.008C136.683 10.6 136.881 10.0163 136.881 9.257C136.881 8.49767 136.688 7.914 136.303 7.506C135.929 7.098 135.464 6.894 134.909 6.894C134.342 6.894 133.872 7.098 133.498 7.506C133.124 7.90267 132.937 8.48633 132.937 9.257C132.937 10.0163 133.118 10.6 133.481 11.008C133.855 11.416 134.32 11.62 134.875 11.62ZM153.485 4.412C154.664 4.412 155.599 4.769 156.29 5.483C156.993 6.197 157.344 7.18867 157.344 8.458V14H154.454V8.849C154.454 8.237 154.29 7.76667 153.961 7.438C153.644 7.098 153.202 6.928 152.635 6.928C152.068 6.928 151.621 7.098 151.292 7.438C150.975 7.76667 150.816 8.237 150.816 8.849V14H147.926V8.849C147.926 8.237 147.762 7.76667 147.433 7.438C147.116 7.098 146.674 6.928 146.107 6.928C145.54 6.928 145.093 7.098 144.764 7.438C144.447 7.76667 144.288 8.237 144.288 8.849V14H141.381V4.514H144.288V5.704C144.583 5.30733 144.968 4.99567 145.444 4.769C145.92 4.531 146.458 4.412 147.059 4.412C147.773 4.412 148.408 4.565 148.963 4.871C149.53 5.177 149.972 5.61333 150.289 6.18C150.618 5.65867 151.065 5.23367 151.632 4.905C152.199 4.57633 152.816 4.412 153.485 4.412ZM168.319 9.104C168.319 9.376 168.302 9.65933 168.268 9.954H161.689C161.735 10.5433 161.922 10.9967 162.25 11.314C162.59 11.62 163.004 11.773 163.491 11.773C164.217 11.773 164.721 11.467 165.004 10.855H168.098C167.94 11.4783 167.651 12.0393 167.231 12.538C166.823 13.0367 166.308 13.4277 165.684 13.711C165.061 13.9943 164.364 14.136 163.593 14.136C162.664 14.136 161.837 13.9377 161.111 13.541C160.386 13.1443 159.819 12.5777 159.411 11.841C159.003 11.1043 158.799 10.243 158.799 9.257C158.799 8.271 158.998 7.40967 159.394 6.673C159.802 5.93633 160.369 5.36967 161.094 4.973C161.82 4.57633 162.653 4.378 163.593 4.378C164.511 4.378 165.327 4.57067 166.041 4.956C166.755 5.34133 167.311 5.891 167.707 6.605C168.115 7.319 168.319 8.152 168.319 9.104ZM165.344 8.339C165.344 7.84033 165.174 7.44367 164.834 7.149C164.494 6.85433 164.069 6.707 163.559 6.707C163.072 6.707 162.658 6.84867 162.318 7.132C161.99 7.41533 161.786 7.81767 161.706 8.339H165.344ZM182.397 9.104C182.397 9.376 182.38 9.65933 182.346 9.954H175.767C175.813 10.5433 176 10.9967 176.328 11.314C176.668 11.62 177.082 11.773 177.569 11.773C178.295 11.773 178.799 11.467 179.082 10.855H182.176C182.018 11.4783 181.729 12.0393 181.309 12.538C180.901 13.0367 180.386 13.4277 179.762 13.711C179.139 13.9943 178.442 14.136 177.671 14.136C176.742 14.136 175.915 13.9377 175.189 13.541C174.464 13.1443 173.897 12.5777 173.489 11.841C173.081 11.1043 172.877 10.243 172.877 9.257C172.877 8.271 173.076 7.40967 173.472 6.673C173.88 5.93633 174.447 5.36967 175.172 4.973C175.898 4.57633 176.731 4.378 177.671 4.378C178.589 4.378 179.405 4.57067 180.119 4.956C180.833 5.34133 181.389 5.891 181.785 6.605C182.193 7.319 182.397 8.152 182.397 9.104ZM179.422 8.339C179.422 7.84033 179.252 7.44367 178.912 7.149C178.572 6.85433 178.147 6.707 177.637 6.707C177.15 6.707 176.736 6.84867 176.396 7.132C176.068 7.41533 175.864 7.81767 175.784 8.339H179.422ZM196.035 4.412C197.214 4.412 198.149 4.769 198.84 5.483C199.543 6.197 199.894 7.18867 199.894 8.458V14H197.004V8.849C197.004 8.237 196.84 7.76667 196.511 7.438C196.194 7.098 195.752 6.928 195.185 6.928C194.618 6.928 194.171 7.098 193.842 7.438C193.525 7.76667 193.366 8.237 193.366 8.849V14H190.476V8.849C190.476 8.237 190.312 7.76667 189.983 7.438C189.666 7.098 189.224 6.928 188.657 6.928C188.09 6.928 187.643 7.098 187.314 7.438C186.997 7.76667 186.838 8.237 186.838 8.849V14H183.931V4.514H186.838V5.704C187.133 5.30733 187.518 4.99567 187.994 4.769C188.47 4.531 189.008 4.412 189.609 4.412C190.323 4.412 190.958 4.565 191.513 4.871C192.08 5.177 192.522 5.61333 192.839 6.18C193.168 5.65867 193.615 5.23367 194.182 4.905C194.749 4.57633 195.366 4.412 196.035 4.412ZM201.349 9.24C201.349 8.26533 201.53 7.40967 201.893 6.673C202.267 5.93633 202.771 5.36967 203.406 4.973C204.041 4.57633 204.749 4.378 205.531 4.378C206.2 4.378 206.783 4.514 207.282 4.786C207.792 5.058 208.183 5.415 208.455 5.857V4.514H211.362V14H208.455V12.657C208.172 13.099 207.775 13.456 207.265 13.728C206.766 14 206.183 14.136 205.514 14.136C204.743 14.136 204.041 13.9377 203.406 13.541C202.771 13.133 202.267 12.5607 201.893 11.824C201.53 11.076 201.349 10.2147 201.349 9.24ZM208.455 9.257C208.455 8.53167 208.251 7.95933 207.843 7.54C207.446 7.12067 206.959 6.911 206.381 6.911C205.803 6.911 205.31 7.12067 204.902 7.54C204.505 7.948 204.307 8.51467 204.307 9.24C204.307 9.96533 204.505 10.5433 204.902 10.974C205.31 11.3933 205.803 11.603 206.381 11.603C206.959 11.603 207.446 11.3933 207.843 10.974C208.251 10.5547 208.455 9.98233 208.455 9.257ZM214.927 3.528C214.417 3.528 213.998 3.38067 213.669 3.086C213.352 2.78 213.193 2.406 213.193 1.964C213.193 1.51067 213.352 1.13667 213.669 0.841999C213.998 0.535999 214.417 0.382999 214.927 0.382999C215.426 0.382999 215.834 0.535999 216.151 0.841999C216.48 1.13667 216.644 1.51067 216.644 1.964C216.644 2.406 216.48 2.78 216.151 3.086C215.834 3.38067 215.426 3.528 214.927 3.528ZM216.372 4.514V14H213.465V4.514H216.372ZM221.386 1.42V14H218.479V1.42H221.386ZM226.62 11.314L224.733 16.193H222.88L223.866 11.314H226.62ZM245.593 4.514L243.026 14H239.813L238.317 7.846L236.77 14H233.574L230.99 4.514H233.897L235.24 11.297L236.838 4.514H239.915L241.53 11.263L242.856 4.514H245.593ZM248.163 3.528C247.653 3.528 247.234 3.38067 246.905 3.086C246.588 2.78 246.429 2.406 246.429 1.964C246.429 1.51067 246.588 1.13667 246.905 0.841999C247.234 0.535999 247.653 0.382999 248.163 0.382999C248.662 0.382999 249.07 0.535999 249.387 0.841999C249.716 1.13667 249.88 1.51067 249.88 1.964C249.88 2.406 249.716 2.78 249.387 3.086C249.07 3.38067 248.662 3.528 248.163 3.528ZM249.608 4.514V14H246.701V4.514H249.608ZM257.002 11.535V14H255.523C254.469 14 253.647 13.745 253.058 13.235C252.469 12.7137 252.174 11.8693 252.174 10.702V6.928H251.018V4.514H252.174V2.202H255.081V4.514H256.985V6.928H255.081V10.736C255.081 11.0193 255.149 11.2233 255.285 11.348C255.421 11.4727 255.648 11.535 255.965 11.535H257.002ZM264.452 4.412C265.54 4.412 266.413 4.77467 267.07 5.5C267.728 6.214 268.056 7.2 268.056 8.458V14H265.166V8.849C265.166 8.21433 265.002 7.72133 264.673 7.37C264.345 7.01867 263.903 6.843 263.347 6.843C262.792 6.843 262.35 7.01867 262.021 7.37C261.693 7.72133 261.528 8.21433 261.528 8.849V14H258.621V1.42H261.528V5.789C261.823 5.36967 262.225 5.03533 262.735 4.786C263.245 4.53667 263.818 4.412 264.452 4.412ZM60.3732 38.535V41H58.8942C57.8402 41 57.0186 40.745 56.4292 40.235C55.8399 39.7137 55.5452 38.8693 55.5452 37.702V33.928H54.3892V31.514H55.5452V29.202H58.4522V31.514H60.3562V33.928H58.4522V37.736C58.4522 38.0193 58.5202 38.2233 58.6562 38.348C58.7922 38.4727 59.0189 38.535 59.3362 38.535H60.3732ZM67.8235 31.412C68.9115 31.412 69.7841 31.7747 70.4415 32.5C71.0988 33.214 71.4275 34.2 71.4275 35.458V41H68.5375V35.849C68.5375 35.2143 68.3731 34.7213 68.0445 34.37C67.7158 34.0187 67.2738 33.843 66.7185 33.843C66.1631 33.843 65.7211 34.0187 65.3925 34.37C65.0638 34.7213 64.8995 35.2143 64.8995 35.849V41H61.9925V28.42H64.8995V32.789C65.1941 32.3697 65.5965 32.0353 66.1065 31.786C66.6165 31.5367 67.1888 31.412 67.8235 31.412ZM82.3896 36.104C82.3896 36.376 82.3726 36.6593 82.3386 36.954H75.7596C75.8049 37.5433 75.9919 37.9967 76.3206 38.314C76.6606 38.62 77.0742 38.773 77.5616 38.773C78.2869 38.773 78.7912 38.467 79.0746 37.855H82.1686C82.0099 38.4783 81.7209 39.0393 81.3016 39.538C80.8936 40.0367 80.3779 40.4277 79.7546 40.711C79.1312 40.9943 78.4342 41.136 77.6636 41.136C76.7342 41.136 75.9069 40.9377 75.1816 40.541C74.4562 40.1443 73.8896 39.5777 73.4816 38.841C73.0736 38.1043 72.8696 37.243 72.8696 36.257C72.8696 35.271 73.0679 34.4097 73.4646 33.673C73.8726 32.9363 74.4392 32.3697 75.1646 31.973C75.8899 31.5763 76.7229 31.378 77.6636 31.378C78.5816 31.378 79.3976 31.5707 80.1116 31.956C80.8256 32.3413 81.3809 32.891 81.7776 33.605C82.1856 34.319 82.3896 35.152 82.3896 36.104ZM79.4146 35.339C79.4146 34.8403 79.2446 34.4437 78.9046 34.149C78.5646 33.8543 78.1396 33.707 77.6296 33.707C77.1422 33.707 76.7286 33.8487 76.3886 34.132C76.0599 34.4153 75.8559 34.8177 75.7766 35.339H79.4146ZM86.9477 36.24C86.9477 35.2653 87.129 34.4097 87.4917 33.673C87.8657 32.9363 88.37 32.3697 89.0047 31.973C89.6393 31.5763 90.3477 31.378 91.1297 31.378C91.753 31.378 92.3197 31.5083 92.8297 31.769C93.351 32.0297 93.759 32.381 94.0537 32.823V28.42H96.9607V41H94.0537V39.64C93.7817 40.0933 93.3907 40.456 92.8807 40.728C92.382 41 91.7983 41.136 91.1297 41.136C90.3477 41.136 89.6393 40.9377 89.0047 40.541C88.37 40.133 87.8657 39.5607 87.4917 38.824C87.129 38.076 86.9477 37.2147 86.9477 36.24ZM94.0537 36.257C94.0537 35.5317 93.8497 34.9593 93.4417 34.54C93.045 34.1207 92.5577 33.911 91.9797 33.911C91.4017 33.911 90.9087 34.1207 90.5007 34.54C90.104 34.948 89.9057 35.5147 89.9057 36.24C89.9057 36.9653 90.104 37.5433 90.5007 37.974C90.9087 38.3933 91.4017 38.603 91.9797 38.603C92.5577 38.603 93.045 38.3933 93.4417 37.974C93.8497 37.5547 94.0537 36.9823 94.0537 36.257ZM100.526 30.528C100.016 30.528 99.5964 30.3807 99.2678 30.086C98.9504 29.78 98.7918 29.406 98.7918 28.964C98.7918 28.5107 98.9504 28.1367 99.2678 27.842C99.5964 27.536 100.016 27.383 100.526 27.383C101.024 27.383 101.432 27.536 101.75 27.842C102.078 28.1367 102.243 28.5107 102.243 28.964C102.243 29.406 102.078 29.78 101.75 30.086C101.432 30.3807 101.024 30.528 100.526 30.528ZM101.971 31.514V41H99.0638V31.514H101.971ZM107.936 41.136C107.109 41.136 106.372 40.9943 105.726 40.711C105.08 40.4277 104.57 40.0423 104.196 39.555C103.822 39.0563 103.613 38.501 103.567 37.889H106.44C106.474 38.2177 106.627 38.484 106.899 38.688C107.171 38.892 107.506 38.994 107.902 38.994C108.265 38.994 108.543 38.926 108.735 38.79C108.939 38.6427 109.041 38.4557 109.041 38.229C109.041 37.957 108.9 37.7587 108.616 37.634C108.333 37.498 107.874 37.3507 107.239 37.192C106.559 37.0333 105.993 36.869 105.539 36.699C105.086 36.5177 104.695 36.24 104.366 35.866C104.038 35.4807 103.873 34.965 103.873 34.319C103.873 33.775 104.021 33.282 104.315 32.84C104.621 32.3867 105.063 32.0297 105.641 31.769C106.231 31.5083 106.928 31.378 107.732 31.378C108.922 31.378 109.857 31.6727 110.537 32.262C111.229 32.8513 111.625 33.6333 111.727 34.608H109.041C108.996 34.2793 108.849 34.0187 108.599 33.826C108.361 33.6333 108.044 33.537 107.647 33.537C107.307 33.537 107.047 33.605 106.865 33.741C106.684 33.8657 106.593 34.0413 106.593 34.268C106.593 34.54 106.735 34.744 107.018 34.88C107.313 35.016 107.766 35.152 108.378 35.288C109.081 35.4693 109.653 35.6507 110.095 35.832C110.537 36.002 110.923 36.2853 111.251 36.682C111.591 37.0673 111.767 37.5887 111.778 38.246C111.778 38.8013 111.62 39.3 111.302 39.742C110.996 40.1727 110.549 40.5127 109.959 40.762C109.381 41.0113 108.707 41.136 107.936 41.136ZM112.979 36.257C112.979 35.271 113.177 34.4097 113.574 33.673C113.982 32.9363 114.543 32.3697 115.257 31.973C115.982 31.5763 116.81 31.378 117.739 31.378C118.929 31.378 119.921 31.6897 120.714 32.313C121.519 32.9363 122.046 33.8147 122.295 34.948H119.201C118.94 34.2227 118.436 33.86 117.688 33.86C117.155 33.86 116.73 34.0697 116.413 34.489C116.096 34.897 115.937 35.4863 115.937 36.257C115.937 37.0277 116.096 37.6227 116.413 38.042C116.73 38.45 117.155 38.654 117.688 38.654C118.436 38.654 118.94 38.2913 119.201 37.566H122.295C122.046 38.6767 121.519 39.5493 120.714 40.184C119.909 40.8187 118.918 41.136 117.739 41.136C116.81 41.136 115.982 40.9377 115.257 40.541C114.543 40.1443 113.982 39.5777 113.574 38.841C113.177 38.1043 112.979 37.243 112.979 36.257ZM128.168 41.136C127.239 41.136 126.4 40.9377 125.652 40.541C124.915 40.1443 124.332 39.5777 123.901 38.841C123.482 38.1043 123.272 37.243 123.272 36.257C123.272 35.2823 123.487 34.4267 123.918 33.69C124.349 32.942 124.938 32.3697 125.686 31.973C126.434 31.5763 127.273 31.378 128.202 31.378C129.131 31.378 129.97 31.5763 130.718 31.973C131.466 32.3697 132.055 32.942 132.486 33.69C132.917 34.4267 133.132 35.2823 133.132 36.257C133.132 37.2317 132.911 38.093 132.469 38.841C132.038 39.5777 131.443 40.1443 130.684 40.541C129.936 40.9377 129.097 41.136 128.168 41.136ZM128.168 38.62C128.723 38.62 129.194 38.416 129.579 38.008C129.976 37.6 130.174 37.0163 130.174 36.257C130.174 35.4977 129.981 34.914 129.596 34.506C129.222 34.098 128.757 33.894 128.202 33.894C127.635 33.894 127.165 34.098 126.791 34.506C126.417 34.9027 126.23 35.4863 126.23 36.257C126.23 37.0163 126.411 37.6 126.774 38.008C127.148 38.416 127.613 38.62 128.168 38.62ZM144.041 31.514V41H141.134V39.708C140.839 40.1273 140.437 40.4673 139.927 40.728C139.428 40.9773 138.873 41.102 138.261 41.102C137.536 41.102 136.895 40.9433 136.34 40.626C135.785 40.2973 135.354 39.827 135.048 39.215C134.742 38.603 134.589 37.8833 134.589 37.056V31.514H137.479V36.665C137.479 37.2997 137.643 37.7927 137.972 38.144C138.301 38.4953 138.743 38.671 139.298 38.671C139.865 38.671 140.312 38.4953 140.641 38.144C140.97 37.7927 141.134 37.2997 141.134 36.665V31.514H144.041ZM151.909 31.412C153.02 31.412 153.904 31.7747 154.561 32.5C155.23 33.214 155.564 34.2 155.564 35.458V41H152.674V35.849C152.674 35.2143 152.51 34.7213 152.181 34.37C151.853 34.0187 151.411 33.843 150.855 33.843C150.3 33.843 149.858 34.0187 149.529 34.37C149.201 34.7213 149.036 35.2143 149.036 35.849V41H146.129V31.514H149.036V32.772C149.331 32.3527 149.728 32.024 150.226 31.786C150.725 31.5367 151.286 31.412 151.909 31.412ZM162.871 38.535V41H161.392C160.338 41 159.517 40.745 158.927 40.235C158.338 39.7137 158.043 38.8693 158.043 37.702V33.928H156.887V31.514H158.043V29.202H160.95V31.514H162.854V33.928H160.95V37.736C160.95 38.0193 161.018 38.2233 161.154 38.348C161.29 38.4727 161.517 38.535 161.834 38.535H162.871ZM167.515 36.257C167.515 35.271 167.713 34.4097 168.11 33.673C168.518 32.9363 169.079 32.3697 169.793 31.973C170.518 31.5763 171.346 31.378 172.275 31.378C173.465 31.378 174.457 31.6897 175.25 32.313C176.055 32.9363 176.582 33.8147 176.831 34.948H173.737C173.476 34.2227 172.972 33.86 172.224 33.86C171.691 33.86 171.266 34.0697 170.949 34.489C170.632 34.897 170.473 35.4863 170.473 36.257C170.473 37.0277 170.632 37.6227 170.949 38.042C171.266 38.45 171.691 38.654 172.224 38.654C172.972 38.654 173.476 38.2913 173.737 37.566H176.831C176.582 38.6767 176.055 39.5493 175.25 40.184C174.445 40.8187 173.454 41.136 172.275 41.136C171.346 41.136 170.518 40.9377 169.793 40.541C169.079 40.1443 168.518 39.5777 168.11 38.841C167.713 38.1043 167.515 37.243 167.515 36.257ZM182.704 41.136C181.775 41.136 180.936 40.9377 180.188 40.541C179.451 40.1443 178.868 39.5777 178.437 38.841C178.018 38.1043 177.808 37.243 177.808 36.257C177.808 35.2823 178.023 34.4267 178.454 33.69C178.885 32.942 179.474 32.3697 180.222 31.973C180.97 31.5763 181.809 31.378 182.738 31.378C183.667 31.378 184.506 31.5763 185.254 31.973C186.002 32.3697 186.591 32.942 187.022 33.69C187.453 34.4267 187.668 35.2823 187.668 36.257C187.668 37.2317 187.447 38.093 187.005 38.841C186.574 39.5777 185.979 40.1443 185.22 40.541C184.472 40.9377 183.633 41.136 182.704 41.136ZM182.704 38.62C183.259 38.62 183.73 38.416 184.115 38.008C184.512 37.6 184.71 37.0163 184.71 36.257C184.71 35.4977 184.517 34.914 184.132 34.506C183.758 34.098 183.293 33.894 182.738 33.894C182.171 33.894 181.701 34.098 181.327 34.506C180.953 34.9027 180.766 35.4863 180.766 36.257C180.766 37.0163 180.947 37.6 181.31 38.008C181.684 38.416 182.149 38.62 182.704 38.62ZM188.632 36.24C188.632 35.2653 188.814 34.4097 189.176 33.673C189.55 32.9363 190.055 32.3697 190.689 31.973C191.324 31.5763 192.032 31.378 192.814 31.378C193.438 31.378 194.004 31.5083 194.514 31.769C195.036 32.0297 195.444 32.381 195.738 32.823V28.42H198.645V41H195.738V39.64C195.466 40.0933 195.075 40.456 194.565 40.728C194.067 41 193.483 41.136 192.814 41.136C192.032 41.136 191.324 40.9377 190.689 40.541C190.055 40.133 189.55 39.5607 189.176 38.824C188.814 38.076 188.632 37.2147 188.632 36.24ZM195.738 36.257C195.738 35.5317 195.534 34.9593 195.126 34.54C194.73 34.1207 194.242 33.911 193.664 33.911C193.086 33.911 192.593 34.1207 192.185 34.54C191.789 34.948 191.59 35.5147 191.59 36.24C191.59 36.9653 191.789 37.5433 192.185 37.974C192.593 38.3933 193.086 38.603 193.664 38.603C194.242 38.603 194.73 38.3933 195.126 37.974C195.534 37.5547 195.738 36.9823 195.738 36.257ZM209.69 36.104C209.69 36.376 209.673 36.6593 209.639 36.954H203.06C203.106 37.5433 203.293 37.9967 203.621 38.314C203.961 38.62 204.375 38.773 204.862 38.773C205.588 38.773 206.092 38.467 206.375 37.855H209.469C209.311 38.4783 209.022 39.0393 208.602 39.538C208.194 40.0367 207.679 40.4277 207.055 40.711C206.432 40.9943 205.735 41.136 204.964 41.136C204.035 41.136 203.208 40.9377 202.482 40.541C201.757 40.1443 201.19 39.5777 200.782 38.841C200.374 38.1043 200.17 37.243 200.17 36.257C200.17 35.271 200.369 34.4097 200.765 33.673C201.173 32.9363 201.74 32.3697 202.465 31.973C203.191 31.5763 204.024 31.378 204.964 31.378C205.882 31.378 206.698 31.5707 207.412 31.956C208.126 32.3413 208.682 32.891 209.078 33.605C209.486 34.319 209.69 35.152 209.69 36.104ZM206.715 35.339C206.715 34.8403 206.545 34.4437 206.205 34.149C205.865 33.8543 205.44 33.707 204.93 33.707C204.443 33.707 204.029 33.8487 203.689 34.132C203.361 34.4153 203.157 34.8177 203.077 35.339H206.715ZM212.584 41.136C212.074 41.136 211.655 40.9887 211.326 40.694C211.009 40.388 210.85 40.014 210.85 39.572C210.85 39.1187 211.009 38.739 211.326 38.433C211.655 38.127 212.074 37.974 212.584 37.974C213.083 37.974 213.491 38.127 213.808 38.433C214.137 38.739 214.301 39.1187 214.301 39.572C214.301 40.014 214.137 40.388 213.808 40.694C213.491 40.9887 213.083 41.136 212.584 41.136ZM21.5856 83.066V95H18.6786V87.843L16.0096 95H13.6636L10.9776 87.826V95H8.0706V83.066H11.5046L14.8536 91.328L18.1686 83.066H21.5856ZM23.0981 90.24C23.0981 89.2653 23.2794 88.4097 23.6421 87.673C24.0161 86.9363 24.5204 86.3697 25.1551 85.973C25.7897 85.5763 26.4981 85.378 27.2801 85.378C27.9487 85.378 28.5324 85.514 29.0311 85.786C29.5411 86.058 29.9321 86.415 30.2041 86.857V85.514H33.1111V95H30.2041V93.657C29.9207 94.099 29.5241 94.456 29.0141 94.728C28.5154 95 27.9317 95.136 27.2631 95.136C26.4924 95.136 25.7897 94.9377 25.1551 94.541C24.5204 94.133 24.0161 93.5607 23.6421 92.824C23.2794 92.076 23.0981 91.2147 23.0981 90.24ZM30.2041 90.257C30.2041 89.5317 30.0001 88.9593 29.5921 88.54C29.1954 88.1207 28.7081 87.911 28.1301 87.911C27.5521 87.911 27.0591 88.1207 26.6511 88.54C26.2544 88.948 26.0561 89.5147 26.0561 90.24C26.0561 90.9653 26.2544 91.5433 26.6511 91.974C27.0591 92.3933 27.5521 92.603 28.1301 92.603C28.7081 92.603 29.1954 92.3933 29.5921 91.974C30.0001 91.5547 30.2041 90.9823 30.2041 90.257ZM41.0112 95L38.1212 91.022V95H35.2142V82.42H38.1212V89.373L40.9942 85.514H44.5812L40.6372 90.274L44.6152 95H41.0112ZM54.6649 90.104C54.6649 90.376 54.6479 90.6593 54.6139 90.954H48.0349C48.0803 91.5433 48.2673 91.9967 48.5959 92.314C48.9359 92.62 49.3496 92.773 49.8369 92.773C50.5623 92.773 51.0666 92.467 51.3499 91.855H54.4439C54.2853 92.4783 53.9963 93.0393 53.5769 93.538C53.1689 94.0367 52.6533 94.4277 52.0299 94.711C51.4066 94.9943 50.7096 95.136 49.9389 95.136C49.0096 95.136 48.1823 94.9377 47.4569 94.541C46.7316 94.1443 46.1649 93.5777 45.7569 92.841C45.3489 92.1043 45.1449 91.243 45.1449 90.257C45.1449 89.271 45.3433 88.4097 45.7399 87.673C46.1479 86.9363 46.7146 86.3697 47.4399 85.973C48.1653 85.5763 48.9983 85.378 49.9389 85.378C50.8569 85.378 51.6729 85.5707 52.3869 85.956C53.1009 86.3413 53.6563 86.891 54.0529 87.605C54.4609 88.319 54.6649 89.152 54.6649 90.104ZM51.6899 89.339C51.6899 88.8403 51.5199 88.4437 51.1799 88.149C50.8399 87.8543 50.4149 87.707 49.9049 87.707C49.4176 87.707 49.0039 87.8487 48.6639 88.132C48.3353 88.4153 48.1313 88.8177 48.0519 89.339H51.6899ZM63.6601 95.136C62.8327 95.136 62.0961 94.9943 61.4501 94.711C60.8041 94.4277 60.2941 94.0423 59.9201 93.555C59.5461 93.0563 59.3364 92.501 59.2911 91.889H62.1641C62.1981 92.2177 62.3511 92.484 62.6231 92.688C62.8951 92.892 63.2294 92.994 63.6261 92.994C63.9887 92.994 64.2664 92.926 64.4591 92.79C64.6631 92.6427 64.7651 92.4557 64.7651 92.229C64.7651 91.957 64.6234 91.7587 64.3401 91.634C64.0567 91.498 63.5977 91.3507 62.9631 91.192C62.2831 91.0333 61.7164 90.869 61.2631 90.699C60.8097 90.5177 60.4187 90.24 60.0901 89.866C59.7614 89.4807 59.5971 88.965 59.5971 88.319C59.5971 87.775 59.7444 87.282 60.0391 86.84C60.3451 86.3867 60.7871 86.0297 61.3651 85.769C61.9544 85.5083 62.6514 85.378 63.4561 85.378C64.6461 85.378 65.5811 85.6727 66.2611 86.262C66.9524 86.8513 67.3491 87.6333 67.4511 88.608H64.7651C64.7197 88.2793 64.5724 88.0187 64.3231 87.826C64.0851 87.6333 63.7677 87.537 63.3711 87.537C63.0311 87.537 62.7704 87.605 62.5891 87.741C62.4077 87.8657 62.3171 88.0413 62.3171 88.268C62.3171 88.54 62.4587 88.744 62.7421 88.88C63.0367 89.016 63.4901 89.152 64.1021 89.288C64.8047 89.4693 65.3771 89.6507 65.8191 89.832C66.2611 90.002 66.6464 90.2853 66.9751 90.682C67.3151 91.0673 67.4907 91.5887 67.5021 92.246C67.5021 92.8013 67.3434 93.3 67.0261 93.742C66.7201 94.1727 66.2724 94.5127 65.6831 94.762C65.1051 95.0113 64.4307 95.136 63.6601 95.136ZM78.6476 85.514V95H75.7406V93.708C75.4459 94.1273 75.0436 94.4673 74.5336 94.728C74.0349 94.9773 73.4796 95.102 72.8676 95.102C72.1422 95.102 71.5019 94.9433 70.9466 94.626C70.3912 94.2973 69.9606 93.827 69.6546 93.215C69.3486 92.603 69.1956 91.8833 69.1956 91.056V85.514H72.0856V90.665C72.0856 91.2997 72.2499 91.7927 72.5786 92.144C72.9072 92.4953 73.3492 92.671 73.9046 92.671C74.4712 92.671 74.9189 92.4953 75.2476 92.144C75.5762 91.7927 75.7406 91.2997 75.7406 90.665V85.514H78.6476ZM83.6426 87.095C83.9826 86.5737 84.4076 86.1657 84.9176 85.871C85.4276 85.565 85.9943 85.412 86.6176 85.412V88.489H85.8186C85.0933 88.489 84.5493 88.6477 84.1866 88.965C83.824 89.271 83.6426 89.815 83.6426 90.597V95H80.7356V85.514H83.6426V87.095ZM96.9491 90.104C96.9491 90.376 96.9321 90.6593 96.8981 90.954H90.3191C90.3645 91.5433 90.5515 91.9967 90.8801 92.314C91.2201 92.62 91.6338 92.773 92.1211 92.773C92.8465 92.773 93.3508 92.467 93.6341 91.855H96.7281C96.5695 92.4783 96.2805 93.0393 95.8611 93.538C95.4531 94.0367 94.9375 94.4277 94.3141 94.711C93.6908 94.9943 92.9938 95.136 92.2231 95.136C91.2938 95.136 90.4665 94.9377 89.7411 94.541C89.0158 94.1443 88.4491 93.5777 88.0411 92.841C87.6331 92.1043 87.4291 91.243 87.4291 90.257C87.4291 89.271 87.6275 88.4097 88.0241 87.673C88.4321 86.9363 88.9988 86.3697 89.7241 85.973C90.4495 85.5763 91.2825 85.378 92.2231 85.378C93.1411 85.378 93.9571 85.5707 94.6711 85.956C95.3851 86.3413 95.9405 86.891 96.3371 87.605C96.7451 88.319 96.9491 89.152 96.9491 90.104ZM93.9741 89.339C93.9741 88.8403 93.8041 88.4437 93.4641 88.149C93.1241 87.8543 92.6991 87.707 92.1891 87.707C91.7018 87.707 91.2881 87.8487 90.9481 88.132C90.6195 88.4153 90.4155 88.8177 90.3361 89.339H93.9741ZM107.372 92.535V95H105.893C104.839 95 104.018 94.745 103.428 94.235C102.839 93.7137 102.544 92.8693 102.544 91.702V87.928H101.388V85.514H102.544V83.202H105.451V85.514H107.355V87.928H105.451V91.736C105.451 92.0193 105.519 92.2233 105.655 92.348C105.791 92.4727 106.018 92.535 106.335 92.535H107.372ZM113.31 95.136C112.38 95.136 111.542 94.9377 110.794 94.541C110.057 94.1443 109.473 93.5777 109.043 92.841C108.623 92.1043 108.414 91.243 108.414 90.257C108.414 89.2823 108.629 88.4267 109.059 87.69C109.49 86.942 110.08 86.3697 110.828 85.973C111.576 85.5763 112.414 85.378 113.344 85.378C114.273 85.378 115.112 85.5763 115.86 85.973C116.608 86.3697 117.197 86.942 117.628 87.69C118.058 88.4267 118.274 89.2823 118.274 90.257C118.274 91.2317 118.053 92.093 117.611 92.841C117.18 93.5777 116.585 94.1443 115.826 94.541C115.078 94.9377 114.239 95.136 113.31 95.136ZM113.31 92.62C113.865 92.62 114.335 92.416 114.721 92.008C115.117 91.6 115.316 91.0163 115.316 90.257C115.316 89.4977 115.123 88.914 114.738 88.506C114.364 88.098 113.899 87.894 113.344 87.894C112.777 87.894 112.307 88.098 111.933 88.506C111.559 88.9027 111.372 89.4863 111.372 90.257C111.372 91.0163 111.553 91.6 111.916 92.008C112.29 92.416 112.754 92.62 113.31 92.62ZM122.84 90.257C122.84 89.271 123.039 88.4097 123.435 87.673C123.843 86.9363 124.404 86.3697 125.118 85.973C125.844 85.5763 126.671 85.378 127.6 85.378C128.79 85.378 129.782 85.6897 130.575 86.313C131.38 86.9363 131.907 87.8147 132.156 88.948H129.062C128.802 88.2227 128.297 87.86 127.549 87.86C127.017 87.86 126.592 88.0697 126.274 88.489C125.957 88.897 125.798 89.4863 125.798 90.257C125.798 91.0277 125.957 91.6227 126.274 92.042C126.592 92.45 127.017 92.654 127.549 92.654C128.297 92.654 128.802 92.2913 129.062 91.566H132.156C131.907 92.6767 131.38 93.5493 130.575 94.184C129.771 94.8187 128.779 95.136 127.6 95.136C126.671 95.136 125.844 94.9377 125.118 94.541C124.404 94.1443 123.843 93.5777 123.435 92.841C123.039 92.1043 122.84 91.243 122.84 90.257ZM139.542 85.412C140.63 85.412 141.503 85.7747 142.16 86.5C142.818 87.214 143.146 88.2 143.146 89.458V95H140.256V89.849C140.256 89.2143 140.092 88.7213 139.763 88.37C139.435 88.0187 138.993 87.843 138.437 87.843C137.882 87.843 137.44 88.0187 137.111 88.37C136.783 88.7213 136.618 89.2143 136.618 89.849V95H133.711V82.42H136.618V86.789C136.913 86.3697 137.315 86.0353 137.825 85.786C138.335 85.5367 138.908 85.412 139.542 85.412ZM154.108 90.104C154.108 90.376 154.091 90.6593 154.057 90.954H147.478C147.524 91.5433 147.711 91.9967 148.039 92.314C148.379 92.62 148.793 92.773 149.28 92.773C150.006 92.773 150.51 92.467 150.793 91.855H153.887C153.729 92.4783 153.44 93.0393 153.02 93.538C152.612 94.0367 152.097 94.4277 151.473 94.711C150.85 94.9943 150.153 95.136 149.382 95.136C148.453 95.136 147.626 94.9377 146.9 94.541C146.175 94.1443 145.608 93.5777 145.2 92.841C144.792 92.1043 144.588 91.243 144.588 90.257C144.588 89.271 144.787 88.4097 145.183 87.673C145.591 86.9363 146.158 86.3697 146.883 85.973C147.609 85.5763 148.442 85.378 149.382 85.378C150.3 85.378 151.116 85.5707 151.83 85.956C152.544 86.3413 153.1 86.891 153.496 87.605C153.904 88.319 154.108 89.152 154.108 90.104ZM151.133 89.339C151.133 88.8403 150.963 88.4437 150.623 88.149C150.283 87.8543 149.858 87.707 149.348 87.707C148.861 87.707 148.447 87.8487 148.107 88.132C147.779 88.4153 147.575 88.8177 147.495 89.339H151.133ZM155.064 90.257C155.064 89.271 155.262 88.4097 155.659 87.673C156.067 86.9363 156.628 86.3697 157.342 85.973C158.067 85.5763 158.895 85.378 159.824 85.378C161.014 85.378 162.006 85.6897 162.799 86.313C163.604 86.9363 164.131 87.8147 164.38 88.948H161.286C161.025 88.2227 160.521 87.86 159.773 87.86C159.24 87.86 158.815 88.0697 158.498 88.489C158.181 88.897 158.022 89.4863 158.022 90.257C158.022 91.0277 158.181 91.6227 158.498 92.042C158.815 92.45 159.24 92.654 159.773 92.654C160.521 92.654 161.025 92.2913 161.286 91.566H164.38C164.131 92.6767 163.604 93.5493 162.799 94.184C161.994 94.8187 161.003 95.136 159.824 95.136C158.895 95.136 158.067 94.9377 157.342 94.541C156.628 94.1443 156.067 93.5777 155.659 92.841C155.262 92.1043 155.064 91.243 155.064 90.257ZM171.732 95L168.842 91.022V95H165.935V82.42H168.842V89.373L171.715 85.514H175.302L171.358 90.274L175.336 95H171.732ZM185.333 92.535V95H183.854C182.8 95 181.979 94.745 181.389 94.235C180.8 93.7137 180.505 92.8693 180.505 91.702V87.928H179.349V85.514H180.505V83.202H183.412V85.514H185.316V87.928H183.412V91.736C183.412 92.0193 183.48 92.2233 183.616 92.348C183.752 92.4727 183.979 92.535 184.296 92.535H185.333ZM192.783 85.412C193.871 85.412 194.744 85.7747 195.401 86.5C196.059 87.214 196.387 88.2 196.387 89.458V95H193.497V89.849C193.497 89.2143 193.333 88.7213 193.004 88.37C192.676 88.0187 192.234 87.843 191.678 87.843C191.123 87.843 190.681 88.0187 190.352 88.37C190.024 88.7213 189.859 89.2143 189.859 89.849V95H186.952V82.42H189.859V86.789C190.154 86.3697 190.556 86.0353 191.066 85.786C191.576 85.5367 192.149 85.412 192.783 85.412ZM207.35 90.104C207.35 90.376 207.333 90.6593 207.299 90.954H200.72C200.765 91.5433 200.952 91.9967 201.281 92.314C201.621 92.62 202.034 92.773 202.522 92.773C203.247 92.773 203.751 92.467 204.035 91.855H207.129C206.97 92.4783 206.681 93.0393 206.262 93.538C205.854 94.0367 205.338 94.4277 204.715 94.711C204.091 94.9943 203.394 95.136 202.624 95.136C201.694 95.136 200.867 94.9377 200.142 94.541C199.416 94.1443 198.85 93.5777 198.442 92.841C198.034 92.1043 197.83 91.243 197.83 90.257C197.83 89.271 198.028 88.4097 198.425 87.673C198.833 86.9363 199.399 86.3697 200.125 85.973C200.85 85.5763 201.683 85.378 202.624 85.378C203.542 85.378 204.358 85.5707 205.072 85.956C205.786 86.3413 206.341 86.891 206.738 87.605C207.146 88.319 207.35 89.152 207.35 90.104ZM204.375 89.339C204.375 88.8403 204.205 88.4437 203.865 88.149C203.525 87.8543 203.1 87.707 202.59 87.707C202.102 87.707 201.689 87.8487 201.349 88.132C201.02 88.4153 200.816 88.8177 200.737 89.339H204.375ZM216.345 95.136C215.517 95.136 214.781 94.9943 214.135 94.711C213.489 94.4277 212.979 94.0423 212.605 93.555C212.231 93.0563 212.021 92.501 211.976 91.889H214.849C214.883 92.2177 215.036 92.484 215.308 92.688C215.58 92.892 215.914 92.994 216.311 92.994C216.673 92.994 216.951 92.926 217.144 92.79C217.348 92.6427 217.45 92.4557 217.45 92.229C217.45 91.957 217.308 91.7587 217.025 91.634C216.741 91.498 216.282 91.3507 215.648 91.192C214.968 91.0333 214.401 90.869 213.948 90.699C213.494 90.5177 213.103 90.24 212.775 89.866C212.446 89.4807 212.282 88.965 212.282 88.319C212.282 87.775 212.429 87.282 212.724 86.84C213.03 86.3867 213.472 86.0297 214.05 85.769C214.639 85.5083 215.336 85.378 216.141 85.378C217.331 85.378 218.266 85.6727 218.946 86.262C219.637 86.8513 220.034 87.6333 220.136 88.608H217.45C217.404 88.2793 217.257 88.0187 217.008 87.826C216.77 87.6333 216.452 87.537 216.056 87.537C215.716 87.537 215.455 87.605 215.274 87.741C215.092 87.8657 215.002 88.0413 215.002 88.268C215.002 88.54 215.143 88.744 215.427 88.88C215.721 89.016 216.175 89.152 216.787 89.288C217.489 89.4693 218.062 89.6507 218.504 89.832C218.946 90.002 219.331 90.2853 219.66 90.682C220 91.0673 220.175 91.5887 220.187 92.246C220.187 92.8013 220.028 93.3 219.711 93.742C219.405 94.1727 218.957 94.5127 218.368 94.762C217.79 95.0113 217.115 95.136 216.345 95.136ZM224.872 86.857C225.155 86.415 225.546 86.058 226.045 85.786C226.544 85.514 227.127 85.378 227.796 85.378C228.578 85.378 229.286 85.5763 229.921 85.973C230.556 86.3697 231.054 86.9363 231.417 87.673C231.791 88.4097 231.978 89.2653 231.978 90.24C231.978 91.2147 231.791 92.076 231.417 92.824C231.054 93.5607 230.556 94.133 229.921 94.541C229.286 94.9377 228.578 95.136 227.796 95.136C227.139 95.136 226.555 95 226.045 94.728C225.546 94.456 225.155 94.1047 224.872 93.674V99.522H221.965V85.514H224.872V86.857ZM229.02 90.24C229.02 89.5147 228.816 88.948 228.408 88.54C228.011 88.1207 227.518 87.911 226.929 87.911C226.351 87.911 225.858 88.1207 225.45 88.54C225.053 88.9593 224.855 89.5317 224.855 90.257C224.855 90.9823 225.053 91.5547 225.45 91.974C225.858 92.3933 226.351 92.603 226.929 92.603C227.507 92.603 228 92.3933 228.408 91.974C228.816 91.5433 229.02 90.9653 229.02 90.24ZM232.925 90.24C232.925 89.2653 233.107 88.4097 233.469 87.673C233.843 86.9363 234.348 86.3697 234.982 85.973C235.617 85.5763 236.325 85.378 237.107 85.378C237.776 85.378 238.36 85.514 238.858 85.786C239.368 86.058 239.759 86.415 240.031 86.857V85.514H242.938V95H240.031V93.657C239.748 94.099 239.351 94.456 238.841 94.728C238.343 95 237.759 95.136 237.09 95.136C236.32 95.136 235.617 94.9377 234.982 94.541C234.348 94.133 233.843 93.5607 233.469 92.824C233.107 92.076 232.925 91.2147 232.925 90.24ZM240.031 90.257C240.031 89.5317 239.827 88.9593 239.419 88.54C239.023 88.1207 238.535 87.911 237.957 87.911C237.379 87.911 236.886 88.1207 236.478 88.54C236.082 88.948 235.883 89.5147 235.883 90.24C235.883 90.9653 236.082 91.5433 236.478 91.974C236.886 92.3933 237.379 92.603 237.957 92.603C238.535 92.603 239.023 92.3933 239.419 91.974C239.827 91.5547 240.031 90.9823 240.031 90.257ZM257.145 85.412C258.324 85.412 259.259 85.769 259.95 86.483C260.653 87.197 261.004 88.1887 261.004 89.458V95H258.114V89.849C258.114 89.237 257.95 88.7667 257.621 88.438C257.304 88.098 256.862 87.928 256.295 87.928C255.729 87.928 255.281 88.098 254.952 88.438C254.635 88.7667 254.476 89.237 254.476 89.849V95H251.586V89.849C251.586 89.237 251.422 88.7667 251.093 88.438C250.776 88.098 250.334 87.928 249.767 87.928C249.201 87.928 248.753 88.098 248.424 88.438C248.107 88.7667 247.948 89.237 247.948 89.849V95H245.041V85.514H247.948V86.704C248.243 86.3073 248.628 85.9957 249.104 85.769C249.58 85.531 250.119 85.412 250.719 85.412C251.433 85.412 252.068 85.565 252.623 85.871C253.19 86.177 253.632 86.6133 253.949 87.18C254.278 86.6587 254.726 86.2337 255.292 85.905C255.859 85.5763 256.477 85.412 257.145 85.412ZM111.361 114.928H109.797V122H106.89V114.928H105.836V112.514H106.89V112.242C106.89 111.075 107.224 110.191 107.893 109.59C108.562 108.978 109.542 108.672 110.834 108.672C111.049 108.672 111.208 108.678 111.31 108.689V111.154C110.755 111.12 110.364 111.199 110.137 111.392C109.91 111.585 109.797 111.93 109.797 112.429V112.514H111.361V114.928ZM117.045 122.136C116.116 122.136 115.277 121.938 114.529 121.541C113.792 121.144 113.209 120.578 112.778 119.841C112.359 119.104 112.149 118.243 112.149 117.257C112.149 116.282 112.364 115.427 112.795 114.69C113.226 113.942 113.815 113.37 114.563 112.973C115.311 112.576 116.15 112.378 117.079 112.378C118.008 112.378 118.847 112.576 119.595 112.973C120.343 113.37 120.932 113.942 121.363 114.69C121.794 115.427 122.009 116.282 122.009 117.257C122.009 118.232 121.788 119.093 121.346 119.841C120.915 120.578 120.32 121.144 119.561 121.541C118.813 121.938 117.974 122.136 117.045 122.136ZM117.045 119.62C117.6 119.62 118.071 119.416 118.456 119.008C118.853 118.6 119.051 118.016 119.051 117.257C119.051 116.498 118.858 115.914 118.473 115.506C118.099 115.098 117.634 114.894 117.079 114.894C116.512 114.894 116.042 115.098 115.668 115.506C115.294 115.903 115.107 116.486 115.107 117.257C115.107 118.016 115.288 118.6 115.651 119.008C116.025 119.416 116.49 119.62 117.045 119.62ZM126.458 109.42V122H123.551V109.42H126.458ZM127.987 117.24C127.987 116.265 128.168 115.41 128.531 114.673C128.905 113.936 129.409 113.37 130.044 112.973C130.678 112.576 131.387 112.378 132.169 112.378C132.792 112.378 133.359 112.508 133.869 112.769C134.39 113.03 134.798 113.381 135.093 113.823V109.42H138V122H135.093V120.64C134.821 121.093 134.43 121.456 133.92 121.728C133.421 122 132.837 122.136 132.169 122.136C131.387 122.136 130.678 121.938 130.044 121.541C129.409 121.133 128.905 120.561 128.531 119.824C128.168 119.076 127.987 118.215 127.987 117.24ZM135.093 117.257C135.093 116.532 134.889 115.959 134.481 115.54C134.084 115.121 133.597 114.911 133.019 114.911C132.441 114.911 131.948 115.121 131.54 115.54C131.143 115.948 130.945 116.515 130.945 117.24C130.945 117.965 131.143 118.543 131.54 118.974C131.948 119.393 132.441 119.603 133.019 119.603C133.597 119.603 134.084 119.393 134.481 118.974C134.889 118.555 135.093 117.982 135.093 117.257ZM149.045 117.104C149.045 117.376 149.028 117.659 148.994 117.954H142.415C142.46 118.543 142.647 118.997 142.976 119.314C143.316 119.62 143.729 119.773 144.217 119.773C144.942 119.773 145.446 119.467 145.73 118.855H148.824C148.665 119.478 148.376 120.039 147.957 120.538C147.549 121.037 147.033 121.428 146.41 121.711C145.786 121.994 145.089 122.136 144.319 122.136C143.389 122.136 142.562 121.938 141.837 121.541C141.111 121.144 140.545 120.578 140.137 119.841C139.729 119.104 139.525 118.243 139.525 117.257C139.525 116.271 139.723 115.41 140.12 114.673C140.528 113.936 141.094 113.37 141.82 112.973C142.545 112.576 143.378 112.378 144.319 112.378C145.237 112.378 146.053 112.571 146.767 112.956C147.481 113.341 148.036 113.891 148.433 114.605C148.841 115.319 149.045 116.152 149.045 117.104ZM146.07 116.339C146.07 115.84 145.9 115.444 145.56 115.149C145.22 114.854 144.795 114.707 144.285 114.707C143.797 114.707 143.384 114.849 143.044 115.132C142.715 115.415 142.511 115.818 142.432 116.339H146.07ZM153.485 114.095C153.825 113.574 154.25 113.166 154.76 112.871C155.27 112.565 155.837 112.412 156.46 112.412V115.489H155.661C154.936 115.489 154.392 115.648 154.029 115.965C153.667 116.271 153.485 116.815 153.485 117.597V122H150.578V112.514H153.485V114.095ZM161.675 109.641L161.335 117.784H158.87L158.53 109.641H161.675ZM160.145 122.136C159.635 122.136 159.216 121.989 158.887 121.694C158.57 121.388 158.411 121.014 158.411 120.572C158.411 120.119 158.57 119.739 158.887 119.433C159.216 119.127 159.635 118.974 160.145 118.974C160.644 118.974 161.052 119.127 161.369 119.433C161.698 119.739 161.862 120.119 161.862 120.572C161.862 121.014 161.698 121.388 161.369 121.694C161.052 121.989 160.644 122.136 160.145 122.136ZM83.202 164.066V172.192C83.202 173.45 82.845 174.419 82.131 175.099C81.4283 175.779 80.4763 176.119 79.275 176.119C78.017 176.119 77.0083 175.762 76.249 175.048C75.4896 174.334 75.11 173.32 75.11 172.005H78C78 172.504 78.102 172.883 78.306 173.144C78.51 173.393 78.8046 173.518 79.19 173.518C79.5413 173.518 79.8133 173.405 80.006 173.178C80.1986 172.951 80.295 172.623 80.295 172.192V164.066H83.202ZM94.9171 166.514V176H92.0101V174.708C91.7154 175.127 91.3131 175.467 90.8031 175.728C90.3044 175.977 89.7491 176.102 89.1371 176.102C88.4118 176.102 87.7714 175.943 87.2161 175.626C86.6608 175.297 86.2301 174.827 85.9241 174.215C85.6181 173.603 85.4651 172.883 85.4651 172.056V166.514H88.3551V171.665C88.3551 172.3 88.5194 172.793 88.8481 173.144C89.1768 173.495 89.6188 173.671 90.1741 173.671C90.7408 173.671 91.1884 173.495 91.5171 173.144C91.8458 172.793 92.0101 172.3 92.0101 171.665V166.514H94.9171ZM100.864 176.136C100.037 176.136 99.3002 175.994 98.6542 175.711C98.0082 175.428 97.4982 175.042 97.1242 174.555C96.7502 174.056 96.5405 173.501 96.4952 172.889H99.3682C99.4022 173.218 99.5552 173.484 99.8272 173.688C100.099 173.892 100.434 173.994 100.83 173.994C101.193 173.994 101.471 173.926 101.663 173.79C101.867 173.643 101.969 173.456 101.969 173.229C101.969 172.957 101.828 172.759 101.544 172.634C101.261 172.498 100.802 172.351 100.167 172.192C99.4872 172.033 98.9205 171.869 98.4672 171.699C98.0138 171.518 97.6228 171.24 97.2942 170.866C96.9655 170.481 96.8012 169.965 96.8012 169.319C96.8012 168.775 96.9485 168.282 97.2432 167.84C97.5492 167.387 97.9912 167.03 98.5692 166.769C99.1585 166.508 99.8555 166.378 100.66 166.378C101.85 166.378 102.785 166.673 103.465 167.262C104.157 167.851 104.553 168.633 104.655 169.608H101.969C101.924 169.279 101.777 169.019 101.527 168.826C101.289 168.633 100.972 168.537 100.575 168.537C100.235 168.537 99.9745 168.605 99.7932 168.741C99.6118 168.866 99.5212 169.041 99.5212 169.268C99.5212 169.54 99.6628 169.744 99.9462 169.88C100.241 170.016 100.694 170.152 101.306 170.288C102.009 170.469 102.581 170.651 103.023 170.832C103.465 171.002 103.851 171.285 104.179 171.682C104.519 172.067 104.695 172.589 104.706 173.246C104.706 173.801 104.548 174.3 104.23 174.742C103.924 175.173 103.477 175.513 102.887 175.762C102.309 176.011 101.635 176.136 100.864 176.136ZM111.772 173.535V176H110.293C109.239 176 108.417 175.745 107.828 175.235C107.238 174.714 106.944 173.869 106.944 172.702V168.928H105.788V166.514H106.944V164.202H109.851V166.514H111.755V168.928H109.851V172.736C109.851 173.019 109.919 173.223 110.055 173.348C110.191 173.473 110.417 173.535 110.735 173.535H111.772ZM118.455 165.528C117.945 165.528 117.526 165.381 117.197 165.086C116.88 164.78 116.721 164.406 116.721 163.964C116.721 163.511 116.88 163.137 117.197 162.842C117.526 162.536 117.945 162.383 118.455 162.383C118.954 162.383 119.362 162.536 119.679 162.842C120.008 163.137 120.172 163.511 120.172 163.964C120.172 164.406 120.008 164.78 119.679 165.086C119.362 165.381 118.954 165.528 118.455 165.528ZM119.9 166.514V176H116.993V166.514H119.9ZM127.787 166.412C128.898 166.412 129.782 166.775 130.439 167.5C131.108 168.214 131.442 169.2 131.442 170.458V176H128.552V170.849C128.552 170.214 128.388 169.721 128.059 169.37C127.73 169.019 127.288 168.843 126.733 168.843C126.178 168.843 125.736 169.019 125.407 169.37C125.078 169.721 124.914 170.214 124.914 170.849V176H122.007V166.514H124.914V167.772C125.209 167.353 125.605 167.024 126.104 166.786C126.603 166.537 127.164 166.412 127.787 166.412ZM136.487 171.257C136.487 170.271 136.685 169.41 137.082 168.673C137.49 167.936 138.051 167.37 138.765 166.973C139.49 166.576 140.317 166.378 141.247 166.378C142.437 166.378 143.428 166.69 144.222 167.313C145.026 167.936 145.553 168.815 145.803 169.948H142.709C142.448 169.223 141.944 168.86 141.196 168.86C140.663 168.86 140.238 169.07 139.921 169.489C139.603 169.897 139.445 170.486 139.445 171.257C139.445 172.028 139.603 172.623 139.921 173.042C140.238 173.45 140.663 173.654 141.196 173.654C141.944 173.654 142.448 173.291 142.709 172.566H145.803C145.553 173.677 145.026 174.549 144.222 175.184C143.417 175.819 142.425 176.136 141.247 176.136C140.317 176.136 139.49 175.938 138.765 175.541C138.051 175.144 137.49 174.578 137.082 173.841C136.685 173.104 136.487 172.243 136.487 171.257ZM146.78 171.24C146.78 170.265 146.961 169.41 147.324 168.673C147.698 167.936 148.202 167.37 148.837 166.973C149.471 166.576 150.18 166.378 150.962 166.378C151.63 166.378 152.214 166.514 152.713 166.786C153.223 167.058 153.614 167.415 153.886 167.857V166.514H156.793V176H153.886V174.657C153.602 175.099 153.206 175.456 152.696 175.728C152.197 176 151.613 176.136 150.945 176.136C150.174 176.136 149.471 175.938 148.837 175.541C148.202 175.133 147.698 174.561 147.324 173.824C146.961 173.076 146.78 172.215 146.78 171.24ZM153.886 171.257C153.886 170.532 153.682 169.959 153.274 169.54C152.877 169.121 152.39 168.911 151.812 168.911C151.234 168.911 150.741 169.121 150.333 169.54C149.936 169.948 149.738 170.515 149.738 171.24C149.738 171.965 149.936 172.543 150.333 172.974C150.741 173.393 151.234 173.603 151.812 173.603C152.39 173.603 152.877 173.393 153.274 172.974C153.682 172.555 153.886 171.982 153.886 171.257ZM162.755 176.136C161.927 176.136 161.191 175.994 160.545 175.711C159.899 175.428 159.389 175.042 159.015 174.555C158.641 174.056 158.431 173.501 158.386 172.889H161.259C161.293 173.218 161.446 173.484 161.718 173.688C161.99 173.892 162.324 173.994 162.721 173.994C163.083 173.994 163.361 173.926 163.554 173.79C163.758 173.643 163.86 173.456 163.86 173.229C163.86 172.957 163.718 172.759 163.435 172.634C163.151 172.498 162.692 172.351 162.058 172.192C161.378 172.033 160.811 171.869 160.358 171.699C159.904 171.518 159.513 171.24 159.185 170.866C158.856 170.481 158.692 169.965 158.692 169.319C158.692 168.775 158.839 168.282 159.134 167.84C159.44 167.387 159.882 167.03 160.46 166.769C161.049 166.508 161.746 166.378 162.551 166.378C163.741 166.378 164.676 166.673 165.356 167.262C166.047 167.851 166.444 168.633 166.546 169.608H163.86C163.814 169.279 163.667 169.019 163.418 168.826C163.18 168.633 162.862 168.537 162.466 168.537C162.126 168.537 161.865 168.605 161.684 168.741C161.502 168.866 161.412 169.041 161.412 169.268C161.412 169.54 161.553 169.744 161.837 169.88C162.131 170.016 162.585 170.152 163.197 170.288C163.899 170.469 164.472 170.651 164.914 170.832C165.356 171.002 165.741 171.285 166.07 171.682C166.41 172.067 166.585 172.589 166.597 173.246C166.597 173.801 166.438 174.3 166.121 174.742C165.815 175.173 165.367 175.513 164.778 175.762C164.2 176.011 163.525 176.136 162.755 176.136ZM177.317 171.104C177.317 171.376 177.3 171.659 177.266 171.954H170.687C170.733 172.543 170.92 172.997 171.248 173.314C171.588 173.62 172.002 173.773 172.489 173.773C173.215 173.773 173.719 173.467 174.002 172.855H177.096C176.938 173.478 176.649 174.039 176.229 174.538C175.821 175.037 175.306 175.428 174.682 175.711C174.059 175.994 173.362 176.136 172.591 176.136C171.662 176.136 170.835 175.938 170.109 175.541C169.384 175.144 168.817 174.578 168.409 173.841C168.001 173.104 167.797 172.243 167.797 171.257C167.797 170.271 167.996 169.41 168.392 168.673C168.8 167.936 169.367 167.37 170.092 166.973C170.818 166.576 171.651 166.378 172.591 166.378C173.509 166.378 174.325 166.571 175.039 166.956C175.753 167.341 176.309 167.891 176.705 168.605C177.113 169.319 177.317 170.152 177.317 171.104ZM174.342 170.339C174.342 169.84 174.172 169.444 173.832 169.149C173.492 168.854 173.067 168.707 172.557 168.707C172.07 168.707 171.656 168.849 171.316 169.132C170.988 169.415 170.784 169.818 170.704 170.339H174.342ZM183.813 176.136C183.303 176.136 182.884 175.989 182.555 175.694C182.238 175.388 182.079 175.014 182.079 174.572C182.079 174.119 182.238 173.739 182.555 173.433C182.884 173.127 183.303 172.974 183.813 172.974C184.312 172.974 184.72 173.127 185.037 173.433C185.366 173.739 185.53 174.119 185.53 174.572C185.53 175.014 185.366 175.388 185.037 175.694C184.72 175.989 184.312 176.136 183.813 176.136ZM183.813 169.217C183.303 169.217 182.884 169.07 182.555 168.775C182.238 168.469 182.079 168.095 182.079 167.653C182.079 167.2 182.238 166.82 182.555 166.514C182.884 166.208 183.303 166.055 183.813 166.055C184.312 166.055 184.72 166.208 185.037 166.514C185.366 166.82 185.53 167.2 185.53 167.653C185.53 168.095 185.366 168.469 185.037 168.775C184.72 169.07 184.312 169.217 183.813 169.217ZM186.502 179.553V179.281C187.636 178.102 188.514 176.708 189.137 175.099C189.761 173.49 190.072 171.818 190.072 170.084C190.072 168.339 189.749 166.644 189.103 165.001C188.457 163.346 187.539 161.93 186.349 160.751V160.479H189.205C190.373 161.544 191.274 162.927 191.908 164.627C192.543 166.316 192.86 168.135 192.86 170.084C192.86 172.011 192.554 173.807 191.942 175.473C191.33 177.139 190.475 178.499 189.375 179.553H186.502Z" fill="black"/>
</svg>
