<svg width="115" height="119" viewBox="0 0 115 119" fill="none" xmlns="http://www.w3.org/2000/svg">
<mask id="path-1-inside-1_236_214" fill="white">
<path d="M113.73 38.6016C114.486 40.6174 113.848 42.865 112.218 44.3015L101.985 53.4306C102.244 55.3537 102.386 57.3232 102.386 59.3158C102.386 61.3085 102.244 63.2779 101.985 65.2011L112.218 74.3301C113.848 75.7667 114.486 78.0142 113.73 80.03C112.69 82.7873 111.438 85.4287 109.996 87.9774L108.885 89.8542C107.326 92.4029 105.577 94.8126 103.662 97.0833C102.268 98.7516 99.9521 99.3077 97.8724 98.6589L84.7089 94.5578C81.5421 96.9443 78.0445 98.937 74.3105 100.443L71.3564 113.673C70.8837 115.782 69.2294 117.45 67.0552 117.798C63.7939 118.33 60.438 118.608 57.0113 118.608C53.5845 118.608 50.2286 118.33 46.9673 117.798C44.7931 117.45 43.1388 115.782 42.6661 113.673L39.712 100.443C35.9781 98.937 32.4804 96.9443 29.3136 94.5578L16.1738 98.6821C14.0941 99.3308 11.7781 98.7516 10.3837 97.1065C8.46947 94.8358 6.72064 92.4261 5.16088 89.8774L4.05013 88.0006C2.60853 85.4519 1.35599 82.8105 0.31615 80.0532C-0.4401 78.0374 0.197985 75.7899 1.82865 74.3533L12.0617 65.2242C11.8017 63.2779 11.6599 61.3085 11.6599 59.3158C11.6599 57.3232 11.8017 55.3537 12.0617 53.4306L1.82865 44.3015C0.197985 42.865 -0.4401 40.6174 0.31615 38.6016C1.35599 35.8444 2.60853 33.203 4.05013 30.6542L5.16088 28.7774C6.72064 26.2287 8.46947 23.819 10.3837 21.5483C11.7781 19.8801 14.0941 19.324 16.1738 19.9728L29.3372 24.0739C32.504 21.6874 36.0017 19.6947 39.7357 18.1886L42.6898 4.95843C43.1624 2.84994 44.8167 1.18168 46.991 0.834129C50.2523 0.278043 53.6081 0 57.0349 0C60.4617 0 63.8175 0.278043 67.0788 0.810959C69.2531 1.15851 70.9074 2.82677 71.38 4.93526L74.3341 18.1655C78.0681 19.6715 81.5658 21.6642 84.7326 24.0507L97.896 19.9496C99.9757 19.3008 102.292 19.8801 103.686 21.5252C105.6 23.7958 107.349 26.2055 108.909 28.7543L110.02 30.6311C111.461 33.1798 112.714 35.8212 113.754 38.5785L113.73 38.6016ZM57.0349 77.852C62.0491 77.852 66.858 75.8991 70.4036 72.4229C73.9492 68.9467 75.9411 64.2319 75.9411 59.3158C75.9411 54.3997 73.9492 49.685 70.4036 46.2088C66.858 42.7325 62.0491 40.7796 57.0349 40.7796C52.0206 40.7796 47.2118 42.7325 43.6662 46.2088C40.1205 49.685 38.1286 54.3997 38.1286 59.3158C38.1286 64.2319 40.1205 68.9467 43.6662 72.4229C47.2118 75.8991 52.0206 77.852 57.0349 77.852Z"/>
</mask>
<path d="M113.73 38.6016L111.63 36.4595L110.235 37.8268L110.921 39.6554L113.73 38.6016ZM112.218 44.3015L110.234 42.0504L110.227 42.0566L110.22 42.0629L112.218 44.3015ZM101.985 53.4306L99.9874 51.192L98.798 52.253L99.0115 53.8325L101.985 53.4306ZM101.985 65.2011L99.0115 64.7992L98.798 66.3787L99.9874 67.4397L101.985 65.2011ZM112.218 74.3301L110.22 76.5688L110.227 76.575L110.234 76.5812L112.218 74.3301ZM113.73 80.03L116.537 81.0886L116.539 81.0838L113.73 80.03ZM109.996 87.9774L112.578 89.5054L112.593 89.48L112.607 89.4544L109.996 87.9774ZM108.885 89.8542L111.444 91.4202L111.456 91.4013L111.467 91.3822L108.885 89.8542ZM103.662 97.0833L101.369 95.1497L101.361 95.1594L103.662 97.0833ZM97.8724 98.6589L98.7658 95.795L98.7647 95.7947L97.8724 98.6589ZM84.7089 94.5578L85.6013 91.6936L84.1322 91.2359L82.9034 92.1619L84.7089 94.5578ZM74.3105 100.443L73.1883 97.6608L71.7262 98.2505L71.3826 99.7893L74.3105 100.443ZM71.3564 113.673L74.2837 114.329L74.2843 114.327L71.3564 113.673ZM67.0552 117.798L66.5817 114.835L66.5714 114.837L67.0552 117.798ZM46.9673 117.798L47.4511 114.837L47.4409 114.835L46.9673 117.798ZM42.6661 113.673L39.7382 114.327L39.7388 114.329L42.6661 113.673ZM39.712 100.443L42.6399 99.7893L42.2964 98.2505L40.8342 97.6608L39.712 100.443ZM29.3136 94.5578L31.1191 92.1619L29.8871 91.2335L28.4152 91.6955L29.3136 94.5578ZM16.1738 98.6821L17.0672 101.546L17.0722 101.544L16.1738 98.6821ZM10.3837 97.1065L8.09003 99.0402L8.09517 99.0462L10.3837 97.1065ZM5.16088 89.8774L2.57914 91.4053L2.59044 91.4244L2.60202 91.4433L5.16088 89.8774ZM4.05013 88.0006L1.43889 89.4776L1.45339 89.5032L1.4684 89.5285L4.05013 88.0006ZM0.31615 80.0532L-2.4927 81.107L-2.49087 81.1118L0.31615 80.0532ZM1.82865 74.3533L3.81175 76.6044L3.81879 76.5982L3.82578 76.592L1.82865 74.3533ZM12.0617 65.2242L14.0588 67.4629L15.2459 66.4039L15.0352 64.8271L12.0617 65.2242ZM12.0617 53.4306L15.0346 53.8325L15.2481 52.253L14.0588 51.192L12.0617 53.4306ZM1.82865 44.3015L3.82578 42.0629L3.81879 42.0566L3.81175 42.0504L1.82865 44.3015ZM0.31615 38.6016L-2.49087 37.543L-2.49269 37.5479L0.31615 38.6016ZM4.05013 30.6542L1.4684 29.1263L1.45339 29.1516L1.43889 29.1773L4.05013 30.6542ZM5.16088 28.7774L2.60202 27.2115L2.59044 27.2304L2.57914 27.2495L5.16088 28.7774ZM10.3837 21.5483L12.6774 23.482L12.6856 23.4722L10.3837 21.5483ZM16.1738 19.9728L15.2804 22.8366L15.2814 22.837L16.1738 19.9728ZM29.3372 24.0739L28.4449 26.9381L29.9139 27.3958L31.1428 26.4697L29.3372 24.0739ZM39.7357 18.1886L40.8579 20.9709L42.32 20.3811L42.6636 18.8424L39.7357 18.1886ZM42.6898 4.95843L39.7624 4.30221L39.7619 4.30468L42.6898 4.95843ZM46.991 0.834129L47.4645 3.79652L47.4799 3.79406L47.4952 3.79145L46.991 0.834129ZM67.0788 0.810959L66.595 3.77171L66.6053 3.77335L67.0788 0.810959ZM71.38 4.93526L74.3079 4.28151L74.3074 4.27904L71.38 4.93526ZM74.3341 18.1655L71.4062 18.8192L71.7498 20.3579L73.2119 20.9477L74.3341 18.1655ZM84.7326 24.0507L82.927 26.4466L84.1559 27.3726L85.6249 26.9149L84.7326 24.0507ZM97.896 19.9496L98.7884 22.8138L98.7894 22.8135L97.896 19.9496ZM103.686 21.5252L105.98 19.5915L105.975 19.5854L103.686 21.5252ZM108.909 28.7543L111.491 27.2263L111.479 27.2072L111.468 27.1883L108.909 28.7543ZM110.02 30.6311L112.631 29.1541L112.616 29.1285L112.601 29.1031L110.02 30.6311ZM113.754 38.5785L115.854 40.7206L117.251 39.3507L116.561 37.5199L113.754 38.5785ZM57.0349 40.7796L57.0349 37.7796L57.0349 40.7796ZM38.1286 59.3158L35.1286 59.3158L38.1286 59.3158ZM110.921 39.6554C111.207 40.4179 111.002 41.374 110.234 42.0504L114.201 46.5526C116.694 44.3559 117.765 40.817 116.539 37.5479L110.921 39.6554ZM110.22 42.0629L99.9874 51.192L103.982 55.6692L114.215 46.5401L110.22 42.0629ZM99.0115 53.8325C99.2545 55.6301 99.3863 57.4651 99.3863 59.3158H105.386C105.386 57.1812 105.234 55.0774 104.957 53.0287L99.0115 53.8325ZM99.3863 59.3158C99.3863 61.1665 99.2545 63.0016 99.0115 64.7992L104.957 65.6029C105.234 63.5543 105.386 61.4504 105.386 59.3158H99.3863ZM99.9874 67.4397L110.22 76.5688L114.215 72.0915L103.982 62.9624L99.9874 67.4397ZM110.234 76.5812C111.002 77.2577 111.207 78.2138 110.921 78.9763L116.539 81.0838C117.765 77.8146 116.694 74.2757 114.201 72.0791L110.234 76.5812ZM110.923 78.9714C109.941 81.5755 108.755 84.0774 107.385 86.5005L112.607 89.4544C114.12 86.78 115.439 83.9991 116.537 81.0886L110.923 78.9714ZM107.414 86.4495L106.304 88.3263L111.467 91.3822L112.578 89.5054L107.414 86.4495ZM106.326 88.2882C104.849 90.7032 103.189 92.9904 101.369 95.1497L105.956 99.017C107.964 96.6349 109.803 94.1027 111.444 91.4202L106.326 88.2882ZM101.361 95.1594C100.831 95.7931 99.8241 96.1252 98.7658 95.795L96.979 101.523C100.08 102.49 103.705 101.71 105.964 99.0072L101.361 95.1594ZM98.7647 95.7947L85.6013 91.6936L83.8166 97.422L96.98 101.523L98.7647 95.7947ZM82.9034 92.1619C79.9428 94.3931 76.6743 96.2548 73.1883 97.6608L75.4327 103.225C79.4146 101.619 83.1415 99.4955 86.5145 96.9536L82.9034 92.1619ZM71.3826 99.7893L68.4285 113.019L74.2843 114.327L77.2384 101.097L71.3826 99.7893ZM68.429 113.017C68.2067 114.009 67.4622 114.694 66.5817 114.835L67.5288 120.76C70.9967 120.206 73.5607 117.555 74.2837 114.329L68.429 113.017ZM66.5714 114.837C63.4696 115.344 60.2755 115.608 57.0113 115.608V121.608C60.6005 121.608 64.1182 121.317 67.539 120.758L66.5714 114.837ZM57.0113 115.608C53.747 115.608 50.5529 115.344 47.4511 114.837L46.4835 120.758C49.9044 121.317 53.422 121.608 57.0113 121.608V115.608ZM47.4409 114.835C46.5603 114.694 45.8158 114.009 45.5935 113.017L39.7388 114.329C40.4618 117.555 43.0259 120.206 46.4938 120.76L47.4409 114.835ZM45.594 113.019L42.6399 99.7893L36.7841 101.097L39.7382 114.327L45.594 113.019ZM40.8342 97.6608C37.3482 96.2548 34.0797 94.3931 31.1191 92.1619L27.5081 96.9536C30.8811 99.4955 34.6079 101.619 38.5899 103.225L40.8342 97.6608ZM28.4152 91.6955L15.2753 95.8198L17.0722 101.544L30.212 97.4201L28.4152 91.6955ZM15.2804 95.8182C14.2443 96.1414 13.2181 95.8107 12.6723 95.1668L8.09517 99.0462C10.338 101.692 13.9439 102.52 17.0672 101.546L15.2804 95.8182ZM12.6774 95.1729C10.8571 93.0136 9.19765 90.7264 7.71973 88.3114L2.60202 91.4433C4.24364 94.1258 6.08184 96.658 8.09004 99.0402L12.6774 95.1729ZM7.74261 88.3494L6.63187 86.4726L1.4684 89.5285L2.57914 91.4053L7.74261 88.3494ZM6.66138 86.5236C5.29083 84.1005 4.10522 81.5986 3.12317 78.9946L-2.49087 81.1118C-1.39324 84.0223 -0.0737622 86.8032 1.43889 89.4776L6.66138 86.5236ZM3.12499 78.9994C2.83895 78.237 3.04388 77.2808 3.81175 76.6044L-0.154456 72.1023C-2.64791 74.2989 -3.71915 77.8378 -2.49269 81.107L3.12499 78.9994ZM3.82578 76.592L14.0588 67.4629L10.0645 62.9856L-0.16848 72.1147L3.82578 76.592ZM15.0352 64.8271C14.7915 63.0023 14.6599 61.1658 14.6599 59.3158H8.6599C8.6599 61.4511 8.81187 63.5536 9.08806 65.6214L15.0352 64.8271ZM14.6599 59.3158C14.6599 57.4651 14.7916 55.6301 15.0346 53.8325L9.08869 53.0287C8.81177 55.0774 8.6599 57.1812 8.6599 59.3158H14.6599ZM14.0588 51.192L3.82578 42.0629L-0.168481 46.5401L10.0645 55.6692L14.0588 51.192ZM3.81175 42.0504C3.04388 41.374 2.83895 40.4179 3.12499 39.6554L-2.49269 37.5479C-3.71915 40.817 -2.64791 44.3559 -0.154456 46.5526L3.81175 42.0504ZM3.12317 39.6602C4.10522 37.0562 5.29083 34.5543 6.66138 32.1312L1.43889 29.1773C-0.0737628 31.8516 -1.39324 34.6325 -2.49087 37.543L3.12317 39.6602ZM6.63187 32.1822L7.74261 30.3054L2.57914 27.2495L1.4684 29.1263L6.63187 32.1822ZM7.71973 30.3434C9.19765 27.9284 10.8571 25.6412 12.6774 23.482L8.09004 19.6147C6.08185 21.9968 4.24364 24.529 2.60202 27.2115L7.71973 30.3434ZM12.6856 23.4722C13.2152 22.8386 14.2221 22.5065 15.2804 22.8366L17.0672 17.1089C13.9661 16.1415 10.3409 16.9216 8.08186 19.6244L12.6856 23.4722ZM15.2814 22.837L28.4449 26.9381L30.2296 21.2097L17.0661 17.1085L15.2814 22.837ZM31.1428 26.4697C34.1034 24.2386 37.3718 22.3769 40.8579 20.9709L38.6135 15.4064C34.6315 17.0125 30.9047 19.1361 27.5317 21.678L31.1428 26.4697ZM42.6636 18.8424L45.6177 5.61219L39.7619 4.30468L36.8078 17.5349L42.6636 18.8424ZM45.6171 5.61465C45.8395 4.62289 46.584 3.93727 47.4645 3.79652L46.5174 -2.12826C43.0495 -1.57391 40.4854 1.07699 39.7624 4.30221L45.6171 5.61465ZM47.4952 3.79145C50.5835 3.26486 53.7705 3 57.0349 3V-3C53.4458 -3 49.921 -2.70877 46.4867 -2.12319L47.4952 3.79145ZM57.0349 3C60.2992 3 63.4932 3.26484 66.595 3.77169L67.5626 -2.14977C64.1418 -2.70876 60.6241 -3 57.0349 -3V3ZM66.6053 3.77335C67.4858 3.9141 68.2303 4.59972 68.4527 5.59148L74.3074 4.27904C73.5844 1.05382 71.0203 -1.59708 67.5524 -2.15143L66.6053 3.77335ZM68.4521 5.58902L71.4062 18.8192L77.262 17.5117L74.3079 4.28151L68.4521 5.58902ZM73.2119 20.9477C76.698 22.3537 79.9664 24.2154 82.927 26.4466L86.5381 21.6549C83.1651 19.113 79.4383 16.9893 75.4563 15.3833L73.2119 20.9477ZM85.6249 26.9149L98.7884 22.8138L97.0037 17.0854L83.8402 21.1865L85.6249 26.9149ZM98.7894 22.8135C99.8255 22.4903 100.852 22.8209 101.398 23.4649L105.975 19.5854C103.732 16.9392 100.126 16.1114 97.0026 17.0857L98.7894 22.8135ZM101.392 23.4588C103.213 25.6181 104.872 27.9053 106.35 30.3202L111.468 27.1883C109.826 24.5058 107.988 21.9736 105.98 19.5915L101.392 23.4588ZM106.327 30.2822L107.438 32.159L112.601 29.1031L111.491 27.2263L106.327 30.2822ZM107.408 32.108C108.779 34.5311 109.965 37.033 110.947 39.6371L116.561 37.5199C115.463 34.6094 114.144 31.8285 112.631 29.1541L107.408 32.108ZM111.653 36.4363L111.63 36.4595L115.83 40.7438L115.854 40.7206L111.653 36.4363ZM57.0349 80.852C62.8259 80.852 68.3913 78.5972 72.5039 74.5651L68.3034 70.2807C65.3247 73.2011 61.2724 74.852 57.0349 74.852V80.852ZM72.5039 74.5651C76.6185 70.531 78.9411 65.0469 78.9411 59.3158H72.9411C72.9411 63.4169 71.28 67.3623 68.3034 70.2807L72.5039 74.5651ZM78.9411 59.3158C78.9411 53.5847 76.6185 48.1006 72.5039 44.0666L68.3034 48.3509C71.28 51.2693 72.9411 55.2147 72.9411 59.3158H78.9411ZM72.5039 44.0666C68.3913 40.0345 62.8259 37.7796 57.0349 37.7796L57.0349 43.7796C61.2724 43.7796 65.3247 45.4306 68.3034 48.3509L72.5039 44.0666ZM57.0349 37.7796C51.2439 37.7796 45.6785 40.0345 41.5659 44.0666L45.7664 48.3509C48.7451 45.4306 52.7974 43.7796 57.0349 43.7796L57.0349 37.7796ZM41.5659 44.0666C37.4513 48.1006 35.1286 53.5847 35.1286 59.3158L41.1286 59.3158C41.1286 55.2147 42.7898 51.2693 45.7664 48.3509L41.5659 44.0666ZM35.1286 59.3158C35.1286 65.0469 37.4513 70.531 41.5659 74.5651L45.7664 70.2807C42.7898 67.3623 41.1286 63.4169 41.1286 59.3158L35.1286 59.3158ZM41.5659 74.5651C45.6785 78.5972 51.2439 80.852 57.0349 80.852V74.852C52.7974 74.852 48.7451 73.2011 45.7664 70.2807L41.5659 74.5651Z" fill="white" mask="url(#path-1-inside-1_236_214)"/>
</svg>
