<svg width="141" height="48" viewBox="0 0 141 48" fill="none" xmlns="http://www.w3.org/2000/svg">
<path d="M8.478 5.454V6.786H3.024V11.016H7.452V12.348H3.024V18H1.386V5.454H8.478ZM19.2043 8.136V18H17.5663V16.542C17.2543 17.046 16.8163 17.442 16.2523 17.73C15.7003 18.006 15.0883 18.144 14.4163 18.144C13.6483 18.144 12.9583 17.988 12.3463 17.676C11.7343 17.352 11.2483 16.872 10.8883 16.236C10.5403 15.6 10.3663 14.826 10.3663 13.914V8.136H11.9863V13.698C11.9863 14.67 12.2323 15.42 12.7243 15.948C13.2163 16.464 13.8883 16.722 14.7403 16.722C15.6163 16.722 16.3063 16.452 16.8103 15.912C17.3143 15.372 17.5663 14.586 17.5663 13.554V8.136H19.2043ZM26.776 7.956C27.976 7.956 28.948 8.322 29.692 9.054C30.436 9.774 30.808 10.818 30.808 12.186V18H29.188V12.42C29.188 11.436 28.942 10.686 28.45 10.17C27.958 9.642 27.286 9.378 26.434 9.378C25.57 9.378 24.88 9.648 24.364 10.188C23.86 10.728 23.608 11.514 23.608 12.546V18H21.97V8.136H23.608V9.54C23.932 9.036 24.37 8.646 24.922 8.37C25.486 8.094 26.104 7.956 26.776 7.956ZM32.8717 13.032C32.8717 12.024 33.0757 11.142 33.4837 10.386C33.8917 9.618 34.4497 9.024 35.1577 8.604C35.8777 8.184 36.6817 7.974 37.5697 7.974C38.3377 7.974 39.0517 8.154 39.7117 8.514C40.3717 8.862 40.8757 9.324 41.2237 9.9V4.68H42.8797V18H41.2237V16.146C40.8997 16.734 40.4197 17.22 39.7837 17.604C39.1477 17.976 38.4037 18.162 37.5517 18.162C36.6757 18.162 35.8777 17.946 35.1577 17.514C34.4497 17.082 33.8917 16.476 33.4837 15.696C33.0757 14.916 32.8717 14.028 32.8717 13.032ZM41.2237 13.05C41.2237 12.306 41.0737 11.658 40.7737 11.106C40.4737 10.554 40.0657 10.134 39.5497 9.846C39.0457 9.546 38.4877 9.396 37.8757 9.396C37.2637 9.396 36.7057 9.54 36.2017 9.828C35.6977 10.116 35.2957 10.536 34.9957 11.088C34.6957 11.64 34.5457 12.288 34.5457 13.032C34.5457 13.788 34.6957 14.448 34.9957 15.012C35.2957 15.564 35.6977 15.99 36.2017 16.29C36.7057 16.578 37.2637 16.722 37.8757 16.722C38.4877 16.722 39.0457 16.578 39.5497 16.29C40.0657 15.99 40.4737 15.564 40.7737 15.012C41.0737 14.448 41.2237 13.794 41.2237 13.05ZM45.0357 13.032C45.0357 12.024 45.2397 11.142 45.6477 10.386C46.0557 9.618 46.6137 9.024 47.3217 8.604C48.0417 8.184 48.8397 7.974 49.7157 7.974C50.5797 7.974 51.3297 8.16 51.9657 8.532C52.6017 8.904 53.0757 9.372 53.3877 9.936V8.136H55.0437V18H53.3877V16.164C53.0637 16.74 52.5777 17.22 51.9297 17.604C51.2937 17.976 50.5497 18.162 49.6977 18.162C48.8217 18.162 48.0297 17.946 47.3217 17.514C46.6137 17.082 46.0557 16.476 45.6477 15.696C45.2397 14.916 45.0357 14.028 45.0357 13.032ZM53.3877 13.05C53.3877 12.306 53.2377 11.658 52.9377 11.106C52.6377 10.554 52.2297 10.134 51.7137 9.846C51.2097 9.546 50.6517 9.396 50.0397 9.396C49.4277 9.396 48.8697 9.54 48.3657 9.828C47.8617 10.116 47.4597 10.536 47.1597 11.088C46.8597 11.64 46.7097 12.288 46.7097 13.032C46.7097 13.788 46.8597 14.448 47.1597 15.012C47.4597 15.564 47.8617 15.99 48.3657 16.29C48.8697 16.578 49.4277 16.722 50.0397 16.722C50.6517 16.722 51.2097 16.578 51.7137 16.29C52.2297 15.99 52.6377 15.564 52.9377 15.012C53.2377 14.448 53.3877 13.794 53.3877 13.05ZM69.6738 7.956C70.4418 7.956 71.1258 8.118 71.7258 8.442C72.3258 8.754 72.7998 9.228 73.1478 9.864C73.4958 10.5 73.6698 11.274 73.6698 12.186V18H72.0498V12.42C72.0498 11.436 71.8038 10.686 71.3118 10.17C70.8318 9.642 70.1778 9.378 69.3498 9.378C68.4978 9.378 67.8198 9.654 67.3158 10.206C66.8118 10.746 66.5598 11.532 66.5598 12.564V18H64.9398V12.42C64.9398 11.436 64.6938 10.686 64.2018 10.17C63.7218 9.642 63.0678 9.378 62.2398 9.378C61.3878 9.378 60.7098 9.654 60.2058 10.206C59.7018 10.746 59.4498 11.532 59.4498 12.564V18H57.8118V8.136H59.4498V9.558C59.7738 9.042 60.2058 8.646 60.7458 8.37C61.2978 8.094 61.9038 7.956 62.5638 7.956C63.3918 7.956 64.1238 8.142 64.7598 8.514C65.3958 8.886 65.8698 9.432 66.1818 10.152C66.4578 9.456 66.9138 8.916 67.5498 8.532C68.1858 8.148 68.8938 7.956 69.6738 7.956ZM85.3567 12.69C85.3567 13.002 85.3387 13.332 85.3027 13.68H77.4187C77.4787 14.652 77.8087 15.414 78.4087 15.966C79.0207 16.506 79.7587 16.776 80.6227 16.776C81.3307 16.776 81.9187 16.614 82.3867 16.29C82.8667 15.954 83.2027 15.51 83.3947 14.958H85.1587C84.8947 15.906 84.3667 16.68 83.5747 17.28C82.7827 17.868 81.7987 18.162 80.6227 18.162C79.6867 18.162 78.8467 17.952 78.1027 17.532C77.3707 17.112 76.7947 16.518 76.3747 15.75C75.9547 14.97 75.7447 14.07 75.7447 13.05C75.7447 12.03 75.9487 11.136 76.3567 10.368C76.7647 9.6 77.3347 9.012 78.0667 8.604C78.8107 8.184 79.6627 7.974 80.6227 7.974C81.5587 7.974 82.3867 8.178 83.1067 8.586C83.8267 8.994 84.3787 9.558 84.7627 10.278C85.1587 10.986 85.3567 11.79 85.3567 12.69ZM83.6647 12.348C83.6647 11.724 83.5267 11.19 83.2507 10.746C82.9747 10.29 82.5967 9.948 82.1167 9.72C81.6487 9.48 81.1267 9.36 80.5507 9.36C79.7227 9.36 79.0147 9.624 78.4267 10.152C77.8507 10.68 77.5207 11.412 77.4367 12.348H83.6647ZM92.3248 7.956C93.5248 7.956 94.4968 8.322 95.2408 9.054C95.9848 9.774 96.3568 10.818 96.3568 12.186V18H94.7368V12.42C94.7368 11.436 94.4908 10.686 93.9988 10.17C93.5068 9.642 92.8348 9.378 91.9828 9.378C91.1188 9.378 90.4288 9.648 89.9128 10.188C89.4088 10.728 89.1568 11.514 89.1568 12.546V18H87.5188V8.136H89.1568V9.54C89.4808 9.036 89.9188 8.646 90.4708 8.37C91.0348 8.094 91.6528 7.956 92.3248 7.956ZM101.03 9.486V15.3C101.03 15.78 101.132 16.122 101.336 16.326C101.54 16.518 101.894 16.614 102.398 16.614H103.604V18H102.128C101.216 18 100.532 17.79 100.076 17.37C99.6205 16.95 99.3925 16.26 99.3925 15.3V9.486H98.1145V8.136H99.3925V5.652H101.03V8.136H103.604V9.486H101.03ZM104.977 13.032C104.977 12.024 105.181 11.142 105.589 10.386C105.997 9.618 106.555 9.024 107.263 8.604C107.983 8.184 108.781 7.974 109.657 7.974C110.521 7.974 111.271 8.16 111.907 8.532C112.543 8.904 113.017 9.372 113.329 9.936V8.136H114.985V18H113.329V16.164C113.005 16.74 112.519 17.22 111.871 17.604C111.235 17.976 110.491 18.162 109.639 18.162C108.763 18.162 107.971 17.946 107.263 17.514C106.555 17.082 105.997 16.476 105.589 15.696C105.181 14.916 104.977 14.028 104.977 13.032ZM113.329 13.05C113.329 12.306 113.179 11.658 112.879 11.106C112.579 10.554 112.171 10.134 111.655 9.846C111.151 9.546 110.593 9.396 109.981 9.396C109.369 9.396 108.811 9.54 108.307 9.828C107.803 10.116 107.401 10.536 107.101 11.088C106.801 11.64 106.651 12.288 106.651 13.032C106.651 13.788 106.801 14.448 107.101 15.012C107.401 15.564 107.803 15.99 108.307 16.29C108.811 16.578 109.369 16.722 109.981 16.722C110.593 16.722 111.151 16.578 111.655 16.29C112.171 15.99 112.579 15.564 112.879 15.012C113.179 14.448 113.329 13.794 113.329 13.05ZM119.391 4.68V18H117.753V4.68H119.391Z" fill="white"/>
<path d="M17.154 29.454L13.518 42H11.682L8.766 31.902L5.742 42L3.924 42.018L0.414 29.454H2.16L4.896 40.092L7.92 29.454H9.756L12.636 40.056L15.39 29.454H17.154ZM27.9465 36.69C27.9465 37.002 27.9285 37.332 27.8925 37.68H20.0085C20.0685 38.652 20.3985 39.414 20.9985 39.966C21.6105 40.506 22.3485 40.776 23.2125 40.776C23.9205 40.776 24.5085 40.614 24.9765 40.29C25.4565 39.954 25.7925 39.51 25.9845 38.958H27.7485C27.4845 39.906 26.9565 40.68 26.1645 41.28C25.3725 41.868 24.3885 42.162 23.2125 42.162C22.2765 42.162 21.4365 41.952 20.6925 41.532C19.9605 41.112 19.3845 40.518 18.9645 39.75C18.5445 38.97 18.3345 38.07 18.3345 37.05C18.3345 36.03 18.5385 35.136 18.9465 34.368C19.3545 33.6 19.9245 33.012 20.6565 32.604C21.4005 32.184 22.2525 31.974 23.2125 31.974C24.1485 31.974 24.9765 32.178 25.6965 32.586C26.4165 32.994 26.9685 33.558 27.3525 34.278C27.7485 34.986 27.9465 35.79 27.9465 36.69ZM26.2545 36.348C26.2545 35.724 26.1165 35.19 25.8405 34.746C25.5645 34.29 25.1865 33.948 24.7065 33.72C24.2385 33.48 23.7165 33.36 23.1405 33.36C22.3125 33.36 21.6045 33.624 21.0165 34.152C20.4405 34.68 20.1105 35.412 20.0265 36.348H26.2545ZM31.7467 33.972C32.0827 33.384 32.5747 32.904 33.2227 32.532C33.8707 32.16 34.6087 31.974 35.4367 31.974C36.3247 31.974 37.1227 32.184 37.8307 32.604C38.5387 33.024 39.0967 33.618 39.5047 34.386C39.9127 35.142 40.1167 36.024 40.1167 37.032C40.1167 38.028 39.9127 38.916 39.5047 39.696C39.0967 40.476 38.5327 41.082 37.8127 41.514C37.1047 41.946 36.3127 42.162 35.4367 42.162C34.5847 42.162 33.8347 41.976 33.1867 41.604C32.5507 41.232 32.0707 40.758 31.7467 40.182V42H30.1087V28.68H31.7467V33.972ZM38.4427 37.032C38.4427 36.288 38.2927 35.64 37.9927 35.088C37.6927 34.536 37.2847 34.116 36.7687 33.828C36.2647 33.54 35.7067 33.396 35.0947 33.396C34.4947 33.396 33.9367 33.546 33.4207 33.846C32.9167 34.134 32.5087 34.56 32.1967 35.124C31.8967 35.676 31.7467 36.318 31.7467 37.05C31.7467 37.794 31.8967 38.448 32.1967 39.012C32.5087 39.564 32.9167 39.99 33.4207 40.29C33.9367 40.578 34.4947 40.722 35.0947 40.722C35.7067 40.722 36.2647 40.578 36.7687 40.29C37.2847 39.99 37.6927 39.564 37.9927 39.012C38.2927 38.448 38.4427 37.788 38.4427 37.032ZM50.9775 29.454C52.3455 29.454 53.5275 29.712 54.5235 30.228C55.5315 30.732 56.2995 31.458 56.8275 32.406C57.3675 33.354 57.6375 34.47 57.6375 35.754C57.6375 37.038 57.3675 38.154 56.8275 39.102C56.2995 40.038 55.5315 40.758 54.5235 41.262C53.5275 41.754 52.3455 42 50.9775 42H47.0715V29.454H50.9775ZM50.9775 40.65C52.5975 40.65 53.8335 40.224 54.6855 39.372C55.5375 38.508 55.9635 37.302 55.9635 35.754C55.9635 34.194 55.5315 32.976 54.6675 32.1C53.8155 31.224 52.5855 30.786 50.9775 30.786H48.7095V40.65H50.9775ZM68.7981 36.69C68.7981 37.002 68.7801 37.332 68.7441 37.68H60.8601C60.9201 38.652 61.2501 39.414 61.8501 39.966C62.4621 40.506 63.2001 40.776 64.0641 40.776C64.7721 40.776 65.3601 40.614 65.8281 40.29C66.3081 39.954 66.6441 39.51 66.8361 38.958H68.6001C68.3361 39.906 67.8081 40.68 67.0161 41.28C66.2241 41.868 65.2401 42.162 64.0641 42.162C63.1281 42.162 62.2881 41.952 61.5441 41.532C60.8121 41.112 60.2361 40.518 59.8161 39.75C59.3961 38.97 59.1861 38.07 59.1861 37.05C59.1861 36.03 59.3901 35.136 59.7981 34.368C60.2061 33.6 60.7761 33.012 61.5081 32.604C62.2521 32.184 63.1041 31.974 64.0641 31.974C65.0001 31.974 65.8281 32.178 66.5481 32.586C67.2681 32.994 67.8201 33.558 68.2041 34.278C68.6001 34.986 68.7981 35.79 68.7981 36.69ZM67.1061 36.348C67.1061 35.724 66.9681 35.19 66.6921 34.746C66.4161 34.29 66.0381 33.948 65.5581 33.72C65.0901 33.48 64.5681 33.36 63.9921 33.36C63.1641 33.36 62.4561 33.624 61.8681 34.152C61.2921 34.68 60.9621 35.412 60.8781 36.348H67.1061ZM74.4522 42.162C73.6962 42.162 73.0182 42.036 72.4182 41.784C71.8182 41.52 71.3442 41.16 70.9962 40.704C70.6482 40.236 70.4562 39.702 70.4202 39.102H72.1122C72.1602 39.594 72.3882 39.996 72.7962 40.308C73.2162 40.62 73.7622 40.776 74.4342 40.776C75.0582 40.776 75.5502 40.638 75.9102 40.362C76.2702 40.086 76.4502 39.738 76.4502 39.318C76.4502 38.886 76.2582 38.568 75.8742 38.364C75.4902 38.148 74.8962 37.938 74.0922 37.734C73.3602 37.542 72.7602 37.35 72.2922 37.158C71.8362 36.954 71.4402 36.66 71.1042 36.276C70.7802 35.88 70.6182 35.364 70.6182 34.728C70.6182 34.224 70.7682 33.762 71.0682 33.342C71.3682 32.922 71.7942 32.592 72.3462 32.352C72.8982 32.1 73.5282 31.974 74.2362 31.974C75.3282 31.974 76.2102 32.25 76.8822 32.802C77.5542 33.354 77.9142 34.11 77.9622 35.07H76.3242C76.2882 34.554 76.0782 34.14 75.6942 33.828C75.3222 33.516 74.8182 33.36 74.1822 33.36C73.5942 33.36 73.1262 33.486 72.7782 33.738C72.4302 33.99 72.2562 34.32 72.2562 34.728C72.2562 35.052 72.3582 35.322 72.5622 35.538C72.7782 35.742 73.0422 35.91 73.3542 36.042C73.6782 36.162 74.1222 36.3 74.6862 36.456C75.3942 36.648 75.9702 36.84 76.4142 37.032C76.8582 37.212 77.2362 37.488 77.5482 37.86C77.8722 38.232 78.0402 38.718 78.0522 39.318C78.0522 39.858 77.9022 40.344 77.6022 40.776C77.3022 41.208 76.8762 41.55 76.3242 41.802C75.7842 42.042 75.1602 42.162 74.4522 42.162ZM81.2105 30.534C80.8985 30.534 80.6345 30.426 80.4185 30.21C80.2025 29.994 80.0945 29.73 80.0945 29.418C80.0945 29.106 80.2025 28.842 80.4185 28.626C80.6345 28.41 80.8985 28.302 81.2105 28.302C81.5105 28.302 81.7625 28.41 81.9665 28.626C82.1825 28.842 82.2905 29.106 82.2905 29.418C82.2905 29.73 82.1825 29.994 81.9665 30.21C81.7625 30.426 81.5105 30.534 81.2105 30.534ZM82.0025 32.136V42H80.3645V32.136H82.0025ZM88.8622 31.974C89.7142 31.974 90.4582 32.16 91.0942 32.532C91.7422 32.904 92.2222 33.372 92.5342 33.936V32.136H94.1902V42.216C94.1902 43.116 93.9982 43.914 93.6142 44.61C93.2302 45.318 92.6782 45.87 91.9582 46.266C91.2502 46.662 90.4222 46.86 89.4742 46.86C88.1782 46.86 87.0982 46.554 86.2342 45.942C85.3702 45.33 84.8602 44.496 84.7042 43.44H86.3242C86.5042 44.04 86.8762 44.52 87.4402 44.88C88.0042 45.252 88.6822 45.438 89.4742 45.438C90.3742 45.438 91.1062 45.156 91.6702 44.592C92.2462 44.028 92.5342 43.236 92.5342 42.216V40.146C92.2102 40.722 91.7302 41.202 91.0942 41.586C90.4582 41.97 89.7142 42.162 88.8622 42.162C87.9862 42.162 87.1882 41.946 86.4682 41.514C85.7602 41.082 85.2022 40.476 84.7942 39.696C84.3862 38.916 84.1822 38.028 84.1822 37.032C84.1822 36.024 84.3862 35.142 84.7942 34.386C85.2022 33.618 85.7602 33.024 86.4682 32.604C87.1882 32.184 87.9862 31.974 88.8622 31.974ZM92.5342 37.05C92.5342 36.306 92.3842 35.658 92.0842 35.106C91.7842 34.554 91.3762 34.134 90.8602 33.846C90.3562 33.546 89.7982 33.396 89.1862 33.396C88.5742 33.396 88.0162 33.54 87.5122 33.828C87.0082 34.116 86.6062 34.536 86.3062 35.088C86.0062 35.64 85.8562 36.288 85.8562 37.032C85.8562 37.788 86.0062 38.448 86.3062 39.012C86.6062 39.564 87.0082 39.99 87.5122 40.29C88.0162 40.578 88.5742 40.722 89.1862 40.722C89.7982 40.722 90.3562 40.578 90.8602 40.29C91.3762 39.99 91.7842 39.564 92.0842 39.012C92.3842 38.448 92.5342 37.794 92.5342 37.05ZM101.764 31.956C102.964 31.956 103.936 32.322 104.68 33.054C105.424 33.774 105.796 34.818 105.796 36.186V42H104.176V36.42C104.176 35.436 103.93 34.686 103.438 34.17C102.946 33.642 102.274 33.378 101.422 33.378C100.558 33.378 99.8683 33.648 99.3523 34.188C98.8483 34.728 98.5963 35.514 98.5963 36.546V42H96.9583V32.136H98.5963V33.54C98.9203 33.036 99.3583 32.646 99.9103 32.37C100.474 32.094 101.092 31.956 101.764 31.956Z" fill="white"/>
</svg>
